<?xml version="1.0" encoding="UTF-8" standalone="no"?>
<!-- Created with Inkscape (http://www.inkscape.org/) -->

<svg
   width="590"
   height="370"
   viewBox="0 0 156.10416 97.895833"
   version="1.1"
   id="svg5"
   inkscape:version="1.1.2 (0a00cf5339, 2022-02-04)"
   sodipodi:docname="logo en cours.svg"
   xmlns:inkscape="http://www.inkscape.org/namespaces/inkscape"
   xmlns:sodipodi="http://sodipodi.sourceforge.net/DTD/sodipodi-0.dtd"
   xmlns="http://www.w3.org/2000/svg"
   xmlns:svg="http://www.w3.org/2000/svg">
  <sodipodi:namedview
     id="namedview7"
     pagecolor="#ffffff"
     bordercolor="#666666"
     borderopacity="1.0"
     inkscape:pageshadow="2"
     inkscape:pageopacity="0.0"
     inkscape:pagecheckerboard="0"
     inkscape:document-units="px"
     showgrid="false"
     inkscape:zoom="1.9237288"
     inkscape:cx="437.95154"
     inkscape:cy="182.71806"
     inkscape:window-width="1920"
     inkscape:window-height="1017"
     inkscape:window-x="0"
     inkscape:window-y="33"
     inkscape:window-maximized="1"
     inkscape:current-layer="layer1"
     units="px"
     fit-margin-top="0"
     fit-margin-left="0"
     fit-margin-right="0"
     fit-margin-bottom="0"
     inkscape:showpageshadow="false"
     showborder="true"
     showguides="true"
     inkscape:guide-bbox="true"
     width="590px" />
  <defs
     id="defs2" />
  <g
     inkscape:label="Calque 1"
     inkscape:groupmode="layer"
     id="layer1"
     transform="translate(125.57993,-10.566559)">
    <path
       id="path9183"
       style="opacity:1;fill:none;stroke:#8d5fd3;stroke-width:0.99978;stop-color:#000000;stop-opacity:1"
       d="M 589.50009 247.88875 L 589.50009 369.50012 L 0 369.50012 "
       transform="matrix(0.26458333,0,0,0.26458333,-125.57993,10.566559)" />
    <rect
       style="font-variation-settings:normal;opacity:1;fill:#f3ac29;fill-opacity:1;stroke:none;stroke-width:1.2685;stroke-linecap:butt;stroke-linejoin:miter;stroke-miterlimit:4;stroke-dasharray:5.07401, 1.2685;stroke-dashoffset:0;stroke-opacity:1;stop-color:#000000"
       id="rect18566"
       width="14.052165"
       height="28.003059"
       x="-8.3396416"
       y="10.56656" />
    <g
       id="g8750"
       transform="matrix(0.95042563,0,0,0.947248,-7.3855041,5.5424832)">
      <path
         id="path24462-6"
         style="font-style:italic;font-weight:300;font-size:16.9333px;line-height:1.25;font-family:Lato;-inkscape-font-specification:'Lato Light Italic';font-variation-settings:normal;letter-spacing:3.43958px;vector-effect:none;fill:#a52a2a;fill-opacity:1;stroke-width:0.180293;stroke-linecap:butt;stroke-linejoin:miter;stroke-miterlimit:4;stroke-dasharray:none;stroke-dashoffset:0;stroke-opacity:1;-inkscape-stroke:none;stop-color:#000000"
         d="m 33.268453,97.992232 c -0.0307,0.05394 -0.07299,0.08083 -0.126788,0.08083 -0.03847,0 -0.08655,-0.0231 -0.144098,-0.06928 -0.05376,-0.05 -0.128687,-0.103933 -0.224774,-0.161712 -0.09222,-0.06155 -0.20941,-0.115483 -0.351586,-0.161702 -0.142163,-0.05 -0.318913,-0.07507 -0.530246,-0.07507 -0.195959,0 -0.382313,0.03267 -0.559062,0.09816 -0.172901,0.06548 -0.324682,0.153987 -0.455317,0.265648 -0.1268,0.107739 -0.228621,0.234862 -0.305473,0.381169 -0.07299,0.14245 -0.109492,0.294531 -0.109492,0.456232 0,0.157856 0.0365,0.290686 0.109492,0.398491 0.07299,0.107739 0.169055,0.202133 0.288187,0.282982 0.122928,0.07703 0.259358,0.144367 0.409204,0.202133 0.153692,0.05774 0.31123,0.115483 0.472615,0.173249 0.161386,0.05774 0.317002,0.123199 0.466847,0.196358 0.153692,0.0693 0.290096,0.15399 0.409216,0.25411 0.122929,0.10013 0.220939,0.2233 0.293944,0.36961 0.07299,0.14245 0.109493,0.31571 0.109493,0.51976 0,0.24641 -0.04994,0.48512 -0.149858,0.71611 -0.09605,0.23101 -0.23629,0.437 -0.420731,0.61795 -0.180596,0.17711 -0.399613,0.31956 -0.657047,0.42736 -0.253588,0.10774 -0.537927,0.1617 -0.853006,0.1617 -0.368872,0 -0.680103,-0.0635 -0.933691,-0.19056 -0.249754,-0.13091 -0.464935,-0.30032 -0.645532,-0.50823 l 0.13833,-0.19635 c 0.04229,-0.0616 0.09408,-0.0924 0.155615,-0.0924 0.03846,0 0.08655,0.0309 0.1441,0.0924 0.05758,0.0616 0.136392,0.1309 0.236302,0.20791 0.09987,0.0731 0.22862,0.14052 0.386158,0.20213 0.157539,0.0616 0.355422,0.0924 0.593647,0.0924 0.230532,0 0.438019,-0.0366 0.622461,-0.10972 0.188277,-0.077 0.34774,-0.18093 0.478375,-0.31185 0.134482,-0.1309 0.238225,-0.28106 0.31123,-0.45047 0.07299,-0.17325 0.109494,-0.35613 0.109494,-0.54863 0,-0.1694 -0.0365,-0.31186 -0.109494,-0.42736 -0.07299,-0.11548 -0.170978,-0.2137 -0.293944,-0.29455 -0.119104,-0.0847 -0.255512,-0.15593 -0.409204,-0.21368 -0.149858,-0.0577 -0.305473,-0.11352 -0.466858,-0.16748 -0.161374,-0.0577 -0.318912,-0.11928 -0.472604,-0.18481 -0.149845,-0.06928 -0.28625,-0.152062 -0.409216,-0.248317 -0.119103,-0.09632 -0.215168,-0.213681 -0.288174,-0.352286 -0.07299,-0.138604 -0.109493,-0.308009 -0.109493,-0.508212 0,-0.223313 0.04796,-0.436993 0.144074,-0.641041 0.09605,-0.207907 0.230555,-0.390789 0.403458,-0.548644 0.172902,-0.161714 0.378478,-0.28877 0.616704,-0.381168 0.242072,-0.09632 0.505265,-0.144379 0.789604,-0.144379 0.322759,0 0.601328,0.05 0.835707,0.150165 0.238226,0.100128 0.449559,0.250254 0.634002,0.450458 z m -6.900399,0.392705 c 0,0.157857 -0.02109,0.30802 -0.06338,0.450471 -0.04229,0.14245 -0.11714,0.277208 -0.224774,0.404253 -0.10764,0.127055 -0.2536,0.248338 -0.438031,0.363832 -0.184441,0.111678 -0.420743,0.215611 -0.708931,0.311866 -0.288173,0.09238 -0.632066,0.177111 -1.031664,0.254101 -0.399612,0.0731 -0.868381,0.13859 -1.406308,0.19636 -0.0074,0.0809 -0.0132,0.16168 -0.01726,0.24256 -0.0037,0.077 -0.0049,0.15399 -0.0049,0.231 0,0.57367 0.128711,1.0222 0.386146,1.34562 0.261283,0.32341 0.653213,0.48512 1.175777,0.48512 0.203641,0 0.386148,-0.0212 0.547533,-0.0635 0.16522,-0.0462 0.311231,-0.10393 0.438032,-0.17325 0.130635,-0.0693 0.243983,-0.14244 0.340045,-0.21945 0.09987,-0.077 0.188277,-0.15015 0.265129,-0.21946 0.07682,-0.0692 0.142175,-0.12512 0.195959,-0.16749 0.05758,-0.0462 0.109493,-0.0692 0.155615,-0.0692 0.04611,0 0.08643,0.0193 0.121079,0.0577 l 0.126801,0.15016 c -0.188277,0.20021 -0.372708,0.37346 -0.553292,0.51976 -0.176747,0.14245 -0.357343,0.25989 -0.541785,0.35229 -0.180596,0.0924 -0.368862,0.15979 -0.564821,0.20213 -0.195958,0.0462 -0.405368,0.0693 -0.62823,0.0693 -0.318913,0 -0.603252,-0.0519 -0.853005,-0.15594 -0.24592,-0.10774 -0.453408,-0.25796 -0.622475,-0.45045 -0.169054,-0.19636 -0.297779,-0.43314 -0.386146,-0.71035 -0.0884,-0.28105 -0.132571,-0.59484 -0.132571,-0.94135 0,-0.28877 0.02885,-0.57945 0.08643,-0.872054 0.05758,-0.292603 0.142152,-0.573669 0.253602,-0.843175 0.115285,-0.269505 0.255513,-0.521689 0.420731,-0.756537 0.169069,-0.234862 0.361192,-0.43891 0.576361,-0.612172 0.215169,-0.173262 0.453395,-0.309937 0.714677,-0.410038 0.261282,-0.100128 0.543697,-0.150154 0.847247,-0.150154 0.280492,0 0.516794,0.04042 0.708919,0.121252 0.195958,0.07703 0.353497,0.175166 0.472603,0.29453 0.122929,0.115483 0.211334,0.242552 0.265129,0.381157 0.05376,0.13476 0.08064,0.261814 0.08064,0.381168 z m -1.556166,-0.773873 c -0.307384,0 -0.585952,0.06548 -0.835707,0.19636 -0.245907,0.1309 -0.464922,0.306078 -0.657046,0.525534 -0.188277,0.215609 -0.34774,0.467791 -0.478375,0.756549 -0.1268,0.284912 -0.220939,0.583288 -0.282416,0.895155 0.48798,-0.05393 0.908724,-0.115483 1.262222,-0.18481 0.353497,-0.0731 0.6532,-0.148212 0.899119,-0.225228 0.245907,-0.08083 0.443789,-0.167464 0.593633,-0.259888 0.153692,-0.09238 0.272812,-0.186726 0.357345,-0.282982 0.08458,-0.100129 0.140253,-0.202133 0.167144,-0.30608 0.0307,-0.103933 0.04611,-0.211752 0.04611,-0.323414 0,-0.08083 -0.01923,-0.167463 -0.0577,-0.259874 -0.03465,-0.09632 -0.0942,-0.182881 -0.178672,-0.259887 -0.08458,-0.07703 -0.19597,-0.14052 -0.3343,-0.190584 -0.134481,-0.05393 -0.301612,-0.08083 -0.501419,-0.08083 z m -6.15691,0.381168 c -0.0307,0.05394 -0.07299,0.08083 -0.126801,0.08083 -0.03846,0 -0.08643,-0.0231 -0.144086,-0.06928 -0.05376,-0.05 -0.128686,-0.103933 -0.224773,-0.161712 -0.09222,-0.06155 -0.209411,-0.115483 -0.351588,-0.161702 -0.142163,-0.05 -0.318911,-0.07507 -0.530246,-0.07507 -0.195957,0 -0.382312,0.03267 -0.559061,0.09816 -0.172902,0.06548 -0.324682,0.153987 -0.455317,0.265648 -0.126801,0.107739 -0.228621,0.234862 -0.305473,0.381169 -0.07299,0.14245 -0.109494,0.294531 -0.109494,0.456232 0,0.157856 0.03649,0.290686 0.109494,0.398491 0.07299,0.107739 0.169055,0.202133 0.288174,0.282982 0.122929,0.07703 0.259359,0.144367 0.409216,0.202133 0.153691,0.05774 0.31123,0.115483 0.472617,0.173249 0.161386,0.05774 0.317001,0.123199 0.466845,0.196358 0.153692,0.0693 0.290098,0.15399 0.409217,0.25411 0.122929,0.10013 0.220926,0.2233 0.293931,0.36961 0.07299,0.14245 0.109494,0.31571 0.109494,0.51976 0,0.24641 -0.04993,0.48512 -0.149858,0.71611 -0.09605,0.23101 -0.236301,0.437 -0.420745,0.61795 -0.180594,0.17711 -0.399598,0.31956 -0.657033,0.42736 -0.253602,0.10774 -0.537941,0.1617 -0.853018,0.1617 -0.368874,0 -0.680103,-0.0635 -0.933692,-0.19056 -0.249758,-0.13091 -0.464926,-0.30033 -0.645522,-0.50824 l 0.138329,-0.19634 c 0.04229,-0.0616 0.09408,-0.0924 0.155615,-0.0924 0.03847,0 0.08655,0.0309 0.144087,0.0924 0.05758,0.0616 0.136393,0.13089 0.236314,0.20791 0.09987,0.0731 0.228608,0.14051 0.386148,0.20212 0.157538,0.0616 0.35542,0.0924 0.593646,0.0924 0.230543,0 0.438031,-0.0366 0.622473,-0.10972 0.188265,-0.077 0.347727,-0.18094 0.478375,-0.31186 0.134481,-0.1309 0.238226,-0.28106 0.311231,-0.45047 0.07299,-0.17324 0.109492,-0.35612 0.109492,-0.54863 0,-0.1694 -0.0365,-0.31186 -0.109492,-0.42735 -0.07299,-0.11549 -0.170978,-0.2137 -0.293945,-0.29456 -0.119103,-0.0847 -0.255523,-0.15591 -0.409215,-0.21367 -0.149846,-0.0577 -0.305461,-0.11352 -0.466847,-0.16748 -0.161385,-0.0577 -0.318924,-0.11929 -0.472616,-0.18481 -0.149845,-0.06928 -0.286251,-0.152064 -0.409204,-0.24832 -0.119104,-0.09632 -0.215169,-0.213681 -0.288173,-0.352287 -0.07299,-0.138603 -0.109494,-0.308008 -0.109494,-0.508211 0,-0.223313 0.04797,-0.436994 0.144086,-0.641041 0.09605,-0.207908 0.230545,-0.390789 0.403447,-0.548644 0.172901,-0.161713 0.378477,-0.288769 0.616703,-0.381168 0.242072,-0.09632 0.505278,-0.144379 0.789618,-0.144379 0.322759,0 0.601327,0.05 0.835706,0.150165 0.238226,0.100128 0.449559,0.250254 0.63399,0.450457 z m -7.03296,-0.704569 -0.697389,5.746277 h -0.536005 l 0.697391,-5.746277 z m 0.420745,-1.98088 c 0,0.06928 -0.01541,0.134734 -0.04611,0.196345 -0.02688,0.05774 -0.06338,0.109715 -0.109493,0.15594 -0.04611,0.0462 -0.09987,0.0828 -0.161375,0.109714 -0.05758,0.02691 -0.117126,0.04042 -0.178671,0.04042 -0.06534,0 -0.126826,-0.01351 -0.184443,-0.04042 -0.05758,-0.02691 -0.107517,-0.06352 -0.149844,-0.109714 -0.04229,-0.0462 -0.07682,-0.09817 -0.1037,-0.15594 -0.02688,-0.06155 -0.04032,-0.127043 -0.04032,-0.196345 0,-0.06928 0.01344,-0.134747 0.04032,-0.196359 0.02688,-0.06155 0.0614,-0.115482 0.1037,-0.1617 0.04611,-0.05 0.09802,-0.08858 0.155615,-0.115483 0.05758,-0.02691 0.119104,-0.04042 0.18443,-0.04042 0.06153,0 0.12108,0.01352 0.178673,0.04042 0.06152,0.02691 0.115286,0.06352 0.161385,0.109714 0.04611,0.0462 0.08261,0.10197 0.109493,0.167488 0.02688,0.06155 0.04032,0.127043 0.04032,0.196358 z M 6.2258862,103.03394 H 5.9607568 c -0.076809,0 -0.1287236,-0.0212 -0.1556029,-0.0635 -0.02688,-0.0424 -0.040319,-0.0904 -0.040319,-0.14438 l 0.1959586,-1.79031 c -0.1460111,0.30801 -0.3073837,0.591 -0.484133,0.84896 -0.1729137,0.25409 -0.3592682,0.47163 -0.5590735,0.65259 -0.1998052,0.18095 -0.4092036,0.32148 -0.6282195,0.42159 -0.2190148,0.10012 -0.4457252,0.15014 -0.6801028,0.15014 -0.2382256,0 -0.4495594,-0.0462 -0.6339907,-0.13859 -0.1805946,-0.0963 -0.3323631,-0.23101 -0.4553292,-0.40426 -0.1191036,-0.17326 -0.2094106,-0.38309 -0.2708869,-0.62949 -0.061527,-0.24641 -0.092225,-0.52362 -0.092225,-0.83163 0,-0.33496 0.042295,-0.66222 0.1268003,-0.98178 0.088407,-0.323415 0.2094107,-0.629495 0.3631025,-0.918251 0.1536925,-0.28872 0.3381348,-0.554381 0.553303,-0.796932 0.2151695,-0.242551 0.453395,-0.452386 0.7146765,-0.629494 0.2612828,-0.177106 0.5398639,-0.315711 0.8357191,-0.415813 0.2958552,-0.100128 0.6013281,-0.150152 0.9164063,-0.150152 0.226709,0 0.439954,0.02113 0.639747,0.06352 0.203653,0.03845 0.4015473,0.107738 0.593659,0.207895 z m -2.4379857,-0.38115 c 0.2190159,0 0.4341963,-0.0616 0.645518,-0.18481 0.2113351,-0.12321 0.4130636,-0.29646 0.6051758,-0.51976 0.1959587,-0.22332 0.3784777,-0.49089 0.5475326,-0.80276 0.1690671,-0.31569 0.320848,-0.66413 0.4553292,-1.0453 l 0.2939442,-2.362039 c -0.2267091,-0.07703 -0.4706922,-0.115482 -0.731975,-0.115482 -0.3842352,0 -0.7511856,0.09435 -1.1008485,0.282983 -0.3496506,0.188655 -0.6570344,0.440838 -0.9221625,0.75655 -0.2651293,0.315711 -0.476451,0.677628 -0.6339906,1.085739 -0.1575386,0.408109 -0.2363146,0.831609 -0.2363146,1.270539 0,0.51591 0.086431,0.91824 0.2593719,1.207 0.1767492,0.28492 0.4495471,0.42736 0.8184195,0.42736 z m -7.3038465,-0.5833 v -0.0867 c 0.00369,-0.0346 0.0074,-0.0867 0.011095,-0.15592 0.0074,-0.0693 0.017015,-0.15784 0.028852,-0.26566 0.011095,-0.11168 0.028852,-0.25218 0.051909,-0.42159 l 0.3919188,-3.262959 h -0.7550197 c -0.038469,0 -0.069171,-0.01104 -0.092228,-0.03465 -0.023058,-0.0231 -0.030825,-0.05577 -0.023058,-0.09816 l 0.028852,-0.213681 0.9048771,-0.06928 0.3804012,-2.055957 c 0.0074,-0.03465 0.02466,-0.06547 0.051909,-0.09238 0.026879,-0.02691 0.059553,-0.04042 0.098022,-0.04042 h 0.2651294 l -0.2708997,2.194561 h 1.65990976 l -0.0461123,0.410039 H -2.4902978 l -0.3976877,3.245637 c -0.019234,0.15786 -0.036497,0.28684 -0.051909,0.38693 -0.011095,0.10013 -0.021084,0.18288 -0.028852,0.24834 -0.00369,0.0616 -0.0074,0.10774 -0.011095,0.1386 v 0.0693 c 0,0.25026 0.057703,0.43121 0.1729142,0.54286 0.1191072,0.11168 0.2708873,0.16749 0.4553175,0.16749 0.1268005,0 0.2382255,-0.0193 0.3342876,-0.0577 0.099872,-0.0424 0.1863537,-0.0867 0.2593588,-0.13283 0.072993,-0.05 0.1325462,-0.0943 0.1786721,-0.13283 0.046113,-0.0424 0.080638,-0.0635 0.1036953,-0.0635 0.038465,0 0.067321,0.0193 0.086431,0.0577 l 0.1037001,0.24257 c -0.1536919,0.1617 -0.3400627,0.2926 -0.5590783,0.3927 -0.2190155,0.0963 -0.4380187,0.14438 -0.6570342,0.14438 -0.3150776,0 -0.562908,-0.0867 -0.7435037,-0.25987 -0.1767509,-0.17327 -0.2670549,-0.43892 -0.2708895,-0.79698 z m -3.7650252,-3.684553 c 0,0.157857 -0.021084,0.30802 -0.063375,0.450471 -0.042291,0.14245 -0.1171336,0.277208 -0.224786,0.404253 -0.107516,0.127055 -0.2535885,0.248338 -0.4380311,0.363832 -0.1844301,0.111678 -0.4207322,0.215611 -0.708906,0.311866 -0.288186,0.09238 -0.6320786,0.177111 -1.0316775,0.254101 -0.3996112,0.0731 -0.8683802,0.13859 -1.4063202,0.19636 -0.0074,0.0809 -0.01319,0.16168 -0.01726,0.24256 -0.0037,0.077 -0.0049,0.15399 -0.0049,0.231 0,0.57367 0.128724,1.0222 0.386159,1.34562 0.261283,0.32341 0.6532,0.48512 1.1757646,0.48512 0.2036524,0 0.3861592,-0.0212 0.547545,-0.0635 0.1652201,-0.0462 0.3112305,-0.10393 0.4380309,-0.17325 0.130635,-0.0693 0.2439836,-0.14244 0.3400456,-0.21945 0.099872,-0.077 0.1882649,-0.15015 0.265117,-0.21946 0.076815,-0.0692 0.1421758,-0.12512 0.195971,-0.16749 0.057581,-0.0462 0.1094895,-0.0692 0.1556152,-0.0692 0.046113,0 0.086432,0.0193 0.1210796,0.0577 l 0.1268005,0.15016 c -0.1882773,0.20021 -0.3727074,0.37346 -0.553303,0.51976 -0.1767488,0.14245 -0.3573444,0.25989 -0.5417747,0.35229 -0.1805957,0.0924 -0.3688727,0.15979 -0.5648314,0.20213 -0.1959587,0.0462 -0.4053694,0.0693 -0.6282193,0.0693 -0.318924,0 -0.603264,-0.0519 -0.853018,-0.15594 -0.245905,-0.10775 -0.453392,-0.25796 -0.62246,-0.45046 -0.169054,-0.19636 -0.297778,-0.43314 -0.386159,-0.71034 -0.0884,-0.28106 -0.132558,-0.59484 -0.132558,-0.94135 0,-0.28877 0.02885,-0.57946 0.08643,-0.872061 0.05758,-0.292602 0.142163,-0.573668 0.253613,-0.843175 0.115284,-0.269505 0.255512,-0.521689 0.420732,-0.756537 0.169068,-0.234861 0.361192,-0.438909 0.57636,-0.612172 0.215169,-0.17326 0.4533942,-0.309936 0.7146765,-0.410038 0.2612824,-0.100128 0.543698,-0.150153 0.8472472,-0.150153 0.2804922,0 0.5168066,0.04042 0.7089183,0.121251 0.1959588,0.07703 0.3534975,0.175166 0.4726041,0.294532 0.1229289,0.115482 0.211334,0.242552 0.2651293,0.381155 0.053758,0.13476 0.080638,0.261816 0.080638,0.381168 z m -1.5561532,-0.773873 c -0.3073961,0 -0.5859773,0.06548 -0.8357189,0.19636 -0.2459193,0.1309 -0.4649347,0.306078 -0.6570587,0.525534 -0.188265,0.215609 -0.347727,0.467791 -0.478362,0.756549 -0.126801,0.284912 -0.220939,0.583288 -0.282416,0.895155 0.487979,-0.05393 0.908712,-0.115483 1.2622092,-0.18481 0.3534974,-0.0731 0.6531996,-0.148212 0.8991189,-0.225228 0.2459193,-0.08083 0.4438015,-0.167464 0.5936588,-0.259888 0.1536917,-0.09238 0.2727984,-0.186726 0.3573319,-0.282982 0.084583,-0.100129 0.1402524,-0.202133 0.1671438,-0.30608 0.030701,-0.103933 0.046113,-0.211752 0.046113,-0.323414 0,-0.08083 -0.019234,-0.167463 -0.057703,-0.259874 -0.034648,-0.09632 -0.0942,-0.182881 -0.1786722,-0.259887 -0.084583,-0.07703 -0.1959587,-0.14052 -0.3342752,-0.190584 -0.1344819,-0.05393 -0.3016257,-0.08083 -0.5014313,-0.08083 z m -7.5344156,5.422876 1.014379,-8.402857 h 0.536017 l -1.02015,8.402857 z m -6.231838,-0.35805 c 0.334287,0 0.637836,-0.0867 0.910647,-0.25989 0.276646,-0.1771 0.51296,-0.41003 0.708918,-0.6988 0.195959,-0.2926 0.345804,-0.62563 0.44956,-0.9991 0.10764,-0.37731 0.161374,-0.764238 0.161374,-1.1608 0,-0.616017 -0.136406,-1.089584 -0.409216,-1.420689 -0.272799,-0.331105 -0.651277,-0.496663 -1.135422,-0.496663 -0.334287,0 -0.63976,0.08662 -0.916405,0.259874 -0.272811,0.173261 -0.50719,0.404264 -0.703148,0.693022 -0.192124,0.284912 -0.341982,0.614088 -0.449559,0.987553 -0.10764,0.373465 -0.161386,0.762323 -0.161386,1.166593 0,0.61217 0.134481,1.08766 0.403445,1.42646 0.272812,0.33496 0.653212,0.50244 1.141192,0.50244 z m -0.04611,0.43313 c -0.307396,0 -0.587889,-0.0539 -0.841478,-0.1617 -0.249753,-0.10775 -0.464922,-0.26373 -0.645517,-0.46779 -0.176749,-0.20405 -0.315078,-0.45046 -0.414974,-0.73921 -0.09605,-0.29261 -0.1441,-0.62373 -0.1441,-0.99333 0,-0.46587 0.06917,-0.912481 0.207487,-1.339842 0.138329,-0.427363 0.332364,-0.804673 0.58213,-1.131931 0.253589,-0.32726 0.553291,-0.587147 0.899107,-0.779647 0.345816,-0.196359 0.726205,-0.294544 1.141191,-0.294544 0.307384,0 0.585953,0.05394 0.835707,0.161713 0.253601,0.107861 0.468782,0.263731 0.645531,0.467781 0.180583,0.20406 0.318912,0.452399 0.414974,0.745001 0.09987,0.288758 0.149844,0.614088 0.149844,0.976005 0,0.465864 -0.07102,0.912474 -0.213244,1.339834 -0.13833,0.42737 -0.332377,0.80661 -0.582119,1.13771 -0.249754,0.32726 -0.547545,0.58907 -0.89336,0.78543 -0.345817,0.19635 -0.726205,0.29452 -1.141179,0.29452 z m -10.312424,-0.0751 1.01438,-8.402857 h 0.541774 l -0.530247,4.389122 c 0.153692,-0.288757 0.322759,-0.544785 0.507191,-0.768099 0.188276,-0.227156 0.384235,-0.41774 0.587888,-0.571739 0.207486,-0.157855 0.418821,-0.277208 0.633989,-0.358059 0.215169,-0.08083 0.432261,-0.121252 0.651277,-0.121252 0.249766,0 0.46301,0.04816 0.63976,0.144379 0.176749,0.09631 0.317001,0.23679 0.420745,0.421586 0.103699,0.184811 0.170978,0.411968 0.201716,0.681474 0.03465,0.265661 0.03095,0.569824 -0.01104,0.912478 l -0.432261,3.673007 h -0.541774 l 0.432261,-3.673007 c 0.06534,-0.546715 0.02885,-0.966387 -0.109493,-1.258989 -0.138329,-0.29646 -0.397689,-0.444684 -0.778077,-0.444684 -0.2075,0 -0.418821,0.05393 -0.633989,0.161701 -0.215181,0.103934 -0.424592,0.256029 -0.628232,0.456245 -0.199805,0.196358 -0.390007,0.435064 -0.570603,0.716119 -0.180596,0.281054 -0.340044,0.594836 -0.478374,0.941347 l -0.374631,3.101268 z m -3.44229,-1.05108 c -0.203652,0.22716 -0.397687,0.41389 -0.582118,0.5602 -0.180595,0.14631 -0.359256,0.2618 -0.536004,0.34651 -0.172902,0.0848 -0.34965,0.14246 -0.530245,0.17326 -0.180596,0.0308 -0.372721,0.0462 -0.576361,0.0462 -0.330453,0 -0.618627,-0.0558 -0.864533,-0.16748 -0.242073,-0.11548 -0.443802,-0.27529 -0.605175,-0.47934 -0.161387,-0.20406 -0.282417,-0.44662 -0.363103,-0.72768 -0.08076,-0.28106 -0.121079,-0.58713 -0.121079,-0.91825 0,-0.30416 0.0307,-0.60446 0.09222,-0.900918 0.06534,-0.300317 0.157564,-0.585217 0.276658,-0.854722 0.119104,-0.269506 0.263206,-0.517844 0.432261,-0.745002 0.169067,-0.227158 0.359268,-0.423516 0.570602,-0.589062 0.211321,-0.165559 0.439942,-0.294545 0.685862,-0.386943 0.249754,-0.09631 0.514883,-0.144379 0.795375,-0.144379 0.188264,0 0.357332,0.0193 0.50719,0.05774 0.153692,0.03465 0.293944,0.08662 0.420731,0.155927 0.126801,0.06547 0.242072,0.146295 0.345816,0.242564 0.103699,0.09631 0.199806,0.204048 0.288186,0.323402 l -0.161385,0.190584 c -0.03465,0.04238 -0.07496,0.06352 -0.121079,0.06352 -0.03847,0 -0.08643,-0.03083 -0.144076,-0.09238 -0.05376,-0.06155 -0.128687,-0.127043 -0.224786,-0.196346 -0.09222,-0.0731 -0.213257,-0.14052 -0.363102,-0.202132 -0.149857,-0.06155 -0.338135,-0.09238 -0.564831,-0.09238 -0.322759,0 -0.624384,0.08662 -0.904877,0.259874 -0.276645,0.173262 -0.518717,0.406194 -0.726204,0.698796 -0.203654,0.292603 -0.365027,0.631423 -0.484146,1.016436 -0.115286,0.381161 -0.172901,0.779651 -0.172901,1.195451 0,0.26566 0.02885,0.51207 0.08643,0.73923 0.06153,0.22716 0.153705,0.42352 0.276646,0.58906 0.1268,0.16556 0.284339,0.29454 0.472603,0.38694 0.18829,0.0924 0.41114,0.13861 0.668575,0.13861 0.203653,0 0.38616,-0.0211 0.547545,-0.0635 0.161374,-0.0462 0.303537,-0.10196 0.426503,-0.16748 0.1268,-0.0655 0.236314,-0.13665 0.328529,-0.21367 0.09605,-0.0809 0.180584,-0.15399 0.253589,-0.21946 0.07299,-0.0655 0.13447,-0.11928 0.184429,-0.16171 0.05376,-0.0462 0.101848,-0.0692 0.1441,-0.0692 0.04229,0 0.08261,0.0193 0.12108,0.0577 l 0.12108,0.15015 z m -11.996833,-3.990637 c -0.0307,0.05394 -0.07299,0.08083 -0.1268,0.08083 -0.03847,0 -0.08655,-0.0231 -0.144075,-0.06928 -0.05376,-0.05 -0.128687,-0.103933 -0.224785,-0.161712 -0.09222,-0.06155 -0.209411,-0.115484 -0.351574,-0.161703 -0.142176,-0.05 -0.318925,-0.07507 -0.530247,-0.07507 -0.195959,0 -0.382323,0.03267 -0.559073,0.09816 -0.172901,0.06548 -0.324682,0.153986 -0.455317,0.265648 -0.126801,0.107739 -0.228621,0.234862 -0.30546,0.381169 -0.07299,0.14245 -0.109494,0.294532 -0.109494,0.456232 0,0.157856 0.0365,0.290686 0.109494,0.398491 0.07299,0.107739 0.169054,0.202133 0.288173,0.282983 0.122929,0.07703 0.259359,0.144367 0.409204,0.202133 0.153692,0.05774 0.31123,0.115482 0.472615,0.173248 0.161387,0.05774 0.317002,0.1232 0.466847,0.196358 0.153692,0.0693 0.290097,0.15399 0.409217,0.25411 0.122929,0.10013 0.220938,0.2233 0.293944,0.36961 0.07299,0.14245 0.109493,0.31572 0.109493,0.51976 0,0.24641 -0.04994,0.48512 -0.149845,0.71612 -0.09605,0.231 -0.236315,0.43699 -0.420745,0.61794 -0.180595,0.17711 -0.399612,0.31956 -0.657047,0.42737 -0.253588,0.10773 -0.537927,0.16169 -0.853005,0.16169 -0.368872,0 -0.680103,-0.0635 -0.933704,-0.19056 -0.249754,-0.13091 -0.464923,-0.30032 -0.645505,-0.50823 l 0.138315,-0.19635 c 0.04229,-0.0616 0.09408,-0.0924 0.155615,-0.0924 0.03847,0 0.08655,0.0308 0.1441,0.0924 0.05758,0.0616 0.136394,0.13089 0.236302,0.20791 0.09987,0.0731 0.228621,0.14052 0.386159,0.20213 0.157539,0.0616 0.355422,0.0924 0.593647,0.0924 0.230544,0 0.438031,-0.0366 0.622461,-0.10972 0.188276,-0.077 0.34774,-0.18093 0.478375,-0.31185 0.134482,-0.1309 0.238225,-0.28106 0.311229,-0.45047 0.07299,-0.17325 0.109494,-0.35613 0.109494,-0.54863 0,-0.1694 -0.0365,-0.31187 -0.109494,-0.42736 -0.07299,-0.11548 -0.170978,-0.2137 -0.293943,-0.29455 -0.119104,-0.0846 -0.255512,-0.15593 -0.409204,-0.21368 -0.149858,-0.0577 -0.305473,-0.11352 -0.466846,-0.16748 -0.161386,-0.0577 -0.318924,-0.11928 -0.472616,-0.18481 -0.149858,-0.06928 -0.286262,-0.152061 -0.409216,-0.248317 -0.119104,-0.09632 -0.215169,-0.213681 -0.288175,-0.352286 -0.07299,-0.138604 -0.109492,-0.308008 -0.109492,-0.508211 0,-0.223313 0.04809,-0.436994 0.144098,-0.641043 0.09605,-0.207906 0.230531,-0.390788 0.403447,-0.548643 0.172901,-0.161714 0.378465,-0.28877 0.61669,-0.381168 0.242072,-0.09632 0.505278,-0.144378 0.789617,-0.144378 0.322759,0 0.601328,0.05 0.835707,0.150164 0.238225,0.100129 0.44956,0.250255 0.634001,0.450458 z m -6.9004,0.392705 c 0,0.157856 -0.02109,0.308021 -0.06338,0.450472 -0.04229,0.142449 -0.11714,0.277207 -0.224774,0.404251 -0.107639,0.127056 -0.253588,0.248338 -0.438031,0.363833 -0.18443,0.111678 -0.420732,0.21561 -0.708918,0.311866 -0.288173,0.09238 -0.632066,0.17711 -1.031677,0.2541 -0.399599,0.0731 -0.868368,0.13859 -1.406309,0.19636 -0.0074,0.0809 -0.0132,0.16168 -0.01726,0.24256 -0.0036,0.077 -0.0062,0.15399 -0.0062,0.231 0,0.57367 0.128712,1.0222 0.386148,1.34562 0.261283,0.32341 0.653212,0.48511 1.175777,0.48511 0.203639,0 0.386145,-0.0211 0.547532,-0.0635 0.165221,-0.0462 0.31123,-0.10393 0.438031,-0.17325 0.130648,-0.0692 0.243996,-0.14244 0.340045,-0.21945 0.09987,-0.077 0.188278,-0.15015 0.265129,-0.21946 0.07682,-0.0693 0.142177,-0.12512 0.195959,-0.16749 0.05758,-0.0462 0.109493,-0.0693 0.155615,-0.0693 0.04611,0 0.08643,0.0193 0.121079,0.0577 l 0.126801,0.15016 c -0.188289,0.20021 -0.372719,0.37346 -0.553302,0.51977 -0.17675,0.14244 -0.357346,0.25989 -0.541787,0.35228 -0.180584,0.0924 -0.36886,0.15979 -0.564819,0.20213 -0.195959,0.0462 -0.40537,0.0693 -0.628232,0.0693 -0.318913,0 -0.603252,-0.0519 -0.853006,-0.15594 -0.245918,-0.10774 -0.453406,-0.25796 -0.622461,-0.45045 -0.169067,-0.19636 -0.297792,-0.43314 -0.38616,-0.71034 -0.0884,-0.28106 -0.13257,-0.59485 -0.13257,-0.94136 0,-0.28877 0.02885,-0.57945 0.08643,-0.872053 0.05758,-0.292602 0.142151,-0.573669 0.2536,-0.843175 0.115287,-0.269506 0.255512,-0.52169 0.420733,-0.756538 0.169067,-0.234861 0.361191,-0.438909 0.576359,-0.612171 0.215169,-0.173261 0.453394,-0.309937 0.714676,-0.410038 0.261283,-0.100129 0.543699,-0.150153 0.847248,-0.150153 0.280492,0 0.516806,0.04041 0.708918,0.121263 0.195959,0.07703 0.353498,0.175166 0.472617,0.294531 0.122928,0.115483 0.211321,0.242552 0.265117,0.381156 0.05376,0.134759 0.08064,0.261815 0.08064,0.381168 z M -56.8576,97.611036 c -0.307384,0 -0.585953,0.06548 -0.835707,0.196358 -0.24592,0.130901 -0.464935,0.306079 -0.657047,0.525535 -0.188277,0.215608 -0.34774,0.467792 -0.478374,0.756549 -0.1268,0.284912 -0.22094,0.583288 -0.282416,0.895154 0.48798,-0.05393 0.908724,-0.115482 1.262222,-0.184809 0.353497,-0.0731 0.653199,-0.148212 0.899105,-0.225229 0.245921,-0.08083 0.443803,-0.167463 0.59366,-0.259887 0.153691,-0.09238 0.272811,-0.186727 0.357332,-0.282982 0.08458,-0.100129 0.140252,-0.202133 0.167144,-0.30608 0.0307,-0.103933 0.04611,-0.211752 0.04611,-0.323415 0,-0.08083 -0.01923,-0.167462 -0.0577,-0.259873 -0.03465,-0.09632 -0.0942,-0.182881 -0.17866,-0.259887 -0.08458,-0.07703 -0.195959,-0.14052 -0.334287,-0.190585 -0.134481,-0.05393 -0.301638,-0.08083 -0.501444,-0.08083 z m -11.119327,5.422874 0.685862,-5.763611 h 0.247842 c 0.134482,0 0.201718,0.06928 0.201718,0.207907 l -0.167144,1.657478 c 0.157538,-0.304162 0.330453,-0.575598 0.518718,-0.814303 0.192124,-0.242552 0.391929,-0.446614 0.599416,-0.61216 0.211322,-0.165558 0.428414,-0.290685 0.651276,-0.375393 0.226709,-0.08858 0.453407,-0.132831 0.680104,-0.132831 0.245919,0 0.455329,0.04816 0.628232,0.144379 0.176748,0.09631 0.316988,0.236789 0.420732,0.421587 0.10764,0.18481 0.176748,0.411968 0.207486,0.681473 0.03465,0.265661 0.03095,0.569824 -0.01104,0.912476 l -0.432273,3.672998 h -0.541773 l 0.432273,-3.672998 c 0.06534,-0.546714 0.02885,-0.966384 -0.109494,-1.258987 -0.138328,-0.292602 -0.397688,-0.438909 -0.778077,-0.438909 -0.215168,0 -0.432273,0.05577 -0.651288,0.167475 -0.219016,0.107738 -0.430337,0.263743 -0.63399,0.467793 -0.20364,0.200203 -0.395752,0.444683 -0.576348,0.733441 -0.180595,0.284911 -0.340045,0.606396 -0.478374,0.964456 l -0.351586,3.037729 z m -7.929193,0 0.685862,-5.763611 h 0.24783 c 0.134481,0 0.201729,0.06928 0.201729,0.207907 l -0.167144,1.657478 c 0.15754,-0.304162 0.330441,-0.575598 0.518718,-0.814303 0.192112,-0.242552 0.391917,-0.446614 0.599404,-0.61216 0.211334,-0.165558 0.428427,-0.290685 0.65129,-0.375393 0.226696,-0.08858 0.453393,-0.132831 0.68009,-0.132831 0.24592,0 0.455331,0.04816 0.628232,0.144379 0.176749,0.09631 0.317001,0.236789 0.420744,0.421587 0.107518,0.18481 0.176749,0.411968 0.207488,0.681473 0.03465,0.265661 0.03095,0.569824 -0.01104,0.912476 l -0.432261,3.672998 h -0.541775 l 0.432261,-3.672998 c 0.06534,-0.546714 0.02885,-0.966384 -0.109493,-1.258987 -0.138329,-0.292602 -0.397688,-0.438909 -0.778088,-0.438909 -0.21517,0 -0.432261,0.05577 -0.651277,0.167475 -0.219017,0.107738 -0.430338,0.263743 -0.63399,0.467793 -0.203652,0.200203 -0.395764,0.444683 -0.576359,0.733441 -0.180596,0.284911 -0.340047,0.606396 -0.478375,0.964456 l -0.351575,3.037729 z m -3.355822,-4.649002 c 0,0.157856 -0.02109,0.308021 -0.06338,0.450472 -0.04229,0.142449 -0.117126,0.277207 -0.224773,0.404251 -0.107517,0.127056 -0.253589,0.248338 -0.43803,0.363833 -0.184431,0.111678 -0.420733,0.21561 -0.708919,0.311866 -0.288174,0.09238 -0.632066,0.17711 -1.031679,0.2541 -0.399598,0.0731 -0.868368,0.13859 -1.406307,0.19636 -0.0074,0.0809 -0.0132,0.16168 -0.01726,0.24256 -0.0037,0.077 -0.0062,0.15399 -0.0062,0.231 0,0.57367 0.128724,1.0222 0.38616,1.34562 0.261281,0.32341 0.653199,0.48511 1.175763,0.48511 0.20364,0 0.386148,-0.0211 0.547534,-0.0635 0.165219,-0.0462 0.31123,-0.10393 0.43803,-0.17325 0.130635,-0.0692 0.243983,-0.14244 0.340046,-0.21945 0.09987,-0.077 0.188278,-0.15015 0.26513,-0.21946 0.07681,-0.0693 0.142175,-0.12512 0.195958,-0.16749 0.05758,-0.0462 0.109493,-0.0693 0.155615,-0.0693 0.04611,0 0.08643,0.0193 0.12108,0.0577 l 0.126788,0.15016 c -0.188278,0.20021 -0.372708,0.37346 -0.553292,0.51977 -0.176747,0.14244 -0.357343,0.25989 -0.541773,0.35228 -0.180596,0.0924 -0.368874,0.15979 -0.564833,0.20213 -0.195958,0.0462 -0.405368,0.0693 -0.628231,0.0693 -0.318912,0 -0.603251,-0.0519 -0.853004,-0.15594 -0.245921,-0.10774 -0.453408,-0.25796 -0.622462,-0.45045 -0.169068,-0.19636 -0.297792,-0.43314 -0.386159,-0.71034 -0.0884,-0.28106 -0.132559,-0.59485 -0.132559,-0.94136 0,-0.28877 0.02885,-0.57945 0.08643,-0.872053 0.05758,-0.292602 0.142152,-0.573669 0.253603,-0.843175 0.115286,-0.269506 0.255511,-0.52169 0.420732,-0.756538 0.169067,-0.234861 0.361191,-0.438909 0.576359,-0.612171 0.215168,-0.173261 0.453407,-0.309937 0.714689,-0.410038 0.261282,-0.100129 0.543685,-0.150153 0.847235,-0.150153 0.280492,0 0.516806,0.04041 0.708919,0.121263 0.195958,0.07703 0.353497,0.175166 0.472616,0.294531 0.122928,0.115483 0.211322,0.242552 0.265116,0.381156 0.05376,0.134759 0.08064,0.261815 0.08064,0.381168 z m -1.556153,-0.773872 c -0.307396,0 -0.585964,0.06548 -0.835718,0.196358 -0.24592,0.130901 -0.464936,0.306079 -0.657047,0.525535 -0.188278,0.215608 -0.34774,0.467792 -0.478374,0.756549 -0.1268,0.284912 -0.22094,0.583288 -0.282416,0.895154 0.487979,-0.05393 0.908724,-0.115482 1.262222,-0.184809 0.353497,-0.0731 0.653198,-0.148212 0.899106,-0.225229 0.245919,-0.08083 0.443801,-0.167463 0.593646,-0.259887 0.153692,-0.09238 0.272812,-0.186727 0.357345,-0.282982 0.08458,-0.100129 0.140252,-0.202133 0.167144,-0.30608 0.0307,-0.103933 0.04611,-0.211752 0.04611,-0.323415 0,-0.08083 -0.01923,-0.167462 -0.0577,-0.259873 -0.03465,-0.09632 -0.0942,-0.182881 -0.178671,-0.259887 -0.08458,-0.07703 -0.195959,-0.14052 -0.334288,-0.190585 -0.134482,-0.05393 -0.301627,-0.08083 -0.501432,-0.08083 z m -9.424839,7.294044 c -0.05376,0.10774 -0.132534,0.1617 -0.236314,0.1617 h -0.38616 l 1.21035,-2.24654 -1.538866,-5.532606 h 0.426502 c 0.05376,0 0.09408,0.01351 0.12108,0.04041 0.02688,0.0231 0.04414,0.05577 0.05191,0.09816 l 1.210348,4.469976 c 0.02306,0.11548 0.04032,0.23101 0.05191,0.34651 0.02306,-0.0577 0.04809,-0.11549 0.07496,-0.17325 0.02688,-0.0577 0.05376,-0.11548 0.08064,-0.17326 l 2.311182,-4.487298 c 0.01923,-0.04238 0.04611,-0.0731 0.08064,-0.09238 0.03465,-0.0193 0.06917,-0.02887 0.1037,-0.02887 h 0.420732 z m -7.009892,-2.22922 c 0.334282,0 0.637829,-0.0867 0.910632,-0.25989 0.276651,-0.1771 0.512965,-0.41002 0.708924,-0.69879 0.195959,-0.29261 0.345816,-0.62564 0.449559,-0.9991 0.107641,-0.37732 0.161385,-0.764247 0.161385,-1.160808 0,-0.616018 -0.136405,-1.089584 -0.409215,-1.42069 -0.272812,-0.331105 -0.65129,-0.496663 -1.135426,-0.496663 -0.334282,0 -0.639757,0.08662 -0.916406,0.259874 -0.272803,0.173262 -0.507187,0.404264 -0.703154,0.693022 -0.192119,0.284912 -0.341965,0.614088 -0.449555,0.987553 -0.10759,0.373465 -0.161376,0.762322 -0.161376,1.166592 0,0.61217 0.134479,1.08765 0.403444,1.42646 0.272812,0.33496 0.653205,0.50244 1.141188,0.50244 z m -0.04614,0.43313 c -0.307393,0 -0.58788,-0.0539 -0.841478,-0.16169 -0.249752,-0.10774 -0.464932,-0.26374 -0.645522,-0.4678 -0.176743,-0.20405 -0.315077,-0.45045 -0.414974,-0.73921 -0.09607,-0.29261 -0.14409,-0.62373 -0.14409,-0.99333 0,-0.46587 0.06916,-0.912479 0.207487,-1.339841 0.138325,-0.427362 0.332363,-0.804672 0.582115,-1.131931 0.253599,-0.327261 0.553308,-0.587147 0.89912,-0.779648 0.345812,-0.196358 0.726205,-0.294543 1.141188,-0.294543 0.307384,0 0.585957,0.05394 0.835711,0.161713 0.253588,0.107738 0.46877,0.263731 0.645517,0.467781 0.180596,0.204061 0.318914,0.452399 0.414975,0.745001 0.09987,0.288757 0.149858,0.614089 0.149858,0.976006 0,0.465862 -0.07114,0.912472 -0.213259,1.339842 -0.138327,0.42736 -0.332363,0.8066 -0.582116,1.13771 -0.249755,0.32725 -0.547533,0.58906 -0.89335,0.78541 -0.345815,0.19636 -0.726208,0.29453 -1.141182,0.29453 z m -7.759184,-1.03953 v -0.0867 c 0.004,-0.0346 0.007,-0.0866 0.0114,-0.15592 0.007,-0.0692 0.0172,-0.15784 0.0288,-0.26566 0.0114,-0.11168 0.0288,-0.25218 0.0519,-0.42159 l 0.39193,-3.262962 h -0.75502 c -0.0385,0 -0.0692,-0.01104 -0.0922,-0.03465 -0.023,-0.0231 -0.0307,-0.05577 -0.023,-0.09816 l 0.0288,-0.213681 0.90488,-0.06928 0.38039,-2.055957 c 0.007,-0.03465 0.0249,-0.06548 0.0519,-0.09238 0.0269,-0.02691 0.0595,-0.04042 0.098,-0.04042 h 0.26512 l -0.27089,2.194562 h 1.65991 l -0.0461,0.410039 h -1.6599 l -0.39769,3.245639 c -0.0192,0.15786 -0.0365,0.28684 -0.0518,0.38693 -0.0114,0.10013 -0.0212,0.18288 -0.0288,0.24834 -0.004,0.0616 -0.007,0.10774 -0.0114,0.1386 v 0.0693 c 0,0.25026 0.0576,0.43121 0.17291,0.54286 0.1191,0.11168 0.27088,0.16749 0.45532,0.16749 0.12679,0 0.23823,-0.0193 0.33429,-0.0577 0.0999,-0.0424 0.18635,-0.0867 0.25935,-0.13284 0.073,-0.05 0.13256,-0.0943 0.17867,-0.13283 0.0461,-0.0424 0.0807,-0.0635 0.10374,-0.0635 0.0385,0 0.0673,0.0193 0.0865,0.0577 l 0.10375,0.24257 c -0.15369,0.1617 -0.34005,0.2926 -0.55907,0.3927 -0.21901,0.0962 -0.43803,0.14438 -0.65705,0.14438 -0.31507,0 -0.5629,-0.0867 -0.7435,-0.25987 -0.17674,-0.17327 -0.26704,-0.43893 -0.27088,-0.79699 z m -3.89758,-4.781826 -0.69739,5.746276 h -0.53601 l 0.69738,-5.746276 z m 0.42074,-1.98088 c 0,0.06928 -0.0154,0.134735 -0.0461,0.196345 -0.0269,0.05773 -0.0634,0.109715 -0.10952,0.155939 -0.0461,0.0462 -0.0999,0.0828 -0.16139,0.109715 -0.0576,0.02691 -0.1172,0.04042 -0.17867,0.04042 -0.0653,0 -0.12679,-0.01351 -0.18442,-0.04042 -0.0576,-0.02691 -0.10759,-0.06352 -0.14986,-0.109715 -0.0423,-0.04619 -0.0768,-0.09816 -0.10373,-0.155939 -0.0269,-0.06155 -0.0403,-0.127043 -0.0403,-0.196345 0,-0.06928 0.0135,-0.134748 0.0403,-0.196358 0.0269,-0.06155 0.0615,-0.115484 0.10373,-0.161701 0.0461,-0.05 0.098,-0.08858 0.15561,-0.115483 0.0576,-0.02691 0.11912,-0.04042 0.18444,-0.04042 0.0615,0 0.12103,0.01351 0.17867,0.04042 0.0615,0.02691 0.11527,0.06352 0.16138,0.109714 0.0461,0.0462 0.0826,0.101969 0.1095,0.167487 0.0269,0.06155 0.0403,0.127044 0.0403,0.19636 z m -5.15982,6.676076 c -0.20365,0.22716 -0.39769,0.41389 -0.58213,0.5602 -0.18059,0.14631 -0.35926,0.2618 -0.536,0.34651 -0.17291,0.0848 -0.34966,0.14246 -0.53025,0.17326 -0.1806,0.0308 -0.37272,0.0462 -0.57636,0.0462 -0.33044,0 -0.61862,-0.0558 -0.86454,-0.16748 -0.24206,-0.11548 -0.44379,-0.27529 -0.60516,-0.47934 -0.16139,-0.20405 -0.28242,-0.44661 -0.36311,-0.72767 -0.0807,-0.28105 -0.12103,-0.58714 -0.12103,-0.91825 0,-0.30416 0.0307,-0.60447 0.0922,-0.900927 0.0653,-0.300305 0.15753,-0.585218 0.27665,-0.854723 0.11911,-0.269505 0.2632,-0.517843 0.43227,-0.745002 0.16905,-0.227157 0.35926,-0.423516 0.57058,-0.589062 0.21133,-0.165559 0.43995,-0.294544 0.68587,-0.386942 0.24975,-0.09631 0.51488,-0.144379 0.79536,-0.144379 0.18829,0 0.35735,0.0193 0.5072,0.05773 0.15369,0.03465 0.29395,0.08662 0.42074,0.155939 0.12679,0.06548 0.24207,0.146296 0.34581,0.242552 0.10374,0.09631 0.19981,0.204061 0.28818,0.323414 l -0.16137,0.190573 c -0.0346,0.04238 -0.075,0.06352 -0.12103,0.06352 -0.0385,0 -0.0865,-0.03083 -0.14409,-0.09238 -0.0538,-0.06155 -0.12873,-0.127042 -0.22479,-0.196357 -0.0922,-0.0731 -0.21325,-0.140521 -0.3631,-0.202132 -0.14985,-0.06155 -0.33813,-0.09238 -0.56483,-0.09238 -0.32276,0 -0.62438,0.08662 -0.90488,0.259875 -0.27665,0.173261 -0.51871,0.406192 -0.7262,0.698796 -0.20365,0.292615 -0.36503,0.631422 -0.48415,1.016435 -0.11527,0.38116 -0.1729,0.77965 -0.1729,1.19546 0,0.26565 0.0288,0.51206 0.0865,0.73921 0.0615,0.22716 0.15369,0.42352 0.27665,0.58908 0.12681,0.16555 0.28434,0.29453 0.47262,0.38694 0.18827,0.0924 0.41113,0.1386 0.66857,0.1386 0.20364,0 0.38616,-0.0212 0.54753,-0.0636 0.16139,-0.0462 0.30355,-0.10197 0.42651,-0.16747 0.1268,-0.0655 0.23631,-0.13666 0.32852,-0.21369 0.0961,-0.0809 0.18059,-0.15398 0.2536,-0.21944 0.073,-0.0655 0.13448,-0.11929 0.18443,-0.16173 0.0538,-0.0462 0.10182,-0.0693 0.14409,-0.0693 0.0423,0 0.0826,0.0193 0.12104,0.0577 l 0.12103,0.15018 z"
         sodipodi:nodetypes="cscccscccssccscccscscscccsscsscccsscccccsscccsccccsscccccscscccscscccccscccssccssscccccccccccccccscsccccscccscccssccscccscscscccsscsscccsscccccsscccsccccccccscscssscsscsscscsscsscccsssccsscssssscccssccccssssscssccccccsscccccscccccccccscscccscccscsccsscccccscscccscscccccscccssccssscccccccccccccccscsccccccccscccsssccsscsscccssccscccsccssccccccssssccccccscsscccsccsscssscssscsccsccsccsscccsccsscccscsccscscccscccssccscccscscscccsscsscccsscccccsscccsccccsscccccscscccscscccccscccssccssscccccccccccccccscscccccscccccscccccccssccccccccscccccscccccccsscccccccsscccccscscccscscccccscccssccssscccccccccccccccscsccccscccsccccsccssccscccsssccsscsscccssccscccsccssccccccssccccsscccccccccscscccscccscsccccccscscssscsscsscscsssccsscssscssscsccsccsccsscccsccsscccscsccs" />
      <path
         id="path24462"
         style="font-style:italic;font-weight:300;font-size:16.9333px;line-height:1.25;font-family:Lato;-inkscape-font-specification:'Lato Light Italic';font-variation-settings:normal;letter-spacing:3.43958px;vector-effect:none;fill:#a52a2a;fill-opacity:1;stroke-width:0.179794;stroke-linecap:butt;stroke-linejoin:miter;stroke-miterlimit:4;stroke-dasharray:none;stroke-dashoffset:0;stroke-opacity:1;-inkscape-stroke:none;stop-color:#000000"
         d="m 25.026561,80.822794 c -0.03059,0.05384 -0.07267,0.08078 -0.12622,0.08078 -0.03824,0 -0.08605,-0.02308 -0.143432,-0.06924 -0.05355,-0.05 -0.128131,-0.103848 -0.223753,-0.161549 -0.09179,-0.06154 -0.208455,-0.115385 -0.349975,-0.16155 -0.141519,-0.05 -0.317462,-0.075 -0.527829,-0.075 -0.195067,0 -0.380572,0.0327 -0.556517,0.09808 -0.172118,0.06538 -0.3232,0.153853 -0.453244,0.265401 -0.12622,0.107702 -0.227579,0.234632 -0.304075,0.380796 -0.07267,0.142317 -0.109002,0.29425 -0.109002,0.4558 0,0.157703 0.03633,0.290403 0.109002,0.398103 0.07267,0.107701 0.168297,0.201937 0.286863,0.282713 0.122393,0.07693 0.258177,0.144243 0.407346,0.201935 0.152995,0.0577 0.309814,0.115385 0.470457,0.17309 0.160644,0.0577 0.31555,0.123082 0.46472,0.196166 0.152995,0.06924 0.288777,0.153852 0.407347,0.253863 0.122393,0.100006 0.219928,0.223093 0.2926,0.369257 0.07267,0.142316 0.109004,0.315406 0.109004,0.519266 0,0.24617 -0.04972,0.484648 -0.14917,0.715433 -0.09562,0.230785 -0.235228,0.436568 -0.418821,0.61735 -0.179769,0.176934 -0.397784,0.319251 -0.65405,0.426951 -0.252441,0.107701 -0.535479,0.161549 -0.849117,0.161549 -0.367186,0 -0.676998,-0.06346 -0.929439,-0.190397 -0.248616,-0.130778 -0.462807,-0.300021 -0.642575,-0.507727 l 0.137694,-0.196167 c 0.04208,-0.06153 0.09371,-0.09231 0.154907,-0.09231 0.03826,0 0.08607,0.03077 0.143431,0.09231 0.05738,0.06154 0.135785,0.130776 0.235229,0.207707 0.09945,0.07307 0.227579,0.14039 0.384398,0.201936 0.156819,0.06154 0.353799,0.09231 0.59094,0.09231 0.229491,0 0.436032,-0.03654 0.619625,-0.109615 0.187418,-0.07693 0.34615,-0.180785 0.476195,-0.311561 0.133869,-0.130777 0.23714,-0.280787 0.309812,-0.45003 0.07267,-0.173089 0.109015,-0.355793 0.109015,-0.548114 0,-0.169243 -0.03634,-0.311559 -0.109015,-0.426952 -0.07267,-0.115396 -0.170202,-0.213476 -0.2926,-0.29425 -0.118577,-0.08462 -0.254353,-0.155781 -0.407347,-0.213476 -0.14917,-0.0577 -0.304077,-0.11347 -0.46472,-0.16732 -0.160644,-0.0577 -0.317462,-0.119238 -0.470457,-0.184628 -0.149169,-0.06924 -0.284951,-0.151929 -0.407347,-0.248094 -0.118575,-0.09616 -0.214192,-0.213476 -0.286863,-0.351946 -0.07267,-0.138471 -0.109003,-0.307714 -0.109003,-0.507727 0,-0.223092 0.04781,-0.436568 0.143432,-0.640428 0.09562,-0.207706 0.229491,-0.390411 0.40161,-0.548113 0.172119,-0.16155 0.376748,-0.288483 0.613889,-0.380797 0.240965,-0.09616 0.502968,-0.14424 0.786007,-0.14424 0.321287,0 0.598589,0.05 0.831905,0.15001 0.23714,0.100006 0.447508,0.250018 0.631101,0.450031 z m -6.868939,0.392335 c 0,0.157703 -0.02104,0.307714 -0.06311,0.450031 -0.04208,0.142316 -0.116661,0.276941 -0.223754,0.403872 -0.1071,0.126933 -0.25244,0.248094 -0.436034,0.363487 -0.183593,0.111544 -0.418821,0.2154 -0.705684,0.31156 -0.286864,0.09231 -0.629189,0.176934 -1.026972,0.253863 -0.397786,0.07309 -0.864418,0.138475 -1.399897,0.196167 -0.0076,0.08078 -0.01335,0.161553 -0.01721,0.242324 -0.0038,0.07693 -0.0058,0.15386 -0.0058,0.230785 0,0.573116 0.128132,1.021224 0.384397,1.344322 0.26009,0.323099 0.650225,0.484649 1.170406,0.484649 0.202717,0 0.384397,-0.02116 0.54504,-0.06346 0.164469,-0.04616 0.309813,-0.103847 0.436033,-0.173089 0.130046,-0.06924 0.242879,-0.142314 0.338501,-0.219246 0.09944,-0.07693 0.187416,-0.150014 0.263913,-0.219245 0.0765,-0.06924 0.141521,-0.125006 0.195068,-0.167319 0.05738,-0.04616 0.109015,-0.06924 0.154907,-0.06924 0.04589,0 0.08605,0.01923 0.120478,0.0577 l 0.12622,0.15001 c -0.187417,0.200014 -0.371011,0.373103 -0.550778,0.519267 -0.175943,0.142316 -0.355712,0.259633 -0.539305,0.351946 -0.179769,0.09231 -0.367186,0.159627 -0.562252,0.201936 -0.195068,0.04616 -0.403523,0.06924 -0.625364,0.06924 -0.317463,0 -0.600502,-0.05193 -0.849117,-0.155778 -0.24479,-0.107702 -0.451333,-0.257711 -0.619627,-0.450031 -0.168293,-0.196168 -0.296426,-0.432722 -0.384398,-0.709664 -0.08796,-0.280788 -0.131957,-0.594272 -0.131957,-0.940449 0,-0.288482 0.02868,-0.578885 0.08606,-0.871212 0.05738,-0.292328 0.141523,-0.573117 0.252441,-0.842366 0.114746,-0.269248 0.254354,-0.521188 0.418821,-0.75582 0.168293,-0.234631 0.359537,-0.438491 0.573729,-0.61158 0.214192,-0.173088 0.451331,-0.309636 0.711421,-0.409643 0.260091,-0.100005 0.541217,-0.15001 0.843381,-0.15001 0.279215,0 0.514443,0.04039 0.705684,0.121166 0.195068,0.07693 0.351888,0.175015 0.470457,0.294251 0.122393,0.115397 0.210367,0.242324 0.263916,0.380795 0.05355,0.134623 0.08032,0.261555 0.08032,0.380795 z m -1.549064,-0.77313 c -0.305988,0 -0.58329,0.06539 -0.831905,0.196167 -0.244791,0.130779 -0.462808,0.305792 -0.65405,0.525036 -0.187417,0.215399 -0.346149,0.467339 -0.476194,0.755821 -0.12622,0.284635 -0.21993,0.582732 -0.281128,0.894292 0.485756,-0.05384 0.904577,-0.115385 1.256464,-0.184628 0.351888,-0.07309 0.650225,-0.148092 0.895016,-0.225016 0.244791,-0.08078 0.441771,-0.167322 0.590939,-0.259632 0.152995,-0.09231 0.271565,-0.186552 0.355712,-0.282713 0.08415,-0.100005 0.139607,-0.201937 0.166381,-0.30579 0.03059,-0.103847 0.04589,-0.211552 0.04589,-0.323098 0,-0.08078 -0.01912,-0.167322 -0.05738,-0.259632 -0.03442,-0.09616 -0.09371,-0.182706 -0.177856,-0.259634 -0.08415,-0.07693 -0.195067,-0.140397 -0.332761,-0.190397 -0.133871,-0.05384 -0.300251,-0.08078 -0.499143,-0.08078 z M 6.2685598,80.118901 H 6.687381 c 0.05355,0 0.093709,0.01538 0.1204782,0.04615 0.030598,0.02693 0.049721,0.0577 0.05738,0.09231 l 1.1646665,4.529153 c 0.015306,0.08847 0.026781,0.175013 0.034428,0.259633 0.011414,0.08461 0.021037,0.171166 0.028683,0.259634 0.04972,-0.16155 0.1147464,-0.334639 0.1950676,-0.519267 l 2.2777007,-4.529149 c 0.01912,-0.04231 0.04589,-0.075 0.08032,-0.09808 0.03443,-0.02692 0.07459,-0.04039 0.120478,-0.04039 H 11.17393 L 8.2479147,85.859662 H 7.8004075 Z m -3.4222406,0 -0.6942109,5.740774 H 1.6185423 L 2.312752,80.118901 Z M 3.2651404,78.13992 c 0,0.06924 -0.015293,0.134622 -0.045891,0.196168 -0.026768,0.0577 -0.063111,0.109616 -0.1090022,0.15578 -0.045891,0.04616 -0.099441,0.0827 -0.1606438,0.109616 -0.057379,0.02693 -0.116661,0.04039 -0.1778562,0.04039 -0.065026,0 -0.1262236,-0.01347 -0.1835918,-0.04039 -0.057379,-0.02693 -0.1070999,-0.06347 -0.1491687,-0.109616 -0.042074,-0.04616 -0.076502,-0.09808 -0.1032705,-0.15578 -0.026768,-0.06154 -0.040159,-0.126929 -0.040159,-0.196168 0,-0.06924 0.013391,-0.13462 0.040159,-0.196166 0.026769,-0.06154 0.061196,-0.115385 0.1032705,-0.16155 0.045891,-0.05 0.097526,-0.08847 0.1549054,-0.115397 0.05738,-0.02693 0.1185757,-0.04039 0.183593,-0.04039 0.061196,0 0.1204782,0.01347 0.1778551,0.04039 0.061196,0.02692 0.1147463,0.06346 0.1606437,0.109616 0.045891,0.04616 0.082234,0.101933 0.1090145,0.16732 0.026769,0.06153 0.040159,0.126929 0.040159,0.196167 z m -7.3838442,6.756227 v -0.08654 c 0.00384,-0.03463 0.00758,-0.08654 0.011418,-0.15578 0.00758,-0.06924 0.017174,-0.157699 0.028685,-0.265403 0.011418,-0.111543 0.028685,-0.25194 0.051633,-0.421183 l 0.3901348,-3.259835 h -0.7515825 c -0.038259,0 -0.068853,-0.01154 -0.091792,-0.03461 -0.022948,-0.02308 -0.030594,-0.05577 -0.022948,-0.09808 l 0.028685,-0.213476 0.9007516,-0.06924 0.3786603,-2.053985 c 0.00761,-0.03462 0.024817,-0.06539 0.051635,-0.09231 0.026768,-0.02693 0.059282,-0.04039 0.097539,-0.04039 h 0.2639141 l -0.2696521,2.192456 h 1.6523349 l -0.045891,0.409644 h -1.652335 l -0.3958716,3.242526 c -0.019122,0.157703 -0.03633,0.286559 -0.051635,0.386565 -0.011414,0.100006 -0.021037,0.182706 -0.028683,0.248094 -0.00381,0.06154 -0.00761,0.107701 -0.011414,0.138471 v 0.06924 c 0,0.250016 0.05738,0.430798 0.1721183,0.542345 0.1185636,0.111542 0.2696519,0.167317 0.4532449,0.167317 0.1262198,0 0.2371404,-0.01923 0.3327617,-0.0577 0.099441,-0.0423 0.1855052,-0.08654 0.2581775,-0.132701 0.072672,-0.05 0.1319528,-0.09424 0.177855,-0.132701 0.045891,-0.0423 0.080319,-0.06346 0.1032705,-0.06346 0.038257,0 0.066941,0.01923 0.086063,0.0577 l 0.1032705,0.242324 c -0.1529944,0.16155 -0.3384996,0.292328 -0.5565153,0.392335 -0.2180165,0.09616 -0.4360334,0.14424 -0.6540491,0.14424 -0.3136381,0 -0.560341,-0.08654 -0.7401083,-0.259633 -0.1759438,-0.173089 -0.2658277,-0.438491 -0.2696536,-0.796209 z m -4.4937094,0.963528 h -0.263916 c -0.0765,0 -0.1281336,-0.02116 -0.1549056,-0.06347 -0.02677,-0.0423 -0.04016,-0.0904 -0.04016,-0.14424 l 0.1950666,-1.788583 c -0.1453436,0.307713 -0.3059876,0.590425 -0.4819296,0.848133 -0.1721176,0.253864 -0.3576236,0.471186 -0.5565146,0.651968 -0.1988936,0.180782 -0.4073476,0.321175 -0.6253636,0.421182 -0.218016,0.100006 -0.443682,0.150011 -0.676999,0.150011 -0.23714,0 -0.447508,-0.04616 -0.631101,-0.138471 -0.179767,-0.09616 -0.330849,-0.230785 -0.453244,-0.403874 -0.118575,-0.173089 -0.208455,-0.382717 -0.269652,-0.628888 -0.0612,-0.24617 -0.09179,-0.523111 -0.09179,-0.830826 0,-0.334637 0.04208,-0.661583 0.126221,-0.980835 0.08797,-0.323099 0.208453,-0.628889 0.361448,-0.91737 0.152995,-0.288481 0.336588,-0.553884 0.550779,-0.796207 0.214191,-0.242326 0.451333,-0.451954 0.711422,-0.62889 0.26009,-0.176935 0.537392,-0.315407 0.831906,-0.415413 0.2945126,-0.100006 0.5985886,-0.15001 0.9122252,-0.15001 0.225667,0 0.4379446,0.02116 0.6368366,0.06347 0.2027176,0.03847 0.3996966,0.107701 0.5909386,0.207706 z M -11.03928,85.478879 c 0.218016,0 0.432209,-0.06154 0.642575,-0.184627 0.210367,-0.123087 0.4111706,-0.296174 0.6024136,-0.519266 0.195066,-0.223093 0.3767466,-0.490418 0.5450406,-0.801979 0.168292,-0.315405 0.3193736,-0.663505 0.4532436,-1.044301 l 0.292602,-2.359774 c -0.225667,-0.07693 -0.4685446,-0.115397 -0.7286326,-0.115397 -0.3824856,0 -0.7477586,0.09424 -1.0958212,0.282712 -0.34806,0.188473 -0.654049,0.440413 -0.917963,0.755821 -0.263914,0.315404 -0.474282,0.676968 -0.631101,1.084687 -0.15682,0.40772 -0.235229,0.830826 -0.235229,1.269317 0,0.51542 0.08607,0.917371 0.258179,1.205852 0.175943,0.284635 0.447507,0.426952 0.814693,0.426952 z m -5.01006,-5.359978 -0.694211,5.740774 h -0.533566 l 0.69421,-5.740774 z m 0.418822,-1.978981 c 0,0.06924 -0.01529,0.134622 -0.04589,0.196168 -0.02677,0.0577 -0.06311,0.109616 -0.109014,0.15578 -0.04589,0.04616 -0.09944,0.0827 -0.160643,0.109616 -0.05738,0.02693 -0.116661,0.04039 -0.177856,0.04039 -0.06503,0 -0.126224,-0.01347 -0.183593,-0.04039 -0.05738,-0.02693 -0.1071,-0.06347 -0.14917,-0.109616 -0.04208,-0.04616 -0.0765,-0.09808 -0.10327,-0.15578 -0.02677,-0.06154 -0.04016,-0.126929 -0.04016,-0.196168 0,-0.06924 0.01339,-0.13462 0.04016,-0.196166 0.02677,-0.06154 0.0612,-0.115385 0.10327,-0.16155 0.04589,-0.05 0.09753,-0.08847 0.154908,-0.115397 0.05738,-0.02693 0.118576,-0.04039 0.183593,-0.04039 0.0612,0 0.120478,0.01347 0.177855,0.04039 0.0612,0.02692 0.114747,0.06346 0.160644,0.109616 0.04589,0.04616 0.08224,0.101933 0.109002,0.16732 0.02677,0.06153 0.04016,0.126929 0.04016,0.196167 z m -7.742432,6.756227 v -0.08654 c 0.0038,-0.03463 0.0076,-0.08654 0.01142,-0.15578 0.0076,-0.06924 0.01717,-0.157699 0.02868,-0.265403 0.01142,-0.111543 0.02869,-0.25194 0.05163,-0.421183 l 0.390135,-3.259835 h -0.751584 c -0.03826,0 -0.06885,-0.01154 -0.09179,-0.03461 -0.02295,-0.02308 -0.03059,-0.05577 -0.02295,-0.09808 l 0.02868,-0.213476 0.900753,-0.06924 0.378663,-2.053985 c 0.0076,-0.03462 0.02482,-0.06539 0.05163,-0.09231 0.02677,-0.02693 0.05928,-0.04039 0.09754,-0.04039 h 0.263914 l -0.269652,2.192456 h 1.652337 l -0.04589,0.409644 h -1.652336 l -0.395873,3.242526 c -0.01912,0.157703 -0.03633,0.286559 -0.05163,0.386565 -0.01142,0.100006 -0.02104,0.182706 -0.02869,0.248094 -0.0038,0.06154 -0.0076,0.107701 -0.01142,0.138471 v 0.06924 c 0,0.250016 0.05738,0.430798 0.172118,0.542345 0.118575,0.111542 0.269653,0.167317 0.453245,0.167317 0.126221,0 0.237141,-0.01923 0.332762,-0.0577 0.09944,-0.0423 0.185506,-0.08654 0.258178,-0.132701 0.07267,-0.05 0.13196,-0.09424 0.177856,-0.132701 0.04589,-0.0423 0.08032,-0.06346 0.10327,-0.06346 0.03826,0 0.06695,0.01923 0.08607,0.0577 l 0.10327,0.242324 c -0.152995,0.16155 -0.3385,0.292328 -0.556516,0.392335 -0.218016,0.09616 -0.436034,0.14424 -0.65405,0.14424 -0.313639,0 -0.560342,-0.08654 -0.740111,-0.259633 -0.175943,-0.173089 -0.265827,-0.438491 -0.269652,-0.796209 z m -4.23839,-4.777246 -0.694209,5.740774 h -0.533561 l 0.694211,-5.740774 z m 0.418819,-1.978981 c 0,0.06924 -0.01529,0.134622 -0.04588,0.196168 -0.02679,0.0577 -0.06313,0.109616 -0.109015,0.15578 -0.04589,0.04616 -0.09944,0.0827 -0.160646,0.109616 -0.05737,0.02693 -0.116661,0.04039 -0.177854,0.04039 -0.06505,0 -0.126247,-0.01347 -0.183601,-0.04039 -0.05731,-0.02693 -0.107027,-0.06347 -0.149162,-0.109616 -0.0421,-0.04616 -0.07646,-0.09808 -0.103222,-0.15578 -0.02676,-0.06154 -0.04013,-0.126929 -0.04013,-0.196168 0,-0.06924 0.01338,-0.13462 0.04013,-0.196166 0.02676,-0.06154 0.06112,-0.115385 0.103222,-0.16155 0.04591,-0.05 0.09757,-0.08847 0.154905,-0.115397 0.05731,-0.02693 0.118564,-0.04039 0.18359,-0.04039 0.06125,0 0.120527,0.01347 0.177862,0.04039 0.0612,0.02692 0.114746,0.06346 0.160646,0.109616 0.04589,0.04616 0.08224,0.101933 0.109002,0.16732 0.02679,0.06153 0.04019,0.126929 0.04019,0.196167 z m -9.955548,7.719755 0.682733,-5.758083 h 0.246701 c 0.133869,0 0.200809,0.06924 0.200809,0.207706 l -0.166381,1.655881 c 0.15682,-0.303866 0.328934,-0.575037 0.516352,-0.813516 0.191236,-0.242325 0.39013,-0.446184 0.596671,-0.61158 0.210371,-0.165396 0.426473,-0.290405 0.648307,-0.375025 0.225664,-0.08847 0.451327,-0.132702 0.677003,-0.132702 0.244787,0 0.453242,0.04808 0.625356,0.14424 0.175942,0.09616 0.315543,0.236555 0.418826,0.421184 0.107026,0.184628 0.175943,0.411566 0.206541,0.680815 0.03449,0.265402 0.03081,0.569269 -0.01104,0.9116 l -0.43029,3.66948 h -0.539291 l 0.430289,-3.66948 c 0.06505,-0.546192 0.02872,-0.965449 -0.108989,-1.257778 -0.137699,-0.292327 -0.395875,-0.43849 -0.774531,-0.43849 -0.214188,0 -0.43029,0.05577 -0.648306,0.167318 -0.218017,0.107701 -0.428375,0.263479 -0.631088,0.46734 -0.202723,0.200013 -0.393959,0.444261 -0.573731,0.732741 -0.179772,0.284636 -0.338496,0.605811 -0.476193,0.963528 l -0.349971,3.034821 z m -3.47245,-5.740774 -0.69421,5.740774 h -0.533561 l 0.69421,-5.740774 z m 0.418813,-1.978981 c 0,0.06924 -0.01534,0.134622 -0.04591,0.196168 -0.02676,0.0577 -0.06309,0.109616 -0.10899,0.15578 -0.0459,0.04616 -0.09942,0.0827 -0.160638,0.109616 -0.05731,0.02693 -0.1166,0.04039 -0.177857,0.04039 -0.06505,0 -0.126247,-0.01347 -0.18359,-0.04039 -0.05731,-0.02693 -0.107025,-0.06347 -0.149161,-0.109616 -0.0421,-0.04616 -0.07646,-0.09808 -0.103344,-0.15578 -0.02676,-0.06154 -0.04013,-0.126929 -0.04013,-0.196168 0,-0.06924 0.01337,-0.13462 0.04013,-0.196166 0.02676,-0.06154 0.06124,-0.115385 0.103344,-0.16155 0.04591,-0.05 0.09757,-0.08847 0.154894,-0.115397 0.05731,-0.02693 0.118563,-0.04039 0.183601,-0.04039 0.06124,0 0.120527,0.01347 0.177846,0.04039 0.06124,0.02692 0.114758,0.06346 0.160649,0.109616 0.04591,0.04616 0.08224,0.101933 0.10899,0.16732 0.02676,0.06153 0.04013,0.126929 0.04013,0.196167 z"
         sodipodi:nodetypes="cscccscccssccscccscccscccsscsscccsscccccsscccsccccsscccccscscccscscccccscccssccssscccccscccccccccscscsscsccccccccscccccccccscscssscsscsscscssccccccsscccccscccccccccscscccscccscsccsscccsssccsscssssscccssccccssssscsscccccscscssscsscsscscssccccccsscccccscccccccccscscccscccscsccccccccscssccsscsscscccccscccccscccccccsscccccccccccccscssccsscsscsccc" />
    </g>
    <path
       id="path1522"
       style="font-variation-settings:normal;opacity:1;vector-effect:none;fill:#0ca7b7;fill-opacity:1;stroke:none;stroke-width:0.265316;stroke-linecap:butt;stroke-linejoin:miter;stroke-miterlimit:4;stroke-dasharray:none;stroke-dashoffset:0;stroke-opacity:1;-inkscape-stroke:none;stop-color:#000000;stop-opacity:1"
       d="m -110.24726,83.469414 c -2.11689,-0.04689 -4.92276,1.157463 -6.76546,0.238809 -1.26714,-0.652897 -1.54085,-1.167491 -1.57549,-2.962013 -0.0266,-1.378423 -0.15689,-1.816103 -0.78479,-2.63635 -0.68648,-0.89678 -0.72456,-1.057385 -0.43176,-1.820897 0.29761,-0.776065 0.268,-0.880085 -0.40445,-1.420824 -0.72422,-0.582379 -0.72472,-0.585222 -0.27169,-1.5318 0.24962,-0.52159 0.45386,-1.064582 0.45386,-1.206638 0,-0.142066 -0.59839,-0.62517 -1.32975,-1.07356 -2.26645,-1.389534 -2.17371,-2.103088 0.82158,-6.321937 1.03961,-1.464275 1.23703,-2.755845 0.67324,-4.404517 -1.052,-3.076312 -0.10377,-7.072878 2.67572,-11.277563 12.01322,-14.795083 31.448847,-5.318955 31.77567,10.089062 0.05573,10.743027 -10.453155,11.991866 -13.357445,22.68446 -1.246665,4.103994 -0.9131,6.329812 0.730023,10.603126 -4.711468,-2.989537 -8.280978,-5.653995 -12.209258,-8.959358 z"
       sodipodi:nodetypes="ccsssssssssccccc" />
    <path
       id="path848"
       style="fill:#f3ac29;stroke-width:0.223952"
       d="m -81.969142,41.638921 c -14.122739,-16.358011 6.638039,-32.961072 22.928334,-22.497298 0.907519,0.825171 1.832373,2.400437 3.131923,5.334474 1.722341,3.888587 2.271225,6.51591 1.499771,7.178945 -0.532763,0.457894 -0.393943,0.971812 0.744995,2.758027 0.591304,0.927346 1.390354,2.32064 1.775673,3.096198 0.91093,1.833511 0.726322,2.238518 -1.381071,3.029864 -0.608803,0.228607 -0.618144,0.258805 -0.477128,1.54305 0.07909,0.72043 0.18999,1.483101 0.246407,1.694825 0.06413,0.240554 -0.08711,0.487215 -0.403142,0.657601 -0.694176,0.374248 -0.679595,0.339155 -0.360542,0.868232 0.246798,0.409253 0.207032,0.632888 -0.29183,1.641462 -0.565643,1.143585 -0.570667,1.192743 -0.243421,2.384011 0.37325,1.358798 0.284593,2.024996 -0.387208,2.909447 -3.673187,1.488653 -5.682035,0.888236 -10.146042,0.552877 l -11.176572,9.70287 c 1.382429,-6.858951 0.468299,-16.188483 -5.460147,-20.854585 z"
       sodipodi:nodetypes="ccssssssssssscccc" />
    <path
       d="m 21.888896,45.882317 -1.402556,1.397802 -3.819184,-3.806333 1.402515,-1.397802 c 0.625743,-0.623638 1.661476,-0.623638 2.287209,0 l 1.532016,1.526836 c 0.647321,0.645139 0.647321,1.655859 0,2.279497 z m -6.473256,-1.139754 3.819224,3.806333 -9.5372456,9.505072 H 5.8784072 v -3.806323 z"
       id="path4-5"
       style="font-variation-settings:normal;vector-effect:none;fill:#8d5fd3;fill-opacity:1;stroke-width:0.870858;stroke-linecap:butt;stroke-linejoin:miter;stroke-miterlimit:4;stroke-dasharray:none;stroke-dashoffset:0;stroke-opacity:1;-inkscape-stroke:none;stop-color:#000000"
       sodipodi:nodetypes="cccsssccccccc" />
    <path
       style="font-variation-settings:normal;opacity:1;vector-effect:none;fill:none;fill-opacity:1;stroke:#8d5fd3;stroke-width:1.18203;stroke-linecap:butt;stroke-linejoin:miter;stroke-miterlimit:4;stroke-dasharray:4.72816, 1.18203;stroke-dashoffset:0;stroke-opacity:1;-inkscape-stroke:none;stop-color:#000000;stop-opacity:1"
       d="M -73.976195,90.356941 C -54.643953,67.184516 -38.498761,57.831993 5.926517,57.524803"
       id="path2616"
       sodipodi:nodetypes="cc" />
    <path
       id="rect18564"
       style="opacity:1;fill:#b3b3b3;stroke-width:1.24669;stroke-dasharray:4.98676, 1.24669;stop-color:#000000"
       d="m -36.364162,22.04915 c 8.495924,-5.252143 14.777831,-3.375205 20.594435,0 v 19.820567 h -20.594435 z"
       sodipodi:nodetypes="ccccc" />
    <g
       id="g8237"
       transform="matrix(-1,0,0,1,-27.336216,-21.22687)">
      <path
         d="m -19.778327,49.633327 c 0.01031,-0.08558 0.01629,-0.172514 0.01629,-0.260869 0,-1.187888 -0.962945,-2.150833 -2.150833,-2.150833 -0.03038,0 -0.06054,0.0011 -0.09063,0.0023 -0.55126,-0.553323 -1.313947,-0.89586 -2.156595,-0.89586 -1.155804,0 -2.161148,0.644098 -2.676767,1.592886 -1.160286,0.06822 -2.116971,0.892018 -2.385594,1.986571 -0.678457,0.472936 -1.122795,1.258458 -1.122795,2.148201 0,0.875443 0.430252,1.649939 1.090356,2.125151 -0.02839,0.137513 -0.04347,0.280005 -0.04347,0.425913 0,1.156444 0.937476,2.093921 2.09392,2.093921 0.663092,0 1.253764,-0.308604 1.637419,-0.789578 0.499471,0.314294 1.090356,0.496767 1.724067,0.496767 1.0969,0 2.065963,-0.545142 2.652793,-1.378684 0.155013,0.02661 0.314152,0.04126 0.476706,0.04126 1.545791,0 2.798914,-1.253123 2.798914,-2.798914 0,-1.217767 -0.777911,-2.253345 -1.863785,-2.638281"
         style="fill:#b4d158;fill-opacity:1;fill-rule:nonzero;stroke:none;stroke-width:0.00711396"
         id="path8221" />
      <path
         d="m -26.279057,55.097056 c -0.750309,0 -1.36154,-0.601129 -1.380676,-1.346813 -2.83e-4,0.01188 -0.0018,0.02355 -0.0018,0.03557 0,0.76226 0.620195,1.382454 1.382455,1.382454 0.762331,0 1.382454,-0.620194 1.382454,-1.382454 0,-0.01202 -0.0015,-0.02369 -0.0018,-0.03557 -0.01914,0.745684 -0.630368,1.346813 -1.380676,1.346813"
         style="fill:#609433;fill-opacity:1;fill-rule:nonzero;stroke:none;stroke-width:0.00711396"
         id="path8223" />
      <path
         d="m -20.950421,52.566694 c -0.03799,1.402872 -1.190165,2.532568 -2.602,2.532568 -0.610377,0 -1.172024,-0.211427 -1.61629,-0.564564 -0.02184,0.02952 -0.04461,0.05826 -0.06865,0.08594 0.45451,0.386857 1.042692,0.620977 1.68494,0.620977 1.435738,0 2.603778,-1.167969 2.603778,-2.603778 0,-0.02383 -0.0011,-0.04745 -0.0018,-0.07114"
         style="fill:#609433;fill-opacity:1;fill-rule:nonzero;stroke:none;stroke-width:0.00711396"
         id="path8225" />
      <path
         id="path8227"
         style="fill:#609433;fill-opacity:1;fill-rule:nonzero;stroke:none;stroke-width:0.00711396"
         d="m -17.914542,52.249768 c 0,-1.545791 -1.253123,-2.798914 -2.798914,-2.798914 -1.54572,0 -2.798842,1.253123 -2.798842,2.798914 0,1.545791 1.253122,2.798913 2.798842,2.798913 1.545791,0 2.798914,-1.253122 2.798914,-2.798913 m -2.685517,1.605263 c 0,-1.791009 -1.451887,-3.242895 -3.242896,-3.242895 -1.791009,0 -3.242896,1.451886 -3.242896,3.242895 0,1.791009 1.451887,3.242896 3.242896,3.242896 1.791009,0 3.242896,-1.451887 3.242896,-3.242896 m -4.510531,0.729963 c 0,-1.156373 -0.937477,-2.09385 -2.09385,-2.09385 -1.156445,0 -2.093921,0.937477 -2.093921,2.09385 0,1.156444 0.937476,2.09385 2.093921,2.09385 1.156373,0 2.09385,-0.937406 2.09385,-2.09385" />
      <path
         id="path8229"
         style="font-variation-settings:normal;vector-effect:none;fill:#82b04b;fill-opacity:1;fill-rule:nonzero;stroke:none;stroke-width:0.00711396;stroke-linecap:butt;stroke-linejoin:miter;stroke-miterlimit:4;stroke-dasharray:none;stroke-dashoffset:0;stroke-opacity:1;-inkscape-stroke:none;stop-color:#000000"
         d="m -21.685649,53.399669 c -1.347738,0 -2.444283,-1.096545 -2.444283,-2.444355 0,-1.34788 1.096545,-2.444283 2.444283,-2.444283 1.34781,0 2.444355,1.096403 2.444355,2.444283 0,1.34781 -1.096545,2.444355 -2.444355,2.444355 m -1.866772,1.927241 c -1.435809,0 -2.603849,-1.167969 -2.603849,-2.603778 0,-1.435738 1.16804,-2.603778 2.603849,-2.603778 1.435738,0 2.603778,1.16804 2.603778,2.603778 0,1.435809 -1.16804,2.603778 -2.603778,2.603778 m -2.726636,-0.144556 c -0.762331,0 -1.382455,-0.620194 -1.382455,-1.382454 0,-0.762331 0.620124,-1.382455 1.382455,-1.382455 0.762331,0 1.382454,0.620124 1.382454,1.382455 0,0.76226 -0.620123,1.382454 -1.382454,1.382454 m -1.382455,-0.04795 c -1.050944,0 -1.90597,-0.854955 -1.90597,-1.905899 0,-1.050944 0.855026,-1.90597 1.90597,-1.90597 1.050945,0 1.905899,0.855026 1.905899,1.90597 0,1.050944 -0.854954,1.905899 -1.905899,1.905899 m 0.574239,-1.69497 c -1.050945,0 -1.905971,-0.854955 -1.905971,-1.9059 0,-1.050944 0.855026,-1.90597 1.905971,-1.90597 1.050944,0 1.90597,0.855026 1.90597,1.90597 0,1.050945 -0.855026,1.9059 -1.90597,1.9059 m 1.976683,-0.347872 c -1.286345,0 -2.332879,-1.046534 -2.332879,-2.33295 0,-1.286346 1.046534,-2.332879 2.332879,-2.332879 1.286416,0 2.33295,1.046533 2.33295,2.332879 0,1.286416 -1.046534,2.33295 -2.33295,2.33295" />
      <path
         d="m -23.943689,50.509908 c -0.0036,-0.035 -0.05513,-0.03308 -0.05599,0.0021 -0.03358,1.360117 -0.137371,5.686041 -0.121222,6.534522 0.0185,0.967924 -0.169454,2.980675 -0.195207,3.250935 -0.0016,0.0165 0.01145,0.03031 0.02803,0.03031 h 0.536108 c 0.01522,0 0.02774,-0.01217 0.0281,-0.02746 0.0077,-0.318491 0.07968,-3.331606 0.09846,-4.906991 0.0148,-1.246935 -0.208937,-3.824035 -0.318279,-4.883445"
         style="fill:#4d3c2d;fill-opacity:1;fill-rule:nonzero;stroke:none;stroke-width:0.00711396"
         id="path8231" />
      <path
         d="m -23.674995,56.69606 v 0.818389 l 5.65e-4,1.42e-4 c 0.576799,-1.129482 1.256822,-2.211586 2.244879,-3.149703 0.036,-0.03415 -0.0098,-0.09028 -0.04994,-0.06111 -0.498475,0.362314 -1.360259,1.106789 -2.195508,2.392281"
         style="fill:#4d3c2d;fill-opacity:1;fill-rule:nonzero;stroke:none;stroke-width:0.00711396"
         id="path8233" />
      <path
         d="m -23.838269,54.94247 c 0,0 -0.957609,0 -2.342198,-1.476359 -0.01665,-0.01778 -0.04503,0.0031 -0.03187,0.02348 0.325036,0.506372 1.324476,1.916642 2.374068,1.916642 v -0.463759"
         style="fill:#4d3c2d;fill-opacity:1;fill-rule:nonzero;stroke:none;stroke-width:0.00711396"
         id="path8235" />
    </g>
    <g
       id="g8184"
       transform="translate(-15.849291,4.0682236)">
      <path
         d="m 10.86682,27.421419 c 0.02915,-0.111645 0.04584,-0.231423 0.04584,-0.356909 0,-0.583485 -0.343268,-1.056563 -0.766646,-1.056563 -0.06456,0 -0.126928,0.01222 -0.1868358,0.03291 -0.2298609,-0.672618 -0.7259652,-1.138425 -1.3012428,-1.138425 -0.5492904,0 -1.0264805,0.424715 -1.2685731,1.048646 -0.055257,-0.01093 -0.1117261,-0.01686 -0.1692108,-0.01686 -0.4492528,0 -0.8399188,0.345599 -1.0397243,0.854438 -0.7249726,0.164048 -1.2781943,1.031143 -1.2781943,2.076773 0,1.162607 0.6838775,2.105102 1.5274891,2.105102 0.029141,0 0.058036,-0.0013 0.086798,-0.0036 0.1018626,1.22255 0.8549054,2.1721 1.7692691,2.1721 0.665784,0 1.2459074,-0.503723 1.5516202,-1.249425 0.037242,0.0033 0.07464,0.0055 0.1124685,0.0055 0.9679012,0 1.7525232,-1.081338 1.7525232,-2.415263 0,-0.870596 -0.334318,-1.63337 -0.835581,-2.058408"
         style="fill:#b4d158;fill-opacity:1;fill-rule:nonzero;stroke:none;stroke-width:0.00458765"
         id="path592" />
      <path
         d="m 11.786225,29.692076 c 0,-1.216733 -0.715687,-2.203067 -1.598514,-2.203067 -0.8828667,0 -1.5985542,0.986334 -1.5985542,2.203067 0,1.21668 0.7156875,2.203014 1.5985542,2.203014 0.882827,0 1.598514,-0.986334 1.598514,-2.203014"
         style="fill:#609433;fill-opacity:1;fill-rule:nonzero;stroke:none;stroke-width:0.00458765"
         id="path594" />
      <path
         d="m 10.067973,30.683957 c 0,-1.355899 -0.797557,-2.455063 -1.7814026,-2.455063 -0.9838456,0 -1.7814226,1.099164 -1.7814226,2.455063 0,1.3559 0.797577,2.455064 1.7814226,2.455064 0.9838456,0 1.7814026,-1.099164 1.7814026,-2.455064"
         style="fill:#609433;fill-opacity:1;fill-rule:nonzero;stroke:none;stroke-width:0.00458765"
         id="path596" />
      <path
         d="m 9.838933,27.796316 c -0.2072344,0 -0.3758199,-0.232392 -0.3758199,-0.518048 0,-0.285603 0.1685855,-0.517995 0.3758199,-0.517995 0.207274,0 0.375898,0.232392 0.375898,0.517995 0,0.285656 -0.168624,0.518048 -0.375898,0.518048"
         style="fill:#82b04b;fill-opacity:1;fill-rule:nonzero;stroke:none;stroke-width:0.00458765"
         id="path600" />
      <path
         d="m 9.7046195,31.356521 c -0.7508583,0 -1.3617367,-0.841889 -1.3617367,-1.876748 0,-1.034805 0.6108784,-1.876641 1.3617367,-1.876641 0.7508585,0 1.3617365,0.841836 1.3617365,1.876641 0,1.034859 -0.610878,1.876748 -1.3617365,1.876748"
         style="fill:#82b04b;fill-opacity:1;fill-rule:nonzero;stroke:none;stroke-width:0.00458765"
         id="path602" />
      <path
         d="m 7.2198779,30.696075 c -0.6267873,0 -1.1367215,-0.702777 -1.1367215,-1.566587 0,-0.86381 0.5099342,-1.566533 1.1367215,-1.566533 0.6267834,0 1.1366824,0.702723 1.1366824,1.566533 0,0.86381 -0.509899,1.566587 -1.1366824,1.566587"
         style="fill:#82b04b;fill-opacity:1;fill-rule:nonzero;stroke:none;stroke-width:0.00458765"
         id="path604" />
      <path
         d="m 7.6106259,28.765362 c -0.4359621,0 -0.7906834,-0.488858 -0.7906834,-1.089685 0,-0.600881 0.3547213,-1.089739 0.7906834,-1.089739 0.4360403,0 0.7907186,0.488858 0.7907186,1.089739 0,0.600827 -0.3546783,1.089685 -0.7907186,1.089685"
         style="fill:#82b04b;fill-opacity:1;fill-rule:nonzero;stroke:none;stroke-width:0.00458765"
         id="path606" />
      <path
         d="m 8.3565603,32.523491 c -0.8114303,0 -1.4715713,-0.909803 -1.4715713,-2.028086 0,-0.01664 6.253e-4,-0.03312 9.144e-4,-0.04966 -0.00224,0.04659 -0.00378,0.09344 -0.00378,0.140835 0,1.141011 0.6607819,2.069287 1.4729938,2.069287 0.812251,0 1.4730329,-0.928276 1.4730329,-2.069287 0,-0.01546 -5.862e-4,-0.0307 -8.206e-4,-0.04605 -0.017546,1.097494 -0.6702781,1.982954 -1.4707664,1.982954"
         style="fill:#609433;fill-opacity:1;fill-rule:nonzero;stroke:none;stroke-width:0.00458765"
         id="path610" />
      <path
         d="m 8.6328077,28.57891 c -0.5773097,0 -1.0469577,-0.647252 -1.0469577,-1.442878 0,-0.795627 0.469648,-1.442932 1.0469577,-1.442932 0.5773098,0 1.0469968,0.647305 1.0469968,1.442932 0,0.795626 -0.469687,1.442878 -1.0469968,1.442878"
         style="fill:#82b04b;fill-opacity:1;fill-rule:nonzero;stroke:none;stroke-width:0.00458765"
         id="path612" />
      <path
         d="m 10.245352,27.237875 c 0,-0.285657 -0.168586,-0.517995 -0.3758594,-0.517995 -0.1079745,0 -0.2051632,0.06339 -0.2737854,0.164209 0.065613,-0.07701 0.1504921,-0.123816 0.2432649,-0.123816 0.2072349,0 0.3758589,0.232392 0.3758589,0.517995 0,0.13685 -0.03896,0.261097 -0.102073,0.353785 0.08101,-0.09511 0.132594,-0.236378 0.132594,-0.394178"
         style="fill:#b4d158;fill-opacity:1;fill-rule:nonzero;stroke:none;stroke-width:0.00458765"
         id="path614" />
      <path
         d="m 7.6106259,26.585938 c 0.2080942,0 0.3970788,0.11213 0.5383874,0.293897 -0.1444349,-0.213435 -0.34952,-0.347808 -0.5774661,-0.347808 -0.4360012,0 -0.7907108,0.488859 -0.7907108,1.089739 0,0.314147 0.097513,0.596788 0.2523312,0.795843 -0.1318281,-0.194747 -0.2132251,-0.455198 -0.2132251,-0.741932 0,-0.600881 0.3547213,-1.089739 0.7906834,-1.089739"
         style="fill:#b4d158;fill-opacity:1;fill-rule:nonzero;stroke:none;stroke-width:0.00458765"
         id="path616" />
      <path
         d="m 8.373247,36.365259 c 0,0 0.1125857,-7.544963 0.2345113,-8.860416 0.00227,-0.0244 0.028176,-0.02305 0.029075,0.0015 0.037476,1.019348 0.2281415,6.333401 0.2281415,8.858908 H 8.373247"
         style="fill:#4d3c2d;fill-opacity:1;fill-rule:nonzero;stroke:none;stroke-width:0.00458765"
         id="path618" />
      <path
         d="m 8.3565603,32.523491 c -0.8114303,0 -1.4715557,-0.909749 -1.4715557,-2.028086 0,-1.118283 0.6601254,-2.028033 1.4715557,-2.028033 0.8114695,0 1.471587,0.90975 1.471587,2.028033 0,1.118337 -0.6601175,2.028086 -1.471587,2.028086"
         style="opacity:0.69;fill:#82b04b;fill-opacity:1;fill-rule:nonzero;stroke:none;stroke-width:0.00458765"
         id="path608" />
    </g>
    <g
       id="g8089"
       transform="translate(9.480321,-18.264966)">
      <path
         d="m -19.778327,49.633327 c 0.01031,-0.08558 0.01629,-0.172514 0.01629,-0.260869 0,-1.187888 -0.962945,-2.150833 -2.150833,-2.150833 -0.03038,0 -0.06054,0.0011 -0.09063,0.0023 -0.55126,-0.553323 -1.313947,-0.89586 -2.156595,-0.89586 -1.155804,0 -2.161148,0.644098 -2.676767,1.592886 -1.160286,0.06822 -2.116971,0.892018 -2.385594,1.986571 -0.678457,0.472936 -1.122795,1.258458 -1.122795,2.148201 0,0.875443 0.430252,1.649939 1.090356,2.125151 -0.02839,0.137513 -0.04347,0.280005 -0.04347,0.425913 0,1.156444 0.937476,2.093921 2.09392,2.093921 0.663092,0 1.253764,-0.308604 1.637419,-0.789578 0.499471,0.314294 1.090356,0.496767 1.724067,0.496767 1.0969,0 2.065963,-0.545142 2.652793,-1.378684 0.155013,0.02661 0.314152,0.04126 0.476706,0.04126 1.545791,0 2.798914,-1.253123 2.798914,-2.798914 0,-1.217767 -0.777911,-2.253345 -1.863785,-2.638281"
         style="fill:#b4d158;fill-opacity:1;fill-rule:nonzero;stroke:none;stroke-width:0.00711396"
         id="path112-2" />
      <path
         d="m -26.279057,55.097056 c -0.750309,0 -1.36154,-0.601129 -1.380676,-1.346813 -2.83e-4,0.01188 -0.0018,0.02355 -0.0018,0.03557 0,0.76226 0.620195,1.382454 1.382455,1.382454 0.762331,0 1.382454,-0.620194 1.382454,-1.382454 0,-0.01202 -0.0015,-0.02369 -0.0018,-0.03557 -0.01914,0.745684 -0.630368,1.346813 -1.380676,1.346813"
         style="fill:#609433;fill-opacity:1;fill-rule:nonzero;stroke:none;stroke-width:0.00711396"
         id="path128-9" />
      <path
         d="m -20.950421,52.566694 c -0.03799,1.402872 -1.190165,2.532568 -2.602,2.532568 -0.610377,0 -1.172024,-0.211427 -1.61629,-0.564564 -0.02184,0.02952 -0.04461,0.05826 -0.06865,0.08594 0.45451,0.386857 1.042692,0.620977 1.68494,0.620977 1.435738,0 2.603778,-1.167969 2.603778,-2.603778 0,-0.02383 -0.0011,-0.04745 -0.0018,-0.07114"
         style="fill:#609433;fill-opacity:1;fill-rule:nonzero;stroke:none;stroke-width:0.00711396"
         id="path134-1" />
      <path
         id="path118-7"
         style="fill:#609433;fill-opacity:1;fill-rule:nonzero;stroke:none;stroke-width:0.00711396"
         d="m -17.914542,52.249768 c 0,-1.545791 -1.253123,-2.798914 -2.798914,-2.798914 -1.54572,0 -2.798842,1.253123 -2.798842,2.798914 0,1.545791 1.253122,2.798913 2.798842,2.798913 1.545791,0 2.798914,-1.253122 2.798914,-2.798913 m -2.685517,1.605263 c 0,-1.791009 -1.451887,-3.242895 -3.242896,-3.242895 -1.791009,0 -3.242896,1.451886 -3.242896,3.242895 0,1.791009 1.451887,3.242896 3.242896,3.242896 1.791009,0 3.242896,-1.451887 3.242896,-3.242896 m -4.510531,0.729963 c 0,-1.156373 -0.937477,-2.09385 -2.09385,-2.09385 -1.156445,0 -2.093921,0.937477 -2.093921,2.09385 0,1.156444 0.937476,2.09385 2.093921,2.09385 1.156373,0 2.09385,-0.937406 2.09385,-2.09385" />
      <path
         id="path132-5"
         style="font-variation-settings:normal;vector-effect:none;fill:#82b04b;fill-opacity:1;fill-rule:nonzero;stroke:none;stroke-width:0.00711396;stroke-linecap:butt;stroke-linejoin:miter;stroke-miterlimit:4;stroke-dasharray:none;stroke-dashoffset:0;stroke-opacity:1;-inkscape-stroke:none;stop-color:#000000"
         d="m -21.685649,53.399669 c -1.347738,0 -2.444283,-1.096545 -2.444283,-2.444355 0,-1.34788 1.096545,-2.444283 2.444283,-2.444283 1.34781,0 2.444355,1.096403 2.444355,2.444283 0,1.34781 -1.096545,2.444355 -2.444355,2.444355 m -1.866772,1.927241 c -1.435809,0 -2.603849,-1.167969 -2.603849,-2.603778 0,-1.435738 1.16804,-2.603778 2.603849,-2.603778 1.435738,0 2.603778,1.16804 2.603778,2.603778 0,1.435809 -1.16804,2.603778 -2.603778,2.603778 m -2.726636,-0.144556 c -0.762331,0 -1.382455,-0.620194 -1.382455,-1.382454 0,-0.762331 0.620124,-1.382455 1.382455,-1.382455 0.762331,0 1.382454,0.620124 1.382454,1.382455 0,0.76226 -0.620123,1.382454 -1.382454,1.382454 m -1.382455,-0.04795 c -1.050944,0 -1.90597,-0.854955 -1.90597,-1.905899 0,-1.050944 0.855026,-1.90597 1.90597,-1.90597 1.050945,0 1.905899,0.855026 1.905899,1.90597 0,1.050944 -0.854954,1.905899 -1.905899,1.905899 m 0.574239,-1.69497 c -1.050945,0 -1.905971,-0.854955 -1.905971,-1.9059 0,-1.050944 0.855026,-1.90597 1.905971,-1.90597 1.050944,0 1.90597,0.855026 1.90597,1.90597 0,1.050945 -0.855026,1.9059 -1.90597,1.9059 m 1.976683,-0.347872 c -1.286345,0 -2.332879,-1.046534 -2.332879,-2.33295 0,-1.286346 1.046534,-2.332879 2.332879,-2.332879 1.286416,0 2.33295,1.046533 2.33295,2.332879 0,1.286416 -1.046534,2.33295 -2.33295,2.33295" />
      <path
         d="m -23.943689,50.509908 c -0.0036,-0.035 -0.05513,-0.03308 -0.05599,0.0021 -0.03358,1.360117 -0.137371,5.686041 -0.121222,6.534522 0.0185,0.967924 -0.169454,2.980675 -0.195207,3.250935 -0.0016,0.0165 0.01145,0.03031 0.02803,0.03031 h 0.536108 c 0.01522,0 0.02774,-0.01217 0.0281,-0.02746 0.0077,-0.318491 0.07968,-3.331606 0.09846,-4.906991 0.0148,-1.246935 -0.208937,-3.824035 -0.318279,-4.883445"
         style="fill:#4d3c2d;fill-opacity:1;fill-rule:nonzero;stroke:none;stroke-width:0.00711396"
         id="path138-2" />
      <path
         d="m -23.674995,56.69606 v 0.818389 l 5.65e-4,1.42e-4 c 0.576799,-1.129482 1.256822,-2.211586 2.244879,-3.149703 0.036,-0.03415 -0.0098,-0.09028 -0.04994,-0.06111 -0.498475,0.362314 -1.360259,1.106789 -2.195508,2.392281"
         style="fill:#4d3c2d;fill-opacity:1;fill-rule:nonzero;stroke:none;stroke-width:0.00711396"
         id="path142-7" />
      <path
         d="m -23.838269,54.94247 c 0,0 -0.957609,0 -2.342198,-1.476359 -0.01665,-0.01778 -0.04503,0.0031 -0.03187,0.02348 0.325036,0.506372 1.324476,1.916642 2.374068,1.916642 v -0.463759"
         style="fill:#4d3c2d;fill-opacity:1;fill-rule:nonzero;stroke:none;stroke-width:0.00711396"
         id="path148-0" />
    </g>
  </g>
</svg>
