<?xml version="1.0" encoding="UTF-8" standalone="no"?>
<svg
   width="435"
   height="132"
   version="1.1"
   viewBox="0 0 115.09309 34.925088"
   id="svg51"
   sodipodi:docname="logo-small.svg"
   inkscape:version="1.1.2 (0a00cf5339, 2022-02-04)"
   xmlns:inkscape="http://www.inkscape.org/namespaces/inkscape"
   xmlns:sodipodi="http://sodipodi.sourceforge.net/DTD/sodipodi-0.dtd"
   xmlns="http://www.w3.org/2000/svg"
   xmlns:svg="http://www.w3.org/2000/svg">
  <sodipodi:namedview
     id="namedview53"
     pagecolor="#ffffff"
     bordercolor="#666666"
     borderopacity="1.0"
     inkscape:pageshadow="2"
     inkscape:pageopacity="0.0"
     inkscape:pagecheckerboard="0"
     showgrid="false"
     inkscape:zoom="1.1481818"
     inkscape:cx="212.94537"
     inkscape:cy="75.3365"
     inkscape:window-width="1920"
     inkscape:window-height="1017"
     inkscape:window-x="0"
     inkscape:window-y="33"
     inkscape:window-maximized="1"
     inkscape:current-layer="svg51"
     lock-margins="true"
     fit-margin-top="3"
     fit-margin-left="3"
     fit-margin-right="3"
     fit-margin-bottom="3" />
  <defs
     id="defs29">
    <filter
       id="Initiatives Citoyennes Choletaisesa"
       x="-0.0014044561"
       y="-0.0092918221"
       width="1.0028089"
       height="1.0185837"
       style="color-interpolation-filters:sRGB">
      <feGaussianBlur
         in="SourceGraphic"
         result="result3"
         stdDeviation="0.06492347"
         id="feGaussianBlur2" />
      <feComponentTransfer
         in="result3"
         result="result1"
         id="feComponentTransfer10">
        <feFuncR
           tableValues="0 0.1 0.2 0.3 0.4 0.5 0.6 0.7 0.8 0.9 1"
           type="discrete"
           id="feFuncR4" />
        <feFuncG
           tableValues="0 0.1 0.2 0.3 0.4 0.5 0.6 0.7 0.8 0.9 1"
           type="discrete"
           id="feFuncG6" />
        <feFuncB
           tableValues="0 0.1 0.2 0.3 0.4 0.5 0.6 0.7 0.8 0.9 1"
           type="discrete"
           id="feFuncB8" />
      </feComponentTransfer>
      <feGaussianBlur
         result="result5"
         stdDeviation="0.01"
         id="feGaussianBlur12" />
      <feBlend
         in="result5"
         in2="result5"
         mode="lighten"
         result="result6"
         id="feBlend14" />
      <feColorMatrix
         in="result6"
         result="result2"
         type="luminanceToAlpha"
         id="feColorMatrix16" />
      <feSpecularLighting
         in="result2"
         result="result9"
         specularExponent="20"
         surfaceScale="5"
         id="feSpecularLighting20">
        <feDistantLight
           azimuth="180"
           elevation="90"
           id="feDistantLight18" />
      </feSpecularLighting>
      <feComposite
         in="result9"
         in2="result6"
         k1="0.4"
         k3="0.7"
         operator="arithmetic"
         result="result3"
         id="feComposite22"
         k2="0"
         k4="0" />
      <feBlend
         in="result3"
         in2="result1"
         result="result8"
         id="feBlend24"
         mode="normal" />
      <feComposite
         in="result8"
         in2="SourceGraphic"
         operator="in"
         result="result7"
         id="feComposite26" />
    </filter>
  </defs>
  <g
     id="g14636"
     transform="matrix(1.0010869,0,0,1.0006775,0.08138795,-0.42667208)">
    <path
       d="m 46.687076,11.740399 c 0,0 -7.279535,0.965881 -9.262799,-1.229641 C 34.129348,-0.07920396 23.51254,-0.2539724 16.7658,7.3428088 -2.9098109,32.446304 31.134373,45.35874 37.695163,19.98276 c 0.797585,-3.940897 5.141806,-4.395547 8.991913,-8.242361 z"
       style="font-variation-settings:normal;fill:none;stroke:#0ca7b7;stroke-width:1.5872;stroke-miterlimit:4;stroke-dasharray:none;stroke-opacity:1;stop-color:#000000"
       id="path39"
       sodipodi:nodetypes="ccccc" />
    <path
       style="color:#000000;fill:#f3ac29;stroke-width:1.11618;-inkscape-stroke:none"
       d="M 7.7665389,34.499238 C -1.2098523,23.230597 2.8425233,12.399321 12.494141,1.2195978 1.5225696,6.5372611 -5.0915116,28.086279 7.7665389,34.499238 Z"
       id="path6053"
       sodipodi:nodetypes="ccc" />
    <g
       id="g1253"
       transform="matrix(0.69690692,0,0,0.69612348,4.0305609,-6.3781278)">
      <path
         d="m 123.9135,49.169 c -0.0292,0.05108 -0.0694,0.07654 -0.1205,0.07654 -0.0366,0 -0.0823,-0.02187 -0.13695,-0.0656 -0.0511,-0.04735 -0.12231,-0.09841 -0.21363,-0.15312 -0.0876,-0.05828 -0.19903,-0.10935 -0.33416,-0.15312 -0.13512,-0.04734 -0.3031,-0.07108 -0.50396,-0.07108 -0.18624,0 -0.36336,0.03093 -0.53135,0.09295 -0.16433,0.062 -0.30859,0.14581 -0.43274,0.25154 -0.12051,0.10202 -0.21729,0.22239 -0.29033,0.36093 -0.0694,0.13489 -0.10406,0.27889 -0.10406,0.432 0,0.14947 0.0347,0.27525 0.10406,0.37733 0.0694,0.10202 0.16067,0.1914 0.2739,0.26796 0.11683,0.07294 0.2465,0.1367 0.38892,0.1914 0.14607,0.05467 0.2958,0.10935 0.44918,0.16405 0.15339,0.05467 0.30129,0.11666 0.4437,0.18593 0.14607,0.06562 0.27572,0.14581 0.38893,0.24062 0.11683,0.09481 0.20999,0.21144 0.27937,0.34998 0.0694,0.13489 0.10406,0.29894 0.10406,0.49216 0,0.23332 -0.0475,0.45936 -0.14243,0.67808 -0.0913,0.21874 -0.22458,0.41379 -0.39987,0.58514 -0.17164,0.1677 -0.3798,0.30259 -0.62447,0.40467 -0.24102,0.10202 -0.51126,0.15311 -0.81072,0.15311 -0.35058,0 -0.64639,-0.06013 -0.8874,-0.18044 -0.23737,-0.12396 -0.44189,-0.28437 -0.61353,-0.48124 l 0.13147,-0.18592 c 0.0402,-0.05833 0.0894,-0.08749 0.1479,-0.08749 0.0365,0 0.0823,0.02926 0.13696,0.08749 0.0547,0.05833 0.12963,0.12395 0.22459,0.19687 0.0949,0.06922 0.21729,0.13306 0.36702,0.1914 0.14973,0.05833 0.3378,0.08749 0.56422,0.08749 0.2191,0 0.4163,-0.03466 0.5916,-0.10389 0.17894,-0.07291 0.3305,-0.17132 0.45466,-0.29529 0.12781,-0.12395 0.22641,-0.26613 0.2958,-0.42655 0.0694,-0.16405 0.10407,-0.33722 0.10407,-0.5195 0,-0.1604 -0.0347,-0.2953 -0.10407,-0.40467 -0.0694,-0.10935 -0.1625,-0.20235 -0.27937,-0.27891 -0.1132,-0.0802 -0.24284,-0.14765 -0.38892,-0.20233 -0.14243,-0.05464 -0.29033,-0.10749 -0.44371,-0.15859 -0.15337,-0.05464 -0.3031,-0.11295 -0.44917,-0.175 -0.14242,-0.0656 -0.27206,-0.14399 -0.38893,-0.23513 -0.1132,-0.09121 -0.2045,-0.20233 -0.27389,-0.33358 -0.0694,-0.13124 -0.10406,-0.29165 -0.10406,-0.48122 0,-0.21145 0.0456,-0.41379 0.13693,-0.607 0.0913,-0.19687 0.21913,-0.37004 0.38346,-0.51951 0.16433,-0.15313 0.35972,-0.27344 0.58613,-0.36093 0.23007,-0.09121 0.48022,-0.13671 0.75046,-0.13671 0.30676,0 0.57152,0.04735 0.79428,0.14219 0.22642,0.09481 0.42727,0.23696 0.60257,0.42654 z m -6.5583,0.37185 c 0,0.14947 -0.02,0.29166 -0.0602,0.42655 -0.0402,0.13489 -0.11133,0.26249 -0.21363,0.38279 -0.1023,0.12031 -0.24103,0.23515 -0.41632,0.34451 -0.1753,0.10575 -0.39988,0.20416 -0.67379,0.2953 -0.27389,0.08747 -0.60073,0.16771 -0.98052,0.24061 -0.3798,0.06922 -0.82533,0.13123 -1.3366,0.18593 -0.007,0.0766 -0.0125,0.15309 -0.0164,0.22968 -0.004,0.07291 -0.005,0.14581 -0.005,0.21873 0,0.54321 0.12233,0.96792 0.367,1.2742 0.24833,0.30624 0.62083,0.45936 1.1175,0.45936 0.19354,0 0.367,-0.02007 0.52039,-0.06013 0.15703,-0.04375 0.2958,-0.09841 0.41632,-0.16405 0.12416,-0.06562 0.23189,-0.13488 0.32319,-0.2078 0.0949,-0.07291 0.17894,-0.14218 0.25199,-0.20781 0.073,-0.06553 0.13513,-0.11848 0.18624,-0.1586 0.0547,-0.04375 0.10406,-0.06553 0.1479,-0.06553 0.0438,0 0.0821,0.01828 0.11508,0.05464 l 0.12051,0.14219 c -0.17894,0.18958 -0.35423,0.35363 -0.52586,0.49216 -0.16798,0.13488 -0.33963,0.24609 -0.51493,0.33358 -0.17164,0.08749 -0.35058,0.1513 -0.53682,0.1914 -0.18624,0.04375 -0.38527,0.06562 -0.59709,0.06562 -0.3031,0 -0.57335,-0.04914 -0.81072,-0.14766 -0.23373,-0.10202 -0.43093,-0.24426 -0.59162,-0.42653 -0.16067,-0.18593 -0.28302,-0.41014 -0.367,-0.67263 -0.084,-0.26612 -0.126,-0.56325 -0.126,-0.89136 0,-0.27344 0.0274,-0.54868 0.0821,-0.82574 0.0547,-0.27706 0.1351,-0.54321 0.24103,-0.7984 0.10957,-0.25519 0.24285,-0.49399 0.39987,-0.71636 0.16069,-0.22239 0.34329,-0.4156 0.54779,-0.57966 0.2045,-0.16406 0.43092,-0.29348 0.67925,-0.38826 0.24833,-0.09481 0.51674,-0.14218 0.80524,-0.14218 0.26659,0 0.49117,0.03827 0.67377,0.11481 0.18624,0.07294 0.33597,0.16586 0.44917,0.27889 0.11683,0.10935 0.20086,0.22967 0.25199,0.36092 0.0511,0.1276 0.0766,0.24791 0.0766,0.36093 z m -1.479,-0.73278 c -0.29215,0 -0.5569,0.062 -0.79428,0.18593 -0.23372,0.12395 -0.44187,0.28982 -0.62447,0.49763 -0.17894,0.20416 -0.3305,0.44295 -0.45466,0.71637 -0.12051,0.26978 -0.20999,0.55231 -0.26842,0.84762 0.46379,-0.05107 0.86368,-0.10935 1.1996,-0.175 0.33597,-0.06922 0.62082,-0.14034 0.85454,-0.21327 0.23372,-0.07654 0.42179,-0.15857 0.5642,-0.24609 0.14607,-0.08747 0.25929,-0.17681 0.33963,-0.26796 0.0804,-0.09481 0.1333,-0.1914 0.15886,-0.28983 0.0292,-0.09841 0.0438,-0.20051 0.0438,-0.30624 0,-0.07654 -0.0183,-0.15857 -0.0548,-0.24607 -0.0329,-0.09121 -0.0895,-0.17317 -0.16982,-0.24609 -0.0804,-0.07294 -0.18625,-0.13306 -0.31773,-0.18046 -0.12781,-0.05107 -0.28666,-0.07654 -0.47656,-0.07654 z m -5.8517,0.36093 c -0.0292,0.05108 -0.0694,0.07654 -0.12051,0.07654 -0.0365,0 -0.0821,-0.02187 -0.13694,-0.0656 -0.0511,-0.04735 -0.12231,-0.09841 -0.21363,-0.15312 -0.0876,-0.05828 -0.19903,-0.10935 -0.33416,-0.15312 -0.13512,-0.04734 -0.3031,-0.07108 -0.50396,-0.07108 -0.18624,0 -0.36336,0.03093 -0.53135,0.09295 -0.16433,0.062 -0.30858,0.14581 -0.43274,0.25154 -0.12052,0.10202 -0.21729,0.22239 -0.29033,0.36093 -0.0694,0.13489 -0.10407,0.27889 -0.10407,0.432 0,0.14947 0.0347,0.27525 0.10407,0.37733 0.0694,0.10202 0.16067,0.1914 0.27389,0.26796 0.11684,0.07294 0.2465,0.1367 0.38893,0.1914 0.14607,0.05467 0.2958,0.10935 0.44919,0.16405 0.15338,0.05467 0.30128,0.11666 0.4437,0.18593 0.14607,0.06562 0.27572,0.14581 0.38893,0.24062 0.11684,0.09481 0.20997,0.21144 0.27936,0.34998 0.0694,0.13489 0.10407,0.29894 0.10407,0.49216 0,0.23332 -0.0475,0.45936 -0.14243,0.67808 -0.0913,0.21874 -0.22459,0.41379 -0.39989,0.58514 -0.17164,0.1677 -0.37979,0.30259 -0.62446,0.40467 -0.24103,0.10202 -0.51127,0.15311 -0.81073,0.15311 -0.35059,0 -0.64639,-0.06013 -0.8874,-0.18044 -0.23738,-0.12397 -0.44188,-0.28439 -0.61352,-0.48126 l 0.13147,-0.18591 c 0.0402,-0.05833 0.0894,-0.08749 0.1479,-0.08749 0.0366,0 0.0823,0.02926 0.13694,0.08749 0.0547,0.05833 0.12963,0.12394 0.2246,0.19687 0.0949,0.06922 0.21728,0.13305 0.367,0.19139 0.14973,0.05833 0.3378,0.08749 0.56422,0.08749 0.21911,0 0.41632,-0.03466 0.59161,-0.10389 0.17893,-0.07291 0.33049,-0.17133 0.45466,-0.2953 0.12781,-0.12395 0.22642,-0.26614 0.2958,-0.42655 0.0694,-0.16404 0.10406,-0.33721 0.10406,-0.5195 0,-0.1604 -0.0347,-0.2953 -0.10406,-0.40466 -0.0694,-0.10935 -0.1625,-0.20235 -0.27937,-0.27892 -0.1132,-0.0802 -0.24286,-0.14763 -0.38893,-0.20232 -0.14242,-0.05464 -0.29032,-0.10749 -0.4437,-0.15859 -0.15338,-0.05464 -0.30311,-0.11296 -0.44919,-0.175 -0.14242,-0.0656 -0.27206,-0.14399 -0.38892,-0.23513 -0.1132,-0.09121 -0.2045,-0.20233 -0.27389,-0.33358 -0.0694,-0.13124 -0.10407,-0.29165 -0.10407,-0.48122 0,-0.21146 0.0456,-0.41379 0.13694,-0.607 0.0913,-0.19687 0.21912,-0.37004 0.38345,-0.51951 0.16433,-0.15312 0.35972,-0.27343 0.58613,-0.36093 0.23007,-0.09121 0.48023,-0.13671 0.75047,-0.13671 0.30676,0 0.57152,0.04734 0.79428,0.14219 0.22642,0.09481 0.42727,0.23696 0.60256,0.42654 z m -6.6843,-0.66715 -0.66282,5.4411 h -0.50943 l 0.66282,-5.4411 z m 0.39989,-1.8757 c 0,0.0656 -0.0146,0.12758 -0.0438,0.18592 -0.0255,0.05467 -0.0602,0.10389 -0.10406,0.14766 -0.0438,0.04375 -0.0949,0.0784 -0.15338,0.10389 -0.0547,0.02548 -0.11132,0.03827 -0.16981,0.03827 -0.0621,0 -0.12054,-0.01279 -0.1753,-0.03827 -0.0547,-0.02548 -0.10219,-0.06015 -0.14242,-0.10389 -0.0402,-0.04375 -0.073,-0.09296 -0.0986,-0.14766 -0.0255,-0.05828 -0.0383,-0.1203 -0.0383,-0.18592 0,-0.0656 0.0128,-0.12759 0.0383,-0.18593 0.0256,-0.05828 0.0584,-0.10935 0.0986,-0.15311 0.0438,-0.04734 0.0932,-0.08388 0.1479,-0.10935 0.0547,-0.02548 0.1132,-0.03827 0.17529,-0.03827 0.0585,0 0.11508,0.0128 0.16982,0.03827 0.0585,0.02548 0.10957,0.06015 0.15338,0.10389 0.0438,0.04375 0.0785,0.09656 0.10406,0.15859 0.0255,0.05828 0.0383,0.1203 0.0383,0.18593 z m -5.5285,7.3168 h -0.25198 c -0.073,0 -0.12234,-0.02007 -0.14789,-0.06013 -0.02555,-0.04015 -0.03832,-0.0856 -0.03832,-0.13671 l 0.18624,-1.6952 c -0.13877,0.29165 -0.29215,0.55962 -0.46013,0.80388 -0.16434,0.2406 -0.34146,0.44659 -0.53136,0.61794 -0.1899,0.17134 -0.38892,0.30441 -0.59708,0.3992 -0.20816,0.0948 -0.42363,0.14217 -0.64639,0.14217 -0.22642,0 -0.42727,-0.04375 -0.60256,-0.13123 -0.17164,-0.09119 -0.31589,-0.21874 -0.43276,-0.38279 -0.1132,-0.16406 -0.19903,-0.36275 -0.25746,-0.59606 -0.05848,-0.23332 -0.08765,-0.49581 -0.08765,-0.78747 0,-0.31717 0.0402,-0.62705 0.12052,-0.92964 0.08402,-0.30624 0.19903,-0.59607 0.3451,-0.86949 0.14607,-0.27339 0.32137,-0.52494 0.52587,-0.75461 0.2045,-0.22967 0.43092,-0.42836 0.67925,-0.59607 0.24833,-0.1677 0.5131,-0.29895 0.79429,-0.39373 0.28119,-0.09481 0.57152,-0.14218 0.87098,-0.14218 0.21547,0 0.41814,0.02001 0.60803,0.06015 0.19356,0.03641 0.38164,0.10202 0.56423,0.19686 z m -2.3171,-0.36091 c 0.20816,0 0.41267,-0.05833 0.61352,-0.175 0.20086,-0.11667 0.39259,-0.28072 0.57518,-0.49216 0.18624,-0.21146 0.35972,-0.46482 0.52039,-0.76013 0.16068,-0.29893 0.30494,-0.62886 0.43276,-0.98979 l 0.27937,-2.2366 c -0.21547,-0.07294 -0.44736,-0.10935 -0.69569,-0.10935 -0.36519,0 -0.71395,0.08934 -1.0463,0.26796 -0.33232,0.17864 -0.62446,0.41743 -0.87645,0.71638 -0.25199,0.29894 -0.45283,0.64164 -0.60256,1.0281 -0.14973,0.38644 -0.2246,0.78745 -0.2246,1.2031 0,0.48851 0.08215,0.86948 0.24651,1.1429 0.16799,0.26979 0.42726,0.40467 0.77785,0.40467 z m -6.9418,-0.55232 v -0.0821 c 0.0035,-0.03276 0.007,-0.0821 0.01055,-0.14764 0.007,-0.06562 0.01617,-0.14946 0.02742,-0.25155 0.01054,-0.10575 0.02742,-0.23879 0.04934,-0.3992 l 0.37249,-3.0897 H 88.6949 c -0.03656,0 -0.06574,-0.01045 -0.08766,-0.03281 -0.02191,-0.02187 -0.0293,-0.05281 -0.02191,-0.09295 l 0.02742,-0.20233 0.86002,-0.0656 0.36154,-1.9468 c 0.007,-0.03281 0.02344,-0.06199 0.04934,-0.08747 0.02555,-0.02548 0.0566,-0.03827 0.09316,-0.03827 h 0.25199 l -0.25747,2.078 h 1.5776 l -0.04383,0.38826 h -1.5776 l -0.37797,3.0733 c -0.01828,0.14948 -0.03469,0.27161 -0.04934,0.36638 -0.01055,0.09481 -0.02004,0.17317 -0.02742,0.23515 -0.0035,0.05833 -0.007,0.10202 -0.01055,0.13124 v 0.06562 c 0,0.23697 0.05484,0.40831 0.16434,0.51403 0.1132,0.10575 0.25746,0.1586 0.43275,0.1586 0.12052,0 0.22642,-0.01828 0.31772,-0.05463 0.09492,-0.04015 0.17712,-0.0821 0.2465,-0.12578 0.06937,-0.04735 0.12598,-0.08929 0.16981,-0.12578 0.04383,-0.04015 0.07664,-0.06013 0.09856,-0.06013 0.03656,0 0.06398,0.01828 0.08215,0.05464 l 0.09856,0.22969 c -0.14607,0.15311 -0.3232,0.27706 -0.53136,0.37185 -0.20816,0.09119 -0.4163,0.13671 -0.62446,0.13671 -0.29946,0 -0.535,-0.0821 -0.70664,-0.24607 -0.16799,-0.16407 -0.25382,-0.41561 -0.25746,-0.75466 z m -3.5784,-3.4889 c 0,0.14947 -0.02004,0.29166 -0.06023,0.42655 -0.0402,0.13489 -0.11133,0.26249 -0.21364,0.38279 -0.10219,0.12031 -0.24102,0.23515 -0.41632,0.34451 -0.17529,0.10575 -0.39988,0.20416 -0.67376,0.2953 -0.2739,0.08747 -0.60074,0.16771 -0.98053,0.24061 -0.3798,0.06922 -0.82533,0.13123 -1.3366,0.18593 -0.007,0.0766 -0.01254,0.15309 -0.0164,0.22968 -0.0035,0.07291 -0.0047,0.14581 -0.0047,0.21873 0,0.54321 0.12234,0.96792 0.36702,1.2742 0.24833,0.30624 0.62082,0.45936 1.1175,0.45936 0.19356,0 0.36702,-0.02007 0.5204,-0.06013 0.15703,-0.04375 0.2958,-0.09841 0.41632,-0.16405 0.12416,-0.06562 0.23189,-0.13488 0.32319,-0.2078 0.09492,-0.07291 0.17893,-0.14218 0.25197,-0.20781 0.07301,-0.06553 0.13513,-0.11848 0.18626,-0.1586 0.05473,-0.04375 0.10406,-0.06553 0.1479,-0.06553 0.04383,0 0.08215,0.01828 0.11508,0.05464 l 0.12052,0.14219 c -0.17894,0.18958 -0.35423,0.35363 -0.52587,0.49216 -0.16799,0.13488 -0.33963,0.24609 -0.51492,0.33358 -0.17164,0.08749 -0.35059,0.1513 -0.53683,0.1914 -0.18624,0.04375 -0.38527,0.06562 -0.59708,0.06562 -0.30311,0 -0.57336,-0.04914 -0.81073,-0.14766 -0.23371,-0.10203 -0.43092,-0.24426 -0.5916,-0.42654 -0.16067,-0.18593 -0.28302,-0.41014 -0.36702,-0.67262 -0.08402,-0.26614 -0.12599,-0.56325 -0.12599,-0.89136 0,-0.27344 0.02742,-0.54869 0.08215,-0.82575 0.05472,-0.27706 0.13512,-0.5432 0.24104,-0.7984 0.10957,-0.25519 0.24284,-0.49398 0.39987,-0.71636 0.16069,-0.22239 0.34329,-0.4156 0.54779,-0.57966 0.2045,-0.16406 0.43092,-0.29348 0.67925,-0.38826 0.24833,-0.09481 0.51674,-0.14218 0.80524,-0.14218 0.26659,0 0.49119,0.03827 0.67378,0.11481 0.18624,0.07294 0.33597,0.16586 0.44918,0.27889 0.11684,0.10935 0.20086,0.22967 0.25198,0.36092 0.05109,0.1276 0.07664,0.24791 0.07664,0.36093 z m -1.479,-0.73278 c -0.29216,0 -0.55693,0.062 -0.79429,0.18593 -0.23373,0.12395 -0.44189,0.28982 -0.62449,0.49763 -0.17893,0.20416 -0.33049,0.44295 -0.45465,0.71637 -0.12052,0.26978 -0.20999,0.55231 -0.26842,0.84762 0.46379,-0.05107 0.86366,-0.10935 1.1996,-0.175 0.33597,-0.06922 0.62082,-0.14034 0.85455,-0.21327 0.23373,-0.07654 0.4218,-0.15857 0.56423,-0.24609 0.14607,-0.08747 0.25928,-0.17681 0.33962,-0.26796 0.08039,-0.09481 0.1333,-0.1914 0.15886,-0.28983 0.02918,-0.09841 0.04383,-0.20051 0.04383,-0.30624 0,-0.07654 -0.01828,-0.15857 -0.05484,-0.24607 -0.03293,-0.09121 -0.08953,-0.17317 -0.16982,-0.24609 -0.08039,-0.07294 -0.18624,-0.13306 -0.3177,-0.18046 -0.12782,-0.05107 -0.28667,-0.07654 -0.47657,-0.07654 z m -7.1609,5.1349 0.96409,-7.9566 h 0.50944 l -0.96958,7.9566 z m -5.9229,-0.33904 c 0.31772,0 0.60622,-0.08209 0.8655,-0.24609 0.26293,-0.1677 0.48753,-0.38826 0.67377,-0.66169 0.18624,-0.27706 0.32866,-0.59241 0.42727,-0.94604 0.1023,-0.35727 0.15337,-0.72366 0.15337,-1.0992 0,-0.5833 -0.12964,-1.0317 -0.38893,-1.3452 -0.25928,-0.31352 -0.61899,-0.47029 -1.0791,-0.47029 -0.31772,0 -0.60804,0.08202 -0.87098,0.24607 -0.25929,0.16406 -0.48205,0.3828 -0.66829,0.65622 -0.1826,0.26978 -0.32503,0.58148 -0.42727,0.93511 -0.1023,0.35363 -0.15338,0.72184 -0.15338,1.1046 0,0.57966 0.12781,1.0299 0.38344,1.3507 0.25929,0.31717 0.62083,0.47576 1.0846,0.47576 z m -0.04382,0.41013 c -0.29216,0 -0.55874,-0.05104 -0.79976,-0.15311 -0.23737,-0.10203 -0.44187,-0.24972 -0.61352,-0.44295 -0.16799,-0.19322 -0.29946,-0.42654 -0.3944,-0.69996 -0.09129,-0.27707 -0.13696,-0.59061 -0.13696,-0.94058 0,-0.44113 0.06574,-0.86403 0.1972,-1.2687 0.13147,-0.40467 0.31589,-0.76194 0.55327,-1.0718 0.24102,-0.30988 0.52586,-0.55597 0.85453,-0.73825 0.32867,-0.18593 0.6902,-0.2789 1.0846,-0.2789 0.29214,0 0.5569,0.05107 0.79428,0.15312 0.24103,0.10213 0.44554,0.24973 0.61353,0.44294 0.17163,0.19322 0.3031,0.42838 0.3944,0.70544 0.09492,0.27342 0.14242,0.58148 0.14242,0.92418 0,0.44113 -0.0675,0.86402 -0.20267,1.2687 -0.13147,0.40468 -0.3159,0.76378 -0.55326,1.0773 -0.23737,0.30988 -0.5204,0.55779 -0.84907,0.74372 -0.32867,0.18592 -0.6902,0.27888 -1.0846,0.27888 z m -9.8012,-0.07111 0.96409,-7.9566 h 0.51492 l -0.50396,4.156 c 0.14607,-0.27342 0.30676,-0.51586 0.48205,-0.72731 0.17894,-0.21509 0.36519,-0.39556 0.55874,-0.54138 0.1972,-0.14947 0.39806,-0.26249 0.60256,-0.33904 0.2045,-0.07654 0.41083,-0.11481 0.61899,-0.11481 0.23738,0 0.44006,0.0456 0.60804,0.13671 0.16799,0.0912 0.30129,0.22422 0.39989,0.3992 0.09856,0.175 0.1625,0.39009 0.19172,0.64528 0.03293,0.25155 0.02942,0.53956 -0.01049,0.86402 l -0.41083,3.478 h -0.51492 l 0.41083,-3.478 c 0.0621,-0.51768 0.02742,-0.91507 -0.10406,-1.1921 -0.13147,-0.28072 -0.37797,-0.42107 -0.7395,-0.42107 -0.19721,0 -0.39806,0.05107 -0.60256,0.15311 -0.20451,0.09842 -0.40354,0.24243 -0.59709,0.43202 -0.1899,0.18593 -0.37067,0.41196 -0.54232,0.67809 -0.17164,0.26613 -0.32319,0.56325 -0.45466,0.89136 l -0.35606,2.9366 z m -3.2716,-0.99526 c -0.19356,0.2151 -0.37797,0.39191 -0.55326,0.53045 -0.17164,0.13854 -0.34145,0.2479 -0.50943,0.32811 -0.16433,0.0803 -0.33232,0.13489 -0.50396,0.16406 -0.17164,0.02916 -0.35424,0.04375 -0.54779,0.04375 -0.31407,0 -0.58796,-0.05284 -0.82168,-0.15859 -0.23007,-0.10935 -0.4218,-0.26067 -0.57517,-0.45388 -0.15339,-0.19322 -0.26842,-0.4229 -0.3451,-0.68904 -0.07676,-0.26613 -0.11508,-0.55595 -0.11508,-0.86949 0,-0.28801 0.02918,-0.57236 0.08765,-0.85308 0.0621,-0.28437 0.14975,-0.55414 0.26294,-0.80933 0.1132,-0.2552 0.25016,-0.49034 0.41083,-0.70544 0.16069,-0.2151 0.34146,-0.40103 0.54232,-0.55778 0.20084,-0.15677 0.41813,-0.2789 0.65186,-0.3664 0.23737,-0.09119 0.48936,-0.13671 0.75594,-0.13671 0.17893,0 0.33962,0.01828 0.48205,0.05467 0.14607,0.03281 0.27937,0.08202 0.39987,0.14765 0.12052,0.06199 0.23007,0.13853 0.32867,0.22968 0.09856,0.0912 0.1899,0.19321 0.2739,0.30623 l -0.15338,0.18046 c -0.03293,0.04013 -0.07124,0.06015 -0.11508,0.06015 -0.03656,0 -0.08214,-0.02919 -0.13693,-0.08747 -0.0511,-0.05828 -0.12231,-0.1203 -0.21364,-0.18592 -0.08765,-0.06922 -0.20268,-0.13306 -0.3451,-0.1914 -0.14243,-0.05828 -0.32137,-0.08748 -0.53683,-0.08748 -0.30676,0 -0.59343,0.08202 -0.86002,0.24607 -0.26293,0.16406 -0.493,0.38462 -0.6902,0.66169 -0.19356,0.27706 -0.34693,0.59789 -0.46014,0.96246 -0.10957,0.36092 -0.16433,0.73825 -0.16433,1.132 0,0.25155 0.02742,0.48488 0.08215,0.69997 0.05848,0.2151 0.14608,0.40103 0.26293,0.55778 0.12051,0.15677 0.27024,0.2789 0.44917,0.36639 0.17896,0.08749 0.39076,0.13125 0.63543,0.13125 0.19356,0 0.36702,-0.01998 0.5204,-0.06013 0.15337,-0.04375 0.28849,-0.09655 0.40536,-0.15859 0.12051,-0.06202 0.2246,-0.12939 0.31224,-0.20232 0.09129,-0.0766 0.17163,-0.14581 0.24102,-0.20781 0.06937,-0.06202 0.1278,-0.11295 0.17529,-0.15312 0.05109,-0.04375 0.0968,-0.06552 0.13696,-0.06552 0.04019,0 0.07852,0.01827 0.11508,0.05463 l 0.11508,0.14218 z"
         style="font-variation-settings:normal;fill:#552200;stroke:#552200;stroke-width:0.10583;stop-color:#000000"
         id="path31" />
      <path
         d="m 144.733,18.627 c -0.0291,0.05098 -0.0691,0.07649 -0.11996,0.07649 -0.0363,0 -0.0818,-0.02186 -0.13632,-0.06556 -0.0509,-0.04734 -0.12178,-0.09833 -0.21266,-0.15297 -0.0872,-0.05827 -0.19812,-0.10926 -0.33262,-0.15297 -0.1345,-0.04734 -0.30172,-0.07102 -0.50166,-0.07102 -0.1854,0 -0.36171,0.03096 -0.52893,0.09287 -0.16359,0.06191 -0.30718,0.14568 -0.43078,0.25131 -0.11996,0.10198 -0.2163,0.22217 -0.289,0.36057 -0.0691,0.13476 -0.1036,0.27862 -0.1036,0.4316 0,0.14933 0.0345,0.27498 0.1036,0.37696 0.0691,0.10198 0.15995,0.19121 0.27264,0.2677 0.11633,0.07284 0.24538,0.13658 0.38715,0.19121 0.14541,0.05464 0.29446,0.10926 0.44714,0.1639 0.15268,0.05464 0.29991,0.11655 0.44168,0.18575 0.14541,0.06556 0.27446,0.14568 0.38715,0.24038 0.11632,0.0947 0.20902,0.21125 0.27809,0.34965 0.0691,0.13476 0.1036,0.29866 0.1036,0.49169 0,0.2331 -0.0473,0.45891 -0.14178,0.67744 -0.0909,0.21853 -0.22357,0.41338 -0.39806,0.58457 -0.17086,0.16754 -0.37806,0.3023 -0.62163,0.40428 -0.23993,0.10198 -0.50893,0.15297 -0.80702,0.15297 -0.34898,0 -0.64344,-0.06009 -0.88336,-0.18029 -0.23629,-0.12383 -0.43986,-0.28409 -0.61072,-0.48076 l 0.13087,-0.18575 c 0.04,-0.05826 0.0891,-0.08741 0.14723,-0.08741 0.0364,0 0.0818,0.02914 0.13632,0.08741 0.0545,0.05827 0.12905,0.12383 0.22357,0.19668 0.0945,0.06919 0.2163,0.13294 0.36534,0.19121 0.14904,0.05827 0.33626,0.08741 0.56164,0.08741 0.21811,0 0.41442,-0.0346 0.58891,-0.10379 0.17813,-0.07284 0.32899,-0.17118 0.45259,-0.29502 0.12723,-0.12383 0.22538,-0.26588 0.29445,-0.42613 0.0691,-0.1639 0.10361,-0.3369 0.10361,-0.51901 0,-0.16026 -0.0345,-0.29501 -0.10361,-0.40428 -0.0691,-0.10927 -0.16176,-0.20214 -0.2781,-0.27862 -0.1127,-0.08013 -0.24174,-0.14751 -0.38715,-0.20214 -0.14178,-0.05464 -0.289,-0.10744 -0.44168,-0.15844 -0.15268,-0.05464 -0.30172,-0.11291 -0.44714,-0.17482 -0.14177,-0.06556 -0.27082,-0.14386 -0.38715,-0.23492 -0.1127,-0.09105 -0.20357,-0.20214 -0.27264,-0.33326 -0.0691,-0.13112 -0.1036,-0.29137 -0.1036,-0.48076 0,-0.21124 0.0454,-0.41338 0.13632,-0.60642 0.0909,-0.19668 0.21811,-0.36968 0.3817,-0.51901 0.16359,-0.15297 0.35807,-0.27316 0.58346,-0.36058 0.22902,-0.09105 0.47803,-0.13658 0.74704,-0.13658 0.30536,0 0.56891,0.04734 0.79066,0.14204 0.22538,0.0947 0.42532,0.23674 0.59982,0.42613 z m -6.5284,0.3715 c 0,0.14933 -0.02,0.29137 -0.06,0.42613 -0.04,0.13476 -0.11088,0.26224 -0.21266,0.38242 -0.10179,0.12019 -0.23993,0.23492 -0.41442,0.34418 -0.17449,0.10562 -0.39806,0.20396 -0.6707,0.29502 -0.27264,0.08741 -0.598,0.16754 -0.97606,0.24038 -0.37807,0.06921 -0.82157,0.13112 -1.3305,0.18575 -0.007,0.07649 -0.0127,0.15297 -0.0164,0.22946 -0.004,0.07284 -0.006,0.14569 -0.006,0.21853 0,0.54268 0.12178,0.96699 0.36534,1.2729 0.2472,0.30594 0.61799,0.45891 1.1124,0.45891 0.19267,0 0.36534,-0.02004 0.51802,-0.06009 0.15632,-0.04371 0.29445,-0.09833 0.41442,-0.1639 0.1236,-0.06556 0.23084,-0.13476 0.32172,-0.2076 0.0945,-0.07284 0.17812,-0.14205 0.25083,-0.2076 0.0727,-0.06556 0.1345,-0.11837 0.1854,-0.15843 0.0545,-0.04371 0.10361,-0.06556 0.14723,-0.06556 0.0436,0 0.0818,0.01821 0.1145,0.05464 l 0.11996,0.14204 c -0.17813,0.18939 -0.35262,0.35329 -0.52347,0.49169 -0.16722,0.13476 -0.33808,0.24585 -0.51257,0.33326 -0.17086,0.08741 -0.34898,0.15115 -0.53438,0.19121 -0.1854,0.04371 -0.38352,0.06556 -0.59436,0.06556 -0.30172,0 -0.57073,-0.04917 -0.80702,-0.14751 -0.23266,-0.10199 -0.42896,-0.24403 -0.58891,-0.42614 -0.15995,-0.18575 -0.28173,-0.40974 -0.36534,-0.67198 -0.0836,-0.26588 -0.12542,-0.56271 -0.12542,-0.89051 0,-0.27316 0.0273,-0.54814 0.0818,-0.82495 0.0545,-0.2768 0.13451,-0.54268 0.23993,-0.79763 0.10906,-0.25495 0.24174,-0.49351 0.39806,-0.71568 0.15995,-0.22217 0.34171,-0.41521 0.54529,-0.5791 0.20358,-0.16389 0.42896,-0.29319 0.67615,-0.38789 0.2472,-0.0947 0.51439,-0.14204 0.80157,-0.14204 0.26537,0 0.48894,0.03824 0.6707,0.11473 0.1854,0.07284 0.33444,0.16572 0.44714,0.27862 0.11632,0.10927 0.19994,0.22946 0.25083,0.36057 0.0509,0.12747 0.0763,0.24766 0.0763,0.36057 z m -1.4723,-0.73207 c -0.29082,0 -0.55437,0.06192 -0.79066,0.18575 -0.23266,0.12383 -0.43987,0.28955 -0.62163,0.49716 -0.17812,0.20396 -0.32899,0.44252 -0.45259,0.71568 -0.11996,0.26952 -0.20903,0.55179 -0.26719,0.8468 0.46168,-0.05098 0.85973,-0.10926 1.1942,-0.17482 0.33444,-0.06921 0.61799,-0.14023 0.85065,-0.21307 0.23266,-0.07649 0.41987,-0.15844 0.56164,-0.24584 0.14541,-0.08741 0.2581,-0.17664 0.33808,-0.2677 0.08,-0.09469 0.13269,-0.19121 0.15813,-0.28955 0.0291,-0.09833 0.0436,-0.20032 0.0436,-0.30594 0,-0.07649 -0.0182,-0.15844 -0.0545,-0.24584 -0.0327,-0.09105 -0.0891,-0.173 -0.16904,-0.24585 -0.08,-0.07284 -0.1854,-0.13294 -0.31626,-0.18029 -0.12724,-0.05098 -0.28537,-0.07649 -0.4744,-0.07649 z m -9.8274,-0.30594 h 0.39806 c 0.0509,0 0.0891,0.01456 0.11451,0.0437 0.0291,0.0255 0.0473,0.05464 0.0545,0.08741 l 1.1069,4.2886 c 0.0145,0.08377 0.0255,0.16572 0.0327,0.24585 0.0109,0.08012 0.02,0.16208 0.0273,0.24585 0.0472,-0.15297 0.10906,-0.31687 0.1854,-0.49169 l 2.1648,-4.2886 c 0.0182,-0.04006 0.0436,-0.07102 0.0763,-0.09287 0.0327,-0.02549 0.0709,-0.03825 0.1145,-0.03825 h 0.38716 l -2.781,5.4359 h -0.42532 z m -3.2526,0 -0.6598,5.4359 h -0.50711 l 0.65979,-5.4359 z m 0.39806,-1.8739 c 0,0.06556 -0.0145,0.12747 -0.0436,0.18575 -0.0254,0.05464 -0.06,0.1038 -0.1036,0.14751 -0.0436,0.04371 -0.0945,0.07831 -0.15268,0.1038 -0.0545,0.0255 -0.11088,0.03824 -0.16904,0.03824 -0.0618,0 -0.11997,-0.01275 -0.17449,-0.03824 -0.0545,-0.0255 -0.10179,-0.0601 -0.14177,-0.1038 -0.04,-0.04371 -0.0727,-0.09287 -0.0981,-0.14751 -0.0254,-0.05827 -0.0382,-0.12019 -0.0382,-0.18575 0,-0.06556 0.0127,-0.12747 0.0382,-0.18575 0.0254,-0.05827 0.0582,-0.10926 0.0981,-0.15297 0.0436,-0.04734 0.0927,-0.08377 0.14723,-0.10927 0.0545,-0.0255 0.1127,-0.03824 0.17449,-0.03824 0.0582,0 0.11451,0.01275 0.16904,0.03824 0.0582,0.02549 0.10906,0.06009 0.15268,0.1038 0.0436,0.04371 0.0782,0.09652 0.10361,0.15844 0.0255,0.05826 0.0382,0.12019 0.0382,0.18575 z m -7.0178,6.3975 v -0.08194 c 0.004,-0.03279 0.007,-0.08195 0.0108,-0.14751 0.007,-0.06556 0.0163,-0.14932 0.0273,-0.25131 0.0108,-0.10562 0.0273,-0.23856 0.0491,-0.39882 l 0.37079,-3.0867 h -0.71432 c -0.0364,0 -0.0654,-0.01093 -0.0872,-0.03277 -0.0218,-0.02186 -0.0291,-0.05281 -0.0218,-0.09287 l 0.0273,-0.20214 0.8561,-0.06556 0.35989,-1.9449 c 0.007,-0.03278 0.0236,-0.06192 0.0491,-0.08741 0.0254,-0.0255 0.0563,-0.03825 0.0927,-0.03825 h 0.25083 l -0.25628,2.076 h 1.5704 l -0.0436,0.38789 h -1.5704 l -0.37625,3.0703 c -0.0182,0.14933 -0.0345,0.27134 -0.0491,0.36604 -0.0108,0.0947 -0.02,0.173 -0.0273,0.23492 -0.004,0.05827 -0.007,0.10198 -0.0108,0.13112 v 0.06556 c 0,0.23674 0.0545,0.40792 0.16358,0.51354 0.11269,0.10562 0.25628,0.15843 0.43078,0.15843 0.11996,0 0.22538,-0.01821 0.31627,-0.05464 0.0945,-0.04005 0.17631,-0.08194 0.24538,-0.12565 0.0691,-0.04734 0.12541,-0.08923 0.16904,-0.12565 0.0436,-0.04005 0.0763,-0.06009 0.0982,-0.06009 0.0364,0 0.0636,0.01821 0.0818,0.05464 l 0.0982,0.22946 c -0.14541,0.15297 -0.32172,0.2768 -0.52893,0.3715 -0.20721,0.09105 -0.41442,0.13658 -0.62163,0.13658 -0.29809,0 -0.53256,-0.08194 -0.70342,-0.24585 -0.16722,-0.1639 -0.25265,-0.41521 -0.25628,-0.75393 z m -4.2709,0.91236 h -0.25083 c -0.0727,0 -0.12178,-0.02004 -0.14723,-0.0601 -0.0254,-0.04005 -0.0382,-0.0856 -0.0382,-0.13658 l 0.1854,-1.6936 c -0.13814,0.29137 -0.29082,0.55907 -0.45804,0.8031 -0.16358,0.24038 -0.3399,0.44616 -0.52893,0.61735 -0.18903,0.17118 -0.38715,0.30412 -0.59436,0.39882 -0.20721,0.0947 -0.42169,0.14204 -0.64344,0.14204 -0.22538,0 -0.42532,-0.04371 -0.59981,-0.13112 -0.17086,-0.09105 -0.31445,-0.21853 -0.43078,-0.38243 -0.1127,-0.1639 -0.19812,-0.36239 -0.25628,-0.59549 -0.0582,-0.2331 -0.0872,-0.49533 -0.0872,-0.78671 0,-0.31687 0.04,-0.62645 0.11996,-0.92875 0.0836,-0.30594 0.19812,-0.59549 0.34353,-0.86866 0.14541,-0.27316 0.3199,-0.52447 0.52347,-0.75393 0.20357,-0.22946 0.42896,-0.42795 0.67615,-0.59549 0.24719,-0.16754 0.51075,-0.29866 0.79066,-0.39335 0.27991,-0.0947 0.56891,-0.14204 0.867,-0.14204 0.21448,0 0.41623,0.02004 0.60527,0.0601 0.19267,0.03643 0.37988,0.10198 0.56164,0.19668 z m -2.3066,-0.36057 c 0.20721,0 0.41078,-0.05827 0.61072,-0.17482 0.19994,-0.11655 0.39079,-0.28045 0.57255,-0.49169 0.1854,-0.21125 0.35807,-0.46438 0.51802,-0.75939 0.15995,-0.29866 0.30354,-0.62827 0.43077,-0.98885 l 0.2781,-2.2345 c -0.21448,-0.07285 -0.44532,-0.10927 -0.69251,-0.10927 -0.36352,0 -0.71069,0.08924 -1.0415,0.2677 -0.3308,0.17846 -0.62162,0.41703 -0.87246,0.71568 -0.25083,0.29866 -0.45077,0.64102 -0.59981,1.0271 -0.14905,0.38607 -0.22357,0.78671 -0.22357,1.2019 0,0.48805 0.0818,0.86866 0.24538,1.1418 0.16722,0.26952 0.42532,0.40428 0.7743,0.40428 z m -4.7617,-5.0753 -0.6598,5.4359 h -0.50712 l 0.6598,-5.4359 z m 0.39806,-1.8739 c 0,0.06556 -0.0145,0.12747 -0.0436,0.18575 -0.0254,0.05464 -0.06,0.1038 -0.10361,0.14751 -0.0436,0.04371 -0.0945,0.07831 -0.15268,0.1038 -0.0545,0.0255 -0.11088,0.03824 -0.16904,0.03824 -0.0618,0 -0.11997,-0.01275 -0.17449,-0.03824 -0.0545,-0.0255 -0.10179,-0.0601 -0.14178,-0.1038 -0.04,-0.04371 -0.0727,-0.09287 -0.0981,-0.14751 -0.0254,-0.05827 -0.0382,-0.12019 -0.0382,-0.18575 0,-0.06556 0.0127,-0.12747 0.0382,-0.18575 0.0254,-0.05827 0.0582,-0.10926 0.0981,-0.15297 0.0436,-0.04734 0.0927,-0.08377 0.14723,-0.10927 0.0545,-0.0255 0.1127,-0.03824 0.17449,-0.03824 0.0582,0 0.1145,0.01275 0.16904,0.03824 0.0582,0.02549 0.10906,0.06009 0.15268,0.1038 0.0436,0.04371 0.0782,0.09652 0.1036,0.15844 0.0254,0.05826 0.0382,0.12019 0.0382,0.18575 z m -7.3586,6.3975 v -0.08194 c 0.0036,-0.03279 0.0072,-0.08195 0.01085,-0.14751 0.0072,-0.06556 0.01632,-0.14932 0.02726,-0.25131 C 98.78178,21.8978 98.7982,21.76486 98.82,21.6046 l 0.37079,-3.0867 h -0.71432 c -0.03636,0 -0.06544,-0.01093 -0.08724,-0.03277 -0.02181,-0.02186 -0.02907,-0.05281 -0.02181,-0.09287 l 0.02726,-0.20214 0.8561,-0.06556 0.35989,-1.9449 c 0.0072,-0.03278 0.02359,-0.06192 0.04907,-0.08741 0.02544,-0.0255 0.05634,-0.03825 0.0927,-0.03825 h 0.25083 l -0.25628,2.076 h 1.5704 l -0.0436,0.38789 h -1.5704 l -0.37625,3.0703 c -0.01817,0.14933 -0.03453,0.27134 -0.04907,0.36604 -0.01085,0.0947 -0.02,0.173 -0.02727,0.23492 -0.0036,0.05827 -0.0072,0.10198 -0.01085,0.13112 v 0.06556 c 0,0.23674 0.05454,0.40792 0.16358,0.51354 0.1127,0.10562 0.25629,0.15843 0.43078,0.15843 0.11996,0 0.22538,-0.01821 0.31627,-0.05464 0.0945,-0.04005 0.17631,-0.08194 0.24538,-0.12565 0.0691,-0.04734 0.12542,-0.08923 0.16904,-0.12565 0.0436,-0.04005 0.0763,-0.06009 0.0982,-0.06009 0.0364,0 0.0636,0.01821 0.0818,0.05464 l 0.0982,0.22946 c -0.14541,0.15297 -0.32172,0.2768 -0.52893,0.3715 -0.20721,0.09105 -0.41442,0.13658 -0.62163,0.13658 -0.29809,0 -0.53256,-0.08194 -0.70342,-0.24585 -0.16722,-0.1639 -0.25265,-0.41521 -0.25628,-0.75393 z m -4.0283,-4.5236 -0.65979,5.4359 h -0.50711 l 0.6598,-5.4359 z m 0.39806,-1.8739 c 0,0.06556 -0.01453,0.12747 -0.04361,0.18575 -0.02546,0.05464 -0.06,0.1038 -0.10361,0.14751 -0.04361,0.04371 -0.09451,0.07831 -0.15268,0.1038 -0.05453,0.0255 -0.11088,0.03824 -0.16904,0.03824 -0.06182,0 -0.11999,-0.01275 -0.1745,-0.03824 -0.05447,-0.0255 -0.10172,-0.0601 -0.14177,-0.1038 -0.04001,-0.04371 -0.07267,-0.09287 -0.0981,-0.14751 -0.02543,-0.05827 -0.03814,-0.12019 -0.03814,-0.18575 0,-0.06556 0.01272,-0.12747 0.03814,-0.18575 0.02543,-0.05827 0.05809,-0.10926 0.0981,-0.15297 0.04363,-0.04734 0.09273,-0.08377 0.14722,-0.10927 0.05447,-0.0255 0.11269,-0.03824 0.17449,-0.03824 0.05821,0 0.11455,0.01275 0.16904,0.03824 0.05817,0.02549 0.10906,0.06009 0.15268,0.1038 0.04361,0.04371 0.07816,0.09652 0.1036,0.15844 0.02546,0.05826 0.0382,0.12019 0.0382,0.18575 z m -9.462,7.3098 0.64889,-5.4523 h 0.23447 c 0.12723,0 0.19085,0.06556 0.19085,0.19668 l -0.15813,1.5679 c 0.14905,-0.28773 0.31263,-0.5445 0.49076,-0.77032 0.18176,-0.22946 0.37079,-0.42249 0.56709,-0.5791 0.19994,-0.15661 0.40533,-0.27498 0.61617,-0.35511 0.21448,-0.08377 0.42895,-0.12566 0.64344,-0.12566 0.23265,0 0.43077,0.04553 0.59435,0.13658 0.16722,0.09105 0.2999,0.22399 0.39806,0.39882 0.10172,0.17482 0.16722,0.38971 0.1963,0.64466 0.03278,0.25131 0.02928,0.53904 -0.01049,0.86319 l -0.40896,3.4746 h -0.51256 l 0.40896,-3.4746 c 0.06182,-0.51719 0.0273,-0.91418 -0.10359,-1.191 -0.13087,-0.2768 -0.37625,-0.4152 -0.73614,-0.4152 -0.20357,0 -0.40896,0.05281 -0.61617,0.15843 -0.20721,0.10198 -0.40714,0.24949 -0.5998,0.44252 -0.19267,0.18939 -0.37443,0.42067 -0.54529,0.69383 -0.17086,0.26952 -0.32172,0.57364 -0.45259,0.91236 l -0.33262,2.8737 z m -3.3003,-5.4359 -0.6598,5.4359 h -0.50711 l 0.6598,-5.4359 z m 0.39805,-1.8739 c 0,0.06556 -0.01458,0.12747 -0.04363,0.18575 -0.02543,0.05464 -0.05996,0.1038 -0.10359,0.14751 -0.04362,0.04371 -0.09449,0.07831 -0.15268,0.1038 -0.05447,0.0255 -0.11082,0.03824 -0.16904,0.03824 -0.06182,0 -0.11999,-0.01275 -0.17449,-0.03824 -0.05447,-0.0255 -0.10172,-0.0601 -0.14177,-0.1038 -0.04001,-0.04371 -0.07267,-0.09287 -0.09822,-0.14751 -0.02543,-0.05827 -0.03814,-0.12019 -0.03814,-0.18575 0,-0.06556 0.01271,-0.12747 0.03814,-0.18575 0.02543,-0.05827 0.05821,-0.10926 0.09822,-0.15297 0.04363,-0.04734 0.09273,-0.08377 0.14722,-0.10927 0.05447,-0.0255 0.11268,-0.03824 0.1745,-0.03824 0.0582,0 0.11455,0.01275 0.16903,0.03824 0.0582,0.02549 0.10907,0.06009 0.15268,0.1038 0.04363,0.04371 0.07816,0.09652 0.10359,0.15844 0.02543,0.05826 0.03814,0.12019 0.03814,0.18575 z"
         style="font-variation-settings:normal;fill:#552200;stroke:#552200;stroke-width:0.10583;stop-color:#000000"
         id="path33" />
      <path
         d="m 134.69434,33.390997 c -0.0292,0.05107 -0.0694,0.07654 -0.12051,0.07654 -0.0366,0 -0.0823,-0.02188 -0.13694,-0.0656 -0.0511,-0.04734 -0.1223,-0.09841 -0.21364,-0.15312 -0.0876,-0.05828 -0.19903,-0.10935 -0.33414,-0.15312 -0.13513,-0.04734 -0.30312,-0.07108 -0.50396,-0.07108 -0.18625,0 -0.36337,0.03093 -0.53136,0.09295 -0.16433,0.062 -0.30859,0.14581 -0.43275,0.25154 -0.12051,0.10202 -0.21728,0.22239 -0.29031,0.36093 -0.0694,0.13488 -0.10407,0.27889 -0.10407,0.43201 0,0.14947 0.0347,0.27525 0.10407,0.37733 0.0694,0.10202 0.16067,0.1914 0.27388,0.26795 0.11684,0.07294 0.24651,0.1367 0.38892,0.1914 0.14608,0.05467 0.2958,0.10935 0.44919,0.16405 0.15338,0.05467 0.30129,0.11666 0.4437,0.18593 0.14607,0.06562 0.27572,0.14581 0.38893,0.24062 0.11683,0.09481 0.20999,0.21144 0.27937,0.34998 0.0694,0.13488 0.10407,0.29895 0.10407,0.49216 0,0.23332 -0.0475,0.45936 -0.14242,0.67809 -0.0913,0.21873 -0.2246,0.41379 -0.39989,0.58513 -0.17164,0.16771 -0.3798,0.30259 -0.62447,0.40467 -0.24102,0.10201 -0.51126,0.1531 -0.81072,0.1531 -0.35058,0 -0.64639,-0.06013 -0.88741,-0.18044 -0.23737,-0.12396 -0.44188,-0.28437 -0.61351,-0.48124 l 0.13146,-0.18593 c 0.0402,-0.05833 0.0894,-0.08749 0.1479,-0.08749 0.0366,0 0.0823,0.02916 0.13696,0.08749 0.0547,0.05833 0.12963,0.12394 0.22458,0.19687 0.0949,0.06922 0.21729,0.13306 0.36702,0.1914 0.14973,0.05833 0.3378,0.08749 0.56422,0.08749 0.21911,0 0.41631,-0.03466 0.5916,-0.10389 0.17894,-0.07291 0.3305,-0.17132 0.45466,-0.29529 0.12781,-0.12395 0.22641,-0.26613 0.2958,-0.42655 0.0694,-0.16405 0.10407,-0.33722 0.10407,-0.5195 0,-0.1604 -0.0347,-0.29531 -0.10407,-0.40467 -0.0694,-0.10935 -0.1625,-0.20235 -0.27937,-0.27891 -0.1132,-0.08011 -0.24285,-0.14765 -0.38892,-0.20233 -0.14243,-0.05464 -0.29033,-0.10749 -0.4437,-0.15859 -0.15339,-0.05464 -0.30311,-0.11295 -0.44919,-0.175 -0.14243,-0.0656 -0.27207,-0.14398 -0.38893,-0.23513 -0.1132,-0.09121 -0.2045,-0.20233 -0.27389,-0.33358 -0.0694,-0.13124 -0.10406,-0.29165 -0.10406,-0.48122 0,-0.21146 0.0457,-0.41379 0.13695,-0.607 0.0913,-0.19687 0.21911,-0.37004 0.38345,-0.51951 0.16433,-0.15313 0.3597,-0.27344 0.58612,-0.36093 0.23007,-0.09121 0.48023,-0.13671 0.75047,-0.13671 0.30676,0 0.57152,0.04735 0.79428,0.14219 0.22641,0.09481 0.42727,0.23697 0.60257,0.42654 z m -6.5583,0.37185 c 0,0.14947 -0.02,0.29166 -0.0602,0.42655 -0.0402,0.13488 -0.11133,0.26248 -0.21363,0.38278 -0.10231,0.12031 -0.24102,0.23515 -0.41632,0.34451 -0.17528,0.10575 -0.39987,0.20416 -0.67377,0.2953 -0.27389,0.08747 -0.60073,0.16771 -0.98053,0.24061 -0.37979,0.06922 -0.82532,0.13123 -1.3366,0.18593 -0.007,0.0766 -0.0125,0.15309 -0.0164,0.22968 -0.003,0.07291 -0.006,0.14581 -0.006,0.21873 0,0.5432 0.12234,0.96792 0.36701,1.2742 0.24833,0.30624 0.62083,0.45935 1.1175,0.45935 0.19355,0 0.367,-0.01998 0.52039,-0.06013 0.15703,-0.04375 0.2958,-0.09841 0.41631,-0.16405 0.12418,-0.06553 0.23191,-0.13488 0.32319,-0.2078 0.0949,-0.07291 0.17895,-0.14218 0.25199,-0.20781 0.073,-0.06562 0.13513,-0.11848 0.18624,-0.1586 0.0547,-0.04375 0.10407,-0.06562 0.1479,-0.06562 0.0438,0 0.0821,0.01828 0.11508,0.05464 l 0.12051,0.14219 c -0.17895,0.18958 -0.35424,0.35363 -0.52587,0.49217 -0.16798,0.13488 -0.33963,0.24609 -0.51493,0.33357 -0.17163,0.08749 -0.35057,0.1513 -0.53682,0.1914 -0.18624,0.04375 -0.38527,0.06562 -0.59708,0.06562 -0.30311,0 -0.57335,-0.04914 -0.81072,-0.14766 -0.23373,-0.10202 -0.43093,-0.24426 -0.5916,-0.42653 -0.16069,-0.18593 -0.28303,-0.41014 -0.36702,-0.67262 -0.084,-0.26614 -0.126,-0.56326 -0.126,-0.89137 0,-0.27344 0.0274,-0.54868 0.0821,-0.82575 0.0547,-0.27706 0.13511,-0.5432 0.24103,-0.7984 0.10957,-0.2552 0.24284,-0.49399 0.39987,-0.71636 0.16069,-0.22239 0.34329,-0.4156 0.54779,-0.57966 0.2045,-0.16406 0.43092,-0.29348 0.67925,-0.38826 0.24833,-0.09481 0.51674,-0.14218 0.80524,-0.14218 0.26659,0 0.49119,0.03826 0.67378,0.11482 0.18624,0.07294 0.33597,0.16586 0.44919,0.27889 0.11683,0.10935 0.20084,0.22967 0.25197,0.36092 0.0511,0.1276 0.0766,0.24791 0.0766,0.36093 z m -1.479,-0.73278 c -0.29214,0 -0.5569,0.062 -0.79427,0.18593 -0.23373,0.12395 -0.44189,0.28982 -0.62448,0.49763 -0.17894,0.20416 -0.3305,0.44295 -0.45466,0.71637 -0.12051,0.26978 -0.20999,0.55232 -0.26841,0.84762 0.46378,-0.05107 0.86367,-0.10935 1.1996,-0.175 0.33598,-0.06922 0.62082,-0.14034 0.85454,-0.21327 0.23373,-0.07654 0.4218,-0.15857 0.56423,-0.24609 0.14607,-0.08747 0.25928,-0.17681 0.33961,-0.26796 0.0804,-0.09481 0.1333,-0.1914 0.15886,-0.28982 0.0292,-0.09841 0.0438,-0.20051 0.0438,-0.30624 0,-0.07654 -0.0183,-0.15857 -0.0548,-0.24607 -0.0329,-0.09121 -0.0895,-0.17317 -0.1698,-0.24609 -0.0804,-0.07294 -0.18624,-0.13306 -0.31772,-0.18046 -0.12781,-0.05107 -0.28668,-0.07654 -0.47658,-0.07654 z m -10.568,5.1349 0.65186,-5.4575 h 0.23555 c 0.12782,0 0.19172,0.0656 0.19172,0.19687 l -0.15886,1.5695 c 0.14973,-0.28801 0.31407,-0.54503 0.49301,-0.77106 0.1826,-0.22967 0.3725,-0.4229 0.5697,-0.57965 0.20084,-0.15677 0.40717,-0.27525 0.61899,-0.35546 0.21547,-0.08388 0.43093,-0.12578 0.64639,-0.12578 0.23372,0 0.43275,0.0456 0.59708,0.13671 0.16799,0.0912 0.30128,0.22421 0.39988,0.3992 0.1023,0.175 0.16798,0.39009 0.1972,0.64529 0.0329,0.25155 0.0294,0.53956 -0.0105,0.86402 l -0.41084,3.478 h -0.51492 l 0.41083,-3.478 c 0.0621,-0.51768 0.0274,-0.91506 -0.10406,-1.1921 -0.13148,-0.27706 -0.37798,-0.4156 -0.73951,-0.4156 -0.2045,0 -0.41084,0.05281 -0.619,0.15858 -0.20816,0.10202 -0.409,0.24974 -0.60256,0.44295 -0.19355,0.18957 -0.37613,0.42107 -0.54778,0.69449 -0.17164,0.26978 -0.32318,0.5742 -0.45466,0.91324 l -0.33415,2.8764 z m -7.5361,0 0.65186,-5.4575 h 0.23554 c 0.12782,0 0.19173,0.0656 0.19173,0.19687 l -0.15886,1.5695 c 0.14974,-0.28801 0.31406,-0.54503 0.49301,-0.77106 0.18258,-0.22967 0.37248,-0.4229 0.56969,-0.57965 0.20085,-0.15677 0.40718,-0.27525 0.619,-0.35546 0.21545,-0.08388 0.43092,-0.12578 0.64637,-0.12578 0.23373,0 0.43276,0.0456 0.59709,0.13671 0.16799,0.0912 0.30129,0.22421 0.39989,0.3992 0.10218,0.175 0.16798,0.39009 0.1972,0.64529 0.0329,0.25155 0.0294,0.53956 -0.0105,0.86402 l -0.41083,3.478 h -0.51492 l 0.41083,-3.478 c 0.0621,-0.51768 0.0274,-0.91506 -0.10406,-1.1921 -0.13147,-0.27706 -0.37798,-0.4156 -0.73952,-0.4156 -0.2045,0 -0.41083,0.05281 -0.61899,0.15858 -0.20816,0.10202 -0.409,0.24974 -0.60256,0.44295 -0.19355,0.18957 -0.37614,0.42107 -0.54779,0.69449 -0.17164,0.26978 -0.32318,0.5742 -0.45466,0.91324 l -0.33414,2.8764 z m -3.1895,-4.4021 c 0,0.14947 -0.02,0.29166 -0.0602,0.42655 -0.0402,0.13488 -0.11132,0.26248 -0.21363,0.38278 -0.10219,0.12031 -0.24102,0.23515 -0.41632,0.34451 -0.17528,0.10575 -0.39987,0.20416 -0.67377,0.2953 -0.27389,0.08747 -0.60073,0.16771 -0.98054,0.24061 -0.37978,0.06922 -0.82532,0.13123 -1.3366,0.18593 -0.007,0.0766 -0.0125,0.15309 -0.0164,0.22968 -0.004,0.07291 -0.006,0.14581 -0.006,0.21873 0,0.5432 0.12235,0.96792 0.36702,1.2742 0.24833,0.30624 0.62082,0.45935 1.1175,0.45935 0.19354,0 0.367,-0.01998 0.52039,-0.06013 0.15702,-0.04375 0.2958,-0.09841 0.41631,-0.16405 0.12416,-0.06553 0.23189,-0.13488 0.32319,-0.2078 0.0949,-0.07291 0.17895,-0.14218 0.25199,-0.20781 0.073,-0.06562 0.13512,-0.11848 0.18624,-0.1586 0.0547,-0.04375 0.10406,-0.06562 0.1479,-0.06562 0.0438,0 0.0821,0.01828 0.11508,0.05464 l 0.1205,0.14219 c -0.17894,0.18958 -0.35423,0.35363 -0.52586,0.49217 -0.16799,0.13488 -0.33963,0.24609 -0.51492,0.33357 -0.17164,0.08749 -0.35058,0.1513 -0.53683,0.1914 -0.18624,0.04375 -0.38527,0.06562 -0.59709,0.06562 -0.3031,0 -0.57334,-0.04914 -0.81071,-0.14766 -0.23373,-0.10202 -0.43093,-0.24426 -0.59161,-0.42653 -0.16068,-0.18593 -0.28303,-0.41014 -0.36701,-0.67262 -0.084,-0.26614 -0.12599,-0.56326 -0.12599,-0.89137 0,-0.27344 0.0274,-0.54868 0.0822,-0.82575 0.0547,-0.27706 0.13511,-0.5432 0.24103,-0.7984 0.10957,-0.2552 0.24285,-0.49399 0.39988,-0.71636 0.16068,-0.22239 0.34328,-0.4156 0.54778,-0.57966 0.2045,-0.16406 0.43093,-0.29348 0.67926,-0.38826 0.24833,-0.09481 0.51674,-0.14218 0.80524,-0.14218 0.26658,0 0.49118,0.03826 0.67377,0.11482 0.18624,0.07294 0.33598,0.16586 0.44919,0.27889 0.11683,0.10935 0.20084,0.22967 0.25197,0.36092 0.0511,0.1276 0.0766,0.24791 0.0766,0.36093 z m -1.479,-0.73278 c -0.29216,0 -0.55691,0.062 -0.79429,0.18593 -0.23373,0.12395 -0.44188,0.28982 -0.62447,0.49763 -0.17895,0.20416 -0.3305,0.44295 -0.45466,0.71637 -0.12052,0.26978 -0.20999,0.55232 -0.26842,0.84762 0.46379,-0.05107 0.86368,-0.10935 1.1996,-0.175 0.33598,-0.06922 0.62082,-0.14034 0.85453,-0.21327 0.23373,-0.07654 0.42181,-0.15857 0.56422,-0.24609 0.14607,-0.08747 0.25929,-0.17681 0.33963,-0.26796 0.0804,-0.09481 0.1333,-0.1914 0.15886,-0.28982 0.0292,-0.09841 0.0438,-0.20051 0.0438,-0.30624 0,-0.07654 -0.0183,-0.15857 -0.0548,-0.24607 -0.0329,-0.09121 -0.0895,-0.17317 -0.16981,-0.24609 -0.0804,-0.07294 -0.18625,-0.13306 -0.31772,-0.18046 -0.12781,-0.05107 -0.28667,-0.07654 -0.47657,-0.07654 z m -8.957604,6.9067 c -0.0511,0.10202 -0.12596,0.15311 -0.2246,0.15311 h -0.36702 l 1.1504,-2.1272 -1.4626,-5.2388 h 0.40537 c 0.0511,0 0.0894,0.01278 0.11507,0.03826 0.0256,0.02188 0.042,0.05281 0.0493,0.09295 l 1.1503,4.2326 c 0.0219,0.10935 0.0383,0.21874 0.0493,0.32811 0.0219,-0.05464 0.0457,-0.10936 0.0712,-0.16405 0.0256,-0.05464 0.0511,-0.10935 0.0766,-0.16406 l 2.1966,-4.249 c 0.0183,-0.04013 0.0438,-0.06922 0.0766,-0.08747 0.0329,-0.01828 0.0657,-0.02734 0.0986,-0.02734 h 0.39988 z m -6.6624,-2.1108 c 0.31771,0 0.60621,-0.0821 0.86548,-0.24609 0.26294,-0.1677 0.48754,-0.38825 0.67378,-0.66168 0.18625,-0.27708 0.32868,-0.59242 0.42728,-0.94605 0.1023,-0.35728 0.15338,-0.72366 0.15338,-1.0992 0,-0.58331 -0.12964,-1.0317 -0.38893,-1.3452 -0.25929,-0.31352 -0.619,-0.47029 -1.0791,-0.47029 -0.31771,0 -0.60804,0.08202 -0.87098,0.24607 -0.25928,0.16406 -0.48204,0.3828 -0.66829,0.65622 -0.1826,0.26978 -0.32501,0.58148 -0.42727,0.93511 -0.10226,0.35363 -0.15338,0.72184 -0.15338,1.1046 0,0.57966 0.12782,1.0299 0.38345,1.3507 0.25928,0.31717 0.62082,0.47576 1.0846,0.47576 z m -0.0439,0.41013 c -0.29215,0 -0.55873,-0.05104 -0.79975,-0.1531 -0.23737,-0.10202 -0.44189,-0.24974 -0.61352,-0.44296 -0.16799,-0.19322 -0.29946,-0.42653 -0.39441,-0.69996 -0.0913,-0.27707 -0.13694,-0.59061 -0.13694,-0.94058 0,-0.44113 0.0657,-0.86402 0.1972,-1.2687 0.13147,-0.40467 0.31588,-0.76194 0.55325,-1.0718 0.24103,-0.30988 0.52588,-0.55597 0.85455,-0.73825 0.32867,-0.18593 0.6902,-0.2789 1.0846,-0.2789 0.29215,0 0.55691,0.05108 0.79428,0.15312 0.24102,0.10202 0.44554,0.24973 0.61352,0.44294 0.17164,0.19322 0.3031,0.42838 0.3944,0.70544 0.0949,0.27342 0.14243,0.58148 0.14243,0.92418 0,0.44112 -0.0676,0.86402 -0.20269,1.2687 -0.13146,0.40466 -0.31588,0.76377 -0.55325,1.0773 -0.23738,0.30987 -0.52039,0.55778 -0.84907,0.7437 -0.32867,0.18593 -0.6902,0.27889 -1.0846,0.27889 z m -7.3745,-0.98433 v -0.0821 c 0.004,-0.03276 0.007,-0.082 0.0108,-0.14764 0.007,-0.06552 0.0163,-0.14946 0.0274,-0.25155 0.0108,-0.10575 0.0274,-0.23879 0.0493,-0.3992 l 0.3725,-3.0897 h -0.71759 c -0.0366,0 -0.0658,-0.01045 -0.0876,-0.03281 -0.0219,-0.02188 -0.0292,-0.05281 -0.0219,-0.09295 l 0.0274,-0.20234 0.86002,-0.0656 0.36153,-1.9468 c 0.007,-0.03281 0.0237,-0.062 0.0493,-0.08747 0.02559,-0.02548 0.0566,-0.03827 0.09309,-0.03827 h 0.25198 l -0.25746,2.078 h 1.5776 l -0.0438,0.38826 h -1.5776 l -0.37796,3.0733 c -0.0183,0.14948 -0.0347,0.27161 -0.0492,0.36638 -0.0108,0.09481 -0.0201,0.17317 -0.0274,0.23515 -0.004,0.05833 -0.007,0.10202 -0.0108,0.13124 v 0.06562 c 0,0.23697 0.0547,0.40831 0.16434,0.51403 0.11319,0.10575 0.25745,0.1586 0.43274,0.1586 0.12051,0 0.22642,-0.01828 0.31772,-0.05464 0.0949,-0.04015 0.17711,-0.0821 0.24649,-0.12578 0.0694,-0.04735 0.12599,-0.08929 0.16982,-0.12578 0.0438,-0.04015 0.0767,-0.06013 0.0986,-0.06013 0.0366,0 0.064,0.01828 0.0822,0.05464 l 0.0986,0.22969 c -0.14607,0.15311 -0.32319,0.27706 -0.53135,0.37184 -0.20816,0.09109 -0.41632,0.13671 -0.62448,0.13671 -0.29944,0 -0.53498,-0.0821 -0.70664,-0.24607 -0.16798,-0.16407 -0.2538,-0.41562 -0.25745,-0.75466 z m -3.7044,-4.5279 -0.66282,5.4411 h -0.50944 l 0.66281,-5.4411 z m 0.39988,-1.8757 c 0,0.0656 -0.0146,0.12758 -0.0438,0.18592 -0.0256,0.05466 -0.0603,0.10389 -0.10409,0.14766 -0.0438,0.04375 -0.095,0.0784 -0.15339,0.10389 -0.0547,0.02548 -0.11139,0.03827 -0.16982,0.03827 -0.0621,0 -0.1205,-0.01278 -0.17527,-0.03827 -0.0547,-0.02548 -0.10226,-0.06015 -0.14243,-0.10389 -0.0402,-0.04374 -0.073,-0.09295 -0.0986,-0.14766 -0.0256,-0.05828 -0.0383,-0.1203 -0.0383,-0.18592 0,-0.0656 0.0128,-0.12759 0.0383,-0.18593 0.0256,-0.05828 0.0585,-0.10935 0.0986,-0.15311 0.0438,-0.04734 0.0931,-0.08388 0.14789,-0.10935 0.0547,-0.02548 0.11322,-0.03827 0.1753,-0.03827 0.0585,0 0.11503,0.01278 0.16981,0.03827 0.0585,0.02548 0.10956,0.06015 0.15338,0.10389 0.0438,0.04375 0.0785,0.09655 0.10407,0.15859 0.0256,0.05828 0.0383,0.1203 0.0383,0.18593 z m -4.904,6.3216 c -0.19356,0.2151 -0.37798,0.39191 -0.55328,0.53045 -0.17163,0.13854 -0.34145,0.2479 -0.50942,0.32811 -0.16434,0.0803 -0.33233,0.1349 -0.50397,0.16406 -0.17164,0.02917 -0.35424,0.04375 -0.54778,0.04375 -0.31406,0 -0.58796,-0.05284 -0.82169,-0.15858 -0.23006,-0.10935 -0.42178,-0.26067 -0.57515,-0.45388 -0.15339,-0.19322 -0.26842,-0.42289 -0.34511,-0.68903 -0.0767,-0.26612 -0.11503,-0.55596 -0.11503,-0.86949 0,-0.28801 0.0292,-0.57237 0.0876,-0.85308 0.0621,-0.28436 0.14972,-0.55414 0.26293,-0.80933 0.11321,-0.25519 0.25015,-0.49034 0.41084,-0.70544 0.16067,-0.2151 0.34145,-0.40103 0.54229,-0.55778 0.20086,-0.15677 0.41814,-0.2789 0.65187,-0.3664 0.23737,-0.0912 0.48936,-0.13671 0.75593,-0.13671 0.17896,0 0.33964,0.01828 0.48206,0.05466 0.14607,0.03281 0.27938,0.08202 0.39988,0.14766 0.12051,0.062 0.23007,0.13853 0.32867,0.22967 0.0986,0.0912 0.1899,0.19322 0.27389,0.30624 l -0.15337,0.18045 c -0.0329,0.04013 -0.0713,0.06015 -0.11503,0.06015 -0.0366,0 -0.0822,-0.02919 -0.13694,-0.08747 -0.0511,-0.05828 -0.12235,-0.1203 -0.21365,-0.18593 -0.0876,-0.06922 -0.20268,-0.13306 -0.3451,-0.1914 -0.14242,-0.05828 -0.32137,-0.08747 -0.53683,-0.08747 -0.30676,0 -0.59343,0.08202 -0.86002,0.24608 -0.26294,0.16406 -0.493,0.38462 -0.6902,0.66169 -0.19355,0.27708 -0.34693,0.59789 -0.46015,0.96246 -0.10955,0.36092 -0.16433,0.73825 -0.16433,1.132 0,0.25154 0.0274,0.48487 0.0822,0.69996 0.0585,0.2151 0.14608,0.40103 0.26294,0.5578 0.12052,0.15676 0.27024,0.27889 0.44919,0.36639 0.17894,0.08749 0.39075,0.13124 0.63543,0.13124 0.19354,0 0.36701,-0.02008 0.52038,-0.06022 0.15339,-0.04375 0.2885,-0.09655 0.40537,-0.15858 0.12051,-0.06202 0.22459,-0.1294 0.31223,-0.20234 0.0913,-0.0766 0.17164,-0.1458 0.24103,-0.20778 0.0694,-0.06202 0.12781,-0.11296 0.17529,-0.15314 0.0511,-0.04375 0.0968,-0.06562 0.13694,-0.06562 0.0402,0 0.0785,0.01828 0.11504,0.05464 l 0.11503,0.14221 z"
         style="font-variation-settings:normal;fill:#552200;stroke:#552200;stroke-width:0.10583;stop-color:#000000"
         id="path35" />
    </g>
    <ellipse
       cx="30.320627"
       cy="11.056133"
       style="font-variation-settings:normal;fill:#0ca7b7;fill-opacity:1;stroke-width:1.26784;-inkscape-stroke:none;stop-color:#000000"
       id="ellipse43"
       rx="2.3872287"
       ry="2.3845451" />
    <path
       style="color:#000000;fill:#f3ac29;stroke-width:1.11618;-inkscape-stroke:none"
       d="m 107.03899,1.2195978 c 8.97639,11.2686412 4.92402,22.0999172 -4.72761,33.2796402 10.97158,-5.317663 17.58566,-26.8666812 4.72761,-33.2796402 z"
       id="path14626"
       sodipodi:nodetypes="ccc" />
  </g>
</svg>
