<svg width="550" height="250" version="1.1" viewBox="0 0 145.52 66.146" xmlns="http://www.w3.org/2000/svg"><defs><filter id="Initiatives Citoyennes Choletaisesa" x="-.0037019" y="-.024485" width="1.0074" height="1.049" style="color-interpolation-filters:sRGB"><feGaussianBlur in="SourceGraphic" result="result3" stdDeviation="0.06492347"/><feComponentTransfer in="result3" result="result1"><feFuncR tableValues="0 0.1 0.2 0.3 0.4 0.5 0.6 0.7 0.8 0.9 1" type="discrete"/><feFuncG tableValues="0 0.1 0.2 0.3 0.4 0.5 0.6 0.7 0.8 0.9 1" type="discrete"/><feFuncB tableValues="0 0.1 0.2 0.3 0.4 0.5 0.6 0.7 0.8 0.9 1" type="discrete"/></feComponentTransfer><feGaussianBlur result="result5" stdDeviation="0.01"/><feBlend in="result5" in2="result5" mode="lighten" result="result6"/><feColorMatrix in="result6" result="result2" type="luminanceToAlpha"/><feSpecularLighting in="result2" result="result9" specularExponent="20" surfaceScale="5"><feDistantLight azimuth="180" elevation="90"/></feSpecularLighting><feComposite in="result9" in2="result6" k1="0.4" k3="0.7" operator="arithmetic" result="result3"/><feBlend in="result3" in2="result1" result="result8"/><feComposite in="result8" in2="SourceGraphic" operator="in" result="result7"/></filter></defs><g transform="translate(125.58 -10.567)"><path d="m8.7746 44.49c-0.0292 0.05107-0.0694 0.07654-0.12051 0.07654-0.0366 0-0.0823-0.02188-0.13694-0.0656-0.0511-0.04734-0.1223-0.09841-0.21364-0.15312-0.0876-0.05828-0.19903-0.10935-0.33414-0.15312-0.13513-0.04734-0.30312-0.07108-0.50396-0.07108-0.18625 0-0.36337 0.03093-0.53136 0.09295-0.16433 0.062-0.30859 0.14581-0.43275 0.25154-0.12051 0.10202-0.21728 0.22239-0.29031 0.36093-0.0694 0.13488-0.10407 0.27889-0.10407 0.43201 0 0.14947 0.0347 0.27525 0.10407 0.37733 0.0694 0.10202 0.16067 0.1914 0.27388 0.26795 0.11684 0.07294 0.24651 0.1367 0.38892 0.1914 0.14608 0.05467 0.2958 0.10935 0.44919 0.16405 0.15338 0.05467 0.30129 0.11666 0.4437 0.18593 0.14607 0.06562 0.27572 0.14581 0.38893 0.24062 0.11683 0.09481 0.20999 0.21144 0.27937 0.34998 0.0694 0.13488 0.10407 0.29895 0.10407 0.49216 0 0.23332-0.0475 0.45936-0.14242 0.67809-0.0913 0.21873-0.2246 0.41379-0.39989 0.58513-0.17164 0.16771-0.3798 0.30259-0.62447 0.40467-0.24102 0.10201-0.51126 0.1531-0.81072 0.1531-0.35058 0-0.64639-0.06013-0.88741-0.18044-0.23737-0.12396-0.44188-0.28437-0.61351-0.48124l0.13146-0.18593c0.0402-0.05833 0.0894-0.08749 0.1479-0.08749 0.0366 0 0.0823 0.02916 0.13696 0.08749 0.0547 0.05833 0.12963 0.12394 0.22458 0.19687 0.0949 0.06922 0.21729 0.13306 0.36702 0.1914 0.14973 0.05833 0.3378 0.08749 0.56422 0.08749 0.21911 0 0.41631-0.03466 0.5916-0.10389 0.17894-0.07291 0.3305-0.17132 0.45466-0.29529 0.12781-0.12395 0.22641-0.26613 0.2958-0.42655 0.0694-0.16405 0.10407-0.33722 0.10407-0.5195 0-0.1604-0.0347-0.29531-0.10407-0.40467-0.0694-0.10935-0.1625-0.20235-0.27937-0.27891-0.1132-0.08011-0.24285-0.14765-0.38892-0.20233-0.14243-0.05464-0.29033-0.10749-0.4437-0.15859-0.15339-0.05464-0.30311-0.11295-0.44919-0.175-0.14243-0.0656-0.27207-0.14398-0.38893-0.23513-0.1132-0.09121-0.2045-0.20233-0.27389-0.33358-0.0694-0.13124-0.10406-0.29165-0.10406-0.48122 0-0.21146 0.0457-0.41379 0.13695-0.607 0.0913-0.19687 0.21911-0.37004 0.38345-0.51951 0.16433-0.15313 0.3597-0.27344 0.58612-0.36093 0.23007-0.09121 0.48023-0.13671 0.75047-0.13671 0.30676 0 0.57152 0.04735 0.79428 0.14219 0.22641 0.09481 0.42727 0.23697 0.60257 0.42654zm-6.5583 0.37185c0 0.14947-0.02 0.29166-0.0602 0.42655-0.0402 0.13488-0.11133 0.26248-0.21363 0.38278-0.10231 0.12031-0.24102 0.23515-0.41632 0.34451-0.17528 0.10575-0.39987 0.20416-0.67377 0.2953-0.27389 0.08747-0.60073 0.16771-0.98053 0.24061-0.37979 0.06922-0.82532 0.13123-1.3366 0.18593-7e-3 0.0766-0.0125 0.15309-0.0164 0.22968-3e-3 0.07291-6e-3 0.14581-6e-3 0.21873 0 0.5432 0.12234 0.96792 0.36701 1.2742 0.24833 0.30624 0.62083 0.45935 1.1175 0.45935 0.19355 0 0.367-0.01998 0.52039-0.06013 0.15703-0.04375 0.2958-0.09841 0.41631-0.16405 0.12418-0.06553 0.23191-0.13488 0.32319-0.2078 0.0949-0.07291 0.17895-0.14218 0.25199-0.20781 0.073-0.06562 0.13513-0.11848 0.18624-0.1586 0.0547-0.04375 0.10407-0.06562 0.1479-0.06562 0.0438 0 0.0821 0.01828 0.11508 0.05464l0.12051 0.14219c-0.17895 0.18958-0.35424 0.35363-0.52587 0.49217-0.16798 0.13488-0.33963 0.24609-0.51493 0.33357-0.17163 0.08749-0.35057 0.1513-0.53682 0.1914-0.18624 0.04375-0.38527 0.06562-0.59708 0.06562-0.30311 0-0.57335-0.04914-0.81072-0.14766-0.23373-0.10202-0.43093-0.24426-0.5916-0.42653-0.16069-0.18593-0.28303-0.41014-0.36702-0.67262-0.084-0.26614-0.126-0.56326-0.126-0.89137 0-0.27344 0.0274-0.54868 0.0821-0.82575 0.0547-0.27706 0.13511-0.5432 0.24103-0.7984 0.10957-0.2552 0.24284-0.49399 0.39987-0.71636 0.16069-0.22239 0.34329-0.4156 0.54779-0.57966 0.2045-0.16406 0.43092-0.29348 0.67925-0.38826 0.24833-0.09481 0.51674-0.14218 0.80524-0.14218 0.26659 0 0.49119 0.03826 0.67378 0.11482 0.18624 0.07294 0.33597 0.16586 0.44919 0.27889 0.11683 0.10935 0.20084 0.22967 0.25197 0.36092 0.0511 0.1276 0.0766 0.24791 0.0766 0.36093zm-1.479-0.73278c-0.29214 0-0.5569 0.062-0.79427 0.18593-0.23373 0.12395-0.44189 0.28982-0.62448 0.49763-0.17894 0.20416-0.3305 0.44295-0.45466 0.71637-0.12051 0.26978-0.20999 0.55232-0.26841 0.84762 0.46378-0.05107 0.86367-0.10935 1.1996-0.175 0.33598-0.06922 0.62082-0.14034 0.85454-0.21327 0.23373-0.07654 0.4218-0.15857 0.56423-0.24609 0.14607-0.08747 0.25928-0.17681 0.33961-0.26796 0.0804-0.09481 0.1333-0.1914 0.15886-0.28982 0.0292-0.09841 0.0438-0.20051 0.0438-0.30624 0-0.07654-0.0183-0.15857-0.0548-0.24607-0.0329-0.09121-0.0895-0.17317-0.1698-0.24609-0.0804-0.07294-0.18624-0.13306-0.31772-0.18046-0.12781-0.05107-0.28668-0.07654-0.47658-0.07654zm-10.568 5.1349 0.65186-5.4575h0.23555c0.12782 0 0.19172 0.0656 0.19172 0.19687l-0.15886 1.5695c0.14973-0.28801 0.31407-0.54503 0.49301-0.77106 0.1826-0.22967 0.3725-0.4229 0.5697-0.57965 0.20084-0.15677 0.40717-0.27525 0.61899-0.35546 0.21547-0.08388 0.43093-0.12578 0.64639-0.12578 0.23372 0 0.43275 0.0456 0.59708 0.13671 0.16799 0.0912 0.30128 0.22421 0.39988 0.3992 0.1023 0.175 0.16798 0.39009 0.1972 0.64529 0.0329 0.25155 0.0294 0.53956-0.0105 0.86402l-0.41084 3.478h-0.51492l0.41083-3.478c0.0621-0.51768 0.0274-0.91506-0.10406-1.1921-0.13148-0.27706-0.37798-0.4156-0.73951-0.4156-0.2045 0-0.41084 0.05281-0.619 0.15858-0.20816 0.10202-0.409 0.24974-0.60256 0.44295-0.19355 0.18957-0.37613 0.42107-0.54778 0.69449-0.17164 0.26978-0.32318 0.5742-0.45466 0.91324l-0.33415 2.8764zm-7.5361 0 0.65186-5.4575h0.23554c0.12782 0 0.19173 0.0656 0.19173 0.19687l-0.15886 1.5695c0.14974-0.28801 0.31406-0.54503 0.49301-0.77106 0.18258-0.22967 0.37248-0.4229 0.56969-0.57965 0.20085-0.15677 0.40718-0.27525 0.619-0.35546 0.21545-0.08388 0.43092-0.12578 0.64637-0.12578 0.23373 0 0.43276 0.0456 0.59709 0.13671 0.16799 0.0912 0.30129 0.22421 0.39989 0.3992 0.10218 0.175 0.16798 0.39009 0.1972 0.64529 0.0329 0.25155 0.0294 0.53956-0.0105 0.86402l-0.41083 3.478h-0.51492l0.41083-3.478c0.0621-0.51768 0.0274-0.91506-0.10406-1.1921-0.13147-0.27706-0.37798-0.4156-0.73952-0.4156-0.2045 0-0.41083 0.05281-0.61899 0.15858-0.20816 0.10202-0.409 0.24974-0.60256 0.44295-0.19355 0.18957-0.37614 0.42107-0.54779 0.69449-0.17164 0.26978-0.32318 0.5742-0.45466 0.91324l-0.33414 2.8764zm-3.1895-4.4021c0 0.14947-0.02 0.29166-0.0602 0.42655-0.0402 0.13488-0.11132 0.26248-0.21363 0.38278-0.10219 0.12031-0.24102 0.23515-0.41632 0.34451-0.17528 0.10575-0.39987 0.20416-0.67377 0.2953-0.27389 0.08747-0.60073 0.16771-0.98054 0.24061-0.37978 0.06922-0.82532 0.13123-1.3366 0.18593-7e-3 0.0766-0.0125 0.15309-0.0164 0.22968-4e-3 0.07291-6e-3 0.14581-6e-3 0.21873 0 0.5432 0.12235 0.96792 0.36702 1.2742 0.24833 0.30624 0.62082 0.45935 1.1175 0.45935 0.19354 0 0.367-0.01998 0.52039-0.06013 0.15702-0.04375 0.2958-0.09841 0.41631-0.16405 0.12416-0.06553 0.23189-0.13488 0.32319-0.2078 0.0949-0.07291 0.17895-0.14218 0.25199-0.20781 0.073-0.06562 0.13512-0.11848 0.18624-0.1586 0.0547-0.04375 0.10406-0.06562 0.1479-0.06562 0.0438 0 0.0821 0.01828 0.11508 0.05464l0.1205 0.14219c-0.17894 0.18958-0.35423 0.35363-0.52586 0.49217-0.16799 0.13488-0.33963 0.24609-0.51492 0.33357-0.17164 0.08749-0.35058 0.1513-0.53683 0.1914-0.18624 0.04375-0.38527 0.06562-0.59709 0.06562-0.3031 0-0.57334-0.04914-0.81071-0.14766-0.23373-0.10202-0.43093-0.24426-0.59161-0.42653-0.16068-0.18593-0.28303-0.41014-0.36701-0.67262-0.084-0.26614-0.12599-0.56326-0.12599-0.89137 0-0.27344 0.0274-0.54868 0.0822-0.82575 0.0547-0.27706 0.13511-0.5432 0.24103-0.7984 0.10957-0.2552 0.24285-0.49399 0.39988-0.71636 0.16068-0.22239 0.34328-0.4156 0.54778-0.57966 0.2045-0.16406 0.43093-0.29348 0.67926-0.38826 0.24833-0.09481 0.51674-0.14218 0.80524-0.14218 0.26658 0 0.49118 0.03826 0.67377 0.11482 0.18624 0.07294 0.33598 0.16586 0.44919 0.27889 0.11683 0.10935 0.20084 0.22967 0.25197 0.36092 0.0511 0.1276 0.0766 0.24791 0.0766 0.36093zm-1.479-0.73278c-0.29216 0-0.55691 0.062-0.79429 0.18593-0.23373 0.12395-0.44188 0.28982-0.62447 0.49763-0.17895 0.20416-0.3305 0.44295-0.45466 0.71637-0.12052 0.26978-0.20999 0.55232-0.26842 0.84762 0.46379-0.05107 0.86368-0.10935 1.1996-0.175 0.33598-0.06922 0.62082-0.14034 0.85453-0.21327 0.23373-0.07654 0.42181-0.15857 0.56422-0.24609 0.14607-0.08747 0.25929-0.17681 0.33963-0.26796 0.0804-0.09481 0.1333-0.1914 0.15886-0.28982 0.0292-0.09841 0.0438-0.20051 0.0438-0.30624 0-0.07654-0.0183-0.15857-0.0548-0.24607-0.0329-0.09121-0.0895-0.17317-0.16981-0.24609-0.0804-0.07294-0.18625-0.13306-0.31772-0.18046-0.12781-0.05107-0.28667-0.07654-0.47657-0.07654zm-8.9576 6.9067c-0.0511 0.10202-0.12596 0.15311-0.2246 0.15311h-0.36702l1.1504-2.1272-1.4626-5.2388h0.40537c0.0511 0 0.0894 0.01278 0.11507 0.03826 0.0256 0.02188 0.042 0.05281 0.0493 0.09295l1.1503 4.2326c0.0219 0.10935 0.0383 0.21874 0.0493 0.32811 0.0219-0.05464 0.0457-0.10936 0.0712-0.16405 0.0256-0.05464 0.0511-0.10935 0.0766-0.16406l2.1966-4.249c0.0183-0.04013 0.0438-0.06922 0.0766-0.08747 0.0329-0.01828 0.0657-0.02734 0.0986-0.02734h0.39988zm-6.6624-2.1108c0.31771 0 0.60621-0.0821 0.86548-0.24609 0.26294-0.1677 0.48754-0.38825 0.67378-0.66168 0.18625-0.27708 0.32868-0.59242 0.42728-0.94605 0.1023-0.35728 0.15338-0.72366 0.15338-1.0992 0-0.58331-0.12964-1.0317-0.38893-1.3452-0.25929-0.31352-0.619-0.47029-1.0791-0.47029-0.31771 0-0.60804 0.08202-0.87098 0.24607-0.25928 0.16406-0.48204 0.3828-0.66829 0.65622-0.1826 0.26978-0.32501 0.58148-0.42727 0.93511-0.10226 0.35363-0.15338 0.72184-0.15338 1.1046 0 0.57966 0.12782 1.0299 0.38345 1.3507 0.25928 0.31717 0.62082 0.47576 1.0846 0.47576zm-0.0439 0.41013c-0.29215 0-0.55873-0.05104-0.79975-0.1531-0.23737-0.10202-0.44189-0.24974-0.61352-0.44296-0.16799-0.19322-0.29946-0.42653-0.39441-0.69996-0.0913-0.27707-0.13694-0.59061-0.13694-0.94058 0-0.44113 0.0657-0.86402 0.1972-1.2687 0.13147-0.40467 0.31588-0.76194 0.55325-1.0718 0.24103-0.30988 0.52588-0.55597 0.85455-0.73825 0.32867-0.18593 0.6902-0.2789 1.0846-0.2789 0.29215 0 0.55691 0.05108 0.79428 0.15312 0.24102 0.10202 0.44554 0.24973 0.61352 0.44294 0.17164 0.19322 0.3031 0.42838 0.3944 0.70544 0.0949 0.27342 0.14243 0.58148 0.14243 0.92418 0 0.44112-0.0676 0.86402-0.20269 1.2687-0.13146 0.40466-0.31588 0.76377-0.55325 1.0773-0.23738 0.30987-0.52039 0.55778-0.84907 0.7437-0.32867 0.18593-0.6902 0.27889-1.0846 0.27889zm-7.3745-0.98433v-0.0821c4e-3 -0.03276 7e-3 -0.082 0.0108-0.14764 7e-3 -0.06552 0.0163-0.14946 0.0274-0.25155 0.0108-0.10575 0.0274-0.23879 0.0493-0.3992l0.3725-3.0897h-0.71759c-0.0366 0-0.0658-0.01045-0.0876-0.03281-0.0219-0.02188-0.0292-0.05281-0.0219-0.09295l0.0274-0.20234 0.86002-0.0656 0.36153-1.9468c7e-3 -0.03281 0.0237-0.062 0.0493-0.08747 0.02559-0.02548 0.0566-0.03827 0.09309-0.03827h0.25198l-0.25746 2.078h1.5776l-0.0438 0.38826h-1.5776l-0.37796 3.0733c-0.0183 0.14948-0.0347 0.27161-0.0492 0.36638-0.0108 0.09481-0.0201 0.17317-0.0274 0.23515-4e-3 0.05833-7e-3 0.10202-0.0108 0.13124v0.06562c0 0.23697 0.0547 0.40831 0.16434 0.51403 0.11319 0.10575 0.25745 0.1586 0.43274 0.1586 0.12051 0 0.22642-0.01828 0.31772-0.05464 0.0949-0.04015 0.17711-0.0821 0.24649-0.12578 0.0694-0.04735 0.12599-0.08929 0.16982-0.12578 0.0438-0.04015 0.0767-0.06013 0.0986-0.06013 0.0366 0 0.064 0.01828 0.0822 0.05464l0.0986 0.22969c-0.14607 0.15311-0.32319 0.27706-0.53135 0.37184-0.20816 0.09109-0.41632 0.13671-0.62448 0.13671-0.29944 0-0.53498-0.0821-0.70664-0.24607-0.16798-0.16407-0.2538-0.41562-0.25745-0.75466zm-3.7044-4.5279-0.66282 5.4411h-0.50944l0.66281-5.4411zm0.39988-1.8757c0 0.0656-0.0146 0.12758-0.0438 0.18592-0.0256 0.05466-0.0603 0.10389-0.10409 0.14766-0.0438 0.04375-0.095 0.0784-0.15339 0.10389-0.0547 0.02548-0.11139 0.03827-0.16982 0.03827-0.0621 0-0.1205-0.01278-0.17527-0.03827-0.0547-0.02548-0.10226-0.06015-0.14243-0.10389-0.0402-0.04374-0.073-0.09295-0.0986-0.14766-0.0256-0.05828-0.0383-0.1203-0.0383-0.18592 0-0.0656 0.0128-0.12759 0.0383-0.18593 0.0256-0.05828 0.0585-0.10935 0.0986-0.15311 0.0438-0.04734 0.0931-0.08388 0.14789-0.10935 0.0547-0.02548 0.11322-0.03827 0.1753-0.03827 0.0585 0 0.11503 0.01278 0.16981 0.03827 0.0585 0.02548 0.10956 0.06015 0.15338 0.10389 0.0438 0.04375 0.0785 0.09655 0.10407 0.15859 0.0256 0.05828 0.0383 0.1203 0.0383 0.18593zm-4.904 6.3216c-0.19356 0.2151-0.37798 0.39191-0.55328 0.53045-0.17163 0.13854-0.34145 0.2479-0.50942 0.32811-0.16434 0.0803-0.33233 0.1349-0.50397 0.16406-0.17164 0.02917-0.35424 0.04375-0.54778 0.04375-0.31406 0-0.58796-0.05284-0.82169-0.15858-0.23006-0.10935-0.42178-0.26067-0.57515-0.45388-0.15339-0.19322-0.26842-0.42289-0.34511-0.68903-0.0767-0.26612-0.11503-0.55596-0.11503-0.86949 0-0.28801 0.0292-0.57237 0.0876-0.85308 0.0621-0.28436 0.14972-0.55414 0.26293-0.80933s0.25015-0.49034 0.41084-0.70544c0.16067-0.2151 0.34145-0.40103 0.54229-0.55778 0.20086-0.15677 0.41814-0.2789 0.65187-0.3664 0.23737-0.0912 0.48936-0.13671 0.75593-0.13671 0.17896 0 0.33964 0.01828 0.48206 0.05466 0.14607 0.03281 0.27938 0.08202 0.39988 0.14766 0.12051 0.062 0.23007 0.13853 0.32867 0.22967 0.0986 0.0912 0.1899 0.19322 0.27389 0.30624l-0.15337 0.18045c-0.0329 0.04013-0.0713 0.06015-0.11503 0.06015-0.0366 0-0.0822-0.02919-0.13694-0.08747-0.0511-0.05828-0.12235-0.1203-0.21365-0.18593-0.0876-0.06922-0.20268-0.13306-0.3451-0.1914-0.14242-0.05828-0.32137-0.08747-0.53683-0.08747-0.30676 0-0.59343 0.08202-0.86002 0.24608-0.26294 0.16406-0.493 0.38462-0.6902 0.66169-0.19355 0.27708-0.34693 0.59789-0.46015 0.96246-0.10955 0.36092-0.16433 0.73825-0.16433 1.132 0 0.25154 0.0274 0.48487 0.0822 0.69996 0.0585 0.2151 0.14608 0.40103 0.26294 0.5578 0.12052 0.15676 0.27024 0.27889 0.44919 0.36639 0.17894 0.08749 0.39075 0.13124 0.63543 0.13124 0.19354 0 0.36701-0.02008 0.52038-0.06022 0.15339-0.04375 0.2885-0.09655 0.40537-0.15858 0.12051-0.06202 0.22459-0.1294 0.31223-0.20234 0.0913-0.0766 0.17164-0.1458 0.24103-0.20778 0.0694-0.06202 0.12781-0.11296 0.17529-0.15314 0.0511-0.04375 0.0968-0.06562 0.13694-0.06562 0.0402 0 0.0785 0.01828 0.11504 0.05464l0.11503 0.14221zm72.436-19.074c-0.02907 0.05098-0.06907 0.07649-0.11996 0.07649-0.03635 0-0.08179-0.02186-0.13632-0.06556-0.0509-0.04734-0.12178-0.09833-0.21266-0.15297-0.08724-0.05827-0.19812-0.10926-0.33262-0.15297-0.1345-0.04734-0.30172-0.07102-0.50166-0.07102-0.1854 0-0.36171 0.03096-0.52893 0.09287-0.16359 0.06191-0.30718 0.14568-0.43078 0.25131-0.11996 0.10198-0.2163 0.22217-0.289 0.36057-0.06907 0.13476-0.1036 0.27862-0.1036 0.4316 0 0.14933 0.03453 0.27498 0.1036 0.37696 0.06907 0.10198 0.15995 0.19121 0.27264 0.2677 0.11633 0.07284 0.24538 0.13658 0.38715 0.19121 0.14541 0.05464 0.29446 0.10926 0.44714 0.1639 0.15268 0.05464 0.29991 0.11655 0.44168 0.18575 0.14541 0.06556 0.27446 0.14568 0.38715 0.24038 0.11632 0.0947 0.20902 0.21125 0.27809 0.34965 0.06907 0.13476 0.1036 0.29866 0.1036 0.49169 0 0.2331-0.04726 0.45891-0.14178 0.67744-0.09088 0.21853-0.22357 0.41338-0.39806 0.58457-0.17086 0.16754-0.37806 0.3023-0.62163 0.40428-0.23993 0.10198-0.50893 0.15297-0.80702 0.15297-0.34898 0-0.64344-0.06009-0.88336-0.18029-0.23629-0.12383-0.43986-0.28409-0.61072-0.48076l0.13087-0.18575c0.03999-0.05826 0.08906-0.08741 0.14723-0.08741 0.03636 0 0.0818 0.02914 0.13632 0.08741 0.05454 0.05827 0.12905 0.12383 0.22357 0.19668 0.09452 0.06919 0.2163 0.13294 0.36534 0.19121 0.14904 0.05827 0.33626 0.08741 0.56164 0.08741 0.21811 0 0.41442-0.0346 0.58891-0.10379 0.17813-0.07284 0.32899-0.17118 0.45259-0.29502 0.12723-0.12383 0.22538-0.26588 0.29445-0.42613 0.06907-0.1639 0.10361-0.3369 0.10361-0.51901 0-0.16026-0.03454-0.29501-0.10361-0.40428-0.06907-0.10927-0.16176-0.20214-0.2781-0.27862-0.1127-0.08013-0.24174-0.14751-0.38715-0.20214-0.14178-0.05464-0.289-0.10744-0.44168-0.15844-0.15268-0.05464-0.30172-0.11291-0.44714-0.17482-0.14177-0.06556-0.27082-0.14386-0.38715-0.23492-0.1127-0.09105-0.20357-0.20214-0.27264-0.33326-0.06907-0.13112-0.1036-0.29137-0.1036-0.48076 0-0.21124 0.04544-0.41338 0.13632-0.60642 0.09088-0.19668 0.21811-0.36968 0.3817-0.51901 0.16359-0.15297 0.35807-0.27316 0.58346-0.36058 0.22902-0.09105 0.47803-0.13658 0.74704-0.13658 0.30536 0 0.56891 0.04734 0.79066 0.14204 0.22538 0.0947 0.42532 0.23674 0.59982 0.42613zm-6.5284 0.3715c0 0.14933-0.02 0.29137-0.05998 0.42613-0.03999 0.13476-0.11088 0.26224-0.21266 0.38242-0.10179 0.12019-0.23993 0.23492-0.41442 0.34418-0.17449 0.10562-0.39806 0.20396-0.6707 0.29502-0.27264 0.08741-0.598 0.16754-0.97606 0.24038-0.37807 0.06921-0.82157 0.13112-1.3305 0.18575-0.0072 0.07649-0.01269 0.15297-0.01636 0.22946-0.0036 0.07284-0.0055 0.14569-0.0055 0.21853 0 0.54268 0.12178 0.96699 0.36534 1.2729 0.2472 0.30594 0.61799 0.45891 1.1124 0.45891 0.19267 0 0.36534-0.02004 0.51802-0.06009 0.15632-0.04371 0.29445-0.09833 0.41442-0.1639 0.1236-0.06556 0.23084-0.13476 0.32172-0.2076 0.09451-0.07284 0.17812-0.14205 0.25083-0.2076 0.07271-0.06556 0.1345-0.11837 0.1854-0.15843 0.05454-0.04371 0.10361-0.06556 0.14723-0.06556 0.04362 0 0.08178 0.01821 0.1145 0.05464l0.11996 0.14204c-0.17813 0.18939-0.35262 0.35329-0.52347 0.49169-0.16722 0.13476-0.33808 0.24585-0.51257 0.33326-0.17086 0.08741-0.34898 0.15115-0.53438 0.19121-0.1854 0.04371-0.38352 0.06556-0.59436 0.06556-0.30172 0-0.57073-0.04917-0.80702-0.14751-0.23266-0.10199-0.42896-0.24403-0.58891-0.42614-0.15995-0.18575-0.28173-0.40974-0.36534-0.67198-0.0836-0.26588-0.12542-0.56271-0.12542-0.89051 0-0.27316 0.02726-0.54814 0.08179-0.82495 0.05453-0.2768 0.13451-0.54268 0.23993-0.79763 0.10906-0.25495 0.24174-0.49351 0.39806-0.71568 0.15995-0.22217 0.34171-0.41521 0.54529-0.5791s0.42896-0.29319 0.67615-0.38789c0.2472-0.0947 0.51439-0.14204 0.80157-0.14204 0.26537 0 0.48894 0.03824 0.6707 0.11473 0.1854 0.07284 0.33444 0.16572 0.44714 0.27862 0.11632 0.10927 0.19994 0.22946 0.25083 0.36057 0.0509 0.12747 0.07634 0.24766 0.07634 0.36057zm-1.4723-0.73207c-0.29082 0-0.55437 0.06192-0.79066 0.18575-0.23266 0.12383-0.43987 0.28955-0.62163 0.49716-0.17812 0.20396-0.32899 0.44252-0.45259 0.71568-0.11996 0.26952-0.20903 0.55179-0.26719 0.8468 0.46168-0.05098 0.85973-0.10926 1.1942-0.17482 0.33444-0.06921 0.61799-0.14023 0.85065-0.21307 0.23266-0.07649 0.41987-0.15844 0.56164-0.24584 0.14541-0.08741 0.2581-0.17664 0.33808-0.2677 0.07998-0.09469 0.13269-0.19121 0.15813-0.28955 0.02907-0.09833 0.04361-0.20032 0.04361-0.30594 0-0.07649-0.01817-0.15844-0.05453-0.24584-0.03271-0.09105-0.08906-0.173-0.16904-0.24585-0.07998-0.07284-0.1854-0.13294-0.31626-0.18029-0.12724-0.05098-0.28537-0.07649-0.4744-0.07649zm-9.8274-0.30594h0.39806c0.050895 0 0.089063 0.01456 0.11451 0.0437 0.029081 0.0255 0.047256 0.05464 0.054535 0.08741l1.1069 4.2886c0.01455 0.08377 0.02545 0.16572 0.03272 0.24585 0.01085 0.08012 0.01999 0.16208 0.02726 0.24585 0.04725-0.15297 0.10906-0.31687 0.1854-0.49169l2.1648-4.2886c0.01817-0.04006 0.04361-0.07102 0.07634-0.09287 0.03272-0.02549 0.07089-0.03825 0.1145-0.03825h0.38716l-2.781 5.4359h-0.42532zm-3.2526 0-0.6598 5.4359h-0.50711l0.65979-5.4359zm0.39806-1.8739c0 0.06556-0.014535 0.12747-0.043616 0.18575-0.025441 0.05464-0.059982 0.1038-0.1036 0.14751-0.043616 0.04371-0.094511 0.07831-0.15268 0.1038-0.054534 0.0255-0.11088 0.03824-0.16904 0.03824-0.061802 0-0.11997-0.01275-0.17449-0.03824-0.054535-0.0255-0.10179-0.0601-0.14177-0.1038-0.039988-0.04371-0.072709-0.09287-0.098151-0.14751-0.025441-0.05827-0.038168-0.12019-0.038168-0.18575 0-0.06556 0.012727-0.12747 0.038168-0.18575 0.025442-0.05827 0.058162-0.10926 0.098151-0.15297 0.043616-0.04734 0.092691-0.08377 0.14723-0.10927 0.054536-0.0255 0.1127-0.03824 0.17449-0.03824 0.058162 0 0.11451 0.01275 0.16904 0.03824 0.058162 0.02549 0.10906 0.06009 0.15268 0.1038 0.043616 0.04371 0.078157 0.09652 0.10361 0.15844 0.025442 0.05826 0.038168 0.12019 0.038168 0.18575zm-7.0178 6.3975v-0.08194c0.0037-0.03279 0.0072-0.08195 0.01085-0.14751 0.0072-0.06556 0.01632-0.14932 0.02726-0.25131 0.01085-0.10562 0.02726-0.23856 0.04907-0.39882l0.37079-3.0867h-0.71432c-0.03636 0-0.06544-0.01093-0.08724-0.03277-0.02181-0.02186-0.02908-0.05281-0.02181-0.09287l0.02726-0.20214 0.8561-0.06556 0.35989-1.9449c0.0072-0.03278 0.02359-0.06192 0.04908-0.08741 0.02544-0.0255 0.05634-0.03825 0.0927-0.03825h0.25083l-0.25628 2.076h1.5704l-0.04362 0.38789h-1.5704l-0.37625 3.0703c-0.01817 0.14933-0.03453 0.27134-0.04908 0.36604-0.01085 0.0947-0.01999 0.173-0.02726 0.23492-0.0036 0.05827-0.0072 0.10198-0.01085 0.13112v0.06556c0 0.23674 0.05453 0.40792 0.16358 0.51354 0.11269 0.10562 0.25628 0.15843 0.43078 0.15843 0.11996 0 0.22538-0.01821 0.31627-0.05464 0.09451-0.04005 0.17631-0.08194 0.24538-0.12565 0.06907-0.04734 0.12541-0.08923 0.16904-0.12565 0.04362-0.04005 0.07634-0.06009 0.09815-0.06009 0.03636 0 0.06362 0.01821 0.0818 0.05464l0.09815 0.22946c-0.14541 0.15297-0.32172 0.2768-0.52893 0.3715-0.20721 0.09105-0.41442 0.13658-0.62163 0.13658-0.29809 0-0.53256-0.08194-0.70342-0.24585-0.16722-0.1639-0.25265-0.41521-0.25628-0.75393zm-4.2709 0.91236h-0.25083c-0.07271 0-0.12178-0.02004-0.14723-0.0601-0.02544-0.04005-0.03817-0.0856-0.03817-0.13658l0.1854-1.6936c-0.13814 0.29137-0.29082 0.55907-0.45804 0.8031-0.16358 0.24038-0.3399 0.44616-0.52893 0.61735-0.18903 0.17118-0.38715 0.30412-0.59436 0.39882-0.20721 0.0947-0.42169 0.14204-0.64344 0.14204-0.22538 0-0.42532-0.04371-0.59981-0.13112-0.17086-0.09105-0.31445-0.21853-0.43078-0.38243-0.1127-0.1639-0.19812-0.36239-0.25628-0.59549-0.05817-0.2331-0.08724-0.49533-0.08724-0.78671 0-0.31687 0.03999-0.62645 0.11996-0.92875 0.08361-0.30594 0.19812-0.59549 0.34353-0.86866 0.14541-0.27316 0.3199-0.52447 0.52347-0.75393 0.20357-0.22946 0.42896-0.42795 0.67615-0.59549s0.51075-0.29866 0.79066-0.39335c0.27991-0.0947 0.56891-0.14204 0.867-0.14204 0.21448 0 0.41623 0.02004 0.60527 0.0601 0.19267 0.03643 0.37988 0.10198 0.56164 0.19668zm-2.3066-0.36057c0.20721 0 0.41078-0.05827 0.61072-0.17482 0.19994-0.11655 0.39079-0.28045 0.57255-0.49169 0.1854-0.21125 0.35807-0.46438 0.51802-0.75939 0.15995-0.29866 0.30354-0.62827 0.43077-0.98885l0.2781-2.2345c-0.21448-0.07285-0.44532-0.10927-0.69251-0.10927-0.36352 0-0.71069 0.08924-1.0415 0.2677-0.3308 0.17846-0.62162 0.41703-0.87246 0.71568-0.25083 0.29866-0.45077 0.64102-0.59981 1.0271-0.14905 0.38607-0.22357 0.78671-0.22357 1.2019 0 0.48805 0.0818 0.86866 0.24538 1.1418 0.16722 0.26952 0.42532 0.40428 0.7743 0.40428zm-4.7617-5.0753-0.6598 5.4359h-0.50712l0.6598-5.4359zm0.39806-1.8739c0 0.06556-0.01453 0.12747-0.04361 0.18575-0.02544 0.05464-0.05998 0.1038-0.10361 0.14751-0.04361 0.04371-0.09451 0.07831-0.15268 0.1038-0.05454 0.0255-0.11088 0.03824-0.16904 0.03824-0.06181 0-0.11997-0.01275-0.17449-0.03824-0.05454-0.0255-0.10179-0.0601-0.14178-0.1038-0.03999-0.04371-0.07271-0.09287-0.09815-0.14751-0.02544-0.05827-0.03817-0.12019-0.03817-0.18575 0-0.06556 0.01273-0.12747 0.03817-0.18575 0.02544-0.05827 0.05817-0.10926 0.09815-0.15297 0.04361-0.04734 0.09269-0.08377 0.14723-0.10927 0.05454-0.0255 0.1127-0.03824 0.17449-0.03824 0.05817 0 0.1145 0.01275 0.16904 0.03824 0.05817 0.02549 0.10906 0.06009 0.15268 0.1038 0.04361 0.04371 0.07816 0.09652 0.1036 0.15844 0.02544 0.05826 0.03817 0.12019 0.03817 0.18575zm-7.3586 6.3975v-0.08194c0.0036-0.03279 0.0072-0.08195 0.01085-0.14751 0.0072-0.06556 0.01632-0.14932 0.02726-0.25131 0.01085-0.10562 0.02727-0.23856 0.04907-0.39882l0.37079-3.0867h-0.71432c-0.03636 0-0.06544-0.01093-0.08724-0.03277-0.02181-0.02186-0.02907-0.05281-0.02181-0.09287l0.02726-0.20214 0.8561-0.06556 0.35989-1.9449c0.0072-0.03278 0.02359-0.06192 0.04907-0.08741 0.02544-0.0255 0.05634-0.03825 0.0927-0.03825h0.25083l-0.25628 2.076h1.5704l-0.04361 0.38789h-1.5704l-0.37625 3.0703c-0.01817 0.14933-0.03453 0.27134-0.04907 0.36604-0.01085 0.0947-0.02 0.173-0.02727 0.23492-0.0036 0.05827-0.0072 0.10198-0.01085 0.13112v0.06556c0 0.23674 0.05454 0.40792 0.16358 0.51354 0.1127 0.10562 0.25629 0.15843 0.43078 0.15843 0.11996 0 0.22538-0.01821 0.31627-0.05464 0.09451-0.04005 0.17631-0.08194 0.24538-0.12565 0.06907-0.04734 0.12542-0.08923 0.16904-0.12565 0.04362-0.04005 0.07634-0.06009 0.09815-0.06009 0.03636 0 0.06363 0.01821 0.0818 0.05464l0.09815 0.22946c-0.14541 0.15297-0.32172 0.2768-0.52893 0.3715-0.20721 0.09105-0.41442 0.13658-0.62163 0.13658-0.29809 0-0.53256-0.08194-0.70342-0.24585-0.16722-0.1639-0.25265-0.41521-0.25628-0.75393zm-4.0283-4.5236-0.65979 5.4359h-0.50711l0.6598-5.4359zm0.39806-1.8739c0 0.06556-0.01453 0.12747-0.04361 0.18575-0.02546 0.05464-0.06 0.1038-0.10361 0.14751-0.04361 0.04371-0.09451 0.07831-0.15268 0.1038-0.05453 0.0255-0.11088 0.03824-0.16904 0.03824-0.06182 0-0.11999-0.01275-0.1745-0.03824-0.05447-0.0255-0.10172-0.0601-0.14177-0.1038-0.04001-0.04371-0.07267-0.09287-0.0981-0.14751-0.02543-0.05827-0.03814-0.12019-0.03814-0.18575 0-0.06556 0.01272-0.12747 0.03814-0.18575 0.02543-0.05827 0.05809-0.10926 0.0981-0.15297 0.04363-0.04734 0.09273-0.08377 0.14722-0.10927 0.05447-0.0255 0.11269-0.03824 0.17449-0.03824 0.05821 0 0.11455 0.01275 0.16904 0.03824 0.05817 0.02549 0.10906 0.06009 0.15268 0.1038 0.04361 0.04371 0.07816 0.09652 0.1036 0.15844 0.02546 0.05826 0.0382 0.12019 0.0382 0.18575zm-9.462 7.3098 0.64889-5.4523h0.23447c0.12723 0 0.19085 0.06556 0.19085 0.19668l-0.15813 1.5679c0.14905-0.28773 0.31263-0.5445 0.49076-0.77032 0.18176-0.22946 0.37079-0.42249 0.56709-0.5791 0.19994-0.15661 0.40533-0.27498 0.61617-0.35511 0.21448-0.08377 0.42895-0.12566 0.64344-0.12566 0.23265 0 0.43077 0.04553 0.59435 0.13658 0.16722 0.09105 0.2999 0.22399 0.39806 0.39882 0.10172 0.17482 0.16722 0.38971 0.1963 0.64466 0.03278 0.25131 0.02928 0.53904-0.01049 0.86319l-0.40896 3.4746h-0.51256l0.40896-3.4746c0.06182-0.51719 0.0273-0.91418-0.10359-1.191-0.13087-0.2768-0.37625-0.4152-0.73614-0.4152-0.20357 0-0.40896 0.05281-0.61617 0.15843-0.20721 0.10198-0.40714 0.24949-0.5998 0.44252-0.19267 0.18939-0.37443 0.42067-0.54529 0.69383-0.17086 0.26952-0.32172 0.57364-0.45259 0.91236l-0.33262 2.8737zm-3.3003-5.4359-0.6598 5.4359h-0.50711l0.6598-5.4359zm0.39805-1.8739c0 0.06556-0.01458 0.12747-0.04363 0.18575-0.02543 0.05464-0.05996 0.1038-0.10359 0.14751-0.04362 0.04371-0.09449 0.07831-0.15268 0.1038-0.05447 0.0255-0.11082 0.03824-0.16904 0.03824-0.06182 0-0.11999-0.01275-0.17449-0.03824-0.05447-0.0255-0.10172-0.0601-0.14177-0.1038-0.04001-0.04371-0.07267-0.09287-0.09822-0.14751-0.02543-0.05827-0.03814-0.12019-0.03814-0.18575 0-0.06556 0.01271-0.12747 0.03814-0.18575 0.02543-0.05827 0.05821-0.10926 0.09822-0.15297 0.04363-0.04734 0.09273-0.08377 0.14722-0.10927 0.05447-0.0255 0.11268-0.03824 0.1745-0.03824 0.0582 0 0.11455 0.01275 0.16903 0.03824 0.0582 0.02549 0.10907 0.06009 0.15268 0.1038 0.04363 0.04371 0.07816 0.09652 0.10359 0.15844 0.02543 0.05826 0.03814 0.12019 0.03814 0.18575zm41.175 33.082c-0.02918 0.05108-0.06937 0.07654-0.1205 0.07654-0.03656 0-0.08226-0.02187-0.13695-0.0656-0.0511-0.04735-0.12231-0.09841-0.21363-0.15312-0.08765-0.05828-0.19903-0.10935-0.33416-0.15312-0.13512-0.04734-0.3031-0.07108-0.50396-0.07108-0.18624 0-0.36336 0.03093-0.53135 0.09295-0.16433 0.062-0.30859 0.14581-0.43274 0.25154-0.12051 0.10202-0.21729 0.22239-0.29033 0.36093-0.06937 0.13489-0.10406 0.27889-0.10406 0.432 0 0.14947 0.03469 0.27525 0.10406 0.37733 0.06937 0.10202 0.16067 0.1914 0.2739 0.26796 0.11683 0.07294 0.2465 0.1367 0.38892 0.1914 0.14607 0.05467 0.2958 0.10935 0.44918 0.16405 0.15339 0.05467 0.30129 0.11666 0.4437 0.18593 0.14607 0.06562 0.27572 0.14581 0.38893 0.24062 0.11683 0.09481 0.20999 0.21144 0.27937 0.34998 0.06937 0.13489 0.10406 0.29894 0.10406 0.49216 0 0.23332-0.04746 0.45936-0.14243 0.67808-0.09129 0.21874-0.22458 0.41379-0.39987 0.58514-0.17164 0.1677-0.3798 0.30259-0.62447 0.40467-0.24102 0.10202-0.51126 0.15311-0.81072 0.15311-0.35058 0-0.64639-0.06013-0.8874-0.18044-0.23737-0.12396-0.44189-0.28437-0.61353-0.48124l0.13147-0.18592c0.04019-0.05833 0.08942-0.08749 0.1479-0.08749 0.03655 0 0.08226 0.02926 0.13696 0.08749 0.05473 0.05833 0.12963 0.12395 0.22459 0.19687 0.09492 0.06922 0.21729 0.13306 0.36702 0.1914 0.14973 0.05833 0.3378 0.08749 0.56422 0.08749 0.2191 0 0.4163-0.03466 0.5916-0.10389 0.17894-0.07291 0.3305-0.17132 0.45466-0.29529 0.12781-0.12395 0.22641-0.26613 0.2958-0.42655 0.06937-0.16405 0.10407-0.33722 0.10407-0.5195 0-0.1604-0.03469-0.2953-0.10407-0.40467-0.06937-0.10935-0.1625-0.20235-0.27937-0.27891-0.1132-0.0802-0.24284-0.14765-0.38892-0.20233-0.14243-0.05464-0.29033-0.10749-0.44371-0.15859-0.15337-0.05464-0.3031-0.11295-0.44917-0.175-0.14242-0.0656-0.27206-0.14399-0.38893-0.23513-0.1132-0.09121-0.2045-0.20233-0.27389-0.33358-0.06937-0.13124-0.10406-0.29165-0.10406-0.48122 0-0.21145 0.04558-0.41379 0.13693-0.607 0.09129-0.19687 0.21913-0.37004 0.38346-0.51951 0.16433-0.15313 0.35972-0.27344 0.58613-0.36093 0.23007-0.09121 0.48022-0.13671 0.75046-0.13671 0.30676 0 0.57152 0.04735 0.79428 0.14219 0.22642 0.09481 0.42727 0.23696 0.60257 0.42654zm-6.5583 0.37185c0 0.14947-0.02004 0.29166-0.06024 0.42655-0.04019 0.13489-0.11133 0.26249-0.21363 0.38279-0.1023 0.12031-0.24103 0.23515-0.41632 0.34451-0.1753 0.10575-0.39988 0.20416-0.67379 0.2953-0.27389 0.08747-0.60073 0.16771-0.98052 0.24061-0.3798 0.06922-0.82533 0.13123-1.3366 0.18593-7e-3 0.0766-0.01255 0.15309-0.0164 0.22968-0.0035 0.07291-0.0047 0.14581-0.0047 0.21873 0 0.54321 0.12233 0.96792 0.367 1.2742 0.24833 0.30624 0.62083 0.45936 1.1175 0.45936 0.19354 0 0.367-0.02007 0.52039-0.06013 0.15703-0.04375 0.2958-0.09841 0.41632-0.16405 0.12416-0.06562 0.23189-0.13488 0.32319-0.2078 0.09492-0.07291 0.17894-0.14218 0.25199-0.20781 0.07301-0.06553 0.13513-0.11848 0.18624-0.1586 0.05473-0.04375 0.10406-0.06553 0.1479-0.06553 0.04382 0 0.08215 0.01828 0.11508 0.05464l0.12051 0.14219c-0.17894 0.18958-0.35423 0.35363-0.52586 0.49216-0.16798 0.13488-0.33963 0.24609-0.51493 0.33358-0.17164 0.08749-0.35058 0.1513-0.53682 0.1914-0.18624 0.04375-0.38527 0.06562-0.59709 0.06562-0.3031 0-0.57335-0.04914-0.81072-0.14766-0.23373-0.10202-0.43093-0.24426-0.59162-0.42653-0.16067-0.18593-0.28302-0.41014-0.367-0.67263-0.08402-0.26612-0.126-0.56325-0.126-0.89136 0-0.27344 0.02742-0.54868 0.08215-0.82574 0.05472-0.27706 0.1351-0.54321 0.24103-0.7984 0.10957-0.25519 0.24285-0.49399 0.39987-0.71636 0.16069-0.22239 0.34329-0.4156 0.54779-0.57966 0.2045-0.16406 0.43092-0.29348 0.67925-0.38826 0.24833-0.09481 0.51674-0.14218 0.80524-0.14218 0.26659 0 0.49117 0.03827 0.67377 0.11481 0.18624 0.07294 0.33597 0.16586 0.44917 0.27889 0.11683 0.10935 0.20086 0.22967 0.25199 0.36092 0.05109 0.1276 0.07664 0.24791 0.07664 0.36093zm-1.479-0.73278c-0.29215 0-0.5569 0.062-0.79428 0.18593-0.23372 0.12395-0.44187 0.28982-0.62447 0.49763-0.17894 0.20416-0.3305 0.44295-0.45466 0.71637-0.12051 0.26978-0.20999 0.55231-0.26842 0.84762 0.46379-0.05107 0.86368-0.10935 1.1996-0.175 0.33597-0.06922 0.62082-0.14034 0.85454-0.21327 0.23372-0.07654 0.42179-0.15857 0.5642-0.24609 0.14607-0.08747 0.25929-0.17681 0.33963-0.26796 0.08039-0.09481 0.1333-0.1914 0.15886-0.28983 0.02918-0.09841 0.04383-0.20051 0.04383-0.30624 0-0.07654-0.01828-0.15857-0.05484-0.24607-0.03293-0.09121-0.08953-0.17317-0.16982-0.24609-0.08039-0.07294-0.18625-0.13306-0.31773-0.18046-0.12781-0.05107-0.28666-0.07654-0.47656-0.07654zm-5.8517 0.36093c-0.02918 0.05108-0.06937 0.07654-0.12051 0.07654-0.03655 0-0.08215-0.02187-0.13694-0.0656-0.0511-0.04735-0.12231-0.09841-0.21363-0.15312-0.08765-0.05828-0.19903-0.10935-0.33416-0.15312-0.13512-0.04734-0.3031-0.07108-0.50396-0.07108-0.18624 0-0.36336 0.03093-0.53135 0.09295-0.16433 0.062-0.30858 0.14581-0.43274 0.25154-0.12052 0.10202-0.21729 0.22239-0.29033 0.36093-0.06937 0.13489-0.10407 0.27889-0.10407 0.432 0 0.14947 0.03468 0.27525 0.10407 0.37733 0.06937 0.10202 0.16067 0.1914 0.27389 0.26796 0.11684 0.07294 0.2465 0.1367 0.38893 0.1914 0.14607 0.05467 0.2958 0.10935 0.44919 0.16405 0.15338 0.05467 0.30128 0.11666 0.4437 0.18593 0.14607 0.06562 0.27572 0.14581 0.38893 0.24062 0.11684 0.09481 0.20997 0.21144 0.27936 0.34998 0.06937 0.13489 0.10407 0.29894 0.10407 0.49216 0 0.23332-0.04746 0.45936-0.14243 0.67808-0.09129 0.21874-0.22459 0.41379-0.39989 0.58514-0.17164 0.1677-0.37979 0.30259-0.62446 0.40467-0.24103 0.10202-0.51127 0.15311-0.81073 0.15311-0.35059 0-0.64639-0.06013-0.8874-0.18044-0.23738-0.12397-0.44188-0.28439-0.61352-0.48126l0.13147-0.18591c0.04019-0.05833 0.08942-0.08749 0.1479-0.08749 0.03656 0 0.08226 0.02926 0.13694 0.08749 0.05472 0.05833 0.12963 0.12394 0.2246 0.19687 0.09492 0.06922 0.21728 0.13305 0.367 0.19139 0.14973 0.05833 0.3378 0.08749 0.56422 0.08749 0.21911 0 0.41632-0.03466 0.59161-0.10389 0.17893-0.07291 0.33049-0.17133 0.45466-0.2953 0.12781-0.12395 0.22642-0.26614 0.2958-0.42655 0.06937-0.16404 0.10406-0.33721 0.10406-0.5195 0-0.1604-0.03469-0.2953-0.10406-0.40466-0.06937-0.10935-0.1625-0.20235-0.27937-0.27892-0.1132-0.0802-0.24286-0.14763-0.38893-0.20232-0.14242-0.05464-0.29032-0.10749-0.4437-0.15859-0.15338-0.05464-0.30311-0.11296-0.44919-0.175-0.14242-0.0656-0.27206-0.14399-0.38892-0.23513-0.1132-0.09121-0.2045-0.20233-0.27389-0.33358-0.06937-0.13124-0.10407-0.29165-0.10407-0.48122 0-0.21146 0.04559-0.41379 0.13694-0.607 0.09129-0.19687 0.21912-0.37004 0.38345-0.51951 0.16433-0.15312 0.35972-0.27343 0.58613-0.36093 0.23007-0.09121 0.48023-0.13671 0.75047-0.13671 0.30676 0 0.57152 0.04734 0.79428 0.14219 0.22642 0.09481 0.42727 0.23696 0.60256 0.42654zm-6.6843-0.66715-0.66282 5.4411h-0.50943l0.66282-5.4411zm0.39989-1.8757c0 0.0656-0.01465 0.12758-0.04382 0.18592-0.02555 0.05467-0.06024 0.10389-0.10406 0.14766-0.04382 0.04375-0.09492 0.0784-0.15338 0.10389-0.05473 0.02548-0.11132 0.03827-0.16981 0.03827-0.0621 0-0.12054-0.01279-0.1753-0.03827-0.05472-0.02548-0.10219-0.06015-0.14242-0.10389-0.04019-0.04375-0.07301-0.09296-0.09856-0.14766-0.02555-0.05828-0.03832-0.1203-0.03832-0.18592 0-0.0656 0.01277-0.12759 0.03832-0.18593 0.02555-0.05828 0.05836-0.10935 0.09856-0.15311 0.04382-0.04734 0.09316-0.08388 0.1479-0.10935 0.05472-0.02548 0.1132-0.03827 0.17529-0.03827 0.05848 0 0.11508 0.0128 0.16982 0.03827 0.05847 0.02548 0.10957 0.06015 0.15338 0.10389 0.04382 0.04375 0.07851 0.09656 0.10406 0.15859 0.02555 0.05828 0.03832 0.1203 0.03832 0.18593zm-5.5285 7.3168h-0.25198c-0.073 0-0.12234-0.02007-0.14789-0.06013-0.02555-0.04015-0.03832-0.0856-0.03832-0.13671l0.18624-1.6952c-0.13877 0.29165-0.29215 0.55962-0.46013 0.80388-0.16434 0.2406-0.34146 0.44659-0.53136 0.61794-0.1899 0.17134-0.38892 0.30441-0.59708 0.3992-0.20816 0.0948-0.42363 0.14217-0.64639 0.14217-0.22642 0-0.42727-0.04375-0.60256-0.13123-0.17164-0.09119-0.31589-0.21874-0.43276-0.38279-0.1132-0.16406-0.19903-0.36275-0.25746-0.59606-0.05848-0.23332-0.08765-0.49581-0.08765-0.78747 0-0.31717 0.0402-0.62705 0.12052-0.92964 0.08402-0.30624 0.19903-0.59607 0.3451-0.86949 0.14607-0.27339 0.32137-0.52494 0.52587-0.75461 0.2045-0.22967 0.43092-0.42836 0.67925-0.59607 0.24833-0.1677 0.5131-0.29895 0.79429-0.39373 0.28119-0.09481 0.57152-0.14218 0.87098-0.14218 0.21547 0 0.41814 0.02001 0.60803 0.06015 0.19356 0.03641 0.38164 0.10202 0.56423 0.19686zm-2.3171-0.36091c0.20816 0 0.41267-0.05833 0.61352-0.175 0.20086-0.11667 0.39259-0.28072 0.57518-0.49216 0.18624-0.21146 0.35972-0.46482 0.52039-0.76013 0.16068-0.29893 0.30494-0.62886 0.43276-0.98979l0.27937-2.2366c-0.21547-0.07294-0.44736-0.10935-0.69569-0.10935-0.36519 0-0.71395 0.08934-1.0463 0.26796-0.33232 0.17864-0.62446 0.41743-0.87645 0.71638-0.25199 0.29894-0.45283 0.64164-0.60256 1.0281-0.14973 0.38644-0.2246 0.78745-0.2246 1.2031 0 0.48851 0.08215 0.86948 0.24651 1.1429 0.16799 0.26979 0.42726 0.40467 0.77785 0.40467zm-6.9418-0.55232v-0.0821c0.0035-0.03276 7e-3 -0.0821 0.01055-0.14764 7e-3 -0.06562 0.01617-0.14946 0.02742-0.25155 0.01054-0.10575 0.02742-0.23879 0.04934-0.3992l0.37249-3.0897h-0.71759c-0.03656 0-0.06574-0.01045-0.08766-0.03281-0.02191-0.02187-0.0293-0.05281-0.02191-0.09295l0.02742-0.20233 0.86002-0.0656 0.36154-1.9468c7e-3 -0.03281 0.02344-0.06199 0.04934-0.08747 0.02555-0.02548 0.0566-0.03827 0.09316-0.03827h0.25199l-0.25747 2.078h1.5776l-0.04383 0.38826h-1.5776l-0.37797 3.0733c-0.01828 0.14948-0.03469 0.27161-0.04934 0.36638-0.01055 0.09481-0.02004 0.17317-0.02742 0.23515-0.0035 0.05833-7e-3 0.10202-0.01055 0.13124v0.06562c0 0.23697 0.05484 0.40831 0.16434 0.51403 0.1132 0.10575 0.25746 0.1586 0.43275 0.1586 0.12052 0 0.22642-0.01828 0.31772-0.05463 0.09492-0.04015 0.17712-0.0821 0.2465-0.12578 0.06937-0.04735 0.12598-0.08929 0.16981-0.12578 0.04383-0.04015 0.07664-0.06013 0.09856-0.06013 0.03656 0 0.06398 0.01828 0.08215 0.05464l0.09856 0.22969c-0.14607 0.15311-0.3232 0.27706-0.53136 0.37185-0.20816 0.09119-0.4163 0.13671-0.62446 0.13671-0.29946 0-0.535-0.0821-0.70664-0.24607-0.16799-0.16407-0.25382-0.41561-0.25746-0.75466zm-3.5784-3.4889c0 0.14947-0.02004 0.29166-0.06023 0.42655-0.0402 0.13489-0.11133 0.26249-0.21364 0.38279-0.10219 0.12031-0.24102 0.23515-0.41632 0.34451-0.17529 0.10575-0.39988 0.20416-0.67376 0.2953-0.2739 0.08747-0.60074 0.16771-0.98053 0.24061-0.3798 0.06922-0.82533 0.13123-1.3366 0.18593-7e-3 0.0766-0.01254 0.15309-0.0164 0.22968-0.0035 0.07291-0.0047 0.14581-0.0047 0.21873 0 0.54321 0.12234 0.96792 0.36702 1.2742 0.24833 0.30624 0.62082 0.45936 1.1175 0.45936 0.19356 0 0.36702-0.02007 0.5204-0.06013 0.15703-0.04375 0.2958-0.09841 0.41632-0.16405 0.12416-0.06562 0.23189-0.13488 0.32319-0.2078 0.09492-0.07291 0.17893-0.14218 0.25197-0.20781 0.07301-0.06553 0.13513-0.11848 0.18626-0.1586 0.05473-0.04375 0.10406-0.06553 0.1479-0.06553 0.04383 0 0.08215 0.01828 0.11508 0.05464l0.12052 0.14219c-0.17894 0.18958-0.35423 0.35363-0.52587 0.49216-0.16799 0.13488-0.33963 0.24609-0.51492 0.33358-0.17164 0.08749-0.35059 0.1513-0.53683 0.1914-0.18624 0.04375-0.38527 0.06562-0.59708 0.06562-0.30311 0-0.57336-0.04914-0.81073-0.14766-0.23371-0.10203-0.43092-0.24426-0.5916-0.42654-0.16067-0.18593-0.28302-0.41014-0.36702-0.67262-0.08402-0.26614-0.12599-0.56325-0.12599-0.89136 0-0.27344 0.02742-0.54869 0.08215-0.82575 0.05472-0.27706 0.13512-0.5432 0.24104-0.7984 0.10957-0.25519 0.24284-0.49398 0.39987-0.71636 0.16069-0.22239 0.34329-0.4156 0.54779-0.57966 0.2045-0.16406 0.43092-0.29348 0.67925-0.38826 0.24833-0.09481 0.51674-0.14218 0.80524-0.14218 0.26659 0 0.49119 0.03827 0.67378 0.11481 0.18624 0.07294 0.33597 0.16586 0.44918 0.27889 0.11684 0.10935 0.20086 0.22967 0.25198 0.36092 0.05109 0.1276 0.07664 0.24791 0.07664 0.36093zm-1.479-0.73278c-0.29216 0-0.55693 0.062-0.79429 0.18593-0.23373 0.12395-0.44189 0.28982-0.62449 0.49763-0.17893 0.20416-0.33049 0.44295-0.45465 0.71637-0.12052 0.26978-0.20999 0.55231-0.26842 0.84762 0.46379-0.05107 0.86366-0.10935 1.1996-0.175 0.33597-0.06922 0.62082-0.14034 0.85455-0.21327 0.23373-0.07654 0.4218-0.15857 0.56423-0.24609 0.14607-0.08747 0.25928-0.17681 0.33962-0.26796 0.08039-0.09481 0.1333-0.1914 0.15886-0.28983 0.02918-0.09841 0.04383-0.20051 0.04383-0.30624 0-0.07654-0.01828-0.15857-0.05484-0.24607-0.03293-0.09121-0.08953-0.17317-0.16982-0.24609-0.08039-0.07294-0.18624-0.13306-0.3177-0.18046-0.12782-0.05107-0.28667-0.07654-0.47657-0.07654zm-7.1609 5.1349 0.96409-7.9566h0.50944l-0.96958 7.9566zm-5.9229-0.33904c0.31772 0 0.60622-0.08209 0.8655-0.24609 0.26293-0.1677 0.48753-0.38826 0.67377-0.66169 0.18624-0.27706 0.32866-0.59241 0.42727-0.94604 0.1023-0.35727 0.15337-0.72366 0.15337-1.0992 0-0.5833-0.12964-1.0317-0.38893-1.3452-0.25928-0.31352-0.61899-0.47029-1.0791-0.47029-0.31772 0-0.60804 0.08202-0.87098 0.24607-0.25929 0.16406-0.48205 0.3828-0.66829 0.65622-0.1826 0.26978-0.32503 0.58148-0.42727 0.93511-0.1023 0.35363-0.15338 0.72184-0.15338 1.1046 0 0.57966 0.12781 1.0299 0.38344 1.3507 0.25929 0.31717 0.62083 0.47576 1.0846 0.47576zm-0.04382 0.41013c-0.29216 0-0.55874-0.05104-0.79976-0.15311-0.23737-0.10203-0.44187-0.24972-0.61352-0.44295-0.16799-0.19322-0.29946-0.42654-0.3944-0.69996-0.09129-0.27707-0.13696-0.59061-0.13696-0.94058 0-0.44113 0.06574-0.86403 0.1972-1.2687 0.13147-0.40467 0.31589-0.76194 0.55327-1.0718 0.24102-0.30988 0.52586-0.55597 0.85453-0.73825 0.32867-0.18593 0.6902-0.2789 1.0846-0.2789 0.29214 0 0.5569 0.05107 0.79428 0.15312 0.24103 0.10213 0.44554 0.24973 0.61353 0.44294 0.17163 0.19322 0.3031 0.42838 0.3944 0.70544 0.09492 0.27342 0.14242 0.58148 0.14242 0.92418 0 0.44113-0.0675 0.86402-0.20267 1.2687-0.13147 0.40468-0.3159 0.76378-0.55326 1.0773-0.23737 0.30988-0.5204 0.55779-0.84907 0.74372-0.32867 0.18592-0.6902 0.27888-1.0846 0.27888zm-9.8012-0.07111 0.96409-7.9566h0.51492l-0.50396 4.156c0.14607-0.27342 0.30676-0.51586 0.48205-0.72731 0.17894-0.21509 0.36519-0.39556 0.55874-0.54138 0.1972-0.14947 0.39806-0.26249 0.60256-0.33904 0.2045-0.07654 0.41083-0.11481 0.61899-0.11481 0.23738 0 0.44006 0.0456 0.60804 0.13671 0.16799 0.0912 0.30129 0.22422 0.39989 0.3992 0.09856 0.175 0.1625 0.39009 0.19172 0.64528 0.03293 0.25155 0.02942 0.53956-0.01049 0.86402l-0.41083 3.478h-0.51492l0.41083-3.478c0.0621-0.51768 0.02742-0.91507-0.10406-1.1921-0.13147-0.28072-0.37797-0.42107-0.7395-0.42107-0.19721 0-0.39806 0.05107-0.60256 0.15311-0.20451 0.09842-0.40354 0.24243-0.59709 0.43202-0.1899 0.18593-0.37067 0.41196-0.54232 0.67809-0.17164 0.26613-0.32319 0.56325-0.45466 0.89136l-0.35606 2.9366zm-3.2716-0.99526c-0.19356 0.2151-0.37797 0.39191-0.55326 0.53045-0.17164 0.13854-0.34145 0.2479-0.50943 0.32811-0.16433 0.0803-0.33232 0.13489-0.50396 0.16406-0.17164 0.02916-0.35424 0.04375-0.54779 0.04375-0.31407 0-0.58796-0.05284-0.82168-0.15859-0.23007-0.10935-0.4218-0.26067-0.57517-0.45388-0.15339-0.19322-0.26842-0.4229-0.3451-0.68904-0.07676-0.26613-0.11508-0.55595-0.11508-0.86949 0-0.28801 0.02918-0.57236 0.08765-0.85308 0.0621-0.28437 0.14975-0.55414 0.26294-0.80933 0.1132-0.2552 0.25016-0.49034 0.41083-0.70544 0.16069-0.2151 0.34146-0.40103 0.54232-0.55778 0.20084-0.15677 0.41813-0.2789 0.65186-0.3664 0.23737-0.09119 0.48936-0.13671 0.75594-0.13671 0.17893 0 0.33962 0.01828 0.48205 0.05467 0.14607 0.03281 0.27937 0.08202 0.39987 0.14765 0.12052 0.06199 0.23007 0.13853 0.32867 0.22968 0.09856 0.0912 0.1899 0.19321 0.2739 0.30623l-0.15338 0.18046c-0.03293 0.04013-0.07124 0.06015-0.11508 0.06015-0.03656 0-0.08214-0.02919-0.13693-0.08747-0.0511-0.05828-0.12231-0.1203-0.21364-0.18592-0.08765-0.06922-0.20268-0.13306-0.3451-0.1914-0.14243-0.05828-0.32137-0.08748-0.53683-0.08748-0.30676 0-0.59343 0.08202-0.86002 0.24607-0.26293 0.16406-0.493 0.38462-0.6902 0.66169-0.19356 0.27706-0.34693 0.59789-0.46014 0.96246-0.10957 0.36092-0.16433 0.73825-0.16433 1.132 0 0.25155 0.02742 0.48488 0.08215 0.69997 0.05848 0.2151 0.14608 0.40103 0.26293 0.55778 0.12051 0.15677 0.27024 0.2789 0.44917 0.36639 0.17896 0.08749 0.39076 0.13125 0.63543 0.13125 0.19356 0 0.36702-0.01998 0.5204-0.06013 0.15337-0.04375 0.28849-0.09655 0.40536-0.15859 0.12051-0.06202 0.2246-0.12939 0.31224-0.20232 0.09129-0.0766 0.17163-0.14581 0.24102-0.20781 0.06937-0.06202 0.1278-0.11295 0.17529-0.15312 0.05109-0.04375 0.0968-0.06552 0.13696-0.06552 0.04019 0 0.07852 0.01827 0.11508 0.05463l0.11508 0.14218z" style="fill:#fefefe;font-variation-settings:normal;stop-color:#000000;stroke-width:.18521;stroke:#fefefe"/><path d="m-123.57 31.388c-4.9623 15.093 5.4454 29.829 21.142 24.011 2.3043 3.511 4.8198 7.5437 7.9937 11.102-0.49809-7.1106-0.29255-9.8007 0.06906-15.891-17.898-12.04 0.49274-33.198 3.9851-34.355-15.826-14.273-30.051 6.1101-33.19 15.133z" style="fill:#f3ac29;stroke-width:.46567;stroke:#0ca7b7"/><path d="m-63.24 34.836c-0.30399-3.3135 5.0947-4.5734 8.9696-8.2312 0 0-7.2613 0.9646-9.2396-1.2279-3.2867-10.575-13.877-10.75-20.607-3.1635-19.626 25.069 14.526 37.934 20.877 12.623z" style="-inkscape-stroke:none;fill:#0ca7b7;font-variation-settings:normal;stop-color:#000000;stroke-width:.26458;stroke:#f3ac29"/><ellipse cx="-70.562" cy="25.277" rx="1.9274" ry="1.8374" style="-inkscape-stroke:none;fill:#3a3a3a;font-variation-settings:normal;stop-color:#000000"/><path transform="matrix(1 -.022059 0 .80764 0 10.638)" d="m17.529 71.262c0.21958 0.60281 0.36433 1.2328 0.33717 1.8668-0.01764 0.46034-0.15785 0.92533-0.46378 1.3199-0.39982 0.54269-1.0294 0.94976-1.7121 1.2356-1.1004 0.48195-2.3076 0.76959-3.5191 0.98291-1.7494 0.29427-3.5294 0.43329-5.3072 0.50774-3.0181 0.12013-6.0386 0.03663-9.0469-0.1215-1.8634-0.0977-3.7248-0.21624-5.5827-0.36163-3.3248-0.25191-6.6399-0.57137-9.9541-0.8934-6.0886-0.60304-12.175-1.2169-18.263-1.8244-5.8892-0.58835-11.778-1.1801-17.667-1.7663-2.3804-0.22553-4.7644-0.42788-7.1491-0.62519-3.6811-0.28228-7.3674-0.53181-11.063-0.68474-2.9555-0.12081-5.9161-0.18516-8.878-0.17076-2.5681 0.01806-5.1376 0.1037-7.7 0.28014-2.5782 0.17973-5.1497 0.47433-7.6788 0.94591-1.5432 0.29117-3.0768 0.63905-4.5488 1.1276-1.1181 0.37052-2.1947 0.82804-3.2024 1.3737-1.0242 0.54843-1.9786 1.1832-2.852 1.8852-0.65887 0.53274-1.3182 1.0652-1.9804 1.5952 1.41-0.7858 2.8148-1.5783 4.2371-2.3489 0.80664-0.42565 1.6877-0.74572 2.5897-1.0052 1.3334-0.40132 2.6905-0.74522 4.051-1.076 1.9594-0.46807 3.9635-0.79842 5.9817-1.0203 2.8561-0.3325 5.7353-0.49357 8.6128-0.56558 2.7458-0.06761 5.4918-0.03618 8.2339 0.04334 1.9017 0.05334 3.8018 0.13078 5.6999 0.22925 1.6884 0.08721 3.3752 0.19035 5.0608 0.30357 2.5924 0.18434 5.1827 0.38677 7.768 0.62221 4.6874 0.42134 9.3657 0.89967 14.046 1.3642 8.9732 0.8998 17.946 1.8008 26.92 2.696 3.0364 0.28579 6.0762 0.55058 9.1216 0.77445 1.4335 0.10653 2.8686 0.20335 4.3057 0.27798 1.6794 0.08261 3.3614 0.14036 5.0452 0.15423 2.02 0.0198 4.0439-0.02191 6.0599-0.16765 1.4473-0.11354 2.8924-0.28554 4.3039-0.58704 1.2814-0.27268 2.5379-0.67014 3.6527-1.2673 0.56363-0.30092 1.0708-0.67938 1.4688-1.1243 0.43041-0.48894 0.68994-1.0681 0.80847-1.6567 0.13843-0.70605 0.04876-1.4284-0.18593-2.1095-2.03-5.0533-7.1777-8.9821-11.32-12.435 5.6668 5.725 7.8695 7.9854 9.7699 12.226z" style="color:#000000;fill:#019247;filter:url(#Initiatives Citoyennes Choletaisesa);opacity:.9;stroke-linejoin:round;stroke-width:.58882;stroke:#019247"/></g></svg>
