<?xml version="1.0" encoding="UTF-8" standalone="no"?>
<!-- Created with Inkscape (http://www.inkscape.org/) -->

<svg
   width="550"
   height="250"
   viewBox="0 0 145.52083 66.145833"
   version="1.1"
   id="svg5"
   inkscape:version="1.1.2 (0a00cf5339, 2022-02-04)"
   sodipodi:docname="logo.svg"
   xmlns:inkscape="http://www.inkscape.org/namespaces/inkscape"
   xmlns:sodipodi="http://sodipodi.sourceforge.net/DTD/sodipodi-0.dtd"
   xmlns="http://www.w3.org/2000/svg"
   xmlns:svg="http://www.w3.org/2000/svg">
  <sodipodi:namedview
     id="namedview7"
     pagecolor="#ffffff"
     bordercolor="#666666"
     borderopacity="1.0"
     inkscape:pageshadow="2"
     inkscape:pageopacity="0.0"
     inkscape:pagecheckerboard="0"
     inkscape:document-units="px"
     showgrid="false"
     inkscape:zoom="1.3602817"
     inkscape:cx="332.65169"
     inkscape:cy="259.1375"
     inkscape:window-width="1920"
     inkscape:window-height="1017"
     inkscape:window-x="0"
     inkscape:window-y="33"
     inkscape:window-maximized="1"
     inkscape:current-layer="layer1"
     units="px"
     fit-margin-top="0"
     fit-margin-left="0"
     fit-margin-right="0"
     fit-margin-bottom="0"
     inkscape:showpageshadow="false"
     showborder="true"
     showguides="true"
     inkscape:guide-bbox="true"
     width="590px" />
  <defs
     id="defs2">
    <filter
       inkscape:label="Light Contour"
       inkscape:menu="Image Paint and Draw"
       inkscape:menu-tooltip="Uses vertical specular light to draw lines"
       style="color-interpolation-filters:sRGB"
       id="filter10023"
       x="-0.0014044532"
       y="-0.009291746"
       width="1.0028089"
       height="1.0185835">
      <feGaussianBlur
         in="SourceGraphic"
         stdDeviation="0.06492347"
         result="result3"
         id="feGaussianBlur9997" />
      <feComponentTransfer
         result="result1"
         in="result3"
         id="feComponentTransfer10005">
        <feFuncR
           type="discrete"
           tableValues="0 0.1 0.2 0.3 0.4 0.5 0.6 0.7 0.8 0.9 1"
           id="feFuncR9999" />
        <feFuncG
           type="discrete"
           tableValues="0 0.1 0.2 0.3 0.4 0.5 0.6 0.7 0.8 0.9 1"
           id="feFuncG10001" />
        <feFuncB
           type="discrete"
           tableValues="0 0.1 0.2 0.3 0.4 0.5 0.6 0.7 0.8 0.9 1"
           id="feFuncB10003" />
      </feComponentTransfer>
      <feGaussianBlur
         result="result5"
         stdDeviation="0.01"
         id="feGaussianBlur10007" />
      <feBlend
         in2="result5"
         result="result6"
         mode="lighten"
         in="result5"
         id="feBlend10009" />
      <feColorMatrix
         in="result6"
         type="luminanceToAlpha"
         result="result2"
         id="feColorMatrix10011" />
      <feSpecularLighting
         surfaceScale="5"
         result="result9"
         specularExponent="20"
         in="result2"
         specularConstant="1"
         id="feSpecularLighting10015">
        <feDistantLight
           azimuth="180"
           elevation="90"
           id="feDistantLight10013" />
      </feSpecularLighting>
      <feComposite
         in2="result6"
         operator="arithmetic"
         in="result9"
         k1="0.4"
         k3="0.7"
         result="result3"
         id="feComposite10017"
         k2="0"
         k4="0" />
      <feBlend
         in2="result1"
         in="result3"
         mode="normal"
         result="result8"
         id="feBlend10019" />
      <feComposite
         in2="SourceGraphic"
         in="result8"
         operator="in"
         result="result7"
         id="feComposite10021" />
    </filter>
  </defs>
  <g
     inkscape:label="Calque 1"
     inkscape:groupmode="layer"
     id="layer1"
     transform="translate(125.57993,-10.56656)">
    <path
       id="path24462-6"
       style="font-style:italic;font-weight:300;font-size:16.9333px;line-height:1.25;font-family:Lato;-inkscape-font-specification:'Lato Light Italic';font-variation-settings:normal;letter-spacing:3.43958px;fill:#552200;fill-opacity:1;stroke-width:0.10583333;stroke-linecap:butt;stroke-linejoin:miter;stroke-miterlimit:4;stroke-dasharray:none;stroke-dashoffset:0;stroke-opacity:1;stop-color:#000000;stroke:#552200"
       d="m -1.6664619,59.736396 c -0.02918,0.05108 -0.06937,0.07654 -0.120503,0.07654 -0.03656,0 -0.08226,-0.02187 -0.136954,-0.0656 -0.0511,-0.04735 -0.122308,-0.09841 -0.213631,-0.153125 -0.08765,-0.05828 -0.1990287,-0.10935 -0.3341567,-0.153115 -0.135115,-0.04734 -0.3031027,-0.07108 -0.5039587,-0.07108 -0.186245,0 -0.3633597,0.03093 -0.5313467,0.09295 -0.16433,0.062 -0.3085857,0.14581 -0.4327447,0.251541 -0.120514,0.102018 -0.217287,0.222391 -0.290329,0.360928 -0.06937,0.134886 -0.1040637,0.278891 -0.1040637,0.432005 0,0.149473 0.03469,0.27525 0.1040637,0.37733 0.06937,0.102018 0.160674,0.191399 0.2739,0.267955 0.116834,0.07294 0.2465007,0.1367 0.3889177,0.191399 0.146073,0.05467 0.295801,0.10935 0.4491847,0.164049 0.153386,0.05467 0.301287,0.116657 0.4437037,0.185931 0.146073,0.06562 0.275715,0.145812 0.388929,0.240616 0.1168347,0.09481 0.2099857,0.211442 0.2793717,0.349982 0.06937,0.134886 0.104065,0.298945 0.104065,0.49216 0,0.233325 -0.04746,0.459358 -0.142429,0.678082 -0.09129,0.218743 -0.2245757,0.413794 -0.3998727,0.585135 -0.171643,0.167705 -0.3798027,0.302591 -0.6244747,0.404666 -0.2410157,0.102019 -0.5112587,0.153113 -0.8107184,0.153113 -0.350585,0 -0.6463867,-0.06013 -0.8874037,-0.18044 -0.2373717,-0.123959 -0.4418857,-0.284373 -0.6135294,-0.481242 l 0.1314727,-0.185923 c 0.04019,-0.05833 0.08942,-0.08749 0.1479,-0.08749 0.03655,0 0.08226,0.02926 0.136956,0.08749 0.05473,0.05833 0.129631,0.123949 0.2245877,0.196869 0.09492,0.06922 0.217286,0.133058 0.367015,0.191397 0.1497287,0.05833 0.3378017,0.08749 0.5642167,0.08749 0.2191027,0 0.4163037,-0.03466 0.5916024,-0.103894 0.178943,-0.07291 0.330501,-0.171322 0.45466,-0.29529 0.1278147,-0.123948 0.2264147,-0.266134 0.2958007,-0.426548 0.06937,-0.16405 0.104066,-0.337219 0.104066,-0.519496 0,-0.160405 -0.03469,-0.2953 -0.104066,-0.404666 -0.06937,-0.109348 -0.162502,-0.202352 -0.2793717,-0.278909 -0.1132,-0.0802 -0.242845,-0.14765 -0.388918,-0.202333 -0.1424287,-0.05464 -0.2903297,-0.107492 -0.4437137,-0.158586 -0.153374,-0.05464 -0.3031017,-0.112946 -0.4491747,-0.174996 -0.142417,-0.0656 -0.2720587,-0.143987 -0.3889287,-0.235131 -0.113199,-0.09121 -0.204502,-0.202334 -0.273888,-0.333579 -0.06937,-0.131243 -0.104065,-0.291652 -0.104065,-0.481224 0,-0.211454 0.04558,-0.413787 0.136931,-0.607 0.09129,-0.196866 0.219126,-0.370037 0.3834567,-0.519509 0.164331,-0.153127 0.359715,-0.273436 0.5861307,-0.360927 0.230072,-0.09121 0.4802167,-0.136712 0.7504597,-0.136712 0.3067587,0 0.5715177,0.04735 0.7942774,0.142191 0.226416,0.09481 0.427272,0.236964 0.6025717,0.426537 z m -6.5583132,0.371852 c 0,0.149474 -0.02004,0.291663 -0.06024,0.426549 -0.04019,0.134886 -0.111333,0.262488 -0.213631,0.382786 -0.1023037,0.120308 -0.2410277,0.235151 -0.4163157,0.344512 -0.1752977,0.105747 -0.3998847,0.204161 -0.6737854,0.295305 -0.273888,0.08747 -0.6007318,0.167706 -0.9805208,0.240607 -0.379801,0.06922 -0.825331,0.131231 -1.336591,0.185933 -0.007,0.0766 -0.01255,0.153094 -0.0164,0.229679 -0.0035,0.07291 -0.0047,0.145813 -0.0047,0.218733 0,0.543207 0.12233,0.967919 0.367003,1.274164 0.24833,0.306236 0.62083,0.459359 1.117489,0.459359 0.193545,0 0.367005,-0.02007 0.5203888,-0.06013 0.157029,-0.04375 0.295802,-0.09841 0.4163167,-0.16405 0.124159,-0.06562 0.231888,-0.134876 0.323187,-0.207797 0.09492,-0.07291 0.1789437,-0.142176 0.2519857,-0.207806 0.07301,-0.06553 0.135127,-0.118475 0.186244,-0.158595 0.05473,-0.04375 0.104065,-0.06553 0.147901,-0.06553 0.04382,0 0.08215,0.01828 0.1150767,0.05464 l 0.120514,0.142186 c -0.1789427,0.189579 -0.3542307,0.353629 -0.5258627,0.49216 -0.1679837,0.134885 -0.3396277,0.246089 -0.5149257,0.333582 -0.171643,0.08749 -0.3505757,0.151305 -0.5368197,0.191396 -0.1862438,0.04375 -0.3852728,0.06562 -0.5970858,0.06562 -0.303104,0 -0.573347,-0.04914 -0.810718,-0.147659 -0.233729,-0.102019 -0.430931,-0.244261 -0.591617,-0.42653 -0.160673,-0.185932 -0.283016,-0.410139 -0.367003,-0.672628 -0.08402,-0.266125 -0.125999,-0.563252 -0.125999,-0.891362 0,-0.273435 0.02742,-0.548679 0.08215,-0.825745 0.05472,-0.277065 0.135105,-0.543206 0.24103,-0.7984 0.109569,-0.255193 0.242846,-0.493986 0.399873,-0.716363 0.160688,-0.22239 0.343286,-0.415602 0.547788,-0.579664 0.204503,-0.164061 0.430919,-0.293478 0.679248,-0.388263 0.248329,-0.09481 0.5167438,-0.142181 0.8052448,-0.142181 0.2665867,0 0.4911747,0.03827 0.6737744,0.114813 0.186244,0.07294 0.335973,0.165865 0.449174,0.27889 0.1168347,0.109351 0.2008577,0.229672 0.2519857,0.360916 0.05109,0.127604 0.07664,0.247911 0.07664,0.360927 z m -1.4790191,-0.732779 c -0.292146,0 -0.5569038,0.062 -0.7942778,0.185933 -0.233716,0.123949 -0.441874,0.289825 -0.624473,0.497627 -0.178944,0.204159 -0.330501,0.44295 -0.45466,0.716374 -0.120514,0.269782 -0.209986,0.552314 -0.268416,0.847619 0.463789,-0.05107 0.863675,-0.10935 1.199649,-0.174996 0.335972,-0.06922 0.620818,-0.140341 0.8545448,-0.213267 0.2337167,-0.07654 0.4217887,-0.158571 0.5642047,-0.246087 0.146072,-0.08747 0.2592867,-0.176811 0.3396287,-0.267955 0.08039,-0.09481 0.1333,-0.191399 0.158858,-0.289827 0.02918,-0.09841 0.04383,-0.200507 0.04383,-0.306239 0,-0.07654 -0.01828,-0.158571 -0.05484,-0.246074 -0.03293,-0.09121 -0.08953,-0.17317 -0.169815,-0.246087 -0.08039,-0.07294 -0.1862537,-0.133058 -0.3177267,-0.180463 -0.127814,-0.05107 -0.28666,-0.07654 -0.4765607,-0.07654 z m -5.8516858,0.360927 c -0.02918,0.05108 -0.06937,0.07654 -0.120514,0.07654 -0.03655,0 -0.08215,-0.02187 -0.136944,-0.0656 -0.0511,-0.04735 -0.122307,-0.09841 -0.21363,-0.153125 -0.08765,-0.05828 -0.19903,-0.10935 -0.334158,-0.153115 -0.135116,-0.04734 -0.303102,-0.07108 -0.50396,-0.07108 -0.186242,0 -0.363359,0.03093 -0.531346,0.09295 -0.16433,0.062 -0.308585,0.14581 -0.432744,0.251541 -0.120516,0.102018 -0.217288,0.222391 -0.29033,0.360928 -0.06937,0.134886 -0.104066,0.278891 -0.104066,0.432005 0,0.149473 0.03468,0.27525 0.104066,0.37733 0.06937,0.102018 0.160674,0.191399 0.273888,0.267955 0.116835,0.07294 0.246502,0.1367 0.38893,0.191399 0.146071,0.05467 0.2958,0.10935 0.449187,0.164049 0.153385,0.05467 0.301285,0.116657 0.443701,0.185931 0.146073,0.06562 0.275717,0.145812 0.38893,0.240616 0.116835,0.09481 0.209974,0.211442 0.27936,0.349982 0.06937,0.134886 0.104066,0.298945 0.104066,0.49216 0,0.233325 -0.04746,0.459358 -0.142429,0.678082 -0.09129,0.218743 -0.224586,0.413794 -0.399887,0.585135 -0.171641,0.167705 -0.379788,0.302591 -0.624461,0.404666 -0.24103,0.102019 -0.511272,0.153113 -0.81073,0.153113 -0.350587,0 -0.646387,-0.06013 -0.887405,-0.18044 -0.237377,-0.123968 -0.441878,-0.284391 -0.613521,-0.48126 l 0.131472,-0.185914 c 0.04019,-0.05833 0.08942,-0.08749 0.1479,-0.08749 0.03656,0 0.08226,0.02926 0.136944,0.08749 0.05472,0.05833 0.129631,0.123939 0.224599,0.196869 0.09492,0.06922 0.217275,0.133049 0.367005,0.191387 0.149728,0.05833 0.337801,0.08749 0.564217,0.08749 0.219114,0 0.416315,-0.03466 0.591614,-0.103893 0.178932,-0.07291 0.330489,-0.171332 0.45466,-0.295299 0.127814,-0.123949 0.226416,-0.266135 0.295802,-0.426549 0.06937,-0.164041 0.104064,-0.337209 0.104064,-0.519496 0,-0.160405 -0.03469,-0.2953 -0.104064,-0.404657 -0.06937,-0.109354 -0.162502,-0.202349 -0.279373,-0.278915 -0.113199,-0.0802 -0.242856,-0.147631 -0.388929,-0.202323 -0.142417,-0.05464 -0.290318,-0.107492 -0.443703,-0.158587 -0.153384,-0.05464 -0.303113,-0.112955 -0.449186,-0.174996 -0.142417,-0.0656 -0.272061,-0.143989 -0.388918,-0.235133 -0.1132,-0.09121 -0.204503,-0.202334 -0.273888,-0.33358 -0.06937,-0.131243 -0.104066,-0.291652 -0.104066,-0.481223 0,-0.211455 0.04559,-0.413789 0.136943,-0.607 0.09129,-0.196868 0.219117,-0.370037 0.383447,-0.51951 0.16433,-0.153125 0.359715,-0.273434 0.586131,-0.360926 0.230071,-0.09121 0.480229,-0.136713 0.750473,-0.136713 0.306758,0 0.571516,0.04734 0.794276,0.142191 0.226416,0.09481 0.427273,0.236965 0.60256,0.426537 z m -6.684309,-0.667154 -0.662817,5.441133 h -0.509433 l 0.662818,-5.441133 z m 0.399887,-1.87569 c 0,0.0656 -0.01465,0.12758 -0.04382,0.185919 -0.02555,0.05467 -0.06024,0.103889 -0.104065,0.147659 -0.04382,0.04375 -0.09492,0.0784 -0.153375,0.103888 -0.05473,0.02548 -0.111319,0.03827 -0.169813,0.03827 -0.0621,0 -0.120539,-0.01279 -0.1753,-0.03827 -0.05472,-0.02548 -0.102187,-0.06015 -0.142415,-0.103888 -0.04019,-0.04375 -0.07301,-0.09296 -0.09856,-0.147659 -0.02555,-0.05828 -0.03832,-0.120297 -0.03832,-0.185919 0,-0.0656 0.01277,-0.127591 0.03832,-0.185931 0.02555,-0.05828 0.05836,-0.10935 0.09856,-0.153114 0.04382,-0.04734 0.09316,-0.08388 0.1479,-0.10935 0.05472,-0.02548 0.1132,-0.03827 0.175287,-0.03827 0.05848,0 0.115078,0.0128 0.169816,0.03827 0.05847,0.02548 0.10957,0.06015 0.153384,0.103888 0.04382,0.04375 0.07851,0.09656 0.104065,0.158594 0.02555,0.05828 0.03832,0.120296 0.03832,0.18593 z m -5.528513,7.316823 H -27.6204 c -0.073,0 -0.122343,-0.02007 -0.147889,-0.06013 -0.02555,-0.04015 -0.03832,-0.0856 -0.03832,-0.136713 l 0.186244,-1.695239 c -0.138773,0.291653 -0.292146,0.559616 -0.460134,0.803877 -0.164341,0.240598 -0.341458,0.446586 -0.531358,0.617936 -0.1899,0.171341 -0.388917,0.304408 -0.597076,0.399202 -0.208157,0.0948 -0.423629,0.142167 -0.646388,0.142167 -0.226416,0 -0.427273,-0.04375 -0.602561,-0.13123 -0.171642,-0.09119 -0.315886,-0.218743 -0.432757,-0.382793 -0.113199,-0.164059 -0.199029,-0.362746 -0.257458,-0.596062 -0.05848,-0.233325 -0.08765,-0.495814 -0.08765,-0.787468 0,-0.317173 0.0402,-0.627054 0.120515,-0.929645 0.08402,-0.30624 0.199029,-0.596067 0.345102,-0.869489 0.146073,-0.273388 0.321372,-0.524941 0.525873,-0.754612 0.204503,-0.229671 0.430918,-0.428363 0.679248,-0.596066 0.24833,-0.167702 0.513101,-0.298946 0.794289,-0.393733 0.281188,-0.09481 0.571518,-0.142178 0.870977,-0.142178 0.21547,0 0.418144,0.02001 0.608032,0.06015 0.193557,0.03641 0.381641,0.102017 0.564229,0.196855 z m -2.317126,-0.36091 c 0.208159,0 0.412672,-0.05833 0.613518,-0.174996 0.200858,-0.116667 0.392586,-0.280717 0.575175,-0.492159 0.186244,-0.211461 0.359715,-0.464822 0.52039,-0.760131 0.160685,-0.298926 0.304942,-0.628863 0.432756,-0.989792 l 0.279372,-2.236608 c -0.21547,-0.07294 -0.447358,-0.109349 -0.695687,-0.109349 -0.365189,0 -0.713948,0.08934 -1.046276,0.267956 -0.332317,0.178636 -0.624464,0.417428 -0.876448,0.716375 -0.251986,0.298945 -0.452832,0.641644 -0.602561,1.028083 -0.149729,0.386437 -0.2246,0.787448 -0.2246,1.203069 0,0.488514 0.08215,0.869479 0.246514,1.142905 0.167987,0.26979 0.427261,0.404666 0.777847,0.404666 z m -6.941764,-0.552325 v -0.0821 c 0.0035,-0.03276 0.007,-0.0821 0.01055,-0.14764 0.007,-0.06562 0.01617,-0.149458 0.02742,-0.251553 0.01054,-0.105749 0.02742,-0.238788 0.04934,-0.399202 l 0.37249,-3.089687 h -0.71759 c -0.03656,0 -0.06574,-0.01045 -0.08766,-0.03281 -0.02191,-0.02187 -0.0293,-0.05281 -0.02191,-0.09295 l 0.02742,-0.202334 0.860018,-0.0656 0.361543,-1.94678 c 0.007,-0.03281 0.02344,-0.06199 0.04934,-0.08747 0.02555,-0.02548 0.0566,-0.03827 0.09316,-0.03827 h 0.251986 l -0.25747,2.078024 h 1.577621 l -0.04383,0.388265 h -1.577621 l -0.377972,3.073284 c -0.01828,0.149477 -0.03469,0.271608 -0.04934,0.366383 -0.01055,0.09481 -0.02004,0.173168 -0.02742,0.235152 -0.0035,0.05833 -0.007,0.102019 -0.01055,0.13124 v 0.06562 c 0,0.236971 0.05484,0.408312 0.164342,0.514033 0.113203,0.105749 0.257459,0.158595 0.432746,0.158595 0.120515,0 0.226416,-0.01828 0.317716,-0.05463 0.09492,-0.04015 0.177115,-0.0821 0.246501,-0.125777 0.06937,-0.04735 0.125975,-0.08929 0.169814,-0.125776 0.04383,-0.04015 0.07664,-0.06013 0.09856,-0.06013 0.03656,0 0.06398,0.01828 0.08215,0.05464 l 0.09856,0.229689 c -0.146072,0.153113 -0.323204,0.277062 -0.531362,0.371846 -0.208158,0.09119 -0.416304,0.136713 -0.624462,0.136713 -0.299458,0 -0.535002,-0.0821 -0.706645,-0.24607 -0.167989,-0.164069 -0.253816,-0.415612 -0.257461,-0.754658 z m -3.578377,-3.488892 c 0,0.149474 -0.02004,0.291663 -0.06023,0.426549 -0.0402,0.134886 -0.111327,0.262488 -0.213643,0.382786 -0.102186,0.120308 -0.241017,0.235151 -0.416316,0.344512 -0.175287,0.105747 -0.399875,0.204161 -0.673762,0.295305 -0.2739,0.08747 -0.600744,0.167706 -0.980533,0.240607 -0.379801,0.06922 -0.825331,0.131231 -1.336603,0.185933 -0.007,0.0766 -0.01254,0.153094 -0.0164,0.229679 -0.0035,0.07291 -0.0047,0.145813 -0.0047,0.218733 0,0.543207 0.122343,0.967919 0.367016,1.274164 0.24833,0.306236 0.620818,0.459359 1.117477,0.459359 0.193556,0 0.367015,-0.02007 0.520401,-0.06013 0.157029,-0.04375 0.295801,-0.09841 0.416315,-0.16405 0.124159,-0.06562 0.231889,-0.134876 0.323189,-0.207797 0.09492,-0.07291 0.178931,-0.142176 0.251974,-0.207806 0.07301,-0.06553 0.135127,-0.118475 0.186255,-0.158595 0.05473,-0.04375 0.104062,-0.06553 0.147901,-0.06553 0.04383,0 0.08215,0.01828 0.115077,0.05464 l 0.120515,0.142186 c -0.178944,0.189579 -0.354231,0.353629 -0.525874,0.49216 -0.167986,0.134885 -0.339629,0.246089 -0.514916,0.333582 -0.171643,0.08749 -0.350586,0.151305 -0.536831,0.191396 -0.186244,0.04375 -0.385273,0.06562 -0.597075,0.06562 -0.303114,0 -0.573358,-0.04914 -0.810731,-0.147659 -0.233714,-0.102028 -0.430915,-0.244261 -0.591602,-0.426539 -0.160673,-0.185933 -0.283016,-0.410139 -0.367015,-0.672619 -0.08402,-0.266135 -0.125987,-0.563252 -0.125987,-0.891362 0,-0.273435 0.02742,-0.548689 0.08215,-0.825752 0.05472,-0.277064 0.135115,-0.543204 0.24104,-0.7984 0.109569,-0.255193 0.242845,-0.493985 0.399874,-0.716362 0.160687,-0.22239 0.343287,-0.415602 0.547788,-0.579664 0.204502,-0.16406 0.430917,-0.293478 0.679247,-0.388264 0.248329,-0.09481 0.516744,-0.142179 0.805245,-0.142179 0.266587,0 0.491187,0.03827 0.673775,0.114812 0.186244,0.07294 0.335973,0.165864 0.449175,0.278891 0.116835,0.10935 0.200857,0.229672 0.251985,0.360915 0.05109,0.127604 0.07664,0.247913 0.07664,0.360927 z m -1.479008,-0.732779 c -0.292158,0 -0.556928,0.062 -0.794289,0.185933 -0.233728,0.123949 -0.441886,0.289825 -0.624486,0.497627 -0.178932,0.204159 -0.330488,0.44295 -0.454647,0.716374 -0.120515,0.269782 -0.209986,0.552314 -0.268416,0.847619 0.463788,-0.05107 0.863664,-0.10935 1.199636,-0.174996 0.335974,-0.06922 0.620818,-0.140341 0.854546,-0.213267 0.233728,-0.07654 0.421801,-0.158571 0.564229,-0.246087 0.146072,-0.08747 0.259275,-0.176811 0.339617,-0.267955 0.08039,-0.09481 0.1333,-0.191399 0.158858,-0.289827 0.02918,-0.09841 0.04383,-0.200507 0.04383,-0.306239 0,-0.07654 -0.01828,-0.158571 -0.05484,-0.246074 -0.03293,-0.09121 -0.08953,-0.17317 -0.169815,-0.246087 -0.08039,-0.07294 -0.186244,-0.133058 -0.317704,-0.180463 -0.127815,-0.05107 -0.286673,-0.07654 -0.476573,-0.07654 z m -7.160903,5.134906 0.964092,-7.956641 h 0.509444 l -0.969577,7.956641 z m -5.9229,-0.339037 c 0.317715,0 0.606216,-0.08209 0.865503,-0.246089 0.262931,-0.167695 0.48753,-0.388256 0.673774,-0.661691 0.186244,-0.277062 0.328661,-0.592408 0.427273,-0.946045 0.102304,-0.357274 0.153374,-0.723655 0.153374,-1.099158 0,-0.583305 -0.129644,-1.031724 -0.388929,-1.345247 -0.259276,-0.313522 -0.618991,-0.470288 -1.079135,-0.470288 -0.317715,0 -0.608044,0.08202 -0.870975,0.246074 -0.259286,0.16406 -0.482046,0.382796 -0.66829,0.65622 -0.182599,0.269782 -0.325028,0.581478 -0.427272,0.935111 -0.102304,0.353633 -0.153385,0.721842 -0.153385,1.104644 0,0.579662 0.127814,1.029902 0.383444,1.350711 0.259288,0.317172 0.62083,0.475758 1.084618,0.475758 z m -0.04382,0.41013 c -0.292157,0 -0.558745,-0.05104 -0.799762,-0.153113 -0.237372,-0.102028 -0.441874,-0.249725 -0.613516,-0.442949 -0.167987,-0.193215 -0.299458,-0.42654 -0.394402,-0.699956 -0.09129,-0.277072 -0.136957,-0.590608 -0.136957,-0.940581 0,-0.441131 0.06574,-0.864026 0.197201,-1.268693 0.131472,-0.404669 0.315888,-0.761942 0.553272,-1.071822 0.241017,-0.309882 0.525862,-0.555968 0.854534,-0.738246 0.328673,-0.185931 0.690204,-0.278902 1.084618,-0.278902 0.292145,0 0.556904,0.05107 0.794277,0.153125 0.241029,0.102133 0.445543,0.249726 0.613529,0.442941 0.171631,0.193224 0.303103,0.428375 0.394402,0.705439 0.09492,0.273424 0.142416,0.581478 0.142416,0.924176 0,0.441126 -0.0675,0.864019 -0.202673,1.268685 -0.131472,0.404676 -0.315899,0.763777 -0.55326,1.077294 -0.237373,0.309882 -0.520401,0.557789 -0.849073,0.743722 -0.328673,0.185923 -0.690204,0.27888 -1.084606,0.27888 z m -9.801193,-0.07111 0.964092,-7.956641 h 0.514916 l -0.50396,4.156047 c 0.146073,-0.273423 0.306759,-0.515855 0.482047,-0.727311 0.178943,-0.215093 0.365187,-0.395556 0.558744,-0.541378 0.1972,-0.149472 0.398059,-0.262487 0.60256,-0.339045 0.204502,-0.07654 0.410832,-0.114813 0.61899,-0.114813 0.237384,0 0.440057,0.0456 0.608045,0.136712 0.167986,0.0912 0.301286,0.224216 0.399887,0.399199 0.09856,0.174997 0.162501,0.390091 0.191716,0.645285 0.03293,0.251554 0.02942,0.539565 -0.01049,0.864023 l -0.410832,3.47796 h -0.514916 l 0.410832,-3.47796 c 0.0621,-0.517683 0.02742,-0.915069 -0.104065,-1.192133 -0.131471,-0.280717 -0.377974,-0.42107 -0.739504,-0.42107 -0.197214,0 -0.398059,0.05107 -0.60256,0.153114 -0.204513,0.09842 -0.403543,0.242434 -0.597088,0.432018 -0.1899,0.18593 -0.370673,0.41196 -0.542316,0.678091 -0.171643,0.266129 -0.323186,0.563248 -0.454659,0.891358 l -0.356059,2.936582 z m -3.271642,-0.995265 c -0.193556,0.215098 -0.377972,0.391912 -0.55326,0.530452 -0.171642,0.138541 -0.341446,0.247898 -0.509432,0.32811 -0.16433,0.0803 -0.332316,0.134894 -0.503958,0.164059 -0.171643,0.02916 -0.354244,0.04375 -0.547788,0.04375 -0.314071,0 -0.587959,-0.05284 -0.821675,-0.158587 -0.230072,-0.109347 -0.421801,-0.260671 -0.575174,-0.453885 -0.153386,-0.193224 -0.268416,-0.422904 -0.345102,-0.689039 -0.07676,-0.266134 -0.115077,-0.555951 -0.115077,-0.869488 0,-0.288008 0.02918,-0.572361 0.08765,-0.853076 0.0621,-0.28437 0.149753,-0.554141 0.262943,-0.809334 0.1132,-0.255195 0.250158,-0.490345 0.410832,-0.70544 0.160686,-0.215096 0.341458,-0.401027 0.542315,-0.557782 0.200845,-0.156767 0.418132,-0.278903 0.651861,-0.366395 0.237373,-0.09119 0.489358,-0.136712 0.755945,-0.136712 0.178931,0 0.339618,0.01828 0.482046,0.05467 0.146073,0.03281 0.279372,0.08202 0.399874,0.147647 0.120515,0.06199 0.230071,0.138526 0.328672,0.229683 0.09856,0.0912 0.189901,0.193212 0.2739,0.306228 l -0.153385,0.180464 c -0.03293,0.04013 -0.07124,0.06015 -0.115076,0.06015 -0.03656,0 -0.08214,-0.02919 -0.136934,-0.08747 -0.0511,-0.05828 -0.122307,-0.120296 -0.213642,-0.185919 -0.08765,-0.06922 -0.202685,-0.133058 -0.345102,-0.191398 -0.142428,-0.05828 -0.321372,-0.08748 -0.53683,-0.08748 -0.306758,0 -0.59343,0.08202 -0.860018,0.246074 -0.262931,0.164062 -0.493002,0.384624 -0.690203,0.661688 -0.193558,0.277065 -0.346931,0.597893 -0.460145,0.962461 -0.109571,0.36092 -0.164329,0.738249 -0.164329,1.131969 0,0.251552 0.02742,0.484877 0.08215,0.699974 0.05848,0.215098 0.146085,0.40103 0.262931,0.55778 0.120514,0.156768 0.270243,0.278899 0.449174,0.366392 0.178956,0.08749 0.390758,0.131249 0.635431,0.131249 0.193557,0 0.367017,-0.01998 0.520401,-0.06013 0.153374,-0.04375 0.28849,-0.09655 0.40536,-0.158586 0.120514,-0.06202 0.224599,-0.129393 0.312242,-0.202323 0.09129,-0.0766 0.171632,-0.145813 0.241018,-0.207806 0.06937,-0.06202 0.127803,-0.112946 0.175286,-0.153123 0.05109,-0.04375 0.0968,-0.06552 0.136956,-0.06552 0.04019,0 0.07852,0.01827 0.115078,0.05463 l 0.115077,0.142177 z"
       sodipodi:nodetypes="cscccscccssccscccscscscccsscsscccsscccccsscccsccccsscccccscscccscscccccscccssccssscccccccccccccccscsccccscccscccssccscccscscscccsscsscccsscccccsscccsccccccccscscssscsscsscscsscsscccsssccsscssssscccssccccssssscssccccccsscccccscccccccccscscccscccscsccsscccccscscccscscccccscccssccssscccccccccccccccscsccccccccscccsssccsscsscccssccscccsccssccccccssssccccccscsscccsccsscssscssscsccsccsccsscccsccsscccscsccs" />
    <path
       id="path24462"
       style="font-style:italic;font-weight:300;font-size:16.9333px;line-height:1.25;font-family:Lato;-inkscape-font-specification:'Lato Light Italic';font-variation-settings:normal;letter-spacing:3.43958px;fill:#552200;fill-opacity:1;stroke-width:0.10583333;stroke-linecap:butt;stroke-linejoin:miter;stroke-miterlimit:4;stroke-dasharray:none;stroke-dashoffset:0;stroke-opacity:1;stop-color:#000000;stroke:#552200"
       d="m 19.153388,29.19447 c -0.02907,0.05098 -0.06907,0.07649 -0.119962,0.07649 -0.03635,0 -0.08179,-0.02186 -0.136322,-0.06556 -0.0509,-0.04734 -0.121779,-0.09833 -0.212661,-0.15297 -0.08724,-0.05827 -0.198121,-0.109258 -0.332625,-0.152971 -0.134503,-0.04734 -0.301724,-0.07102 -0.501662,-0.07102 -0.185397,0 -0.361706,0.03096 -0.528928,0.09287 -0.163586,0.06191 -0.307178,0.145683 -0.430775,0.251308 -0.119963,0.101982 -0.216297,0.222172 -0.289001,0.360574 -0.06907,0.13476 -0.103598,0.278625 -0.103598,0.431596 0,0.149329 0.03453,0.274982 0.103598,0.376963 0.06907,0.101981 0.159954,0.191213 0.272642,0.2677 0.116326,0.07284 0.245378,0.136583 0.387152,0.191211 0.145411,0.05464 0.294456,0.109258 0.447135,0.163899 0.15268,0.05464 0.299907,0.116546 0.441682,0.185749 0.14541,0.06556 0.274461,0.145682 0.387153,0.240382 0.116325,0.0947 0.209025,0.211246 0.278094,0.349648 0.06907,0.134759 0.103601,0.298657 0.103601,0.491692 0,0.233098 -0.04726,0.458912 -0.141775,0.677441 -0.09088,0.21853 -0.223567,0.413385 -0.398059,0.584567 -0.170857,0.167539 -0.378064,0.302298 -0.621626,0.404279 -0.239926,0.101982 -0.508933,0.15297 -0.807022,0.15297 -0.348983,0 -0.643437,-0.06009 -0.883363,-0.180286 -0.236291,-0.123833 -0.439864,-0.284089 -0.61072,-0.480765 l 0.130868,-0.18575 c 0.03999,-0.05826 0.08906,-0.08741 0.147228,-0.08741 0.03636,0 0.0818,0.02914 0.13632,0.08741 0.05454,0.05827 0.129054,0.123831 0.223568,0.196677 0.09452,0.06919 0.216297,0.132935 0.365342,0.191212 0.149044,0.05827 0.336259,0.08741 0.561644,0.08741 0.218114,0 0.414416,-0.0346 0.588908,-0.103794 0.178127,-0.07284 0.32899,-0.171184 0.452588,-0.295016 0.127232,-0.123832 0.225384,-0.265876 0.294453,-0.426132 0.06907,-0.163897 0.103611,-0.336899 0.103611,-0.519008 0,-0.160255 -0.03454,-0.295014 -0.103611,-0.404279 -0.06907,-0.109268 -0.161764,-0.20214 -0.278095,-0.278625 -0.112698,-0.08013 -0.241743,-0.147508 -0.387153,-0.202139 -0.141775,-0.05464 -0.289002,-0.107445 -0.441681,-0.158435 -0.152681,-0.05464 -0.301725,-0.112906 -0.447135,-0.174824 -0.141774,-0.06556 -0.270825,-0.143861 -0.387153,-0.234919 -0.112697,-0.09105 -0.203574,-0.20214 -0.272642,-0.333257 -0.06907,-0.131118 -0.103599,-0.291374 -0.103599,-0.480765 0,-0.211245 0.04544,-0.413385 0.136321,-0.60642 0.09088,-0.196676 0.218114,-0.369679 0.381701,-0.519006 0.163586,-0.152972 0.358071,-0.273164 0.583456,-0.360576 0.229019,-0.09105 0.478033,-0.13658 0.747041,-0.13658 0.305359,0 0.568914,0.04734 0.790664,0.142044 0.225384,0.0947 0.425323,0.236741 0.599815,0.426133 z m -6.528418,0.371501 c 0,0.149329 -0.02,0.291374 -0.05998,0.426133 -0.03999,0.134759 -0.110877,0.262235 -0.212661,0.382425 -0.101791,0.120193 -0.239926,0.23492 -0.414419,0.344185 -0.174491,0.105621 -0.398058,0.203962 -0.6707,0.295015 -0.272643,0.08741 -0.597998,0.167539 -0.976061,0.240383 -0.3780672,0.06921 -0.8215662,0.131121 -1.3304992,0.18575 -0.0072,0.07649 -0.01269,0.152974 -0.01636,0.229455 -0.0036,0.07284 -0.0055,0.14569 -0.0055,0.21853 0,0.542682 0.12178,0.966994 0.365341,1.272935 0.247197,0.305941 0.617991,0.458912 1.1123842,0.458912 0.192669,0 0.365341,-0.02004 0.518021,-0.06009 0.156316,-0.04371 0.294454,-0.09833 0.414417,-0.163897 0.123599,-0.06556 0.230838,-0.134757 0.321721,-0.207604 0.09451,-0.07284 0.178124,-0.142047 0.250829,-0.207602 0.07271,-0.06556 0.134505,-0.118368 0.185398,-0.158434 0.05454,-0.04371 0.103611,-0.06556 0.147228,-0.06556 0.04362,0 0.08178,0.01821 0.114505,0.05464 l 0.119963,0.142044 c -0.178126,0.189393 -0.352618,0.35329 -0.523474,0.491692 -0.167221,0.134759 -0.338077,0.245846 -0.51257,0.333257 -0.170857,0.08741 -0.348982,0.15115 -0.534379,0.191213 -0.185398,0.04371 -0.383518,0.06556 -0.594362,0.06556 -0.301725,0 -0.5707332,-0.04917 -0.8070232,-0.147506 -0.232659,-0.101987 -0.428963,-0.24403 -0.588913,-0.426137 -0.15995,-0.185751 -0.281731,-0.409743 -0.365342,-0.671979 -0.0836,-0.265877 -0.125416,-0.562714 -0.125416,-0.890508 0,-0.273163 0.02726,-0.548145 0.08179,-0.824948 0.05453,-0.276805 0.134508,-0.542683 0.239927,-0.797634 0.109058,-0.25495 0.241745,-0.493512 0.398058,-0.715684 0.15995,-0.222171 0.341714,-0.415206 0.545287,-0.579103 0.203573,-0.163897 0.4289572,-0.293194 0.6761532,-0.38789 0.247198,-0.0947 0.514387,-0.142044 0.801572,-0.142044 0.265373,0 0.488941,0.03824 0.6707,0.114732 0.185398,0.07284 0.334445,0.165721 0.447135,0.278625 0.116325,0.109269 0.199938,0.229456 0.250833,0.360574 0.0509,0.127474 0.07634,0.247665 0.07634,0.360573 z M 11.1527,28.833897 c -0.29082,0 -0.554374,0.06192 -0.790665,0.18575 -0.232656,0.123834 -0.4398652,0.289553 -0.6216272,0.497155 -0.178125,0.20396 -0.328989,0.442522 -0.452587,0.715684 -0.119963,0.26952 -0.209027,0.551788 -0.267191,0.846803 0.461676,-0.05098 0.859733,-0.109258 1.1941762,-0.174824 0.334445,-0.06921 0.617991,-0.140228 0.850648,-0.213067 0.232655,-0.07649 0.41987,-0.158437 0.561644,-0.245845 0.145409,-0.08741 0.258101,-0.176645 0.338077,-0.2677 0.07998,-0.09469 0.132686,-0.191213 0.158134,-0.289551 0.02907,-0.09833 0.04361,-0.200318 0.04361,-0.305941 0,-0.07649 -0.01817,-0.158437 -0.05453,-0.245845 -0.03271,-0.09105 -0.08906,-0.173004 -0.169039,-0.245847 -0.07998,-0.07284 -0.185397,-0.132941 -0.316265,-0.180286 -0.127235,-0.05098 -0.285367,-0.07649 -0.474399,-0.07649 z M 1.3252931,28.527956 h 0.3980585 c 0.050895,0 0.089063,0.01456 0.1145056,0.0437 0.029081,0.0255 0.047256,0.05464 0.054535,0.08741 l 1.1069292,4.288642 c 0.01455,0.08377 0.02545,0.16572 0.03272,0.245846 0.01085,0.08012 0.01999,0.162077 0.02726,0.245847 0.04725,-0.152972 0.109058,-0.316869 0.185398,-0.491693 l 2.1647864,-4.288641 c 0.01817,-0.04006 0.04361,-0.07102 0.07634,-0.09287 0.03272,-0.02549 0.07089,-0.03825 0.114505,-0.03825 h 0.387155 l -2.7809644,5.435919 h -0.425323 z m -3.2525857,0 -0.6597959,5.435922 h -0.5071149 l 0.6597948,-5.435922 z m 0.3980585,-1.873891 c 0,0.06556 -0.014535,0.127473 -0.043616,0.185751 -0.025441,0.05464 -0.059982,0.103795 -0.1035985,0.147507 -0.043616,0.04371 -0.094511,0.07831 -0.15268,0.103795 -0.054534,0.0255 -0.1108776,0.03824 -0.1690391,0.03824 -0.061802,0 -0.1199662,-0.01275 -0.1744904,-0.03824 -0.054535,-0.0255 -0.1017905,-0.0601 -0.1417738,-0.103795 -0.039988,-0.04371 -0.072709,-0.09287 -0.098151,-0.147507 -0.025441,-0.05827 -0.038168,-0.120189 -0.038168,-0.185751 0,-0.06556 0.012727,-0.127472 0.038168,-0.185749 0.025442,-0.05827 0.058162,-0.109258 0.098151,-0.152972 0.043616,-0.04734 0.092691,-0.08377 0.1472261,-0.109269 0.054536,-0.0255 0.1126974,-0.03824 0.1744915,-0.03824 0.058162,0 0.1145056,0.01275 0.1690381,0.03824 0.058162,0.02549 0.1090579,0.06009 0.1526799,0.103795 0.043616,0.04371 0.078157,0.09652 0.1036102,0.158435 0.025442,0.05826 0.038168,0.120189 0.038168,0.18575 z m -7.0177946,6.397451 v -0.08194 c 0.0037,-0.03279 0.0072,-0.08195 0.01085,-0.147508 0.0072,-0.06556 0.01632,-0.149324 0.02726,-0.251309 0.01085,-0.10562 0.02726,-0.238561 0.04907,-0.398817 l 0.3707947,-3.086728 h -0.7143237 c -0.03636,0 -0.06544,-0.01093 -0.08724,-0.03277 -0.02181,-0.02186 -0.02908,-0.05281 -0.02181,-0.09287 l 0.02726,-0.20214 0.8560956,-0.06556 0.3598877,-1.944912 c 0.0072,-0.03278 0.02359,-0.06192 0.04908,-0.08741 0.02544,-0.0255 0.05634,-0.03825 0.0927,-0.03825 h 0.2508306 l -0.2562836,2.07603 h 1.570422 l -0.04362,0.387891 h -1.570422 l -0.3762466,3.070339 c -0.01817,0.149328 -0.03453,0.271342 -0.04908,0.366037 -0.01085,0.0947 -0.01999,0.173004 -0.02726,0.234919 -0.0036,0.05827 -0.0072,0.101982 -0.01085,0.131118 v 0.06556 c 0,0.23674 0.05453,0.407922 0.1635846,0.513545 0.112686,0.105619 0.256284,0.158432 0.430776,0.158432 0.1199617,0 0.2253847,-0.01821 0.3162657,-0.05464 0.09451,-0.04005 0.1763089,-0.08194 0.2453789,-0.125654 0.06907,-0.04734 0.1254107,-0.08923 0.1690377,-0.125654 0.04362,-0.04005 0.07634,-0.06009 0.09815,-0.06009 0.03636,0 0.06362,0.01821 0.0818,0.05464 l 0.09815,0.229456 c -0.14541,0.152971 -0.321719,0.276804 -0.5289267,0.371501 -0.207208,0.09105 -0.4144176,0.13658 -0.6216256,0.13658 -0.2980887,0 -0.5325617,-0.08194 -0.7034177,-0.245846 -0.1672206,-0.163897 -0.2526486,-0.415206 -0.2562846,-0.753928 z m -4.2709343,0.912362 h -0.250833 c -0.07271,0 -0.121781,-0.02004 -0.147226,-0.0601 -0.02544,-0.04005 -0.03817,-0.0856 -0.03817,-0.136581 l 0.185396,-1.693604 c -0.138138,0.291373 -0.290818,0.559072 -0.458038,0.803095 -0.163585,0.240383 -0.339895,0.446165 -0.528926,0.617346 -0.189032,0.171182 -0.387152,0.30412 -0.59436,0.398817 -0.207209,0.0947 -0.421687,0.142044 -0.643438,0.142044 -0.225384,0 -0.425323,-0.04371 -0.599813,-0.131117 -0.170856,-0.09105 -0.314448,-0.21853 -0.430775,-0.382427 -0.112697,-0.163898 -0.198121,-0.362394 -0.256284,-0.595493 -0.05817,-0.233097 -0.08724,-0.495332 -0.08724,-0.786706 0,-0.316867 0.03999,-0.626451 0.119964,-0.92875 0.08361,-0.305942 0.198119,-0.595493 0.343529,-0.868655 0.145411,-0.273162 0.319902,-0.524471 0.523474,-0.753926 0.203572,-0.229458 0.428958,-0.427954 0.676154,-0.595494 0.247196,-0.16754 0.510751,-0.298658 0.790663,-0.393354 0.279913,-0.0947 0.568914,-0.142044 0.867003,-0.142044 0.21448,0 0.416234,0.02004 0.605266,0.0601 0.192667,0.03643 0.379881,0.101982 0.561642,0.196676 z m -2.306556,-0.360574 c 0.207208,0 0.410783,-0.05827 0.61072,-0.174823 0.199938,-0.116551 0.390786,-0.280446 0.572548,-0.491692 0.185396,-0.211246 0.35807,-0.464375 0.518021,-0.759391 0.159949,-0.298656 0.303541,-0.628271 0.430774,-0.988846 l 0.278097,-2.234463 c -0.21448,-0.07285 -0.445317,-0.109269 -0.692511,-0.109269 -0.363524,0 -0.710689,0.08924 -1.041496,0.267699 -0.330805,0.178465 -0.621625,0.417026 -0.872456,0.715685 -0.25083,0.298655 -0.450769,0.641019 -0.599813,1.027087 -0.149046,0.386069 -0.223568,0.786707 -0.223568,1.201912 0,0.48805 0.0818,0.868656 0.24538,1.141818 0.16722,0.26952 0.425321,0.40428 0.774304,0.40428 z m -4.761688,-5.075348 -0.659796,5.435922 h -0.507115 l 0.659795,-5.435922 z m 0.398059,-1.873891 c 0,0.06556 -0.01453,0.127473 -0.04361,0.185751 -0.02544,0.05464 -0.05998,0.103795 -0.10361,0.147507 -0.04361,0.04371 -0.09451,0.07831 -0.152679,0.103795 -0.05454,0.0255 -0.110877,0.03824 -0.169039,0.03824 -0.06181,0 -0.119966,-0.01275 -0.174491,-0.03824 -0.05454,-0.0255 -0.101791,-0.0601 -0.141775,-0.103795 -0.03999,-0.04371 -0.07271,-0.09287 -0.09815,-0.147507 -0.02544,-0.05827 -0.03817,-0.120189 -0.03817,-0.185751 0,-0.06556 0.01273,-0.127472 0.03817,-0.185749 0.02544,-0.05827 0.05817,-0.109258 0.09815,-0.152972 0.04361,-0.04734 0.09269,-0.08377 0.147228,-0.109269 0.05454,-0.0255 0.112698,-0.03824 0.174492,-0.03824 0.05817,0 0.114505,0.01275 0.169038,0.03824 0.05817,0.02549 0.109058,0.06009 0.15268,0.103795 0.04361,0.04371 0.07816,0.09652 0.103598,0.158435 0.02544,0.05826 0.03817,0.120189 0.03817,0.18575 z m -7.358607,6.397451 v -0.08194 c 0.0036,-0.03279 0.0072,-0.08195 0.01085,-0.147508 0.0072,-0.06556 0.01632,-0.149324 0.02726,-0.251309 0.01085,-0.10562 0.02727,-0.238561 0.04907,-0.398817 l 0.370794,-3.086728 h -0.714325 c -0.03636,0 -0.06544,-0.01093 -0.08724,-0.03277 -0.02181,-0.02186 -0.02907,-0.05281 -0.02181,-0.09287 l 0.02726,-0.20214 0.856099,-0.06556 0.359891,-1.944912 c 0.0072,-0.03278 0.02359,-0.06192 0.04907,-0.08741 0.02544,-0.0255 0.05634,-0.03825 0.0927,-0.03825 h 0.25083 l -0.256284,2.07603 h 1.570424 l -0.04361,0.387891 h -1.570423 l -0.376248,3.070339 c -0.01817,0.149328 -0.03453,0.271342 -0.04907,0.366037 -0.01085,0.0947 -0.02,0.173004 -0.02727,0.234919 -0.0036,0.05827 -0.0072,0.101982 -0.01085,0.131118 v 0.06556 c 0,0.23674 0.05454,0.407922 0.163585,0.513545 0.112697,0.105619 0.256286,0.158432 0.430776,0.158432 0.119964,0 0.225385,-0.01821 0.316266,-0.05464 0.09451,-0.04005 0.176309,-0.08194 0.245379,-0.125654 0.06907,-0.04734 0.125418,-0.08923 0.169039,-0.125654 0.04362,-0.04005 0.07634,-0.06009 0.09815,-0.06009 0.03636,0 0.06363,0.01821 0.0818,0.05464 l 0.09815,0.229456 c -0.145411,0.152971 -0.321719,0.276804 -0.528927,0.371501 -0.207208,0.09105 -0.414418,0.13658 -0.621626,0.13658 -0.298091,0 -0.532564,-0.08194 -0.703421,-0.245846 -0.167221,-0.163897 -0.252649,-0.415206 -0.256284,-0.753928 z m -4.028275,-4.52356 -0.659794,5.435922 h -0.50711 l 0.659796,-5.435922 z m 0.398057,-1.873891 c 0,0.06556 -0.01453,0.127473 -0.04361,0.185751 -0.02546,0.05464 -0.06,0.103795 -0.103611,0.147507 -0.04361,0.04371 -0.09451,0.07831 -0.152682,0.103795 -0.05453,0.0255 -0.110877,0.03824 -0.169037,0.03824 -0.06182,0 -0.119988,-0.01275 -0.174499,-0.03824 -0.05447,-0.0255 -0.101721,-0.0601 -0.141767,-0.103795 -0.04001,-0.04371 -0.07267,-0.09287 -0.0981,-0.147507 -0.02543,-0.05827 -0.03814,-0.120189 -0.03814,-0.185751 0,-0.06556 0.01272,-0.127472 0.03814,-0.185749 0.02543,-0.05827 0.05809,-0.109258 0.0981,-0.152972 0.04363,-0.04734 0.09273,-0.08377 0.147225,-0.109269 0.05447,-0.0255 0.112687,-0.03824 0.174489,-0.03824 0.05821,0 0.114552,0.01275 0.169045,0.03824 0.05817,0.02549 0.109057,0.06009 0.152682,0.103795 0.04361,0.04371 0.07816,0.09652 0.103598,0.158435 0.02546,0.05826 0.0382,0.120189 0.0382,0.18575 z m -9.46201,7.309813 0.648887,-5.452312 h 0.234471 c 0.127233,0 0.190854,0.06556 0.190854,0.196676 l -0.158133,1.567949 c 0.149046,-0.28773 0.312628,-0.544501 0.490755,-0.770316 0.181755,-0.229456 0.370789,-0.42249 0.567091,-0.579103 0.199942,-0.156613 0.405331,-0.274984 0.616168,-0.35511 0.214477,-0.08377 0.428953,-0.125655 0.643441,-0.125655 0.232652,0 0.430773,0.04553 0.594354,0.13658 0.16722,0.09105 0.299901,0.223993 0.398063,0.398818 0.101721,0.174824 0.167221,0.389711 0.196302,0.644662 0.03278,0.251308 0.02928,0.539039 -0.01049,0.863191 l -0.408959,3.47462 h -0.512556 l 0.408958,-3.47462 c 0.06182,-0.517187 0.0273,-0.914181 -0.103586,-1.190986 -0.130873,-0.276804 -0.37625,-0.415205 -0.736135,-0.415205 -0.203569,0 -0.408958,0.05281 -0.616166,0.158433 -0.207209,0.101982 -0.407139,0.249487 -0.599803,0.442523 -0.192673,0.189392 -0.374428,0.420669 -0.545288,0.69383 -0.17086,0.269521 -0.321716,0.573641 -0.452587,0.912362 l -0.332621,2.873663 z m -3.300306,-5.435922 -0.659795,5.435922 h -0.50711 l 0.659795,-5.435922 z m 0.398051,-1.873891 c 0,0.06556 -0.01458,0.127473 -0.04363,0.185751 -0.02543,0.05464 -0.05996,0.103795 -0.103587,0.147507 -0.04362,0.04371 -0.09449,0.07831 -0.152675,0.103795 -0.05447,0.0255 -0.110819,0.03824 -0.16904,0.03824 -0.06182,0 -0.119988,-0.01275 -0.174488,-0.03824 -0.05447,-0.0255 -0.10172,-0.0601 -0.141767,-0.103795 -0.04001,-0.04371 -0.07267,-0.09287 -0.09822,-0.147507 -0.02543,-0.05827 -0.03814,-0.120189 -0.03814,-0.185751 0,-0.06556 0.01271,-0.127472 0.03814,-0.185749 0.02543,-0.05827 0.05821,-0.109258 0.09822,-0.152972 0.04363,-0.04734 0.09273,-0.08377 0.147216,-0.109269 0.05447,-0.0255 0.112685,-0.03824 0.174499,-0.03824 0.0582,0 0.114552,0.01275 0.169029,0.03824 0.0582,0.02549 0.109069,0.06009 0.152685,0.103795 0.04363,0.04371 0.07816,0.09652 0.103587,0.158435 0.02543,0.05826 0.03814,0.120189 0.03814,0.18575 z"
       sodipodi:nodetypes="cscccscccssccscccscccscccsscsscccsscccccsscccsccccsscccccscscccscscccccscccssccssscccccscccccccccscscsscsccccccccscccccccccscscssscsscsscscssccccccsscccccscccccccccscscccscccscsccsscccsssccsscssssscccssccccssssscsscccccscscssscsscsscscssccccccsscccccscccccccccscscccscccscsccccccccscssccsscsscscccccscccccscccccccsscccccccccccccscssccsscsscsccc" />
    <path
       d="m 8.7746204,44.489687 c -0.0292,0.05107 -0.0694,0.07654 -0.12051,0.07654 -0.0366,0 -0.0823,-0.02188 -0.13694,-0.0656 -0.0511,-0.04734 -0.1223,-0.09841 -0.21364,-0.153125 -0.0876,-0.05828 -0.19903,-0.109352 -0.33414,-0.153117 -0.13513,-0.04734 -0.30312,-0.07108 -0.50396,-0.07108 -0.18625,0 -0.36337,0.03093 -0.53136,0.09295 -0.16433,0.062 -0.30859,0.145809 -0.43275,0.251539 -0.12051,0.102018 -0.21728,0.22239 -0.29031,0.360929 -0.0694,0.134885 -0.10407,0.278892 -0.10407,0.432006 0,0.149471 0.0347,0.275249 0.10407,0.377331 0.0694,0.102015 0.16067,0.191396 0.27388,0.267954 0.11684,0.07294 0.24651,0.136699 0.38892,0.191399 0.14608,0.05467 0.2958,0.10935 0.44919,0.164047 0.15338,0.05467 0.30129,0.116658 0.4437,0.185931 0.14607,0.06562 0.27572,0.145814 0.38893,0.240617 0.11683,0.09481 0.20999,0.211442 0.27937,0.349983 0.0694,0.134885 0.10407,0.298953 0.10407,0.492159 0,0.233323 -0.0475,0.459359 -0.14242,0.67809 -0.0913,0.218734 -0.2246,0.413788 -0.39989,0.585127 -0.17164,0.167706 -0.3798,0.30259 -0.62447,0.404674 -0.24102,0.102011 -0.51126,0.153104 -0.81072,0.153104 -0.35058,0 -0.64639,-0.06013 -0.88741,-0.18044 -0.23737,-0.123958 -0.44188,-0.284372 -0.61351,-0.48124 l 0.13146,-0.185926 c 0.0402,-0.05833 0.0894,-0.08749 0.1479,-0.08749 0.0366,0 0.0823,0.02916 0.13696,0.08749 0.0547,0.05833 0.12963,0.123942 0.22458,0.196871 0.0949,0.06922 0.21729,0.133059 0.36702,0.191397 0.14973,0.05833 0.3378,0.08749 0.56422,0.08749 0.21911,0 0.41631,-0.03466 0.5916,-0.103894 0.17894,-0.07291 0.3305,-0.171323 0.45466,-0.295291 0.12781,-0.123946 0.22641,-0.266133 0.2958,-0.426548 0.0694,-0.164049 0.10407,-0.337216 0.10407,-0.519496 0,-0.160403 -0.0347,-0.295309 -0.10407,-0.404667 -0.0694,-0.109347 -0.1625,-0.20235 -0.27937,-0.278908 -0.1132,-0.08011 -0.24285,-0.147648 -0.38892,-0.202332 -0.14243,-0.05464 -0.29033,-0.107492 -0.4437,-0.158586 -0.15339,-0.05464 -0.30311,-0.112948 -0.44919,-0.174998 -0.14243,-0.0656 -0.27207,-0.143983 -0.38893,-0.23513 -0.1132,-0.09121 -0.2045,-0.202332 -0.27389,-0.333578 -0.0694,-0.131244 -0.10406,-0.291651 -0.10406,-0.481222 0,-0.211455 0.0457,-0.41379 0.13695,-0.607002 0.0913,-0.196866 0.21911,-0.370035 0.38345,-0.519509 0.16433,-0.153128 0.3597,-0.273436 0.58612,-0.360929 0.23007,-0.09121 0.48023,-0.13671 0.75047,-0.13671 0.30676,0 0.57152,0.04735 0.79428,0.14219 0.22641,0.09481 0.42727,0.236966 0.60257,0.42654 z M 2.2163,44.861538 c 0,0.149473 -0.02,0.291663 -0.0602,0.42655 -0.0402,0.134885 -0.11133,0.262485 -0.21363,0.382783 -0.10231,0.120309 -0.24102,0.235152 -0.4163197,0.344514 -0.17528,0.105746 -0.3998697,0.204161 -0.67376958,0.295305 -0.27388955,0.08747 -0.60072934,0.167706 -0.98052895,0.240606 -0.3797899,0.06922 -0.8253199,0.131231 -1.33660017,0.185934 -0.007,0.0766 -0.0125,0.153093 -0.0164,0.229679 -0.003,0.07291 -0.006,0.145812 -0.006,0.218734 0,0.543205 0.12234,0.967917 0.3670102,1.274162 0.24833004,0.306236 0.62083004,0.459351 1.11748994,0.459351 0.19354964,0 0.36699955,-0.01998 0.52038943,-0.06013 0.15702964,-0.04375 0.29579955,-0.09841 0.41630949,-0.16405 C 1.0582306,48.629446 1.1659603,48.5601 1.2572403,48.48718 c 0.0949,-0.07291 0.17895,-0.142176 0.25199,-0.207806 0.073,-0.06562 0.13513,-0.118475 0.1862397,-0.158596 0.0547,-0.04375 0.10407,-0.06562 0.1479,-0.06562 0.0438,0 0.0821,0.01828 0.11508,0.05464 l 0.12051,0.142187 c -0.17895,0.18958 -0.35424,0.353629 -0.5258697,0.492168 -0.16798,0.134876 -0.33963,0.246091 -0.5149297,0.333573 -0.17162991,0.08749 -0.35056979,0.151305 -0.5368194,0.191397 -0.18623988,0.04375 -0.38526976,0.06562 -0.59707946,0.06562 -0.30311,0 -0.5733499,-0.04914 -0.8107199,-0.147658 -0.23373004,-0.102018 -0.43093014,-0.244261 -0.59160024,-0.42653 -0.1606901,-0.185933 -0.2830302,-0.410138 -0.3670202,-0.672618 -0.084,-0.266137 -0.1260001,-0.563264 -0.1260001,-0.891371 0,-0.273436 0.0274,-0.54868 0.0821,-0.825746 0.0547,-0.277064 0.1351101,-0.543205 0.2410302,-0.798399 0.10957,-0.255196 0.2428401,-0.493987 0.3998702,-0.716364 0.1606901,-0.222388 0.34329014,-0.415602 0.54779014,-0.579663 0.2045,-0.16406 0.4309199,-0.293478 0.6792499,-0.388262 0.24832964,-0.09481 0.51673946,-0.14218 0.80523901,-0.14218 0.26658985,0 0.49118955,0.03826 0.67377955,0.114822 0.18624,0.07294 0.3359697,0.165864 0.4491897,0.278892 0.11683,0.109349 0.20084,0.229671 0.25197,0.360915 0.0511,0.127603 0.0766,0.247912 0.0766,0.360926 z M 0.73728078,44.128761 c -0.29213952,0 -0.55689937,0.062 -0.79426901,0.18593 -0.23373,0.12395 -0.4418899,0.289825 -0.6244799,0.497629 -0.17894,0.204158 -0.33049997,0.442949 -0.45466007,0.716372 -0.1205101,0.269783 -0.2099901,0.552315 -0.2684102,0.847619 0.46378027,-0.05107 0.86367027,-0.109349 1.19964017,-0.174995 0.33597967,-0.06922 0.62081952,-0.14034 0.85453907,-0.213267 0.23372985,-0.07654 0.42179976,-0.15857 0.56422946,-0.246087 0.14607,-0.08747 0.25928,-0.176813 0.33961,-0.267956 0.0804,-0.09481 0.1332997,-0.191397 0.1588597,-0.289825 0.0292,-0.09841 0.0438,-0.200506 0.0438,-0.306242 0,-0.07654 -0.0183,-0.158567 -0.0548,-0.246073 -0.0329,-0.09121 -0.0895,-0.17317 -0.1697997,-0.246086 -0.0804,-0.07294 -0.18624,-0.133057 -0.31772,-0.180465 -0.1278097,-0.05107 -0.28667964,-0.07654 -0.47657952,-0.07654 z M -9.8308077,49.263664 -9.178948,43.806117 h 0.23555 c 0.1278197,0 0.1917197,0.0656 0.1917197,0.196869 l -0.1588598,1.56946 c 0.1497297,-0.288012 0.3140697,-0.545033 0.4930097,-0.771061 0.1826,-0.229672 0.3725,-0.422897 0.5697,-0.579652 0.20084,-0.156769 0.40717,-0.275252 0.6189897,-0.35546 0.21547,-0.08388 0.43093,-0.125778 0.64639,-0.125778 0.23372,0 0.43275,0.0456 0.59708,0.136713 0.16799,0.0912 0.30128,0.224213 0.39988,0.399198 0.1023,0.174998 0.16798,0.390091 0.1972,0.645287 0.0329,0.251553 0.0294,0.539562 -0.0105,0.864018 l -0.41084,3.477953 h -0.51492 l 0.41083,-3.477953 c 0.0621,-0.517678 0.0274,-0.915064 -0.10406,-1.19213 -0.13148,-0.277064 -0.37798,-0.4156 -0.73951,-0.4156 -0.2045,0 -0.41084,0.05281 -0.6189997,0.158581 -0.20816,0.102015 -0.409,0.249737 -0.60256,0.442952 -0.19355,0.189571 -0.37613,0.421069 -0.54778,0.694492 -0.17164,0.269782 -0.3231797,0.574196 -0.4546596,0.913241 l -0.33415,2.876417 z m -7.5361173,0 0.65186,-5.457547 h 0.23554 c 0.12782,0 0.19173,0.0656 0.19173,0.196869 l -0.15886,1.56946 c 0.14974,-0.288012 0.31406,-0.545033 0.49301,-0.771061 0.18258,-0.229672 0.37248,-0.422897 0.56969,-0.579652 0.20085,-0.156769 0.40718,-0.275252 0.619,-0.35546 0.21545,-0.08388 0.43092,-0.125778 0.64637,-0.125778 0.23373,0 0.43276,0.0456 0.59709,0.136713 0.16799,0.0912 0.30129,0.224213 0.39989,0.399198 0.10218,0.174998 0.16798,0.390091 0.1972,0.645287 0.0329,0.251553 0.0294,0.539562 -0.0105,0.864018 l -0.41083,3.477953 h -0.51492 l 0.41083,-3.477953 c 0.0621,-0.517678 0.0274,-0.915064 -0.10406,-1.19213 -0.13147,-0.277064 -0.37798,-0.4156 -0.73952,-0.4156 -0.2045,0 -0.41083,0.05281 -0.61899,0.158581 -0.20816,0.102015 -0.409,0.249737 -0.60256,0.442952 -0.19355,0.189571 -0.37614,0.421069 -0.54779,0.694492 -0.17164,0.269782 -0.32318,0.574196 -0.45466,0.913241 l -0.33414,2.876417 z m -3.18946,-4.402126 c 0,0.149473 -0.02,0.291663 -0.0602,0.42655 -0.0402,0.134885 -0.11132,0.262485 -0.21363,0.382783 -0.10219,0.120309 -0.24102,0.235152 -0.41632,0.344514 -0.17528,0.105746 -0.39987,0.204161 -0.67377,0.295305 -0.27389,0.08747 -0.60073,0.167706 -0.98054,0.240606 -0.37978,0.06922 -0.82532,0.131231 -1.33659,0.185934 -0.007,0.0766 -0.0125,0.153093 -0.0164,0.229679 -0.004,0.07291 -0.006,0.145812 -0.006,0.218734 0,0.543205 0.12235,0.967917 0.36702,1.274162 0.24833,0.306236 0.62082,0.459351 1.11748,0.459351 0.19354,0 0.367,-0.01998 0.52039,-0.06013 0.15702,-0.04375 0.2958,-0.09841 0.41631,-0.16405 0.12416,-0.06553 0.23189,-0.134876 0.32319,-0.207796 0.0949,-0.07291 0.17895,-0.142176 0.25199,-0.207806 0.073,-0.06562 0.13512,-0.118475 0.18624,-0.158596 0.0547,-0.04375 0.10406,-0.06562 0.1479,-0.06562 0.0438,0 0.0821,0.01828 0.11508,0.05464 l 0.1205,0.142187 c -0.17894,0.18958 -0.35423,0.353629 -0.52586,0.492168 -0.16799,0.134876 -0.33963,0.246091 -0.51492,0.333573 -0.17164,0.08749 -0.35058,0.151305 -0.53683,0.191397 -0.18624,0.04375 -0.38527,0.06562 -0.59709,0.06562 -0.3031,0 -0.57334,-0.04914 -0.81071,-0.147658 -0.23373,-0.102018 -0.43093,-0.244261 -0.59161,-0.42653 -0.16068,-0.185933 -0.28303,-0.410138 -0.36701,-0.672618 -0.084,-0.266137 -0.12599,-0.563264 -0.12599,-0.891371 0,-0.273436 0.0274,-0.54868 0.0822,-0.825746 0.0547,-0.277064 0.13511,-0.543205 0.24103,-0.798399 0.10957,-0.255196 0.24285,-0.493987 0.39988,-0.716364 0.16068,-0.222388 0.34328,-0.415602 0.54778,-0.579663 0.2045,-0.16406 0.43093,-0.293478 0.67926,-0.388262 0.24833,-0.09481 0.51674,-0.14218 0.80524,-0.14218 0.26658,0 0.49118,0.03826 0.67377,0.114822 0.18624,0.07294 0.33598,0.165864 0.44919,0.278892 0.11683,0.109349 0.20084,0.229671 0.25197,0.360915 0.0511,0.127603 0.0766,0.247912 0.0766,0.360926 z m -1.47901,-0.732777 c -0.29216,0 -0.55691,0.062 -0.79429,0.18593 -0.23373,0.12395 -0.44188,0.289825 -0.62447,0.497629 -0.17895,0.204158 -0.3305,0.442949 -0.45466,0.716372 -0.12052,0.269783 -0.20999,0.552315 -0.26842,0.847619 0.46379,-0.05107 0.86368,-0.109349 1.19965,-0.174995 0.33598,-0.06922 0.62082,-0.14034 0.85453,-0.213267 0.23373,-0.07654 0.42181,-0.15857 0.56422,-0.246087 0.14607,-0.08747 0.25929,-0.176813 0.33963,-0.267956 0.0804,-0.09481 0.1333,-0.191397 0.15886,-0.289825 0.0292,-0.09841 0.0438,-0.200506 0.0438,-0.306242 0,-0.07654 -0.0183,-0.158567 -0.0548,-0.246073 -0.0329,-0.09121 -0.0895,-0.17317 -0.16981,-0.246086 -0.0804,-0.07294 -0.18625,-0.133057 -0.31772,-0.180465 -0.12781,-0.05107 -0.28667,-0.07654 -0.47657,-0.07654 z m -8.957612,6.906709 c -0.0511,0.102018 -0.12596,0.153112 -0.2246,0.153112 h -0.36702 l 1.150351,-2.127242 -1.462581,-5.238808 h 0.40537 c 0.0511,0 0.0894,0.01278 0.11507,0.03826 0.0256,0.02188 0.042,0.05281 0.0493,0.09295 l 1.150341,4.232608 c 0.0219,0.109347 0.0383,0.218741 0.0493,0.32811 0.0219,-0.05464 0.0457,-0.109358 0.0712,-0.16405 0.0256,-0.05464 0.0511,-0.10935 0.0766,-0.16406 l 2.196611,-4.24901 c 0.0183,-0.04013 0.0438,-0.06922 0.0766,-0.08747 0.0329,-0.01828 0.0657,-0.02734 0.0986,-0.02734 h 0.39988 z m -6.66238,-2.110843 c 0.31771,0 0.60621,-0.0821 0.86548,-0.246089 0.26294,-0.167695 0.48754,-0.388247 0.67378,-0.66168 0.18625,-0.277075 0.32868,-0.592418 0.42728,-0.946047 0.1023,-0.357283 0.15338,-0.723662 0.15338,-1.099166 0,-0.583306 -0.12964,-1.031725 -0.38893,-1.345245 -0.25929,-0.313524 -0.619,-0.470289 -1.07914,-0.470289 -0.31771,0 -0.60804,0.08202 -0.87098,0.246073 -0.25928,0.16406 -0.48204,0.382796 -0.66829,0.656219 -0.1826,0.269783 -0.32501,0.58148 -0.42727,0.935112 -0.10226,0.353634 -0.15338,0.721842 -0.15338,1.104643 0,0.579663 0.12782,1.029894 0.38345,1.350711 0.25928,0.317172 0.62082,0.475758 1.08462,0.475758 z m -0.0439,0.410131 c -0.29215,0 -0.55873,-0.05104 -0.79975,-0.153104 -0.23737,-0.102021 -0.44189,-0.249735 -0.61352,-0.44296 -0.16799,-0.193215 -0.29946,-0.426529 -0.39441,-0.699955 -0.0913,-0.277072 -0.13694,-0.590608 -0.13694,-0.940581 0,-0.441132 0.0657,-0.864023 0.1972,-1.268693 0.13147,-0.404667 0.31588,-0.761941 0.55325,-1.071821 0.24103,-0.309883 0.52588,-0.555967 0.85455,-0.738246 0.32867,-0.185931 0.6902,-0.278903 1.08461,-0.278903 0.29215,0 0.55691,0.05108 0.79428,0.153125 0.24102,0.102018 0.44554,0.249727 0.61352,0.442942 0.17164,0.193225 0.3031,0.428376 0.3944,0.70544 0.0949,0.273423 0.14243,0.581477 0.14243,0.924176 0,0.441124 -0.0676,0.864018 -0.20269,1.268693 -0.13146,0.404664 -0.31588,0.763768 -0.55325,1.077294 -0.23738,0.309872 -0.52039,0.557778 -0.84907,0.743704 -0.32867,0.18593 -0.6902,0.278889 -1.08461,0.278889 z m -7.374475,-0.984329 v -0.0821 c 0.004,-0.03276 0.007,-0.082 0.0108,-0.14764 0.007,-0.06552 0.0163,-0.149458 0.0274,-0.251552 0.0108,-0.105749 0.0274,-0.238789 0.0493,-0.399204 l 0.3725,-3.089687 h -0.71759 c -0.0366,0 -0.0658,-0.01045 -0.0876,-0.03281 -0.0219,-0.02188 -0.0292,-0.05281 -0.0219,-0.09295 l 0.0274,-0.202335 0.86002,-0.0656 0.36153,-1.94678 c 0.007,-0.03281 0.0237,-0.062 0.0493,-0.08747 0.02559,-0.02548 0.0566,-0.03827 0.09309,-0.03827 h 0.25198 l -0.25746,2.078024 h 1.57762 l -0.0438,0.388263 h -1.57761 l -0.377965,3.073286 c -0.0183,0.149479 -0.0347,0.271608 -0.0492,0.366384 -0.0108,0.09481 -0.0201,0.173167 -0.0274,0.235151 -0.004,0.05833 -0.007,0.102021 -0.0108,0.131242 v 0.06562 c 0,0.236971 0.0547,0.40831 0.16434,0.514032 0.11319,0.105752 0.25745,0.158597 0.432735,0.158597 0.12051,0 0.22642,-0.01828 0.31772,-0.05464 0.0949,-0.04015 0.17711,-0.0821 0.24649,-0.125785 0.0694,-0.04735 0.12599,-0.08929 0.16982,-0.125775 0.0438,-0.04015 0.0767,-0.06013 0.0986,-0.06013 0.0366,0 0.064,0.01828 0.0822,0.05464 l 0.0986,0.22969 c -0.14607,0.153111 -0.32319,0.277061 -0.53135,0.371845 -0.20816,0.09109 -0.41632,0.136713 -0.62448,0.136713 -0.299445,0 -0.534985,-0.0821 -0.706635,-0.246071 -0.16798,-0.164068 -0.2538,-0.41562 -0.25745,-0.754665 z m -3.70436,-4.527897 -0.66282,5.441132 h -0.50944 l 0.66281,-5.441132 z m 0.39988,-1.875689 c 0,0.0656 -0.0146,0.127579 -0.0438,0.185917 -0.0256,0.05466 -0.0603,0.103889 -0.10409,0.147659 -0.0438,0.04375 -0.095,0.0784 -0.15339,0.103888 -0.0547,0.02548 -0.11139,0.03827 -0.16982,0.03827 -0.0621,0 -0.1205,-0.01278 -0.17527,-0.03827 -0.0547,-0.02548 -0.10226,-0.06015 -0.14243,-0.103888 -0.0402,-0.04374 -0.073,-0.09295 -0.0986,-0.147659 -0.0256,-0.05828 -0.0383,-0.120295 -0.0383,-0.185917 0,-0.0656 0.0128,-0.127593 0.0383,-0.185931 0.0256,-0.05828 0.0585,-0.109352 0.0986,-0.153114 0.0438,-0.04734 0.0931,-0.08388 0.14789,-0.109353 0.0547,-0.02548 0.11322,-0.03827 0.1753,-0.03827 0.0585,0 0.11503,0.01278 0.16981,0.03827 0.0585,0.02548 0.10956,0.06015 0.15338,0.103889 0.0438,0.04375 0.0785,0.09655 0.10407,0.158594 0.0256,0.05828 0.0383,0.120298 0.0383,0.185933 z m -4.90402,6.321557 c -0.19356,0.215095 -0.37798,0.391911 -0.55328,0.530452 -0.17163,0.138539 -0.34145,0.247896 -0.50942,0.328107 -0.16434,0.0803 -0.33233,0.134896 -0.50397,0.164061 -0.17164,0.02917 -0.35424,0.04375 -0.54778,0.04375 -0.31406,0 -0.58796,-0.05284 -0.82169,-0.158585 -0.23006,-0.109347 -0.42178,-0.260671 -0.57515,-0.453885 -0.15339,-0.193215 -0.26842,-0.422894 -0.34511,-0.689031 -0.0767,-0.266123 -0.11503,-0.555961 -0.11503,-0.869487 0,-0.288007 0.0292,-0.57237 0.0876,-0.853085 0.0621,-0.284358 0.14972,-0.554141 0.26293,-0.809334 0.11321,-0.255193 0.25015,-0.490344 0.41084,-0.70544 0.16067,-0.215096 0.34145,-0.401026 0.54229,-0.557781 0.20086,-0.156769 0.41814,-0.278903 0.65187,-0.366395 0.23737,-0.0912 0.48936,-0.136711 0.75593,-0.136711 0.17896,0 0.33964,0.01828 0.48206,0.05466 0.14607,0.03281 0.27938,0.08202 0.39988,0.147656 0.12051,0.062 0.23007,0.138528 0.32867,0.229671 0.0986,0.0912 0.1899,0.193225 0.27389,0.306242 l -0.15337,0.180451 c -0.0329,0.04013 -0.0713,0.06015 -0.11503,0.06015 -0.0366,0 -0.0822,-0.02919 -0.13694,-0.08747 -0.0511,-0.05828 -0.12235,-0.120295 -0.21365,-0.185931 -0.0876,-0.06922 -0.20268,-0.133059 -0.3451,-0.191397 -0.14242,-0.05828 -0.32137,-0.08747 -0.53683,-0.08747 -0.30676,0 -0.59343,0.08202 -0.86002,0.246076 -0.26294,0.16406 -0.493,0.384622 -0.6902,0.661688 -0.19355,0.277075 -0.34693,0.59789 -0.46015,0.962459 -0.10955,0.360918 -0.16433,0.738249 -0.16433,1.131978 0,0.251542 0.0274,0.484867 0.0822,0.699955 0.0585,0.215098 0.14608,0.401029 0.26294,0.557797 0.12052,0.156761 0.27024,0.27889 0.44919,0.366393 0.17894,0.08749 0.39075,0.131241 0.63543,0.131241 0.19354,0 0.36701,-0.02008 0.52038,-0.06022 0.15339,-0.04375 0.2885,-0.09655 0.40537,-0.158578 0.12051,-0.06202 0.22459,-0.129403 0.31223,-0.202343 0.0913,-0.0766 0.17164,-0.145801 0.24103,-0.207785 0.0694,-0.06202 0.12781,-0.112956 0.17529,-0.153144 0.0511,-0.04375 0.0968,-0.06562 0.13694,-0.06562 0.0402,0 0.0785,0.01828 0.11504,0.05464 l 0.11503,0.142206 z"
       style="font-style:italic;font-weight:300;font-size:16.9333px;line-height:1.25;font-family:Lato;-inkscape-font-specification:'Lato Light Italic';font-variation-settings:normal;letter-spacing:3.43958px;fill:#552200;fill-opacity:1;stroke-width:0.10583333;stroke-linecap:butt;stroke-linejoin:miter;stroke-miterlimit:4;stroke-dasharray:none;stroke-dashoffset:0;stroke-opacity:1;stop-color:#000000;stroke:#552200"
       id="path2008" />
    <g
       id="g2847"
       transform="translate(-4.2584324,-2.7914851)">
      <g
         id="g1722"
         transform="rotate(-12.497443,-107.96265,49.142069)">
        <g
           id="g1726">
          <path
             id="path881"
             style="fill:#f3ac29;fill-opacity:1;stroke:#0ca7b7;stroke-width:0.465669;stroke-opacity:1"
             d="m -115.80459,32.078246 c -8.11092,13.662027 -1.13852,30.300762 15.44488,28.017389 1.48995,3.926442 3.073151,8.407932 5.401875,12.568684 1.052425,-7.049945 1.835208,-9.631742 3.50615,-15.499441 -14.868845,-15.627957 7.665004,-32.304901 11.324925,-32.67868 -12.362533,-17.3595411 -30.66127,-0.537628 -35.67783,7.592048 z"
             sodipodi:nodetypes="cccccc" />
          <path
             id="path26792"
             style="font-variation-settings:normal;opacity:1;vector-effect:none;fill:#0ca7b7;fill-opacity:1;stroke:#f3ac29;stroke-width:0.264583;stroke-linecap:butt;stroke-linejoin:miter;stroke-miterlimit:4;stroke-dasharray:none;stroke-dashoffset:0;stroke-opacity:1;-inkscape-stroke:none;stop-color:#000000;stop-opacity:1"
             d="m -57.650869,48.499819 c 0.420236,-3.300757 5.96367,-3.362546 10.5383,-6.095145 0,0 -7.297981,-0.629567 -8.754984,-3.19822 -0.920426,-11.03593 -11.221836,-13.498419 -19.433749,-7.547741 -24.585621,20.228135 5.973211,40.178862 17.650433,16.841106 z"
             sodipodi:nodetypes="ccccc" />
        </g>
      </g>
      <ellipse
         style="font-variation-settings:normal;vector-effect:none;fill:#e7f7f8;fill-opacity:1;stroke:none;stroke-width:0.264583;stroke-linecap:butt;stroke-linejoin:miter;stroke-miterlimit:4;stroke-dasharray:none;stroke-dashoffset:0;stroke-opacity:1;-inkscape-stroke:none;stop-color:#000000"
         id="path2121"
         cx="-66.303421"
         cy="28.06826"
         rx="1.9274067"
         ry="1.8374486" />
    </g>
    <path
       style="color:#000000;opacity:0.9;fill:#8d5fd3;stroke-width:0.85354;-inkscape-stroke:none;filter:url(#filter10023);fill-opacity:1"
       d="m 17.529179,71.261975 c 0.219579,0.602811 0.364329,1.232796 0.337168,1.86677 -0.01764,0.460344 -0.15785,0.92533 -0.463776,1.319852 -0.399816,0.542694 -1.029383,0.949757 -1.712134,1.235559 -1.100383,0.481951 -2.307613,0.769593 -3.519079,0.982909 -1.74939,0.294272 -3.5293984,0.433288 -5.307172,0.507745 -3.0181258,0.120129 -6.03862356,0.03663 -9.0468996,-0.121502 -1.8634296,-0.0977 -3.7247891,-0.216242 -5.5826675,-0.36163 -3.3248019,-0.25191 -6.6399049,-0.571373 -9.9540789,-0.893395 -6.088634,-0.603043 -12.175463,-1.21688 -18.26334,-1.824439 -5.889155,-0.588347 -11.777754,-1.180145 -17.667263,-1.766328 -2.380417,-0.225533 -4.76444,-0.427885 -7.149094,-0.625187 -3.681057,-0.282275 -7.367384,-0.531806 -11.062709,-0.684735 -2.955482,-0.12081 -5.916079,-0.185155 -8.877955,-0.170765 -2.568116,0.01806 -5.137639,0.1037 -7.70002,0.280141 -2.578185,0.17973 -5.149741,0.474334 -7.678807,0.945911 -1.543161,0.291168 -3.076781,0.639054 -4.548772,1.127628 -1.11812,0.37052 -2.19469,0.828042 -3.20243,1.373748 -1.02418,0.548429 -1.97862,1.183249 -2.85203,1.885225 -0.65887,0.532738 -1.31821,1.065159 -1.98037,1.595186 1.40996,-0.785805 2.81478,-1.57831 4.23706,-2.348941 0.80664,-0.425653 1.68773,-0.745723 2.58971,-1.005151 1.33336,-0.401323 2.690486,-0.745221 4.05097,-1.075957 1.95942,-0.468073 3.963481,-0.798419 5.981722,-1.020271 2.856146,-0.332504 5.735265,-0.493569 8.612769,-0.565576 2.745804,-0.06761 5.491817,-0.03618 8.233871,0.04334 1.901691,0.05334 3.801825,0.130779 5.699944,0.229253 1.688412,0.08721 3.375236,0.190352 5.060822,0.303571 2.592433,0.184336 5.182665,0.386769 7.767965,0.622208 4.687406,0.421341 9.365657,0.899669 14.046018,1.364232 8.973246,0.899802 17.946312,1.800755 26.920318,2.695968 3.036369,0.285792 6.0762088,0.550583 9.1215953,0.774447 1.4335384,0.106526 2.8685569,0.203346 4.3057428,0.277979 1.67941686,0.08261 3.3613582,0.140359 5.0451739,0.15423 2.0200291,0.0198 4.0439111,-0.02191 6.0599028,-0.167653 1.4472622,-0.113535 2.8924272,-0.285542 4.3038762,-0.587035 1.281381,-0.27268 2.53794,-0.670137 3.652709,-1.267271 0.56363,-0.300918 1.070774,-0.679375 1.468798,-1.124315 0.430411,-0.488942 0.68994,-1.068121 0.808472,-1.656717 0.138432,-0.706052 0.04876,-1.42843 -0.185931,-2.109474 -2.029963,-5.053257 -7.177725,-8.982102 -11.3199921,-12.435184 5.6668081,5.725046 7.8695021,7.985412 9.7699131,12.225624 z"
       id="path1063"
       sodipodi:nodetypes="cccccccccccccccccccccccccccccccccccccccccc"
       transform="matrix(1,-0.02205946,0,0.80764356,0,10.637659)" />
  </g>
</svg>
