<svg width="795" height="1060" version="1.2" viewBox="0 0 795 1060" xmlns="http://www.w3.org/2000/svg"><style type="text/css"><![CDATA[
text { font:12px Dialog; }
]]></style><clipPath id="Initiatives Citoyennes Choletaisesx"><path d="m15 15h765v1030h-765zm247 527c0-11.934-12.957-23.379-36.027-31.82-23.066-8.4375-54.352-13.18-86.973-13.18s-63.906 4.7422-86.973 13.18c-23.07 8.4414-36.027 19.887-36.027 31.82 0 11.934 12.957 23.379 36.027 31.82 23.066 8.4375 54.352 13.18 86.973 13.18s63.906-4.7422 86.973-13.18c23.07-8.4414 36.027-19.887 36.027-31.82z"/></clipPath><clipPath id="Initiatives Citoyennes Choletaisesai"><path d="m15 15h765v1030h-765zm247 527c0-11.934-12.957-23.379-36.027-31.82-23.066-8.4375-54.352-13.18-86.973-13.18s-63.906 4.7422-86.973 13.18c-23.07 8.4414-36.027 19.887-36.027 31.82 0 11.934 12.957 23.379 36.027 31.82 23.066 8.4375 54.352 13.18 86.973 13.18s63.906-4.7422 86.973-13.18c23.07-8.4414 36.027-19.887 36.027-31.82z"/></clipPath><clipPath id="Initiatives Citoyennes Choletaisesau"><path d="m15 15h765v1030h-765zm247 527c0-11.934-12.957-23.379-36.027-31.82-23.066-8.4375-54.352-13.18-86.973-13.18s-63.906 4.7422-86.973 13.18c-23.07 8.4414-36.027 19.887-36.027 31.82 0 11.934 12.957 23.379 36.027 31.82 23.066 8.4375 54.352 13.18 86.973 13.18s63.906-4.7422 86.973-13.18c23.07-8.4414 36.027-19.887 36.027-31.82z"/></clipPath><clipPath id="Initiatives Citoyennes Choletaisesbf"><path d="m15 15h765v1030h-765zm247 527c0-11.934-12.957-23.379-36.027-31.82-23.066-8.4375-54.352-13.18-86.973-13.18s-63.906 4.7422-86.973 13.18c-23.07 8.4414-36.027 19.887-36.027 31.82 0 11.934 12.957 23.379 36.027 31.82 23.066 8.4375 54.352 13.18 86.973 13.18s63.906-4.7422 86.973-13.18c23.07-8.4414 36.027-19.887 36.027-31.82z"/></clipPath><clipPath id="Initiatives Citoyennes Choletaisesbr"><path d="m15 15h765v1030h-765zm247 527c0-11.934-12.957-23.379-36.027-31.82-23.066-8.4375-54.352-13.18-86.973-13.18s-63.906 4.7422-86.973 13.18c-23.07 8.4414-36.027 19.887-36.027 31.82 0 11.934 12.957 23.379 36.027 31.82 23.066 8.4375 54.352 13.18 86.973 13.18s63.906-4.7422 86.973-13.18c23.07-8.4414 36.027-19.887 36.027-31.82z"/></clipPath><clipPath id="Initiatives Citoyennes Choletaisescc"><path d="m15 15h765v1030h-765zm247 527c0-11.934-12.957-23.379-36.027-31.82-23.066-8.4375-54.352-13.18-86.973-13.18s-63.906 4.7422-86.973 13.18c-23.07 8.4414-36.027 19.887-36.027 31.82 0 11.934 12.957 23.379 36.027 31.82 23.066 8.4375 54.352 13.18 86.973 13.18s63.906-4.7422 86.973-13.18c23.07-8.4414 36.027-19.887 36.027-31.82z"/></clipPath><clipPath id="Initiatives Citoyennes Choletaisescn"><path d="m14 14h767v1032h-767v-1032z"/></clipPath><clipPath id="Initiatives Citoyennes Choletaisesh"><path d="m14 495h251v95h-251v-95z"/></clipPath><clipPath id="Initiatives Citoyennes Choletaisess"><path d="m14 495h251v95h-251v-95z"/></clipPath><clipPath id="Initiatives Citoyennes Choletaisesy"><path d="m295 15h251v144h-251zm6 64c-2.7617 0-5 2.2383-5 5v31c0 2.7617 2.2383 5 5 5h75c2.7617 0 5-2.2383 5-5v-31c0-2.7617-2.2383-5-5-5z"/></clipPath><clipPath id="Initiatives Citoyennes Choletaisesz"><path d="m295 15h251v144h-251zm6 64c-2.7617 0-5 2.2383-5 5v31c0 2.7617 2.2383 5 5 5h75c2.7617 0 5-2.2383 5-5v-31c0-2.7617-2.2383-5-5-5z"/></clipPath><clipPath id="Initiatives Citoyennes Choletaisesaa"><path d="m295 15h251v144h-251zm6 64c-2.7617 0-5 2.2383-5 5v31c0 2.7617 2.2383 5 5 5h75c2.7617 0 5-2.2383 5-5v-31c0-2.7617-2.2383-5-5-5z"/></clipPath><clipPath id="Initiatives Citoyennes Choletaisesab"><path d="m295 15h251v144h-251zm6 64c-2.7617 0-5 2.2383-5 5v31c0 2.7617 2.2383 5 5 5h75c2.7617 0 5-2.2383 5-5v-31c0-2.7617-2.2383-5-5-5z"/></clipPath><clipPath id="Initiatives Citoyennes Choletaisesac"><path d="m295 15h251v144h-251zm6 64c-2.7617 0-5 2.2383-5 5v31c0 2.7617 2.2383 5 5 5h75c2.7617 0 5-2.2383 5-5v-31c0-2.7617-2.2383-5-5-5z"/></clipPath><clipPath id="Initiatives Citoyennes Choletaisesad"><path d="m294 14h253v146h-253v-146z"/></clipPath><clipPath id="Initiatives Citoyennes Choletaisesae"><path d="m294 77h90v46h-90v-46z"/></clipPath><clipPath id="Initiatives Citoyennes Choletaisesaf"><path d="m294 77h90v46h-90v-46z"/></clipPath><clipPath id="Initiatives Citoyennes Choletaisesag"><path d="m401 14h57v30h-57v-30z"/></clipPath><clipPath id="Initiatives Citoyennes Choletaisesah"><path d="m401 43h65v30h-65v-30z"/></clipPath><clipPath id="Initiatives Citoyennes Choletaisesaj"><path d="m401 72h64v30h-64v-30z"/></clipPath><clipPath id="Initiatives Citoyennes Choletaisesak"><path d="m401 101h146v30h-146v-30z"/></clipPath><clipPath id="Initiatives Citoyennes Choletaisesal"><path d="m401 130h99v30h-99v-30z"/></clipPath><clipPath id="Initiatives Citoyennes Choletaisesam"><path d="m295 169h348v173h-348zm6 78c-2.7617 0-5 2.2383-5 5v31c0 2.7617 2.2383 5 5 5h143c2.7617 0 5-2.2383 5-5v-31c0-2.7617-2.2383-5-5-5z"/></clipPath><clipPath id="Initiatives Citoyennes Choletaisesan"><path d="m295 169h348v173h-348zm6 78c-2.7617 0-5 2.2383-5 5v31c0 2.7617 2.2383 5 5 5h143c2.7617 0 5-2.2383 5-5v-31c0-2.7617-2.2383-5-5-5z"/></clipPath><clipPath id="Initiatives Citoyennes Choletaisesao"><path d="m295 169h348v173h-348zm6 78c-2.7617 0-5 2.2383-5 5v31c0 2.7617 2.2383 5 5 5h143c2.7617 0 5-2.2383 5-5v-31c0-2.7617-2.2383-5-5-5z"/></clipPath><clipPath id="Initiatives Citoyennes Choletaisesaq"><path d="m295 169h348v173h-348zm6 78c-2.7617 0-5 2.2383-5 5v31c0 2.7617 2.2383 5 5 5h143c2.7617 0 5-2.2383 5-5v-31c0-2.7617-2.2383-5-5-5z"/></clipPath><clipPath id="Initiatives Citoyennes Choletaisesar"><path d="m295 169h348v173h-348zm6 78c-2.7617 0-5 2.2383-5 5v31c0 2.7617 2.2383 5 5 5h143c2.7617 0 5-2.2383 5-5v-31c0-2.7617-2.2383-5-5-5z"/></clipPath><clipPath id="Initiatives Citoyennes Choletaisesas"><path d="m295 169h348v173h-348zm6 78c-2.7617 0-5 2.2383-5 5v31c0 2.7617 2.2383 5 5 5h143c2.7617 0 5-2.2383 5-5v-31c0-2.7617-2.2383-5-5-5z"/></clipPath><clipPath id="Initiatives Citoyennes Choletaisesat"><path d="m294 168h350v175h-350v-175z"/></clipPath><clipPath id="Initiatives Citoyennes Choletaisesav"><path d="m294 245h158v46h-158v-46z"/></clipPath><clipPath id="Initiatives Citoyennes Choletaisesaw"><path d="m294 245h158v46h-158v-46z"/></clipPath><clipPath id="Initiatives Citoyennes Choletaisesax"><path d="m469 168h61v30h-61v-30z"/></clipPath><clipPath id="Initiatives Citoyennes Choletaisesay"><path d="m469 197h73v30h-73v-30z"/></clipPath><clipPath id="Initiatives Citoyennes Choletaisesaz"><path d="m469 226h156v30h-156v-30z"/></clipPath><clipPath id="Initiatives Citoyennes Choletaisesba"><path d="m469 255h121v30h-121v-30z"/></clipPath><clipPath id="Initiatives Citoyennes Choletaisesbb"><path d="m469 284h86v30h-86v-30z"/></clipPath><clipPath id="Initiatives Citoyennes Choletaisesbc"><path d="m469 313h175v30h-175v-30z"/></clipPath><clipPath id="Initiatives Citoyennes Choletaisesbd"><path d="m295 352h353v202h-353zm6 93c-2.7617 0-5 2.2383-5 5v31c0 2.7617 2.2383 5 5 5h143c2.7617 0 5-2.2383 5-5v-31c0-2.7617-2.2383-5-5-5z"/></clipPath><clipPath id="Initiatives Citoyennes Choletaisesbe"><path d="m295 352h353v202h-353zm6 93c-2.7617 0-5 2.2383-5 5v31c0 2.7617 2.2383 5 5 5h143c2.7617 0 5-2.2383 5-5v-31c0-2.7617-2.2383-5-5-5z"/></clipPath><clipPath id="Initiatives Citoyennes Choletaisesbg"><path d="m295 352h353v202h-353zm6 93c-2.7617 0-5 2.2383-5 5v31c0 2.7617 2.2383 5 5 5h143c2.7617 0 5-2.2383 5-5v-31c0-2.7617-2.2383-5-5-5z"/></clipPath><clipPath id="Initiatives Citoyennes Choletaisesbh"><path d="m295 352h353v202h-353zm6 93c-2.7617 0-5 2.2383-5 5v31c0 2.7617 2.2383 5 5 5h143c2.7617 0 5-2.2383 5-5v-31c0-2.7617-2.2383-5-5-5z"/></clipPath><clipPath id="Initiatives Citoyennes Choletaisesbi"><path d="m295 352h353v202h-353zm6 93c-2.7617 0-5 2.2383-5 5v31c0 2.7617 2.2383 5 5 5h143c2.7617 0 5-2.2383 5-5v-31c0-2.7617-2.2383-5-5-5z"/></clipPath><clipPath id="Initiatives Citoyennes Choletaisesbj"><path d="m295 352h353v202h-353zm6 93c-2.7617 0-5 2.2383-5 5v31c0 2.7617 2.2383 5 5 5h143c2.7617 0 5-2.2383 5-5v-31c0-2.7617-2.2383-5-5-5z"/></clipPath><clipPath id="Initiatives Citoyennes Choletaisesbk"><path d="m295 352h353v202h-353zm6 93c-2.7617 0-5 2.2383-5 5v31c0 2.7617 2.2383 5 5 5h143c2.7617 0 5-2.2383 5-5v-31c0-2.7617-2.2383-5-5-5z"/></clipPath><clipPath id="Initiatives Citoyennes Choletaisesbl"><path d="m294 351h355v204h-355v-204z"/></clipPath><clipPath id="Initiatives Citoyennes Choletaisesbm"><path d="m294 443h158v46h-158v-46z"/></clipPath><clipPath id="Initiatives Citoyennes Choletaisesbn"><path d="m294 443h158v46h-158v-46z"/></clipPath><clipPath id="Initiatives Citoyennes Choletaisesbo"><path d="m469 351h180v30h-180v-30z"/></clipPath><clipPath id="Initiatives Citoyennes Choletaisesbp"><path d="m469 380h177v30h-177v-30z"/></clipPath><clipPath id="Initiatives Citoyennes Choletaisesbs"><path d="m469 409h48v30h-48v-30z"/></clipPath><clipPath id="Initiatives Citoyennes Choletaisesbt"><path d="m469 438h160v30h-160v-30z"/></clipPath><clipPath id="Initiatives Citoyennes Choletaisesbu"><path d="m469 467h44v30h-44v-30z"/></clipPath><clipPath id="Initiatives Citoyennes Choletaisesbv"><path d="m469 496h97v30h-97v-30z"/></clipPath><clipPath id="Initiatives Citoyennes Choletaisesbw"><path d="m469 525h161v30h-161v-30z"/></clipPath><clipPath id="Initiatives Citoyennes Choletaisesbx"><path d="m295 564h274v173h-274zm6 78c-2.7617 0-5 2.2383-5 5v31c0 2.7617 2.2383 5 5 5h64c2.7617 0 5-2.2383 5-5v-31c0-2.7617-2.2383-5-5-5z"/></clipPath><clipPath id="Initiatives Citoyennes Choletaisesby"><path d="m295 564h274v173h-274zm6 78c-2.7617 0-5 2.2383-5 5v31c0 2.7617 2.2383 5 5 5h64c2.7617 0 5-2.2383 5-5v-31c0-2.7617-2.2383-5-5-5z"/></clipPath><clipPath id="Initiatives Citoyennes Choletaisesbz"><path d="m295 564h274v173h-274zm6 78c-2.7617 0-5 2.2383-5 5v31c0 2.7617 2.2383 5 5 5h64c2.7617 0 5-2.2383 5-5v-31c0-2.7617-2.2383-5-5-5z"/></clipPath><clipPath id="Initiatives Citoyennes Choletaisesca"><path d="m295 564h274v173h-274zm6 78c-2.7617 0-5 2.2383-5 5v31c0 2.7617 2.2383 5 5 5h64c2.7617 0 5-2.2383 5-5v-31c0-2.7617-2.2383-5-5-5z"/></clipPath><clipPath id="Initiatives Citoyennes Choletaisescb"><path d="m295 564h274v173h-274zm6 78c-2.7617 0-5 2.2383-5 5v31c0 2.7617 2.2383 5 5 5h64c2.7617 0 5-2.2383 5-5v-31c0-2.7617-2.2383-5-5-5z"/></clipPath><clipPath id="Initiatives Citoyennes Choletaisescd"><path d="m295 564h274v173h-274zm6 78c-2.7617 0-5 2.2383-5 5v31c0 2.7617 2.2383 5 5 5h64c2.7617 0 5-2.2383 5-5v-31c0-2.7617-2.2383-5-5-5z"/></clipPath><clipPath id="Initiatives Citoyennes Choletaisesce"><path d="m294 563h276v175h-276v-175z"/></clipPath><clipPath id="Initiatives Citoyennes Choletaisescf"><path d="m294 640h79v46h-79v-46z"/></clipPath><clipPath id="Initiatives Citoyennes Choletaisescg"><path d="m294 640h79v46h-79v-46z"/></clipPath><clipPath id="Initiatives Citoyennes Choletaisesch"><path d="m390 563h74v30h-74v-30z"/></clipPath><clipPath id="Initiatives Citoyennes Choletaisesci"><path d="m390 592h81v30h-81v-30z"/></clipPath><clipPath id="Initiatives Citoyennes Choletaisescj"><path d="m390 621h111v30h-111v-30z"/></clipPath><clipPath id="Initiatives Citoyennes Choletaisesck"><path d="m390 650h101v30h-101v-30z"/></clipPath><clipPath id="Initiatives Citoyennes Choletaisescl"><path d="m390 679h180v30h-180v-30z"/></clipPath><clipPath id="Initiatives Citoyennes Choletaisescm"><path d="m390 708h177v30h-177v-30z"/></clipPath><clipPath id="Initiatives Citoyennes Choletaisesco"><path d="m295 747h370v144h-370zm6 64c-2.7617 0-5 2.2383-5 5v31c0 2.7617 2.2383 5 5 5h96c2.7617 0 5-2.2383 5-5v-31c0-2.7617-2.2383-5-5-5z"/></clipPath><clipPath id="Initiatives Citoyennes Choletaisescp"><path d="m295 747h370v144h-370zm6 64c-2.7617 0-5 2.2383-5 5v31c0 2.7617 2.2383 5 5 5h96c2.7617 0 5-2.2383 5-5v-31c0-2.7617-2.2383-5-5-5z"/></clipPath><clipPath id="Initiatives Citoyennes Choletaisescq"><path d="m295 747h370v144h-370zm6 64c-2.7617 0-5 2.2383-5 5v31c0 2.7617 2.2383 5 5 5h96c2.7617 0 5-2.2383 5-5v-31c0-2.7617-2.2383-5-5-5z"/></clipPath><clipPath id="Initiatives Citoyennes Choletaisesa"><path d="m295 747h370v144h-370zm6 64c-2.7617 0-5 2.2383-5 5v31c0 2.7617 2.2383 5 5 5h96c2.7617 0 5-2.2383 5-5v-31c0-2.7617-2.2383-5-5-5z"/></clipPath><clipPath id="Initiatives Citoyennes Choletaisesb"><path d="m295 747h370v144h-370zm6 64c-2.7617 0-5 2.2383-5 5v31c0 2.7617 2.2383 5 5 5h96c2.7617 0 5-2.2383 5-5v-31c0-2.7617-2.2383-5-5-5z"/></clipPath><clipPath id="Initiatives Citoyennes Choletaisesc"><path d="m294 746h372v146h-372v-146z"/></clipPath><clipPath id="Initiatives Citoyennes Choletaisesd"><path d="m294 809h111v46h-111v-46z"/></clipPath><clipPath id="Initiatives Citoyennes Choletaisese"><path d="m294 809h111v46h-111v-46z"/></clipPath><clipPath id="Initiatives Citoyennes Choletaisesf"><path d="m422 746h219v30h-219v-30z"/></clipPath><clipPath id="Initiatives Citoyennes Choletaisesg"><path d="m422 775h111v30h-111v-30z"/></clipPath><clipPath id="Initiatives Citoyennes Choletaisesi"><path d="m422 804h79v30h-79v-30z"/></clipPath><clipPath id="Initiatives Citoyennes Choletaisesj"><path d="m422 833h244v30h-244v-30z"/></clipPath><clipPath id="Initiatives Citoyennes Choletaisesk"><path d="m422 862h203v30h-203v-30z"/></clipPath><clipPath id="Initiatives Citoyennes Choletaisesl"><path d="m295 901h485v144h-485zm6 64c-2.7617 0-5 2.2383-5 5v31c0 2.7617 2.2383 5 5 5h127c2.7617 0 5-2.2383 5-5v-31c0-2.7617-2.2383-5-5-5z"/></clipPath><clipPath id="Initiatives Citoyennes Choletaisesm"><path d="m295 901h485v144h-485zm6 64c-2.7617 0-5 2.2383-5 5v31c0 2.7617 2.2383 5 5 5h127c2.7617 0 5-2.2383 5-5v-31c0-2.7617-2.2383-5-5-5z"/></clipPath><clipPath id="Initiatives Citoyennes Choletaisesn"><path d="m295 901h485v144h-485zm6 64c-2.7617 0-5 2.2383-5 5v31c0 2.7617 2.2383 5 5 5h127c2.7617 0 5-2.2383 5-5v-31c0-2.7617-2.2383-5-5-5z"/></clipPath><clipPath id="Initiatives Citoyennes Choletaiseso"><path d="m295 901h485v144h-485zm6 64c-2.7617 0-5 2.2383-5 5v31c0 2.7617 2.2383 5 5 5h127c2.7617 0 5-2.2383 5-5v-31c0-2.7617-2.2383-5-5-5z"/></clipPath><clipPath id="Initiatives Citoyennes Choletaisesp"><path d="m295 901h485v144h-485zm6 64c-2.7617 0-5 2.2383-5 5v31c0 2.7617 2.2383 5 5 5h127c2.7617 0 5-2.2383 5-5v-31c0-2.7617-2.2383-5-5-5z"/></clipPath><clipPath id="Initiatives Citoyennes Choletaisesq"><path d="m294 900h487v146h-487v-146z"/></clipPath><clipPath id="Initiatives Citoyennes Choletaisesr"><path d="m294 963h142v46h-142v-46z"/></clipPath><clipPath id="Initiatives Citoyennes Choletaisest"><path d="m294 963h142v46h-142v-46z"/></clipPath><clipPath id="Initiatives Citoyennes Choletaisesu"><path d="m453 900h328v30h-328v-30z"/></clipPath><clipPath id="Initiatives Citoyennes Choletaisesv"><path d="m453 929h107v30h-107v-30z"/></clipPath><clipPath id="Initiatives Citoyennes Choletaisesw"><path d="m453 958h200v30h-200v-30z"/></clipPath><clipPath id="Initiatives Citoyennes Choletaisesap"><path d="m453 987h174v30h-174v-30z"/></clipPath><clipPath id="Initiatives Citoyennes Choletaisesbq"><path d="m453 1016h245v30h-245v-30z"/></clipPath><path d="m276.49 541.82v-433.61c0-4.418 3.5859-8 8-8h11.512v-1h-16.512c-4.4141 0-8 3.582-8 8v434.61z" clip-path="url(#Initiatives Citoyennes Choletaisesx)" style="fill:#017c98"/><path d="m276.49 541.82v-265.44c0-4.4141 3.5859-8 8-8h11.512v-1h-16.512c-4.4141 0-8 3.5859-8 8v266.44z" clip-path="url(#Initiatives Citoyennes Choletaisesai)" style="fill:#00b2a1"/><path d="m276.49 541.82v-67.441c0-4.4141 3.5859-8 8-8h11.512v-1h-16.512c-4.4141 0-8 3.5859-8 8v68.441z" clip-path="url(#Initiatives Citoyennes Choletaisesau)" style="fill:#fd0"/><path d="m271.49 541.82v113.36c0 4.418 3.5859 8 8 8h16.512v-1h-11.512c-4.4141 0-8-3.582-8-8v-112.36z" clip-path="url(#Initiatives Citoyennes Choletaisesbf)" style="fill:#fc8f00"/><path d="m271.49 541.82v282.44c0 4.4141 3.5859 8 8 8h16.512v-1h-11.512c-4.4141 0-8-3.5859-8-8v-281.44z" clip-path="url(#Initiatives Citoyennes Choletaisesbr)" style="fill:#ff1500"/><path d="m271.49 541.82v436.52c0 4.418 3.5859 8 8 8h16.512v-1h-11.512c-4.4141 0-8-3.582-8-8v-435.52z" clip-path="url(#Initiatives Citoyennes Choletaisescc)" style="fill:#00b04c"/><path d="m263.99 541.88 10-0.050781" clip-path="url(#Initiatives Citoyennes Choletaisescn)" style="fill:none;stroke:#808080"/><path d="m262 542c0-11.934-12.957-23.379-36.027-31.82-23.066-8.4375-54.352-13.18-86.973-13.18s-63.906 4.7422-86.973 13.18c-23.07 8.4414-36.027 19.887-36.027 31.82 0 11.934 12.957 23.379 36.027 31.82 23.066 8.4375 54.352 13.18 86.973 13.18s63.906-4.7422 86.973-13.18c23.07-8.4414 36.027-19.887 36.027-31.82z" clip-path="url(#Initiatives Citoyennes Choletaisesh)" style="fill-opacity:.69804;fill:#adf3a3"/><path d="m262 542c0-11.934-12.957-23.379-36.027-31.82-23.066-8.4375-54.352-13.18-86.973-13.18s-63.906 4.7422-86.973 13.18c-23.07 8.4414-36.027 19.887-36.027 31.82 0 11.934 12.957 23.379 36.027 31.82 23.066 8.4375 54.352 13.18 86.973 13.18s63.906-4.7422 86.973-13.18c23.07-8.4414 36.027-19.887 36.027-31.82z" clip-path="url(#Initiatives Citoyennes Choletaisess)" style="fill:none;stroke:#808080"/><text x="73.554565" y="549" style="font-family:'Noto Sans';font-size:12px;font-weight:bold;line-height:normal"><tspan style="font-family:'Noto Sans';font-size:18.667px;font-weight:bold">Menu durable</tspan></text><path d="m394 99.777v-57.777h9" clip-path="url(#Initiatives Citoyennes Choletaisesy)" style="fill:none;stroke:#017c98"/><path d="m394 99.777v-28.777h9" clip-path="url(#Initiatives Citoyennes Choletaisesz)" style="fill:none;stroke:#017c98"/><path d="m394 99.777v0.22266h9" clip-path="url(#Initiatives Citoyennes Choletaisesaa)" style="fill:none;stroke:#017c98"/><path d="m394 99.777v29.223h9" clip-path="url(#Initiatives Citoyennes Choletaisesab)" style="fill:none;stroke:#017c98"/><path d="m394 99.777v58.223h9" clip-path="url(#Initiatives Citoyennes Choletaisesac)" style="fill:none;stroke:#017c98"/><path d="m381 99.711 13 0.066406" clip-path="url(#Initiatives Citoyennes Choletaisesad)" style="fill:none;stroke:#017c98"/><path d="m301 79c-2.7617 0-5 2.2383-5 5v31c0 2.7617 2.2383 5 5 5h75c2.7617 0 5-2.2383 5-5v-31c0-2.7617-2.2383-5-5-5z" clip-path="url(#Initiatives Citoyennes Choletaisesae)" style="fill:#c2d6f1"/><path d="m301 79c-2.7617 0-5 2.2383-5 5v31c0 2.7617 2.2383 5 5 5h75c2.7617 0 5-2.2383 5-5v-31c0-2.7617-2.2383-5-5-5z" clip-path="url(#Initiatives Citoyennes Choletaisesaf)" style="fill:none;stroke:#017c98"/><text x="309" y="103.076" style="font-family:'Noto Sans';font-size:12px;line-height:normal">Qualité</text><path d="m403 42h52z" clip-path="url(#Initiatives Citoyennes Choletaisesag)" style="fill:none;stroke:#017c98"/><text x="413" y="31" style="font-family:'Noto Sans'">Goût</text><path d="m403 71h60z" clip-path="url(#Initiatives Citoyennes Choletaisesah)" style="fill:none;stroke:#017c98"/><text x="413" y="60" style="font-family:'Noto Sans'">Saison</text><path d="m403 100h59z" clip-path="url(#Initiatives Citoyennes Choletaisesaj)" style="fill:none;stroke:#017c98"/><text x="413" y="89" style="font-family:'Noto Sans'">Attrait</text><path d="m403 129h141z" clip-path="url(#Initiatives Citoyennes Choletaisesak)" style="fill:none;stroke:#017c98"/><text x="413" y="118" style="font-family:'Noto Sans'">Fraicheur si possible</text><path d="m403 158h94z" clip-path="url(#Initiatives Citoyennes Choletaisesal)" style="fill:none;stroke:#017c98"/><text x="413" y="147" style="font-family:'Noto Sans'">Authenticité</text><path d="m462 267.95v-71.945h9" clip-path="url(#Initiatives Citoyennes Choletaisesam)" style="fill:none;stroke:#00b2a1"/><path d="m462 267.95v-42.945h9" clip-path="url(#Initiatives Citoyennes Choletaisesan)" style="fill:none;stroke:#00b2a1"/><path d="m462 267.95v-13.945h9" clip-path="url(#Initiatives Citoyennes Choletaisesao)" style="fill:none;stroke:#00b2a1"/><path d="m462 267.95v15.055h9" clip-path="url(#Initiatives Citoyennes Choletaisesaq)" style="fill:none;stroke:#00b2a1"/><path d="m462 267.95v44.055h9" clip-path="url(#Initiatives Citoyennes Choletaisesar)" style="fill:none;stroke:#00b2a1"/><path d="m462 267.95v73.055h9" clip-path="url(#Initiatives Citoyennes Choletaisesas)" style="fill:none;stroke:#00b2a1"/><path d="m449 267.88 13 0.066406" clip-path="url(#Initiatives Citoyennes Choletaisesat)" style="fill:none;stroke:#00b2a1"/><path d="m301 247c-2.7617 0-5 2.2383-5 5v31c0 2.7617 2.2383 5 5 5h143c2.7617 0 5-2.2383 5-5v-31c0-2.7617-2.2383-5-5-5z" clip-path="url(#Initiatives Citoyennes Choletaisesav)" style="fill:#c2d6f1"/><path d="m301 247c-2.7617 0-5 2.2383-5 5v31c0 2.7617 2.2383 5 5 5h143c2.7617 0 5-2.2383 5-5v-31c0-2.7617-2.2383-5-5-5z" clip-path="url(#Initiatives Citoyennes Choletaisesaw)" style="fill:none;stroke:#00b2a1"/><text x="309" y="272" style="font-family:'Noto Sans';font-size:12px;line-height:normal">Valeurs sociales</text><path d="m471 196h56z" clip-path="url(#Initiatives Citoyennes Choletaisesax)" style="fill:none;stroke:#00b2a1"/><text x="481" y="185" style="font-family:'Noto Sans'">Plaisir</text><path d="m471 225h68z" clip-path="url(#Initiatives Citoyennes Choletaisesay)" style="fill:none;stroke:#00b2a1"/><text x="481" y="214" style="font-family:'Noto Sans'">Identité</text><path d="m471 254h151z" clip-path="url(#Initiatives Citoyennes Choletaisesaz)" style="fill:none;stroke:#00b2a1"/><text x="481" y="243" style="font-family:'Noto Sans'">Bientraitance animale</text><path d="m471 283h116z" clip-path="url(#Initiatives Citoyennes Choletaisesba)" style="fill:none;stroke:#00b2a1"/><text x="481" y="272" style="font-family:'Noto Sans'">Égalité et justice</text><path d="m471 312h81z" clip-path="url(#Initiatives Citoyennes Choletaisesbb)" style="fill:none;stroke:#00b2a1"/><text x="481" y="301" style="font-family:'Noto Sans'">Confiance</text><path d="m471 341h170z" clip-path="url(#Initiatives Citoyennes Choletaisesbc)" style="fill:none;stroke:#00b2a1"/><text x="481" y="330" style="font-family:'Noto Sans'">Aptitude à la citoyenneté</text><path d="m462 465.95v-86.945h9" clip-path="url(#Initiatives Citoyennes Choletaisesbd)" style="fill:none;stroke:#fd0"/><path d="m462 465.95v-57.945h9" clip-path="url(#Initiatives Citoyennes Choletaisesbe)" style="fill:none;stroke:#fd0"/><path d="m462 465.95v-28.945h9" clip-path="url(#Initiatives Citoyennes Choletaisesbg)" style="fill:none;stroke:#fd0"/><path d="m462 465.95v0.054688h9" clip-path="url(#Initiatives Citoyennes Choletaisesbh)" style="fill:none;stroke:#fd0"/><path d="m462 465.95v29.055h9" clip-path="url(#Initiatives Citoyennes Choletaisesbi)" style="fill:none;stroke:#fd0"/><path d="m462 465.95v58.055h9" clip-path="url(#Initiatives Citoyennes Choletaisesbj)" style="fill:none;stroke:#fd0"/><path d="m462 465.95v87.055h9" clip-path="url(#Initiatives Citoyennes Choletaisesbk)" style="fill:none;stroke:#fd0"/><path d="m449 465.88 13 0.066406" clip-path="url(#Initiatives Citoyennes Choletaisesbl)" style="fill:none;stroke:#fd0"/><path d="m301 445c-2.7617 0-5 2.2383-5 5v31c0 2.7617 2.2383 5 5 5h143c2.7617 0 5-2.2383 5-5v-31c0-2.7617-2.2383-5-5-5z" clip-path="url(#Initiatives Citoyennes Choletaisesbm)" style="fill:#c2d6f1"/><path d="m301 445c-2.7617 0-5 2.2383-5 5v31c0 2.7617 2.2383 5 5 5h143c2.7617 0 5-2.2383 5-5v-31c0-2.7617-2.2383-5-5-5z" clip-path="url(#Initiatives Citoyennes Choletaisesbn)" style="fill:none;stroke:#fd0"/><text x="309" y="469.862" style="font-family:'Noto Sans';font-size:12px;line-height:normal">Environnement</text><path d="m471 379h175z" clip-path="url(#Initiatives Citoyennes Choletaisesbo)" style="fill:none;stroke:#fd0"/><text x="481" y="368" style="font-family:'Noto Sans'">Changements climatiques</text><path d="m471 408h172z" clip-path="url(#Initiatives Citoyennes Choletaisesbp)" style="fill:none;stroke:#fd0"/><text x="481" y="397" style="font-family:'Noto Sans'">Consommation d'énergie</text><path d="m471 437h43z" clip-path="url(#Initiatives Citoyennes Choletaisesbs)" style="fill:none;stroke:#fd0"/><text x="481" y="426" style="font-family:'Noto Sans'">Eau</text><path d="m471 466h155z" clip-path="url(#Initiatives Citoyennes Choletaisesbt)" style="fill:none;stroke:#fd0"/><text x="481" y="455" style="font-family:'Noto Sans'">Exploitation des terres</text><path d="m471 495h39z" clip-path="url(#Initiatives Citoyennes Choletaisesbu)" style="fill:none;stroke:#fd0"/><text x="481" y="484" style="font-family:'Noto Sans'">Sol</text><path d="m471 524h92z" clip-path="url(#Initiatives Citoyennes Choletaisesbv)" style="fill:none;stroke:#fd0"/><text x="481" y="513" style="font-family:'Noto Sans'">Biodiversité</text><path d="m471 553h156z" clip-path="url(#Initiatives Citoyennes Choletaisesbw)" style="fill:none;stroke:#fd0"/><text x="481" y="542" style="font-family:'Noto Sans'">Réduction des déchets</text><path d="m383 662.75v-71.75h9" clip-path="url(#Initiatives Citoyennes Choletaisesbx)" style="fill:none;stroke:#fc8f00"/><path d="m383 662.75v-42.75h9" clip-path="url(#Initiatives Citoyennes Choletaisesby)" style="fill:none;stroke:#fc8f00"/><path d="m383 662.75v-13.75h9" clip-path="url(#Initiatives Citoyennes Choletaisesbz)" style="fill:none;stroke:#fc8f00"/><path d="m383 662.75v15.25h9" clip-path="url(#Initiatives Citoyennes Choletaisesca)" style="fill:none;stroke:#fc8f00"/><path d="m383 662.75v44.25h9" clip-path="url(#Initiatives Citoyennes Choletaisescb)" style="fill:none;stroke:#fc8f00"/><path d="m383 662.75v73.25h9" clip-path="url(#Initiatives Citoyennes Choletaisescd)" style="fill:none;stroke:#fc8f00"/><path d="m370 662.68 13 0.066406" clip-path="url(#Initiatives Citoyennes Choletaisesce)" style="fill:none;stroke:#fc8f00"/><path d="m301 642c-2.7617 0-5 2.2383-5 5v31c0 2.7617 2.2383 5 5 5h64c2.7617 0 5-2.2383 5-5v-31c0-2.7617-2.2383-5-5-5z" clip-path="url(#Initiatives Citoyennes Choletaisescf)" style="fill:#c2d6f1"/><path d="m301 642c-2.7617 0-5 2.2383-5 5v31c0 2.7617 2.2383 5 5 5h64c2.7617 0 5-2.2383 5-5v-31c0-2.7617-2.2383-5-5-5z" clip-path="url(#Initiatives Citoyennes Choletaisescg)" style="fill:none;stroke:#fc8f00"/><text x="309" y="667.03601" style="font-family:'Noto Sans';font-size:12px;line-height:normal">Santé</text><path d="m392 591h69z" clip-path="url(#Initiatives Citoyennes Choletaisesch)" style="fill:none;stroke:#fc8f00"/><text x="402" y="579" style="font-family:'Noto Sans'">Sécurité</text><path d="m392 620h76z" clip-path="url(#Initiatives Citoyennes Choletaisesci)" style="fill:none;stroke:#fc8f00"/><text x="402" y="608" style="font-family:'Noto Sans'">Nutrition</text><path d="m392 649h106z" clip-path="url(#Initiatives Citoyennes Choletaisescj)" style="fill:none;stroke:#fc8f00"/><text x="402" y="637" style="font-family:'Noto Sans'">Égalité d'accès</text><path d="m392 678h96z" clip-path="url(#Initiatives Citoyennes Choletaisesck)" style="fill:none;stroke:#fc8f00"/><text x="402" y="666" style="font-family:'Noto Sans'">Disponibilité</text><path d="m392 707h175z" clip-path="url(#Initiatives Citoyennes Choletaisescl)" style="fill:none;stroke:#fc8f00"/><text x="402" y="695" style="font-family:'Noto Sans'">Statut social / accessibilité</text><path d="m392 736h172z" clip-path="url(#Initiatives Citoyennes Choletaisescm)" style="fill:none;stroke:#fc8f00"/><text x="402" y="724" style="font-family:'Noto Sans'">Information et éducation</text><path d="m415 831.83v-57.828h9" clip-path="url(#Initiatives Citoyennes Choletaisesco)" style="fill:none;stroke:#ff1500"/><path d="m415 831.83v-28.828h9" clip-path="url(#Initiatives Citoyennes Choletaisescp)" style="fill:none;stroke:#ff1500"/><path d="m415 831.83v0.17188h9" clip-path="url(#Initiatives Citoyennes Choletaisescq)" style="fill:none;stroke:#ff1500"/><path d="m415 831.83v29.172h9" clip-path="url(#Initiatives Citoyennes Choletaisesa)" style="fill:none;stroke:#ff1500"/><path d="m415 831.83v58.172h9" clip-path="url(#Initiatives Citoyennes Choletaisesb)" style="fill:none;stroke:#ff1500"/><path d="m402 831.77 13 0.0625" clip-path="url(#Initiatives Citoyennes Choletaisesc)" style="fill:none;stroke:#ff1500"/><path d="m301 811c-2.7617 0-5 2.2383-5 5v31c0 2.7617 2.2383 5 5 5h96c2.7617 0 5-2.2383 5-5v-31c0-2.7617-2.2383-5-5-5z" clip-path="url(#Initiatives Citoyennes Choletaisesd)" style="fill:#c2d6f1"/><path d="m301 811c-2.7617 0-5 2.2383-5 5v31c0 2.7617 2.2383 5 5 5h96c2.7617 0 5-2.2383 5-5v-31c0-2.7617-2.2383-5-5-5z" clip-path="url(#Initiatives Citoyennes Choletaisese)" style="fill:none;stroke:#ff1500"/><text x="309" y="837.104" style="font-family:'Noto Sans';font-size:12px;line-height:normal">Économie</text><path d="m424 774h214z" clip-path="url(#Initiatives Citoyennes Choletaisesf)" style="fill:none;stroke:#ff1500"/><text x="434" y="762" style="font-family:'Noto Sans'">Résilience et sécurité alimentaire</text><path d="m424 803h106z" clip-path="url(#Initiatives Citoyennes Choletaisesg)" style="fill:none;stroke:#ff1500"/><text x="434" y="791" style="font-family:'Noto Sans'">Prix accessible</text><path d="m424 832h74z" clip-path="url(#Initiatives Citoyennes Choletaisesi)" style="fill:none;stroke:#ff1500"/><text x="434" y="820" style="font-family:'Noto Sans'">Efficacité</text><path d="m424 861h239z" clip-path="url(#Initiatives Citoyennes Choletaisesj)" style="fill:none;stroke:#ff1500"/><text x="434" y="849" style="font-family:'Noto Sans'">Concurrence loyale et revenus justes</text><path d="m424 890h198z" clip-path="url(#Initiatives Citoyennes Choletaisesk)" style="fill:none;stroke:#ff1500"/><text x="434" y="878" style="font-family:'Noto Sans'">Coûts pleinement internalisés</text><path d="m446 985.91v-57.906h9" clip-path="url(#Initiatives Citoyennes Choletaisesl)" style="fill:none;stroke:#00b04c"/><path d="m446 985.91v-28.906h9" clip-path="url(#Initiatives Citoyennes Choletaisesm)" style="fill:none;stroke:#00b04c"/><path d="m446 985.91v0.09375h9" clip-path="url(#Initiatives Citoyennes Choletaisesn)" style="fill:none;stroke:#00b04c"/><path d="m446 985.91v29.094h9" clip-path="url(#Initiatives Citoyennes Choletaiseso)" style="fill:none;stroke:#00b04c"/><path d="m446 985.91v58.094h9" clip-path="url(#Initiatives Citoyennes Choletaisesp)" style="fill:none;stroke:#00b04c"/><path d="m433 985.84 13 0.066406" clip-path="url(#Initiatives Citoyennes Choletaisesq)" style="fill:none;stroke:#00b04c"/><path d="m301 965c-2.7617 0-5 2.2383-5 5v31c0 2.7617 2.2383 5 5 5h127c2.7617 0 5-2.2383 5-5v-31c0-2.7617-2.2383-5-5-5z" clip-path="url(#Initiatives Citoyennes Choletaisesr)" style="fill:#c2d6f1"/><path d="m301 965c-2.7617 0-5 2.2383-5 5v31c0 2.7617 2.2383 5 5 5h127c2.7617 0 5-2.2383 5-5v-31c0-2.7617-2.2383-5-5-5z" clip-path="url(#Initiatives Citoyennes Choletaisest)" style="fill:none;stroke:#00b04c"/><text x="309" y="989.784" style="font-family:'Noto Sans';font-size:12px;line-height:normal">Gouvernance</text><path d="m455 928h323z" clip-path="url(#Initiatives Citoyennes Choletaisesu)" style="fill:none;stroke:#00b04c"/><text x="465" y="916" style="font-family:'Noto Sans'">Données scientifiques et technologiques factuelles</text><path d="m455 957h102z" clip-path="url(#Initiatives Citoyennes Choletaisesv)" style="fill:none;stroke:#00b04c"/><text x="465" y="945" style="font-family:'Noto Sans'">Transparence</text><path d="m455 986h195z" clip-path="url(#Initiatives Citoyennes Choletaisesw)" style="fill:none;stroke:#00b04c"/><text x="465" y="974" style="font-family:'Noto Sans'">Responsabilité démocratique</text><path d="m455 1015h169z" clip-path="url(#Initiatives Citoyennes Choletaisesap)" style="fill:none;stroke:#00b04c"/><text x="465" y="1003" style="font-family:'Noto Sans'">Valeurs éthiques (équité)</text><path d="m455 1044h240z" clip-path="url(#Initiatives Citoyennes Choletaisesbq)" style="fill:none;stroke:#00b04c"/><text x="465" y="1032" style="font-family:'Noto Sans'">Aide et développement international</text></svg>
