<svg width="305.69" height="410" preserveAspectRatio="xMidYMid meet" version="1.2" viewBox="0 0 305.69 410" xmlns="http://www.w3.org/2000/svg"><style type="text/css"><![CDATA[
text { font:12px Dialog; }
]]></style><clipPath><path d="m15 15h765v1030h-765zm247 527c0-11.934-12.957-23.379-36.027-31.82-23.066-8.4375-54.352-13.18-86.973-13.18s-63.906 4.7422-86.973 13.18c-23.07 8.4414-36.027 19.887-36.027 31.82 0 11.934 12.957 23.379 36.027 31.82 23.066 8.4375 54.352 13.18 86.973 13.18s63.906-4.7422 86.973-13.18c23.07-8.4414 36.027-19.887 36.027-31.82z"/></clipPath><clipPath><path d="m15 15h765v1030h-765zm247 527c0-11.934-12.957-23.379-36.027-31.82-23.066-8.4375-54.352-13.18-86.973-13.18s-63.906 4.7422-86.973 13.18c-23.07 8.4414-36.027 19.887-36.027 31.82 0 11.934 12.957 23.379 36.027 31.82 23.066 8.4375 54.352 13.18 86.973 13.18s63.906-4.7422 86.973-13.18c23.07-8.4414 36.027-19.887 36.027-31.82z"/></clipPath><clipPath><path d="m15 15h765v1030h-765zm247 527c0-11.934-12.957-23.379-36.027-31.82-23.066-8.4375-54.352-13.18-86.973-13.18s-63.906 4.7422-86.973 13.18c-23.07 8.4414-36.027 19.887-36.027 31.82 0 11.934 12.957 23.379 36.027 31.82 23.066 8.4375 54.352 13.18 86.973 13.18s63.906-4.7422 86.973-13.18c23.07-8.4414 36.027-19.887 36.027-31.82z"/></clipPath><clipPath><path d="m15 15h765v1030h-765zm247 527c0-11.934-12.957-23.379-36.027-31.82-23.066-8.4375-54.352-13.18-86.973-13.18s-63.906 4.7422-86.973 13.18c-23.07 8.4414-36.027 19.887-36.027 31.82 0 11.934 12.957 23.379 36.027 31.82 23.066 8.4375 54.352 13.18 86.973 13.18s63.906-4.7422 86.973-13.18c23.07-8.4414 36.027-19.887 36.027-31.82z"/></clipPath><clipPath><path d="m15 15h765v1030h-765zm247 527c0-11.934-12.957-23.379-36.027-31.82-23.066-8.4375-54.352-13.18-86.973-13.18s-63.906 4.7422-86.973 13.18c-23.07 8.4414-36.027 19.887-36.027 31.82 0 11.934 12.957 23.379 36.027 31.82 23.066 8.4375 54.352 13.18 86.973 13.18s63.906-4.7422 86.973-13.18c23.07-8.4414 36.027-19.887 36.027-31.82z"/></clipPath><clipPath><path d="m15 15h765v1030h-765zm247 527c0-11.934-12.957-23.379-36.027-31.82-23.066-8.4375-54.352-13.18-86.973-13.18s-63.906 4.7422-86.973 13.18c-23.07 8.4414-36.027 19.887-36.027 31.82 0 11.934 12.957 23.379 36.027 31.82 23.066 8.4375 54.352 13.18 86.973 13.18s63.906-4.7422 86.973-13.18c23.07-8.4414 36.027-19.887 36.027-31.82z"/></clipPath><clipPath><path d="m14 14h767v1032h-767z"/></clipPath><clipPath><path d="m14 495h251v95h-251z"/></clipPath><clipPath><path d="m14 495h251v95h-251z"/></clipPath><clipPath><path d="m295 15h251v144h-251zm6 64c-2.7617 0-5 2.2383-5 5v31c0 2.7617 2.2383 5 5 5h75c2.7617 0 5-2.2383 5-5v-31c0-2.7617-2.2383-5-5-5z"/></clipPath><clipPath><path d="m295 15h251v144h-251zm6 64c-2.7617 0-5 2.2383-5 5v31c0 2.7617 2.2383 5 5 5h75c2.7617 0 5-2.2383 5-5v-31c0-2.7617-2.2383-5-5-5z"/></clipPath><clipPath><path d="m295 15h251v144h-251zm6 64c-2.7617 0-5 2.2383-5 5v31c0 2.7617 2.2383 5 5 5h75c2.7617 0 5-2.2383 5-5v-31c0-2.7617-2.2383-5-5-5z"/></clipPath><clipPath><path d="m295 15h251v144h-251zm6 64c-2.7617 0-5 2.2383-5 5v31c0 2.7617 2.2383 5 5 5h75c2.7617 0 5-2.2383 5-5v-31c0-2.7617-2.2383-5-5-5z"/></clipPath><clipPath><path d="m295 15h251v144h-251zm6 64c-2.7617 0-5 2.2383-5 5v31c0 2.7617 2.2383 5 5 5h75c2.7617 0 5-2.2383 5-5v-31c0-2.7617-2.2383-5-5-5z"/></clipPath><clipPath><path d="m294 14h253v146h-253z"/></clipPath><clipPath><path d="m294 77h90v46h-90z"/></clipPath><clipPath><path d="m294 77h90v46h-90z"/></clipPath><clipPath><path d="m401 14h57v30h-57z"/></clipPath><clipPath><path d="m401 43h65v30h-65z"/></clipPath><clipPath><path d="m401 72h64v30h-64z"/></clipPath><clipPath><path d="m401 101h146v30h-146z"/></clipPath><clipPath><path d="m401 130h99v30h-99z"/></clipPath><clipPath><path d="m295 169h348v173h-348zm6 78c-2.7617 0-5 2.2383-5 5v31c0 2.7617 2.2383 5 5 5h143c2.7617 0 5-2.2383 5-5v-31c0-2.7617-2.2383-5-5-5z"/></clipPath><clipPath><path d="m295 169h348v173h-348zm6 78c-2.7617 0-5 2.2383-5 5v31c0 2.7617 2.2383 5 5 5h143c2.7617 0 5-2.2383 5-5v-31c0-2.7617-2.2383-5-5-5z"/></clipPath><clipPath><path d="m295 169h348v173h-348zm6 78c-2.7617 0-5 2.2383-5 5v31c0 2.7617 2.2383 5 5 5h143c2.7617 0 5-2.2383 5-5v-31c0-2.7617-2.2383-5-5-5z"/></clipPath><clipPath><path d="m295 169h348v173h-348zm6 78c-2.7617 0-5 2.2383-5 5v31c0 2.7617 2.2383 5 5 5h143c2.7617 0 5-2.2383 5-5v-31c0-2.7617-2.2383-5-5-5z"/></clipPath><clipPath><path d="m295 169h348v173h-348zm6 78c-2.7617 0-5 2.2383-5 5v31c0 2.7617 2.2383 5 5 5h143c2.7617 0 5-2.2383 5-5v-31c0-2.7617-2.2383-5-5-5z"/></clipPath><clipPath><path d="m295 169h348v173h-348zm6 78c-2.7617 0-5 2.2383-5 5v31c0 2.7617 2.2383 5 5 5h143c2.7617 0 5-2.2383 5-5v-31c0-2.7617-2.2383-5-5-5z"/></clipPath><clipPath><path d="m294 168h350v175h-350z"/></clipPath><clipPath><path d="m294 245h158v46h-158z"/></clipPath><clipPath><path d="m294 245h158v46h-158z"/></clipPath><clipPath><path d="m469 168h61v30h-61z"/></clipPath><clipPath><path d="m469 197h73v30h-73z"/></clipPath><clipPath><path d="m469 226h156v30h-156z"/></clipPath><clipPath><path d="m469 255h121v30h-121z"/></clipPath><clipPath><path d="m469 284h86v30h-86z"/></clipPath><clipPath><path d="m469 313h175v30h-175z"/></clipPath><clipPath><path d="m295 352h353v202h-353zm6 93c-2.7617 0-5 2.2383-5 5v31c0 2.7617 2.2383 5 5 5h143c2.7617 0 5-2.2383 5-5v-31c0-2.7617-2.2383-5-5-5z"/></clipPath><clipPath><path d="m295 352h353v202h-353zm6 93c-2.7617 0-5 2.2383-5 5v31c0 2.7617 2.2383 5 5 5h143c2.7617 0 5-2.2383 5-5v-31c0-2.7617-2.2383-5-5-5z"/></clipPath><clipPath><path d="m295 352h353v202h-353zm6 93c-2.7617 0-5 2.2383-5 5v31c0 2.7617 2.2383 5 5 5h143c2.7617 0 5-2.2383 5-5v-31c0-2.7617-2.2383-5-5-5z"/></clipPath><clipPath><path d="m295 352h353v202h-353zm6 93c-2.7617 0-5 2.2383-5 5v31c0 2.7617 2.2383 5 5 5h143c2.7617 0 5-2.2383 5-5v-31c0-2.7617-2.2383-5-5-5z"/></clipPath><clipPath><path d="m295 352h353v202h-353zm6 93c-2.7617 0-5 2.2383-5 5v31c0 2.7617 2.2383 5 5 5h143c2.7617 0 5-2.2383 5-5v-31c0-2.7617-2.2383-5-5-5z"/></clipPath><clipPath><path d="m295 352h353v202h-353zm6 93c-2.7617 0-5 2.2383-5 5v31c0 2.7617 2.2383 5 5 5h143c2.7617 0 5-2.2383 5-5v-31c0-2.7617-2.2383-5-5-5z"/></clipPath><clipPath><path d="m295 352h353v202h-353zm6 93c-2.7617 0-5 2.2383-5 5v31c0 2.7617 2.2383 5 5 5h143c2.7617 0 5-2.2383 5-5v-31c0-2.7617-2.2383-5-5-5z"/></clipPath><clipPath><path d="m294 351h355v204h-355z"/></clipPath><clipPath><path d="m294 443h158v46h-158z"/></clipPath><clipPath><path d="m294 443h158v46h-158z"/></clipPath><clipPath><path d="m469 351h180v30h-180z"/></clipPath><clipPath><path d="m469 380h177v30h-177z"/></clipPath><clipPath><path d="m469 409h48v30h-48z"/></clipPath><clipPath><path d="m469 438h160v30h-160z"/></clipPath><clipPath><path d="m469 467h44v30h-44z"/></clipPath><clipPath><path d="m469 496h97v30h-97z"/></clipPath><clipPath><path d="m469 525h161v30h-161z"/></clipPath><clipPath><path d="m295 564h274v173h-274zm6 78c-2.7617 0-5 2.2383-5 5v31c0 2.7617 2.2383 5 5 5h64c2.7617 0 5-2.2383 5-5v-31c0-2.7617-2.2383-5-5-5z"/></clipPath><clipPath><path d="m295 564h274v173h-274zm6 78c-2.7617 0-5 2.2383-5 5v31c0 2.7617 2.2383 5 5 5h64c2.7617 0 5-2.2383 5-5v-31c0-2.7617-2.2383-5-5-5z"/></clipPath><clipPath><path d="m295 564h274v173h-274zm6 78c-2.7617 0-5 2.2383-5 5v31c0 2.7617 2.2383 5 5 5h64c2.7617 0 5-2.2383 5-5v-31c0-2.7617-2.2383-5-5-5z"/></clipPath><clipPath><path d="m295 564h274v173h-274zm6 78c-2.7617 0-5 2.2383-5 5v31c0 2.7617 2.2383 5 5 5h64c2.7617 0 5-2.2383 5-5v-31c0-2.7617-2.2383-5-5-5z"/></clipPath><clipPath><path d="m295 564h274v173h-274zm6 78c-2.7617 0-5 2.2383-5 5v31c0 2.7617 2.2383 5 5 5h64c2.7617 0 5-2.2383 5-5v-31c0-2.7617-2.2383-5-5-5z"/></clipPath><clipPath><path d="m295 564h274v173h-274zm6 78c-2.7617 0-5 2.2383-5 5v31c0 2.7617 2.2383 5 5 5h64c2.7617 0 5-2.2383 5-5v-31c0-2.7617-2.2383-5-5-5z"/></clipPath><clipPath><path d="m294 563h276v175h-276z"/></clipPath><clipPath><path d="m294 640h79v46h-79z"/></clipPath><clipPath><path d="m294 640h79v46h-79z"/></clipPath><clipPath><path d="m390 563h74v30h-74z"/></clipPath><clipPath><path d="m390 592h81v30h-81z"/></clipPath><clipPath><path d="m390 621h111v30h-111z"/></clipPath><clipPath><path d="m390 650h101v30h-101z"/></clipPath><clipPath><path d="m390 679h180v30h-180z"/></clipPath><clipPath><path d="m390 708h177v30h-177z"/></clipPath><clipPath><path d="m295 747h370v144h-370zm6 64c-2.7617 0-5 2.2383-5 5v31c0 2.7617 2.2383 5 5 5h96c2.7617 0 5-2.2383 5-5v-31c0-2.7617-2.2383-5-5-5z"/></clipPath><clipPath><path d="m295 747h370v144h-370zm6 64c-2.7617 0-5 2.2383-5 5v31c0 2.7617 2.2383 5 5 5h96c2.7617 0 5-2.2383 5-5v-31c0-2.7617-2.2383-5-5-5z"/></clipPath><clipPath><path d="m295 747h370v144h-370zm6 64c-2.7617 0-5 2.2383-5 5v31c0 2.7617 2.2383 5 5 5h96c2.7617 0 5-2.2383 5-5v-31c0-2.7617-2.2383-5-5-5z"/></clipPath><clipPath><path d="m295 747h370v144h-370zm6 64c-2.7617 0-5 2.2383-5 5v31c0 2.7617 2.2383 5 5 5h96c2.7617 0 5-2.2383 5-5v-31c0-2.7617-2.2383-5-5-5z"/></clipPath><clipPath><path d="m295 747h370v144h-370zm6 64c-2.7617 0-5 2.2383-5 5v31c0 2.7617 2.2383 5 5 5h96c2.7617 0 5-2.2383 5-5v-31c0-2.7617-2.2383-5-5-5z"/></clipPath><clipPath><path d="m294 746h372v146h-372z"/></clipPath><clipPath><path d="m294 809h111v46h-111z"/></clipPath><clipPath><path d="m294 809h111v46h-111z"/></clipPath><clipPath><path d="m422 746h219v30h-219z"/></clipPath><clipPath><path d="m422 775h111v30h-111z"/></clipPath><clipPath><path d="m422 804h79v30h-79z"/></clipPath><clipPath><path d="m422 833h244v30h-244z"/></clipPath><clipPath><path d="m422 862h203v30h-203z"/></clipPath><clipPath><path d="m295 901h485v144h-485zm6 64c-2.7617 0-5 2.2383-5 5v31c0 2.7617 2.2383 5 5 5h127c2.7617 0 5-2.2383 5-5v-31c0-2.7617-2.2383-5-5-5z"/></clipPath><clipPath><path d="m295 901h485v144h-485zm6 64c-2.7617 0-5 2.2383-5 5v31c0 2.7617 2.2383 5 5 5h127c2.7617 0 5-2.2383 5-5v-31c0-2.7617-2.2383-5-5-5z"/></clipPath><clipPath><path d="m295 901h485v144h-485zm6 64c-2.7617 0-5 2.2383-5 5v31c0 2.7617 2.2383 5 5 5h127c2.7617 0 5-2.2383 5-5v-31c0-2.7617-2.2383-5-5-5z"/></clipPath><clipPath><path d="m295 901h485v144h-485zm6 64c-2.7617 0-5 2.2383-5 5v31c0 2.7617 2.2383 5 5 5h127c2.7617 0 5-2.2383 5-5v-31c0-2.7617-2.2383-5-5-5z"/></clipPath><clipPath><path d="m295 901h485v144h-485zm6 64c-2.7617 0-5 2.2383-5 5v31c0 2.7617 2.2383 5 5 5h127c2.7617 0 5-2.2383 5-5v-31c0-2.7617-2.2383-5-5-5z"/></clipPath><clipPath><path d="m294 900h487v146h-487z"/></clipPath><clipPath><path d="m294 963h142v46h-142z"/></clipPath><clipPath><path d="m294 963h142v46h-142z"/></clipPath><clipPath><path d="m453 900h328v30h-328z"/></clipPath><clipPath><path d="m453 929h107v30h-107z"/></clipPath><clipPath><path d="m453 958h200v30h-200z"/></clipPath><clipPath><path d="m453 987h174v30h-174z"/></clipPath><clipPath><path d="m453 1016h245v30h-245z"/></clipPath><g transform="matrix(.39344 0 0 .39344 -3.2549 -4.7664)"><path d="m276.49 541.82v-433.61c0-4.418 3.5859-8 8-8h11.512v-1h-16.512c-4.4141 0-8 3.582-8 8v434.61z" clip-path="url(#Initiatives%20Citoyennes%20Choletaisesx)" style="fill:#017c98"/><path d="m276.49 541.82v-265.44c0-4.4141 3.5859-8 8-8h11.512v-1h-16.512c-4.4141 0-8 3.5859-8 8v266.44z" clip-path="url(#Initiatives%20Citoyennes%20Choletaisesai)" style="fill:#00b2a1"/><path d="m276.49 541.82v-67.441c0-4.4141 3.5859-8 8-8h11.512v-1h-16.512c-4.4141 0-8 3.5859-8 8v68.441z" clip-path="url(#Initiatives%20Citoyennes%20Choletaisesau)" style="fill:#fd0"/><path d="m271.49 541.82v113.36c0 4.418 3.5859 8 8 8h16.512v-1h-11.512c-4.4141 0-8-3.582-8-8v-112.36z" clip-path="url(#Initiatives%20Citoyennes%20Choletaisesbf)" style="fill:#fc8f00"/><path d="m271.49 541.82v282.44c0 4.4141 3.5859 8 8 8h16.512v-1h-11.512c-4.4141 0-8-3.5859-8-8v-281.44z" clip-path="url(#Initiatives%20Citoyennes%20Choletaisesbr)" style="fill:#ff1500"/><path d="m271.49 541.82v436.52c0 4.418 3.5859 8 8 8h16.512v-1h-11.512c-4.4141 0-8-3.582-8-8v-435.52z" clip-path="url(#Initiatives%20Citoyennes%20Choletaisescc)" style="fill:#00b04c"/><path d="m263.99 541.88 10-0.0508" clip-path="url(#Initiatives%20Citoyennes%20Choletaisescn)" style="fill:none;stroke:#808080"/><path d="m262 542c0-11.934-12.957-23.379-36.027-31.82-23.066-8.4375-54.352-13.18-86.973-13.18s-63.906 4.7422-86.973 13.18c-23.07 8.4414-36.027 19.887-36.027 31.82 0 11.934 12.957 23.379 36.027 31.82 23.066 8.4375 54.352 13.18 86.973 13.18s63.906-4.7422 86.973-13.18c23.07-8.4414 36.027-19.887 36.027-31.82z" clip-path="url(#Initiatives%20Citoyennes%20Choletaisesh)" style="fill-opacity:.69804;fill:#adf3a3"/><path d="m262 542c0-11.934-12.957-23.379-36.027-31.82-23.066-8.4375-54.352-13.18-86.973-13.18s-63.906 4.7422-86.973 13.18c-23.07 8.4414-36.027 19.887-36.027 31.82 0 11.934 12.957 23.379 36.027 31.82 23.066 8.4375 54.352 13.18 86.973 13.18s63.906-4.7422 86.973-13.18c23.07-8.4414 36.027-19.887 36.027-31.82z" clip-path="url(#Initiatives%20Citoyennes%20Choletaisess)" style="fill:none;stroke:#808080"/><text x="73.554565" y="549" style="font-family:'Noto Sans';font-size:12px;font-weight:bold;line-height:normal"><tspan style="font-family:'Noto Sans';font-size:18.667px;font-weight:bold">Menu durable</tspan></text><path d="m394 99.777v-57.777h9" clip-path="url(#Initiatives%20Citoyennes%20Choletaisesy)" style="fill:none;stroke:#017c98"/><path d="m394 99.777v-28.777h9" clip-path="url(#Initiatives%20Citoyennes%20Choletaisesz)" style="fill:none;stroke:#017c98"/><path d="m394 99.777v0.22266h9" clip-path="url(#Initiatives%20Citoyennes%20Choletaisesaa)" style="fill:none;stroke:#017c98"/><path d="m394 99.777v29.223h9" clip-path="url(#Initiatives%20Citoyennes%20Choletaisesab)" style="fill:none;stroke:#017c98"/><path d="m394 99.777v58.223h9" clip-path="url(#Initiatives%20Citoyennes%20Choletaisesac)" style="fill:none;stroke:#017c98"/><path d="m381 99.711 13 0.06641" clip-path="url(#Initiatives%20Citoyennes%20Choletaisesad)" style="fill:none;stroke:#017c98"/><path d="m301 79c-2.7617 0-5 2.2383-5 5v31c0 2.7617 2.2383 5 5 5h75c2.7617 0 5-2.2383 5-5v-31c0-2.7617-2.2383-5-5-5z" clip-path="url(#Initiatives%20Citoyennes%20Choletaisesae)" style="fill:#c2d6f1"/><path d="m301 79c-2.7617 0-5 2.2383-5 5v31c0 2.7617 2.2383 5 5 5h75c2.7617 0 5-2.2383 5-5v-31c0-2.7617-2.2383-5-5-5z" clip-path="url(#Initiatives%20Citoyennes%20Choletaisesaf)" style="fill:none;stroke:#017c98"/><text x="309" y="103.076" style="font-family:'Noto Sans';font-size:12px;line-height:normal">Qualité</text><path d="m403 42h52z" clip-path="url(#Initiatives%20Citoyennes%20Choletaisesag)" style="fill:none;stroke:#017c98"/><text x="413" y="31" style="font-family:'Noto Sans';font-size:12px;line-height:normal">Goût</text><path d="m403 71h60z" clip-path="url(#Initiatives%20Citoyennes%20Choletaisesah)" style="fill:none;stroke:#017c98"/><text x="413" y="60" style="font-family:'Noto Sans';font-size:12px;line-height:normal">Saison</text><path d="m403 100h59z" clip-path="url(#Initiatives%20Citoyennes%20Choletaisesaj)" style="fill:none;stroke:#017c98"/><text x="413" y="89" style="font-family:'Noto Sans';font-size:12px;line-height:normal">Attrait</text><path d="m403 129h141z" clip-path="url(#Initiatives%20Citoyennes%20Choletaisesak)" style="fill:none;stroke:#017c98"/><text x="413" y="118" style="font-family:'Noto Sans';font-size:12px;line-height:normal">Fraicheur si possible</text><path d="m403 158h94z" clip-path="url(#Initiatives%20Citoyennes%20Choletaisesal)" style="fill:none;stroke:#017c98"/><text x="413" y="147" style="font-family:'Noto Sans';font-size:12px;line-height:normal">Authenticité</text><path d="m462 267.95v-71.945h9" clip-path="url(#Initiatives%20Citoyennes%20Choletaisesam)" style="fill:none;stroke:#00b2a1"/><path d="m462 267.95v-42.945h9" clip-path="url(#Initiatives%20Citoyennes%20Choletaisesan)" style="fill:none;stroke:#00b2a1"/><path d="m462 267.95v-13.945h9" clip-path="url(#Initiatives%20Citoyennes%20Choletaisesao)" style="fill:none;stroke:#00b2a1"/><path d="m462 267.95v15.055h9" clip-path="url(#Initiatives%20Citoyennes%20Choletaisesaq)" style="fill:none;stroke:#00b2a1"/><path d="m462 267.95v44.055h9" clip-path="url(#Initiatives%20Citoyennes%20Choletaisesar)" style="fill:none;stroke:#00b2a1"/><path d="m462 267.95v73.055h9" clip-path="url(#Initiatives%20Citoyennes%20Choletaisesas)" style="fill:none;stroke:#00b2a1"/><path d="m449 267.88 13 0.0664" clip-path="url(#Initiatives%20Citoyennes%20Choletaisesat)" style="fill:none;stroke:#00b2a1"/><path d="m301 247c-2.7617 0-5 2.2383-5 5v31c0 2.7617 2.2383 5 5 5h143c2.7617 0 5-2.2383 5-5v-31c0-2.7617-2.2383-5-5-5z" clip-path="url(#Initiatives%20Citoyennes%20Choletaisesav)" style="fill:#c2d6f1"/><path d="m301 247c-2.7617 0-5 2.2383-5 5v31c0 2.7617 2.2383 5 5 5h143c2.7617 0 5-2.2383 5-5v-31c0-2.7617-2.2383-5-5-5z" clip-path="url(#Initiatives%20Citoyennes%20Choletaisesaw)" style="fill:none;stroke:#00b2a1"/><text x="309" y="272" style="font-family:'Noto Sans';font-size:12px;line-height:normal">Valeurs sociales</text><path d="m471 196h56z" clip-path="url(#Initiatives%20Citoyennes%20Choletaisesax)" style="fill:none;stroke:#00b2a1"/><text x="481" y="185" style="font-family:'Noto Sans';font-size:12px;line-height:normal">Plaisir</text><path d="m471 225h68z" clip-path="url(#Initiatives%20Citoyennes%20Choletaisesay)" style="fill:none;stroke:#00b2a1"/><text x="481" y="214" style="font-family:'Noto Sans';font-size:12px;line-height:normal">Identité</text><path d="m471 254h151z" clip-path="url(#Initiatives%20Citoyennes%20Choletaisesaz)" style="fill:none;stroke:#00b2a1"/><text x="481" y="243" style="font-family:'Noto Sans';font-size:12px;line-height:normal">Bientraitance animale</text><path d="m471 283h116z" clip-path="url(#Initiatives%20Citoyennes%20Choletaisesba)" style="fill:none;stroke:#00b2a1"/><text x="481" y="272" style="font-family:'Noto Sans';font-size:12px;line-height:normal">Égalité et justice</text><path d="m471 312h81z" clip-path="url(#Initiatives%20Citoyennes%20Choletaisesbb)" style="fill:none;stroke:#00b2a1"/><text x="481" y="301" style="font-family:'Noto Sans';font-size:12px;line-height:normal">Confiance</text><path d="m471 341h170z" clip-path="url(#Initiatives%20Citoyennes%20Choletaisesbc)" style="fill:none;stroke:#00b2a1"/><text x="481" y="330" style="font-family:'Noto Sans';font-size:12px;line-height:normal">Aptitude à la citoyenneté</text><path d="m462 465.95v-86.945h9" clip-path="url(#Initiatives%20Citoyennes%20Choletaisesbd)" style="fill:none;stroke:#fd0"/><path d="m462 465.95v-57.945h9" clip-path="url(#Initiatives%20Citoyennes%20Choletaisesbe)" style="fill:none;stroke:#fd0"/><path d="m462 465.95v-28.945h9" clip-path="url(#Initiatives%20Citoyennes%20Choletaisesbg)" style="fill:none;stroke:#fd0"/><path d="m462 465.95v0.0547h9" clip-path="url(#Initiatives%20Citoyennes%20Choletaisesbh)" style="fill:none;stroke:#fd0"/><path d="m462 465.95v29.055h9" clip-path="url(#Initiatives%20Citoyennes%20Choletaisesbi)" style="fill:none;stroke:#fd0"/><path d="m462 465.95v58.055h9" clip-path="url(#Initiatives%20Citoyennes%20Choletaisesbj)" style="fill:none;stroke:#fd0"/><path d="m462 465.95v87.055h9" clip-path="url(#Initiatives%20Citoyennes%20Choletaisesbk)" style="fill:none;stroke:#fd0"/><path d="m449 465.88 13 0.0664" clip-path="url(#Initiatives%20Citoyennes%20Choletaisesbl)" style="fill:none;stroke:#fd0"/><path d="m301 445c-2.7617 0-5 2.2383-5 5v31c0 2.7617 2.2383 5 5 5h143c2.7617 0 5-2.2383 5-5v-31c0-2.7617-2.2383-5-5-5z" clip-path="url(#Initiatives%20Citoyennes%20Choletaisesbm)" style="fill:#c2d6f1"/><path d="m301 445c-2.7617 0-5 2.2383-5 5v31c0 2.7617 2.2383 5 5 5h143c2.7617 0 5-2.2383 5-5v-31c0-2.7617-2.2383-5-5-5z" clip-path="url(#Initiatives%20Citoyennes%20Choletaisesbn)" style="fill:none;stroke:#fd0"/><text x="309" y="469.862" style="font-family:'Noto Sans';font-size:12px;line-height:normal">Environnement</text><path d="m471 379h175z" clip-path="url(#Initiatives%20Citoyennes%20Choletaisesbo)" style="fill:none;stroke:#fd0"/><text x="481" y="368" style="font-family:'Noto Sans';font-size:12px;line-height:normal">Changements climatiques</text><path d="m471 408h172z" clip-path="url(#Initiatives%20Citoyennes%20Choletaisesbp)" style="fill:none;stroke:#fd0"/><text x="481" y="397" style="font-family:'Noto Sans';font-size:12px;line-height:normal">Consommation d'énergie</text><path d="m471 437h43z" clip-path="url(#Initiatives%20Citoyennes%20Choletaisesbs)" style="fill:none;stroke:#fd0"/><text x="481" y="426" style="font-family:'Noto Sans';font-size:12px;line-height:normal">Eau</text><path d="m471 466h155z" clip-path="url(#Initiatives%20Citoyennes%20Choletaisesbt)" style="fill:none;stroke:#fd0"/><text x="481" y="455" style="font-family:'Noto Sans';font-size:12px;line-height:normal">Exploitation des terres</text><path d="m471 495h39z" clip-path="url(#Initiatives%20Citoyennes%20Choletaisesbu)" style="fill:none;stroke:#fd0"/><text x="481" y="484" style="font-family:'Noto Sans';font-size:12px;line-height:normal">Sol</text><path d="m471 524h92z" clip-path="url(#Initiatives%20Citoyennes%20Choletaisesbv)" style="fill:none;stroke:#fd0"/><text x="481" y="513" style="font-family:'Noto Sans';font-size:12px;line-height:normal">Biodiversité</text><path d="m471 553h156z" clip-path="url(#Initiatives%20Citoyennes%20Choletaisesbw)" style="fill:none;stroke:#fd0"/><text x="481" y="542" style="font-family:'Noto Sans';font-size:12px;line-height:normal">Réduction des déchets</text><path d="m383 662.75v-71.75h9" clip-path="url(#Initiatives%20Citoyennes%20Choletaisesbx)" style="fill:none;stroke:#fc8f00"/><path d="m383 662.75v-42.75h9" clip-path="url(#Initiatives%20Citoyennes%20Choletaisesby)" style="fill:none;stroke:#fc8f00"/><path d="m383 662.75v-13.75h9" clip-path="url(#Initiatives%20Citoyennes%20Choletaisesbz)" style="fill:none;stroke:#fc8f00"/><path d="m383 662.75v15.25h9" clip-path="url(#Initiatives%20Citoyennes%20Choletaisesca)" style="fill:none;stroke:#fc8f00"/><path d="m383 662.75v44.25h9" clip-path="url(#Initiatives%20Citoyennes%20Choletaisescb)" style="fill:none;stroke:#fc8f00"/><path d="m383 662.75v73.25h9" clip-path="url(#Initiatives%20Citoyennes%20Choletaisescd)" style="fill:none;stroke:#fc8f00"/><path d="m370 662.68 13 0.0664" clip-path="url(#Initiatives%20Citoyennes%20Choletaisesce)" style="fill:none;stroke:#fc8f00"/><path d="m301 642c-2.7617 0-5 2.2383-5 5v31c0 2.7617 2.2383 5 5 5h64c2.7617 0 5-2.2383 5-5v-31c0-2.7617-2.2383-5-5-5z" clip-path="url(#Initiatives%20Citoyennes%20Choletaisescf)" style="fill:#c2d6f1"/><path d="m301 642c-2.7617 0-5 2.2383-5 5v31c0 2.7617 2.2383 5 5 5h64c2.7617 0 5-2.2383 5-5v-31c0-2.7617-2.2383-5-5-5z" clip-path="url(#Initiatives%20Citoyennes%20Choletaisescg)" style="fill:none;stroke:#fc8f00"/><text x="309" y="667.03601" style="font-family:'Noto Sans';font-size:12px;line-height:normal">Santé</text><path d="m392 591h69z" clip-path="url(#Initiatives%20Citoyennes%20Choletaisesch)" style="fill:none;stroke:#fc8f00"/><text x="402" y="579" style="font-family:'Noto Sans';font-size:12px;line-height:normal">Sécurité</text><path d="m392 620h76z" clip-path="url(#Initiatives%20Citoyennes%20Choletaisesci)" style="fill:none;stroke:#fc8f00"/><text x="402" y="608" style="font-family:'Noto Sans';font-size:12px;line-height:normal">Nutrition</text><path d="m392 649h106z" clip-path="url(#Initiatives%20Citoyennes%20Choletaisescj)" style="fill:none;stroke:#fc8f00"/><text x="402" y="637" style="font-family:'Noto Sans';font-size:12px;line-height:normal">Égalité d'accès</text><path d="m392 678h96z" clip-path="url(#Initiatives%20Citoyennes%20Choletaisesck)" style="fill:none;stroke:#fc8f00"/><text x="402" y="666" style="font-family:'Noto Sans';font-size:12px;line-height:normal">Disponibilité</text><path d="m392 707h175z" clip-path="url(#Initiatives%20Citoyennes%20Choletaisescl)" style="fill:none;stroke:#fc8f00"/><text x="402" y="695" style="font-family:'Noto Sans';font-size:12px;line-height:normal">Statut social / accessibilité</text><path d="m392 736h172z" clip-path="url(#Initiatives%20Citoyennes%20Choletaisescm)" style="fill:none;stroke:#fc8f00"/><text x="402" y="724" style="font-family:'Noto Sans';font-size:12px;line-height:normal">Information et éducation</text><path d="m415 831.83v-57.828h9" clip-path="url(#Initiatives%20Citoyennes%20Choletaisesco)" style="fill:none;stroke:#ff1500"/><path d="m415 831.83v-28.828h9" clip-path="url(#Initiatives%20Citoyennes%20Choletaisescp)" style="fill:none;stroke:#ff1500"/><path d="m415 831.83v0.17188h9" clip-path="url(#Initiatives%20Citoyennes%20Choletaisescq)" style="fill:none;stroke:#ff1500"/><path d="m415 831.83v29.172h9" clip-path="url(#Initiatives%20Citoyennes%20Choletaisesa)" style="fill:none;stroke:#ff1500"/><path d="m415 831.83v58.172h9" clip-path="url(#Initiatives%20Citoyennes%20Choletaisesb)" style="fill:none;stroke:#ff1500"/><path d="m402 831.77 13 0.0625" clip-path="url(#Initiatives%20Citoyennes%20Choletaisesc)" style="fill:none;stroke:#ff1500"/><path d="m301 811c-2.7617 0-5 2.2383-5 5v31c0 2.7617 2.2383 5 5 5h96c2.7617 0 5-2.2383 5-5v-31c0-2.7617-2.2383-5-5-5z" clip-path="url(#Initiatives%20Citoyennes%20Choletaisesd)" style="fill:#c2d6f1"/><path d="m301 811c-2.7617 0-5 2.2383-5 5v31c0 2.7617 2.2383 5 5 5h96c2.7617 0 5-2.2383 5-5v-31c0-2.7617-2.2383-5-5-5z" clip-path="url(#Initiatives%20Citoyennes%20Choletaisese)" style="fill:none;stroke:#ff1500"/><text x="309" y="837.104" style="font-family:'Noto Sans';font-size:12px;line-height:normal">Économie</text><path d="m424 774h214z" clip-path="url(#Initiatives%20Citoyennes%20Choletaisesf)" style="fill:none;stroke:#ff1500"/><text x="434" y="762" style="font-family:'Noto Sans';font-size:12px;line-height:normal">Résilience et sécurité alimentaire</text><path d="m424 803h106z" clip-path="url(#Initiatives%20Citoyennes%20Choletaisesg)" style="fill:none;stroke:#ff1500"/><text x="434" y="791" style="font-family:'Noto Sans';font-size:12px;line-height:normal">Prix accessible</text><path d="m424 832h74z" clip-path="url(#Initiatives%20Citoyennes%20Choletaisesi)" style="fill:none;stroke:#ff1500"/><text x="434" y="820" style="font-family:'Noto Sans';font-size:12px;line-height:normal">Efficacité</text><path d="m424 861h239z" clip-path="url(#Initiatives%20Citoyennes%20Choletaisesj)" style="fill:none;stroke:#ff1500"/><text x="434" y="849" style="font-family:'Noto Sans';font-size:12px;line-height:normal">Concurrence loyale et revenus justes</text><path d="m424 890h198z" clip-path="url(#Initiatives%20Citoyennes%20Choletaisesk)" style="fill:none;stroke:#ff1500"/><text x="434" y="878" style="font-family:'Noto Sans';font-size:12px;line-height:normal">Coûts pleinement internalisés</text><path d="m446 985.91v-57.906h9" clip-path="url(#Initiatives%20Citoyennes%20Choletaisesl)" style="fill:none;stroke:#00b04c"/><path d="m446 985.91v-28.906h9" clip-path="url(#Initiatives%20Citoyennes%20Choletaisesm)" style="fill:none;stroke:#00b04c"/><path d="m446 985.91v0.0937h9" clip-path="url(#Initiatives%20Citoyennes%20Choletaisesn)" style="fill:none;stroke:#00b04c"/><path d="m446 985.91v29.094h9" clip-path="url(#Initiatives%20Citoyennes%20Choletaiseso)" style="fill:none;stroke:#00b04c"/><path d="m446 985.91v58.094h9" clip-path="url(#Initiatives%20Citoyennes%20Choletaisesp)" style="fill:none;stroke:#00b04c"/><path d="m433 985.84 13 0.0664" clip-path="url(#Initiatives%20Citoyennes%20Choletaisesq)" style="fill:none;stroke:#00b04c"/><path d="m301 965c-2.7617 0-5 2.2383-5 5v31c0 2.7617 2.2383 5 5 5h127c2.7617 0 5-2.2383 5-5v-31c0-2.7617-2.2383-5-5-5z" clip-path="url(#Initiatives%20Citoyennes%20Choletaisesr)" style="fill:#c2d6f1"/><path d="m301 965c-2.7617 0-5 2.2383-5 5v31c0 2.7617 2.2383 5 5 5h127c2.7617 0 5-2.2383 5-5v-31c0-2.7617-2.2383-5-5-5z" clip-path="url(#Initiatives%20Citoyennes%20Choletaisest)" style="fill:none;stroke:#00b04c"/><text x="309" y="989.784" style="font-family:'Noto Sans';font-size:12px;line-height:normal">Gouvernance</text><path d="m455 928h323z" clip-path="url(#Initiatives%20Citoyennes%20Choletaisesu)" style="fill:none;stroke:#00b04c"/><text x="465" y="916" style="font-family:'Noto Sans';font-size:12px;line-height:normal">Données scientifiques et technologiques factuelles</text><path d="m455 957h102z" clip-path="url(#Initiatives%20Citoyennes%20Choletaisesv)" style="fill:none;stroke:#00b04c"/><text x="465" y="945" style="font-family:'Noto Sans';font-size:12px;line-height:normal">Transparence</text><path d="m455 986h195z" clip-path="url(#Initiatives%20Citoyennes%20Choletaisesw)" style="fill:none;stroke:#00b04c"/><text x="465" y="974" style="font-family:'Noto Sans';font-size:12px;line-height:normal">Responsabilité démocratique</text><path d="m455 1015h169z" clip-path="url(#Initiatives%20Citoyennes%20Choletaisesap)" style="fill:none;stroke:#00b04c"/><text x="465" y="1003" style="font-family:'Noto Sans';font-size:12px;line-height:normal">Valeurs éthiques (équité)</text><path d="m455 1044h240z" clip-path="url(#Initiatives%20Citoyennes%20Choletaisesbq)" style="fill:none;stroke:#00b04c"/><text x="465" y="1032" style="font-family:'Noto Sans';font-size:12px;line-height:normal">Aide et développement international</text></g></svg>
