<?xml version="1.0" encoding="UTF-8" standalone="no"?>
<!-- Created with Inkscape (http://www.inkscape.org/) -->

<svg
   width="520"
   height="230"
   viewBox="0 0 137.58333 60.854168"
   version="1.1"
   id="svg5"
   inkscape:version="1.1.2 (0a00cf5339, 2022-02-04)"
   sodipodi:docname="Cholet autrement (vectorisé).svg"
   xmlns:inkscape="http://www.inkscape.org/namespaces/inkscape"
   xmlns:sodipodi="http://sodipodi.sourceforge.net/DTD/sodipodi-0.dtd"
   xmlns="http://www.w3.org/2000/svg"
   xmlns:svg="http://www.w3.org/2000/svg">
  <sodipodi:namedview
     id="namedview7"
     pagecolor="#ffffff"
     bordercolor="#666666"
     borderopacity="1.0"
     inkscape:pageshadow="2"
     inkscape:pageopacity="0.0"
     inkscape:pagecheckerboard="0"
     inkscape:document-units="mm"
     showgrid="false"
     inkscape:zoom="0.97638868"
     inkscape:cx="257.58185"
     inkscape:cy="131.60743"
     inkscape:window-width="1920"
     inkscape:window-height="1017"
     inkscape:window-x="0"
     inkscape:window-y="33"
     inkscape:window-maximized="1"
     inkscape:current-layer="layer1"
     showguides="true"
     inkscape:guide-bbox="true"
     units="px"
     fit-margin-top="5"
     fit-margin-left="5"
     fit-margin-right="5"
     fit-margin-bottom="5"
     inkscape:showpageshadow="false" />
  <defs
     id="defs2" />
  <g
     inkscape:label="Calque 1"
     inkscape:groupmode="layer"
     id="layer1"
     transform="translate(-23.106418,-62.788277)">
    <path
       style="fill:#f39a00;fill-opacity:1;stroke-width:0.316172"
       d="m 46.759604,77.604137 c -0.795928,-1.92288 -1.747413,-8.379841 -1.130698,-10.322122 0.245763,-0.343038 6.739476,-3.315498 6.902592,-3.165321 -1.046294,4.682005 -0.769762,8.747489 -0.01253,12.37232 -2.906785,0.128086 -4.350878,0.597952 -5.759365,1.115123 z"
       id="path58668" />
    <path
       style="fill:#a9c606;fill-opacity:1;stroke-width:0.316172"
       d="m 28.212676,78.402842 c 2.501257,-1.466901 3.722149,-2.525506 5.058304,-3.464512 1.842941,2.958492 4.16908,5.645335 6.700524,7.54055 -1.469466,1.519802 -2.553948,4.27512 -3.01903,5.619975 -4.372385,-3.832911 -6.214437,-5.103295 -8.739798,-9.696013 z"
       id="path1030" />
    <path
       style="fill:#008fd3;fill-opacity:1;stroke:none;stroke-width:0.316172"
       d="m 32.449025,113.36289 c 4.472724,-2.22907 5.854039,-3.2253 9.038081,-7.84651 0.803827,1.116 2.691453,2.05086 4.499615,2.97204 -2.12473,4.07902 -4.249489,5.88464 -7.246129,8.33966 -2.447225,-0.98374 -4.222152,-1.85345 -6.291567,-3.46519 z"
       id="path1026"
       sodipodi:nodetypes="ccccc" />
    <path
       style="fill:#824490;fill-opacity:1;stroke:none;stroke-width:0.316172"
       d="m 53.013549,110.1125 c 1.949647,0.13086 4.471594,0.0899 5.995818,-1.14126 0.212604,1.36721 1.059359,6.0838 0.151224,10.75524 -1.269969,0.49477 -4.167572,1.86254 -5.844976,2.59305 0.318073,-2.8044 0.194441,-9.83174 -0.302066,-12.20703 z"
       id="path1024"
       sodipodi:nodetypes="ccccc" />
    <path
       style="fill:#cd051c;fill-opacity:1;stroke-width:0.316172"
       d="m 64.823687,80.961089 c -0.691603,-0.426482 -3.331744,-2.778337 -4.968452,-3.406975 2.133716,-3.754079 5.146545,-6.343368 7.848529,-8.862485 1.142747,1.7122 2.751706,3.149425 4.428539,4.291624 -4.723554,3.406903 -5.9044,7.748041 -7.308616,7.977836 z"
       id="path1020"
       sodipodi:nodetypes="ccccc" />
    <path
       style="fill:#0c922d;fill-opacity:1;stroke:none;stroke-width:0.316172"
       d="m 26.393198,101.19064 c -0.646086,-1.826133 -1.402021,-4.022147 -1.963863,-5.810196 3.148339,-0.120294 8.762151,1.268661 11.72207,-1.062152 0.309915,2.018264 -0.263891,2.33672 1.105318,5.623418 -4.011778,1.67095 -8.517787,1.79969 -10.863525,1.24893 z"
       id="path1018"
       sodipodi:nodetypes="ccccc" />
    <path
       style="fill:#5c6366;fill-opacity:1;stroke:none;stroke-width:0.268871;stroke-miterlimit:4;stroke-dasharray:none;stroke-opacity:1"
       d="m 70.094976,108.61458 c 1.00954,-2.11043 3.713566,-3.41577 5.087687,-0.91157 l 0.447699,-1.31962 1.307996,0.0425 c -1.398287,6.79502 -2.306471,7.65096 -0.566466,7.24224 l -0.07114,1.17729 c -1.860006,0.64268 -2.148497,-0.0791 -2.495458,-0.95666 -3.758288,3.35722 -5.766831,-0.77379 -3.71032,-5.27422 z m 3.199896,4.61206 c 0.770368,-0.82202 1.45847,-3.66915 1.166374,-4.82609 -0.303451,-1.20191 -1.691461,-1.00653 -2.485226,0.34982 -1.7,2.90491 -0.625694,6.55117 1.318852,4.47627 z m 8.170232,1.59813 c -2.169919,-0.9581 0.58173,-8.45623 0.58173,-8.45623 l 1.916423,0.002 c 0,0 -1.874634,5.97818 -1.237639,6.93958 0.495799,0.74829 1.598954,0.28002 2.102189,-0.69539 0.342418,-0.66369 1.484036,-6.2457 1.484036,-6.2457 h 1.946002 l -1.928701,8.72045 -1.675123,0.0184 c 0,0 0.310263,-0.98378 0.348783,-1.49473 -0.778321,1.48523 -2.188415,1.78775 -3.5377,1.21214 z m 10.72499,-0.70353 c -0.540565,-1.64071 1.043955,-6.27164 1.043955,-6.27164 H 91.9696 l 0.178323,-1.25203 h 1.341717 l 0.493663,-2.14159 1.89384,-0.26195 c -0.291709,1.18653 -0.556459,2.40354 -0.556459,2.40354 h 1.965086 l -0.261461,1.25203 h -1.964655 c -0.09903,0.45292 -2.909996,7.61602 0.716148,5.58902 l 0.01052,1.27862 c -0.31099,0.18406 -3.055703,1.04469 -3.59627,-0.59601 z m 7.612709,0.85559 1.851177,-8.63547 1.52611,0.0105 -0.19275,1.18901 c 0,0 1.06995,-1.22854 2.0406,-1.22817 1.4023,5.5e-4 0.28064,1.96141 0.28064,1.96141 -2.37738,-2.78991 -3.68278,6.72291 -3.68278,6.72291 l -1.822997,-0.0201 z m 8.870727,-0.88508 c -1.31794,-1.36649 -0.53172,-5.3124 1.24929,-6.97568 1.60852,-1.50222 4.91921,-1.07436 4.83628,1.02256 -0.13349,3.85604 -4.69299,3.16363 -4.69299,3.16363 -1.28782,3.45004 3.24268,2.07507 3.24268,2.07507 l -0.11244,1.39792 c -1.37811,0.26557 -3.23717,0.64952 -4.52282,-0.6835 z m 3.67,-4.30582 c 0.88772,-0.77702 0.69917,-1.98852 -0.24922,-2.12934 -0.84115,-0.1249 -1.92633,1.52674 -1.8812,2.47076 0,0 1.50334,0.20747 2.13042,-0.34142 z m 4.80653,5.23441 1.94913,-8.64782 1.41033,-0.0193 0.004,1.09083 c 1.53426,-2.1449 4.15676,-1.06861 4.0709,0.25462 2.0088,-2.55703 4.88847,-1.4349 4.52217,1.3313 -0.48088,2.83939 -1.4199,5.99042 -1.4199,5.99042 h -1.80899 l 0.69361,-2.72113 c 1.19668,-4.69477 0.3293,-4.74285 -0.60369,-4.48568 -1.2608,0.34752 -1.7834,4.06811 -2.49886,7.20681 h -2.0321 c 0.83171,-3.58261 2.31781,-8.19138 0.10592,-7.17744 -1.40316,0.66193 -2.46516,7.17744 -2.46516,7.17744 h -1.92659 z m 24.93714,-0.0308 1.89959,-8.55657 h 1.36227 l -0.20495,1.20891 c 1.3534,-1.82447 3.80632,-1.75002 4.49239,-0.33098 0.68606,1.41904 -1.19733,7.67864 -1.19733,7.67864 h -2.03094 c 0,0 2.28268,-6.8448 0.81859,-7.24071 -1.10084,-0.20752 -2.10516,0.30243 -2.64271,3.98506 -0.37771,2.58765 -0.52067,3.25565 -0.52067,3.25565 z M 53.212262,100.95535 c -9.580684,-0.0764 -9.553871,-0.83631 -9.503896,-7.758678 -0.0031,-6.63633 0.130454,-7.412072 9.503896,-7.353996 8.83241,0.01036 9.142007,0.274031 9.206283,5.363621 -1.165867,-0.06434 -3.112753,0.02899 -4.514791,-0.03894 0.08706,-2.027743 -0.677465,-1.75805 -4.750544,-1.801007 -4.506125,-0.04752 -4.858376,-0.06272 -4.976636,4.058006 -0.107487,3.745382 0.0029,3.784682 5.084125,3.794333 4.557147,0.0089 4.789188,0.241313 4.776709,-2.229548 1.864329,0.03232 2.444468,0 4.381137,0 0.09333,5.855189 -0.489388,6.060239 -9.206283,5.966209 z M 64.123379,85.92036 h 4.756637 v 5.285937 H 79.027511 V 85.92036 h 4.756638 v 14.74307 H 79.027511 V 95.304379 H 68.880016 v 5.359051 h -4.756637 z m 21.417501,7.488528 c -0.03166,-7.331459 -0.03393,-7.490696 10.149167,-7.496327 10.183093,-0.0056 10.115323,-0.13697 10.096483,7.314719 -0.0189,7.45169 -0.40071,7.5875 -10.096483,7.61059 -9.695777,0.023 -10.117513,-0.0975 -10.149167,-7.428982 z m 15.7169,-0.17641 c -0.0224,-3.830631 -0.69555,-3.68103 -5.712463,-3.65249 -5.016915,0.02854 -5.4653,-0.655597 -5.447967,3.594719 0.01733,4.250317 0.723583,3.939358 5.786993,3.985654 5.063407,0.04629 5.395767,-0.09726 5.373437,-3.927883 z m 6.30962,-7.251581 h 4.75663 v 10.899674 h 10.52551 v 3.782859 H 107.5674 Z m 16.36788,0 h 16.29437 v 3.424787 h -11.92837 v 2.115852 h 11.29414 v 3.152374 h -11.29414 v 2.5219 h 11.92837 v 3.46762 h -16.29437 z m 23.58788,3.740017 h -6.49443 v -3.740017 h 17.68459 v 3.740017 h -6.43353 v 10.942516 h -4.75663 z m 6.75454,24.351426 c -0.54056,-1.6407 0.87171,-6.18602 0.87171,-6.18602 h -1.26445 l 0.17832,-1.25202 h 1.34173 l 0.49366,-2.14159 1.89384,-0.26195 c -0.29172,1.18652 -0.55646,2.40354 -0.55646,2.40354 h 1.96509 l -0.26147,1.25202 h -1.96465 c 0,0 -2.64796,7.68539 0.83794,5.58901 l -0.11119,1.27864 c -0.78077,0.56345 -2.88436,0.75601 -3.42407,-0.68163 z m -20.70818,-0.007 c -1.31794,-1.36649 -0.53172,-5.31239 1.24929,-6.97568 1.60852,-1.50221 4.9192,-1.07436 4.83628,1.02257 -0.13349,3.85603 -4.69299,3.16362 -4.69299,3.16362 -1.28782,3.45004 3.24268,2.07507 3.24268,2.07507 l -0.11244,1.39792 c -1.49452,0.38447 -3.23717,0.64952 -4.52282,-0.6835 z m 3.67,-4.30581 c 0.88772,-0.77703 0.69917,-1.98853 -0.24922,-2.12935 -0.84115,-0.12489 -1.92633,1.52675 -1.8812,2.47077 0,0 1.50334,0.20746 2.13042,-0.34142 z"
       id="path1022"
       sodipodi:nodetypes="ccccccccsssscccsscccccccscccccccccccczsccccsccccssccccsssssccccccccsscccccccccczcccscczccssscccczczccccccccczczczzzcczccccccccccccccccccccccccccccccccccccccccccccccsscccccssc" />
  </g>
</svg>
